%TF.GenerationSoftware,KiCad,Pcbnew,9.0.1*%
%TF.CreationDate,2025-06-02T14:00:33-06:00*%
%TF.ProjectId,PABA-DP,50414241-2d44-4502-9e6b-696361645f70,rev?*%
%TF.SameCoordinates,Original*%
%TF.FileFunction,Drillmap*%
%TF.FilePolarity,Positive*%
%FSLAX45Y45*%
G04 Gerber Fmt 4.5, Leading zero omitted, Abs format (unit mm)*
G04 Created by KiCad (PCBNEW 9.0.1) date 2025-06-02 14:00:33*
%MOMM*%
%LPD*%
G01*
G04 APERTURE LIST*
%ADD10C,0.050000*%
%ADD11C,0.200000*%
%ADD12C,0.317500*%
G04 APERTURE END LIST*
D10*
X5047056Y-1981292D02*
X16352596Y-1981292D01*
X16352596Y-17220149D01*
X5047056Y-17220149D01*
X5047056Y-1981292D01*
D11*
D12*
X6257966Y-10230579D02*
X6575466Y-10548079D01*
X6575466Y-10230579D02*
X6257966Y-10548079D01*
X6258666Y-15131028D02*
X6576166Y-15448528D01*
X6576166Y-15131028D02*
X6258666Y-15448528D01*
X12057414Y-15129578D02*
X12374914Y-15447078D01*
X12374914Y-15129578D02*
X12057414Y-15447078D01*
X12059114Y-10228854D02*
X12376614Y-10546354D01*
X12376614Y-10228854D02*
X12059114Y-10546354D01*
D11*
X5305333Y-17534133D02*
X5305333Y-17334133D01*
X5305333Y-17334133D02*
X5352952Y-17334133D01*
X5352952Y-17334133D02*
X5381523Y-17343657D01*
X5381523Y-17343657D02*
X5400571Y-17362704D01*
X5400571Y-17362704D02*
X5410094Y-17381752D01*
X5410094Y-17381752D02*
X5419618Y-17419847D01*
X5419618Y-17419847D02*
X5419618Y-17448418D01*
X5419618Y-17448418D02*
X5410094Y-17486514D01*
X5410094Y-17486514D02*
X5400571Y-17505561D01*
X5400571Y-17505561D02*
X5381523Y-17524609D01*
X5381523Y-17524609D02*
X5352952Y-17534133D01*
X5352952Y-17534133D02*
X5305333Y-17534133D01*
X5505333Y-17534133D02*
X5505333Y-17400799D01*
X5505333Y-17438895D02*
X5514856Y-17419847D01*
X5514856Y-17419847D02*
X5524380Y-17410323D01*
X5524380Y-17410323D02*
X5543428Y-17400799D01*
X5543428Y-17400799D02*
X5562475Y-17400799D01*
X5629142Y-17534133D02*
X5629142Y-17400799D01*
X5629142Y-17334133D02*
X5619618Y-17343657D01*
X5619618Y-17343657D02*
X5629142Y-17353180D01*
X5629142Y-17353180D02*
X5638666Y-17343657D01*
X5638666Y-17343657D02*
X5629142Y-17334133D01*
X5629142Y-17334133D02*
X5629142Y-17353180D01*
X5752951Y-17534133D02*
X5733904Y-17524609D01*
X5733904Y-17524609D02*
X5724380Y-17505561D01*
X5724380Y-17505561D02*
X5724380Y-17334133D01*
X5857713Y-17534133D02*
X5838666Y-17524609D01*
X5838666Y-17524609D02*
X5829142Y-17505561D01*
X5829142Y-17505561D02*
X5829142Y-17334133D01*
X6086285Y-17534133D02*
X6086285Y-17334133D01*
X6086285Y-17334133D02*
X6152952Y-17476990D01*
X6152952Y-17476990D02*
X6219618Y-17334133D01*
X6219618Y-17334133D02*
X6219618Y-17534133D01*
X6400571Y-17534133D02*
X6400571Y-17429371D01*
X6400571Y-17429371D02*
X6391047Y-17410323D01*
X6391047Y-17410323D02*
X6371999Y-17400799D01*
X6371999Y-17400799D02*
X6333904Y-17400799D01*
X6333904Y-17400799D02*
X6314856Y-17410323D01*
X6400571Y-17524609D02*
X6381523Y-17534133D01*
X6381523Y-17534133D02*
X6333904Y-17534133D01*
X6333904Y-17534133D02*
X6314856Y-17524609D01*
X6314856Y-17524609D02*
X6305332Y-17505561D01*
X6305332Y-17505561D02*
X6305332Y-17486514D01*
X6305332Y-17486514D02*
X6314856Y-17467466D01*
X6314856Y-17467466D02*
X6333904Y-17457942D01*
X6333904Y-17457942D02*
X6381523Y-17457942D01*
X6381523Y-17457942D02*
X6400571Y-17448418D01*
X6495809Y-17400799D02*
X6495809Y-17600799D01*
X6495809Y-17410323D02*
X6514856Y-17400799D01*
X6514856Y-17400799D02*
X6552952Y-17400799D01*
X6552952Y-17400799D02*
X6571999Y-17410323D01*
X6571999Y-17410323D02*
X6581523Y-17419847D01*
X6581523Y-17419847D02*
X6591047Y-17438895D01*
X6591047Y-17438895D02*
X6591047Y-17496037D01*
X6591047Y-17496037D02*
X6581523Y-17515085D01*
X6581523Y-17515085D02*
X6571999Y-17524609D01*
X6571999Y-17524609D02*
X6552952Y-17534133D01*
X6552952Y-17534133D02*
X6514856Y-17534133D01*
X6514856Y-17534133D02*
X6495809Y-17524609D01*
X6676761Y-17515085D02*
X6686285Y-17524609D01*
X6686285Y-17524609D02*
X6676761Y-17534133D01*
X6676761Y-17534133D02*
X6667237Y-17524609D01*
X6667237Y-17524609D02*
X6676761Y-17515085D01*
X6676761Y-17515085D02*
X6676761Y-17534133D01*
X6676761Y-17410323D02*
X6686285Y-17419847D01*
X6686285Y-17419847D02*
X6676761Y-17429371D01*
X6676761Y-17429371D02*
X6667237Y-17419847D01*
X6667237Y-17419847D02*
X6676761Y-17410323D01*
X6676761Y-17410323D02*
X6676761Y-17429371D01*
X4844556Y-17762649D02*
X5044556Y-17962649D01*
X5044556Y-17762649D02*
X4844556Y-17962649D01*
X5286285Y-17754133D02*
X5410094Y-17754133D01*
X5410094Y-17754133D02*
X5343428Y-17830323D01*
X5343428Y-17830323D02*
X5371999Y-17830323D01*
X5371999Y-17830323D02*
X5391047Y-17839847D01*
X5391047Y-17839847D02*
X5400571Y-17849371D01*
X5400571Y-17849371D02*
X5410094Y-17868418D01*
X5410094Y-17868418D02*
X5410094Y-17916037D01*
X5410094Y-17916037D02*
X5400571Y-17935085D01*
X5400571Y-17935085D02*
X5391047Y-17944609D01*
X5391047Y-17944609D02*
X5371999Y-17954133D01*
X5371999Y-17954133D02*
X5314856Y-17954133D01*
X5314856Y-17954133D02*
X5295809Y-17944609D01*
X5295809Y-17944609D02*
X5286285Y-17935085D01*
X5495809Y-17935085D02*
X5505333Y-17944609D01*
X5505333Y-17944609D02*
X5495809Y-17954133D01*
X5495809Y-17954133D02*
X5486285Y-17944609D01*
X5486285Y-17944609D02*
X5495809Y-17935085D01*
X5495809Y-17935085D02*
X5495809Y-17954133D01*
X5695809Y-17954133D02*
X5581523Y-17954133D01*
X5638666Y-17954133D02*
X5638666Y-17754133D01*
X5638666Y-17754133D02*
X5619618Y-17782704D01*
X5619618Y-17782704D02*
X5600571Y-17801752D01*
X5600571Y-17801752D02*
X5581523Y-17811276D01*
X5762475Y-17754133D02*
X5895809Y-17754133D01*
X5895809Y-17754133D02*
X5810094Y-17954133D01*
X6067237Y-17754133D02*
X5971999Y-17754133D01*
X5971999Y-17754133D02*
X5962475Y-17849371D01*
X5962475Y-17849371D02*
X5971999Y-17839847D01*
X5971999Y-17839847D02*
X5991047Y-17830323D01*
X5991047Y-17830323D02*
X6038666Y-17830323D01*
X6038666Y-17830323D02*
X6057713Y-17839847D01*
X6057713Y-17839847D02*
X6067237Y-17849371D01*
X6067237Y-17849371D02*
X6076761Y-17868418D01*
X6076761Y-17868418D02*
X6076761Y-17916037D01*
X6076761Y-17916037D02*
X6067237Y-17935085D01*
X6067237Y-17935085D02*
X6057713Y-17944609D01*
X6057713Y-17944609D02*
X6038666Y-17954133D01*
X6038666Y-17954133D02*
X5991047Y-17954133D01*
X5991047Y-17954133D02*
X5971999Y-17944609D01*
X5971999Y-17944609D02*
X5962475Y-17935085D01*
X6162475Y-17954133D02*
X6162475Y-17820799D01*
X6162475Y-17839847D02*
X6171999Y-17830323D01*
X6171999Y-17830323D02*
X6191047Y-17820799D01*
X6191047Y-17820799D02*
X6219618Y-17820799D01*
X6219618Y-17820799D02*
X6238666Y-17830323D01*
X6238666Y-17830323D02*
X6248190Y-17849371D01*
X6248190Y-17849371D02*
X6248190Y-17954133D01*
X6248190Y-17849371D02*
X6257713Y-17830323D01*
X6257713Y-17830323D02*
X6276761Y-17820799D01*
X6276761Y-17820799D02*
X6305332Y-17820799D01*
X6305332Y-17820799D02*
X6324380Y-17830323D01*
X6324380Y-17830323D02*
X6333904Y-17849371D01*
X6333904Y-17849371D02*
X6333904Y-17954133D01*
X6429142Y-17954133D02*
X6429142Y-17820799D01*
X6429142Y-17839847D02*
X6438666Y-17830323D01*
X6438666Y-17830323D02*
X6457713Y-17820799D01*
X6457713Y-17820799D02*
X6486285Y-17820799D01*
X6486285Y-17820799D02*
X6505333Y-17830323D01*
X6505333Y-17830323D02*
X6514856Y-17849371D01*
X6514856Y-17849371D02*
X6514856Y-17954133D01*
X6514856Y-17849371D02*
X6524380Y-17830323D01*
X6524380Y-17830323D02*
X6543428Y-17820799D01*
X6543428Y-17820799D02*
X6571999Y-17820799D01*
X6571999Y-17820799D02*
X6591047Y-17830323D01*
X6591047Y-17830323D02*
X6600571Y-17849371D01*
X6600571Y-17849371D02*
X6600571Y-17954133D01*
X6991047Y-17744609D02*
X6819618Y-18001752D01*
X7248190Y-17754133D02*
X7267237Y-17754133D01*
X7267237Y-17754133D02*
X7286285Y-17763657D01*
X7286285Y-17763657D02*
X7295809Y-17773180D01*
X7295809Y-17773180D02*
X7305333Y-17792228D01*
X7305333Y-17792228D02*
X7314856Y-17830323D01*
X7314856Y-17830323D02*
X7314856Y-17877942D01*
X7314856Y-17877942D02*
X7305333Y-17916037D01*
X7305333Y-17916037D02*
X7295809Y-17935085D01*
X7295809Y-17935085D02*
X7286285Y-17944609D01*
X7286285Y-17944609D02*
X7267237Y-17954133D01*
X7267237Y-17954133D02*
X7248190Y-17954133D01*
X7248190Y-17954133D02*
X7229142Y-17944609D01*
X7229142Y-17944609D02*
X7219618Y-17935085D01*
X7219618Y-17935085D02*
X7210095Y-17916037D01*
X7210095Y-17916037D02*
X7200571Y-17877942D01*
X7200571Y-17877942D02*
X7200571Y-17830323D01*
X7200571Y-17830323D02*
X7210095Y-17792228D01*
X7210095Y-17792228D02*
X7219618Y-17773180D01*
X7219618Y-17773180D02*
X7229142Y-17763657D01*
X7229142Y-17763657D02*
X7248190Y-17754133D01*
X7400571Y-17935085D02*
X7410095Y-17944609D01*
X7410095Y-17944609D02*
X7400571Y-17954133D01*
X7400571Y-17954133D02*
X7391047Y-17944609D01*
X7391047Y-17944609D02*
X7400571Y-17935085D01*
X7400571Y-17935085D02*
X7400571Y-17954133D01*
X7600571Y-17954133D02*
X7486285Y-17954133D01*
X7543428Y-17954133D02*
X7543428Y-17754133D01*
X7543428Y-17754133D02*
X7524380Y-17782704D01*
X7524380Y-17782704D02*
X7505333Y-17801752D01*
X7505333Y-17801752D02*
X7486285Y-17811276D01*
X7676761Y-17773180D02*
X7686285Y-17763657D01*
X7686285Y-17763657D02*
X7705333Y-17754133D01*
X7705333Y-17754133D02*
X7752952Y-17754133D01*
X7752952Y-17754133D02*
X7771999Y-17763657D01*
X7771999Y-17763657D02*
X7781523Y-17773180D01*
X7781523Y-17773180D02*
X7791047Y-17792228D01*
X7791047Y-17792228D02*
X7791047Y-17811276D01*
X7791047Y-17811276D02*
X7781523Y-17839847D01*
X7781523Y-17839847D02*
X7667237Y-17954133D01*
X7667237Y-17954133D02*
X7791047Y-17954133D01*
X7971999Y-17754133D02*
X7876761Y-17754133D01*
X7876761Y-17754133D02*
X7867237Y-17849371D01*
X7867237Y-17849371D02*
X7876761Y-17839847D01*
X7876761Y-17839847D02*
X7895809Y-17830323D01*
X7895809Y-17830323D02*
X7943428Y-17830323D01*
X7943428Y-17830323D02*
X7962476Y-17839847D01*
X7962476Y-17839847D02*
X7971999Y-17849371D01*
X7971999Y-17849371D02*
X7981523Y-17868418D01*
X7981523Y-17868418D02*
X7981523Y-17916037D01*
X7981523Y-17916037D02*
X7971999Y-17935085D01*
X7971999Y-17935085D02*
X7962476Y-17944609D01*
X7962476Y-17944609D02*
X7943428Y-17954133D01*
X7943428Y-17954133D02*
X7895809Y-17954133D01*
X7895809Y-17954133D02*
X7876761Y-17944609D01*
X7876761Y-17944609D02*
X7867237Y-17935085D01*
X8105333Y-17754133D02*
X8124380Y-17754133D01*
X8124380Y-17754133D02*
X8143428Y-17763657D01*
X8143428Y-17763657D02*
X8152952Y-17773180D01*
X8152952Y-17773180D02*
X8162476Y-17792228D01*
X8162476Y-17792228D02*
X8171999Y-17830323D01*
X8171999Y-17830323D02*
X8171999Y-17877942D01*
X8171999Y-17877942D02*
X8162476Y-17916037D01*
X8162476Y-17916037D02*
X8152952Y-17935085D01*
X8152952Y-17935085D02*
X8143428Y-17944609D01*
X8143428Y-17944609D02*
X8124380Y-17954133D01*
X8124380Y-17954133D02*
X8105333Y-17954133D01*
X8105333Y-17954133D02*
X8086285Y-17944609D01*
X8086285Y-17944609D02*
X8076761Y-17935085D01*
X8076761Y-17935085D02*
X8067237Y-17916037D01*
X8067237Y-17916037D02*
X8057714Y-17877942D01*
X8057714Y-17877942D02*
X8057714Y-17830323D01*
X8057714Y-17830323D02*
X8067237Y-17792228D01*
X8067237Y-17792228D02*
X8076761Y-17773180D01*
X8076761Y-17773180D02*
X8086285Y-17763657D01*
X8086285Y-17763657D02*
X8105333Y-17754133D01*
X8248190Y-17754133D02*
X8248190Y-17792228D01*
X8324380Y-17754133D02*
X8324380Y-17792228D01*
X8619619Y-18030323D02*
X8610095Y-18020799D01*
X8610095Y-18020799D02*
X8591047Y-17992228D01*
X8591047Y-17992228D02*
X8581523Y-17973180D01*
X8581523Y-17973180D02*
X8572000Y-17944609D01*
X8572000Y-17944609D02*
X8562476Y-17896990D01*
X8562476Y-17896990D02*
X8562476Y-17858895D01*
X8562476Y-17858895D02*
X8572000Y-17811276D01*
X8572000Y-17811276D02*
X8581523Y-17782704D01*
X8581523Y-17782704D02*
X8591047Y-17763657D01*
X8591047Y-17763657D02*
X8610095Y-17735085D01*
X8610095Y-17735085D02*
X8619619Y-17725561D01*
X8781523Y-17820799D02*
X8781523Y-17954133D01*
X8733904Y-17744609D02*
X8686285Y-17887466D01*
X8686285Y-17887466D02*
X8810095Y-17887466D01*
X9038666Y-17954133D02*
X9038666Y-17754133D01*
X9124381Y-17954133D02*
X9124381Y-17849371D01*
X9124381Y-17849371D02*
X9114857Y-17830323D01*
X9114857Y-17830323D02*
X9095809Y-17820799D01*
X9095809Y-17820799D02*
X9067238Y-17820799D01*
X9067238Y-17820799D02*
X9048190Y-17830323D01*
X9048190Y-17830323D02*
X9038666Y-17839847D01*
X9248190Y-17954133D02*
X9229142Y-17944609D01*
X9229142Y-17944609D02*
X9219619Y-17935085D01*
X9219619Y-17935085D02*
X9210095Y-17916037D01*
X9210095Y-17916037D02*
X9210095Y-17858895D01*
X9210095Y-17858895D02*
X9219619Y-17839847D01*
X9219619Y-17839847D02*
X9229142Y-17830323D01*
X9229142Y-17830323D02*
X9248190Y-17820799D01*
X9248190Y-17820799D02*
X9276762Y-17820799D01*
X9276762Y-17820799D02*
X9295809Y-17830323D01*
X9295809Y-17830323D02*
X9305333Y-17839847D01*
X9305333Y-17839847D02*
X9314857Y-17858895D01*
X9314857Y-17858895D02*
X9314857Y-17916037D01*
X9314857Y-17916037D02*
X9305333Y-17935085D01*
X9305333Y-17935085D02*
X9295809Y-17944609D01*
X9295809Y-17944609D02*
X9276762Y-17954133D01*
X9276762Y-17954133D02*
X9248190Y-17954133D01*
X9429142Y-17954133D02*
X9410095Y-17944609D01*
X9410095Y-17944609D02*
X9400571Y-17925561D01*
X9400571Y-17925561D02*
X9400571Y-17754133D01*
X9581523Y-17944609D02*
X9562476Y-17954133D01*
X9562476Y-17954133D02*
X9524381Y-17954133D01*
X9524381Y-17954133D02*
X9505333Y-17944609D01*
X9505333Y-17944609D02*
X9495809Y-17925561D01*
X9495809Y-17925561D02*
X9495809Y-17849371D01*
X9495809Y-17849371D02*
X9505333Y-17830323D01*
X9505333Y-17830323D02*
X9524381Y-17820799D01*
X9524381Y-17820799D02*
X9562476Y-17820799D01*
X9562476Y-17820799D02*
X9581523Y-17830323D01*
X9581523Y-17830323D02*
X9591047Y-17849371D01*
X9591047Y-17849371D02*
X9591047Y-17868418D01*
X9591047Y-17868418D02*
X9495809Y-17887466D01*
X9667238Y-17944609D02*
X9686285Y-17954133D01*
X9686285Y-17954133D02*
X9724381Y-17954133D01*
X9724381Y-17954133D02*
X9743428Y-17944609D01*
X9743428Y-17944609D02*
X9752952Y-17925561D01*
X9752952Y-17925561D02*
X9752952Y-17916037D01*
X9752952Y-17916037D02*
X9743428Y-17896990D01*
X9743428Y-17896990D02*
X9724381Y-17887466D01*
X9724381Y-17887466D02*
X9695809Y-17887466D01*
X9695809Y-17887466D02*
X9676762Y-17877942D01*
X9676762Y-17877942D02*
X9667238Y-17858895D01*
X9667238Y-17858895D02*
X9667238Y-17849371D01*
X9667238Y-17849371D02*
X9676762Y-17830323D01*
X9676762Y-17830323D02*
X9695809Y-17820799D01*
X9695809Y-17820799D02*
X9724381Y-17820799D01*
X9724381Y-17820799D02*
X9743428Y-17830323D01*
X9819619Y-18030323D02*
X9829143Y-18020799D01*
X9829143Y-18020799D02*
X9848190Y-17992228D01*
X9848190Y-17992228D02*
X9857714Y-17973180D01*
X9857714Y-17973180D02*
X9867238Y-17944609D01*
X9867238Y-17944609D02*
X9876762Y-17896990D01*
X9876762Y-17896990D02*
X9876762Y-17858895D01*
X9876762Y-17858895D02*
X9867238Y-17811276D01*
X9867238Y-17811276D02*
X9857714Y-17782704D01*
X9857714Y-17782704D02*
X9848190Y-17763657D01*
X9848190Y-17763657D02*
X9829143Y-17735085D01*
X9829143Y-17735085D02*
X9819619Y-17725561D01*
X10181524Y-18030323D02*
X10172000Y-18020799D01*
X10172000Y-18020799D02*
X10152952Y-17992228D01*
X10152952Y-17992228D02*
X10143428Y-17973180D01*
X10143428Y-17973180D02*
X10133904Y-17944609D01*
X10133904Y-17944609D02*
X10124381Y-17896990D01*
X10124381Y-17896990D02*
X10124381Y-17858895D01*
X10124381Y-17858895D02*
X10133904Y-17811276D01*
X10133904Y-17811276D02*
X10143428Y-17782704D01*
X10143428Y-17782704D02*
X10152952Y-17763657D01*
X10152952Y-17763657D02*
X10172000Y-17735085D01*
X10172000Y-17735085D02*
X10181524Y-17725561D01*
X10257714Y-17820799D02*
X10257714Y-17954133D01*
X10257714Y-17839847D02*
X10267238Y-17830323D01*
X10267238Y-17830323D02*
X10286285Y-17820799D01*
X10286285Y-17820799D02*
X10314857Y-17820799D01*
X10314857Y-17820799D02*
X10333904Y-17830323D01*
X10333904Y-17830323D02*
X10343428Y-17849371D01*
X10343428Y-17849371D02*
X10343428Y-17954133D01*
X10467238Y-17954133D02*
X10448190Y-17944609D01*
X10448190Y-17944609D02*
X10438666Y-17935085D01*
X10438666Y-17935085D02*
X10429143Y-17916037D01*
X10429143Y-17916037D02*
X10429143Y-17858895D01*
X10429143Y-17858895D02*
X10438666Y-17839847D01*
X10438666Y-17839847D02*
X10448190Y-17830323D01*
X10448190Y-17830323D02*
X10467238Y-17820799D01*
X10467238Y-17820799D02*
X10495809Y-17820799D01*
X10495809Y-17820799D02*
X10514857Y-17830323D01*
X10514857Y-17830323D02*
X10524381Y-17839847D01*
X10524381Y-17839847D02*
X10533904Y-17858895D01*
X10533904Y-17858895D02*
X10533904Y-17916037D01*
X10533904Y-17916037D02*
X10524381Y-17935085D01*
X10524381Y-17935085D02*
X10514857Y-17944609D01*
X10514857Y-17944609D02*
X10495809Y-17954133D01*
X10495809Y-17954133D02*
X10467238Y-17954133D01*
X10591047Y-17820799D02*
X10667238Y-17820799D01*
X10619619Y-17754133D02*
X10619619Y-17925561D01*
X10619619Y-17925561D02*
X10629143Y-17944609D01*
X10629143Y-17944609D02*
X10648190Y-17954133D01*
X10648190Y-17954133D02*
X10667238Y-17954133D01*
X10886285Y-17820799D02*
X10886285Y-18020799D01*
X10886285Y-17830323D02*
X10905333Y-17820799D01*
X10905333Y-17820799D02*
X10943428Y-17820799D01*
X10943428Y-17820799D02*
X10962476Y-17830323D01*
X10962476Y-17830323D02*
X10972000Y-17839847D01*
X10972000Y-17839847D02*
X10981524Y-17858895D01*
X10981524Y-17858895D02*
X10981524Y-17916037D01*
X10981524Y-17916037D02*
X10972000Y-17935085D01*
X10972000Y-17935085D02*
X10962476Y-17944609D01*
X10962476Y-17944609D02*
X10943428Y-17954133D01*
X10943428Y-17954133D02*
X10905333Y-17954133D01*
X10905333Y-17954133D02*
X10886285Y-17944609D01*
X11095809Y-17954133D02*
X11076762Y-17944609D01*
X11076762Y-17944609D02*
X11067238Y-17925561D01*
X11067238Y-17925561D02*
X11067238Y-17754133D01*
X11257714Y-17954133D02*
X11257714Y-17849371D01*
X11257714Y-17849371D02*
X11248190Y-17830323D01*
X11248190Y-17830323D02*
X11229143Y-17820799D01*
X11229143Y-17820799D02*
X11191047Y-17820799D01*
X11191047Y-17820799D02*
X11172000Y-17830323D01*
X11257714Y-17944609D02*
X11238666Y-17954133D01*
X11238666Y-17954133D02*
X11191047Y-17954133D01*
X11191047Y-17954133D02*
X11172000Y-17944609D01*
X11172000Y-17944609D02*
X11162476Y-17925561D01*
X11162476Y-17925561D02*
X11162476Y-17906514D01*
X11162476Y-17906514D02*
X11172000Y-17887466D01*
X11172000Y-17887466D02*
X11191047Y-17877942D01*
X11191047Y-17877942D02*
X11238666Y-17877942D01*
X11238666Y-17877942D02*
X11257714Y-17868418D01*
X11324381Y-17820799D02*
X11400571Y-17820799D01*
X11352952Y-17754133D02*
X11352952Y-17925561D01*
X11352952Y-17925561D02*
X11362476Y-17944609D01*
X11362476Y-17944609D02*
X11381523Y-17954133D01*
X11381523Y-17954133D02*
X11400571Y-17954133D01*
X11543428Y-17944609D02*
X11524381Y-17954133D01*
X11524381Y-17954133D02*
X11486285Y-17954133D01*
X11486285Y-17954133D02*
X11467238Y-17944609D01*
X11467238Y-17944609D02*
X11457714Y-17925561D01*
X11457714Y-17925561D02*
X11457714Y-17849371D01*
X11457714Y-17849371D02*
X11467238Y-17830323D01*
X11467238Y-17830323D02*
X11486285Y-17820799D01*
X11486285Y-17820799D02*
X11524381Y-17820799D01*
X11524381Y-17820799D02*
X11543428Y-17830323D01*
X11543428Y-17830323D02*
X11552952Y-17849371D01*
X11552952Y-17849371D02*
X11552952Y-17868418D01*
X11552952Y-17868418D02*
X11457714Y-17887466D01*
X11724381Y-17954133D02*
X11724381Y-17754133D01*
X11724381Y-17944609D02*
X11705333Y-17954133D01*
X11705333Y-17954133D02*
X11667238Y-17954133D01*
X11667238Y-17954133D02*
X11648190Y-17944609D01*
X11648190Y-17944609D02*
X11638666Y-17935085D01*
X11638666Y-17935085D02*
X11629143Y-17916037D01*
X11629143Y-17916037D02*
X11629143Y-17858895D01*
X11629143Y-17858895D02*
X11638666Y-17839847D01*
X11638666Y-17839847D02*
X11648190Y-17830323D01*
X11648190Y-17830323D02*
X11667238Y-17820799D01*
X11667238Y-17820799D02*
X11705333Y-17820799D01*
X11705333Y-17820799D02*
X11724381Y-17830323D01*
X11800571Y-18030323D02*
X11810095Y-18020799D01*
X11810095Y-18020799D02*
X11829143Y-17992228D01*
X11829143Y-17992228D02*
X11838666Y-17973180D01*
X11838666Y-17973180D02*
X11848190Y-17944609D01*
X11848190Y-17944609D02*
X11857714Y-17896990D01*
X11857714Y-17896990D02*
X11857714Y-17858895D01*
X11857714Y-17858895D02*
X11848190Y-17811276D01*
X11848190Y-17811276D02*
X11838666Y-17782704D01*
X11838666Y-17782704D02*
X11829143Y-17763657D01*
X11829143Y-17763657D02*
X11810095Y-17735085D01*
X11810095Y-17735085D02*
X11800571Y-17725561D01*
M02*
