M48
; DRILL file {KiCad 9.0.1} date 2025-06-02T13:59:14-0600
; FORMAT={-:-/ absolute / metric / decimal}
; #@! TF.CreationDate,2025-06-02T13:59:14-06:00
; #@! TF.GenerationSoftware,Kicad,Pcbnew,9.0.1
; #@! TF.FileFunction,Plated,1,2,Blind
FMAT,2
METRIC
; #@! TA.AperFunction,Plated,Buried,ViaDrill
T1C0.127
; #@! TA.AperFunction,Plated,Buried,ViaDrill
T2C0.203
%
G90
G05
T1
X74.699Y-112.348
X74.699Y-112.848
X74.699Y-113.848
X74.699Y-114.848
X74.699Y-115.348
X74.699Y-115.849
X74.699Y-116.849
X74.699Y-117.849
X74.699Y-118.348
X75.199Y-112.348
X75.199Y-112.848
X75.199Y-113.348
X75.199Y-113.848
X75.199Y-114.348
X75.199Y-114.848
X75.199Y-115.348
X75.199Y-115.849
X75.199Y-116.348
X75.199Y-116.849
X75.199Y-117.348
X75.199Y-117.849
X75.199Y-118.348
X75.699Y-117.849
X76.199Y-117.849
X76.699Y-117.849
X77.199Y-112.348
X77.199Y-117.849
X77.199Y-118.348
X77.699Y-112.348
X77.699Y-112.848
X77.699Y-117.849
X78.199Y-117.849
X78.199Y-118.348
X80.199Y-112.848
X80.199Y-113.348
X80.199Y-113.848
X80.199Y-114.348
X80.199Y-114.848
X80.199Y-115.348
X80.199Y-115.849
X80.199Y-116.348
X80.199Y-116.849
X80.199Y-117.348
X80.199Y-117.849
X80.199Y-118.348
X80.699Y-112.348
X80.699Y-112.848
X80.699Y-113.848
X80.699Y-115.849
X80.699Y-116.849
X80.699Y-117.849
X80.699Y-118.348
X130.59Y-112.348
X130.59Y-112.848
X130.59Y-113.848
X130.59Y-115.348
X130.59Y-115.849
X130.59Y-116.849
X130.59Y-117.849
X130.59Y-118.348
X131.089Y-112.348
X131.089Y-112.848
X131.089Y-113.348
X131.089Y-113.848
X131.089Y-114.348
X131.089Y-114.848
X131.089Y-115.348
X131.089Y-115.849
X131.089Y-116.348
X131.089Y-116.849
X131.089Y-117.849
X131.089Y-118.348
X131.59Y-117.849
X132.089Y-117.849
X132.59Y-117.849
X133.089Y-112.348
X133.089Y-117.849
X133.089Y-118.348
X133.59Y-112.348
X133.59Y-112.848
X133.59Y-117.849
X134.09Y-117.849
X134.09Y-118.348
X136.09Y-112.848
X136.09Y-113.348
X136.09Y-114.848
X136.09Y-115.348
X136.09Y-115.849
X136.09Y-116.348
X136.09Y-116.849
X136.09Y-117.348
X136.09Y-117.849
X136.09Y-118.348
X136.59Y-112.348
X136.59Y-112.848
X136.59Y-114.848
X136.59Y-115.348
X136.59Y-115.849
X136.59Y-116.849
X136.59Y-117.849
X136.59Y-118.348
X142.287Y-152.527
X142.731Y-152.533
T2
X55.142Y-95.456
X55.146Y-98.071
X55.152Y-96.505
X55.152Y-97.013
X55.152Y-97.521
X55.162Y-95.93
X55.203Y-94.951
X55.29Y-98.669
X55.333Y-94.456
X55.487Y-99.09
X55.562Y-93.998
X55.654Y-97.817
X55.654Y-98.325
X55.66Y-96.251
X55.66Y-96.759
X55.66Y-97.267
X55.67Y-95.676
X55.677Y-95.154
X55.757Y-99.811
X55.757Y-100.221
X55.77Y-94.658
X55.771Y-100.631
X55.778Y-99.397
X55.796Y-101.038
X55.823Y-93.594
X55.84Y-101.465
X55.852Y-102.284
X55.852Y-102.691
X55.852Y-103.097
X55.852Y-103.503
X55.852Y-103.91
X55.852Y-104.316
X55.852Y-104.723
X55.852Y-105.129
X55.852Y-105.535
X55.852Y-105.942
X55.852Y-106.348
X55.852Y-106.755
X55.852Y-107.161
X55.852Y-107.567
X55.852Y-107.974
X55.852Y-108.38
X55.852Y-108.787
X55.852Y-109.193
X55.852Y-109.599
X55.852Y-110.006
X55.852Y-110.412
X55.852Y-110.819
X55.852Y-111.225
X55.852Y-111.631
X55.852Y-112.038
X55.852Y-112.444
X55.854Y-101.878
X55.857Y-113.272
X55.868Y-98.745
X55.874Y-112.859
X55.901Y-113.716
X55.983Y-94.195
X55.987Y-114.154
X56.1Y-93.21
X56.1Y-97.965
X56.106Y-96.962
X56.107Y-97.453
X56.116Y-114.581
X56.132Y-100.041
X56.134Y-100.444
X56.15Y-99.634
X56.162Y-100.849
X56.206Y-101.253
X56.224Y-99.232
X56.253Y-101.66
X56.255Y-102.083
X56.258Y-113.049
X56.258Y-102.487
X56.258Y-102.894
X56.258Y-103.3
X56.258Y-103.707
X56.258Y-104.113
X56.258Y-104.519
X56.258Y-104.926
X56.258Y-105.332
X56.258Y-105.739
X56.258Y-106.145
X56.258Y-106.551
X56.258Y-106.958
X56.258Y-107.364
X56.258Y-107.771
X56.258Y-108.177
X56.258Y-108.583
X56.258Y-108.99
X56.258Y-109.396
X56.258Y-109.803
X56.258Y-110.209
X56.258Y-110.615
X56.258Y-111.022
X56.258Y-111.428
X56.258Y-111.835
X56.258Y-112.241
X56.258Y-112.647
X56.26Y-93.801
X56.278Y-113.455
X56.286Y-114.993
X56.337Y-113.857
X56.435Y-114.251
X56.441Y-92.88
X56.481Y-115.387
X56.552Y-97.956
X56.555Y-97.455
X56.572Y-114.634
X56.591Y-93.48
X56.73Y-115.759
X56.74Y-115.0
X56.771Y-92.582
X56.941Y-115.351
X56.951Y-93.121
X56.997Y-97.455
X56.997Y-97.932
X57.012Y-116.105
X57.13Y-92.223
X57.182Y-115.678
X57.276Y-101.772
X57.276Y-102.178
X57.276Y-102.585
X57.276Y-102.991
X57.276Y-103.397
X57.276Y-103.804
X57.276Y-104.21
X57.276Y-104.617
X57.276Y-105.023
X57.276Y-105.429
X57.276Y-105.836
X57.276Y-106.242
X57.276Y-106.649
X57.276Y-107.055
X57.276Y-107.461
X57.276Y-107.868
X57.276Y-108.274
X57.276Y-108.681
X57.276Y-109.087
X57.276Y-109.493
X57.276Y-109.9
X57.276Y-110.306
X57.276Y-110.713
X57.276Y-111.119
X57.276Y-111.525
X57.276Y-111.932
X57.276Y-112.338
X57.276Y-112.745
X57.278Y-113.151
X57.31Y-92.761
X57.311Y-101.365
X57.312Y-99.337
X57.317Y-113.555
X57.32Y-116.418
X57.358Y-100.959
X57.404Y-100.149
X57.408Y-100.556
X57.408Y-99.742
X57.408Y-113.952
X57.454Y-115.98
X57.463Y-97.472
X57.463Y-97.95
X57.49Y-91.863
X57.55Y-114.332
X57.657Y-116.704
X57.662Y-112.933
X57.669Y-92.402
X57.682Y-101.569
X57.682Y-101.975
X57.682Y-102.381
X57.682Y-102.788
X57.682Y-103.194
X57.682Y-103.601
X57.682Y-104.007
X57.682Y-104.413
X57.682Y-104.82
X57.682Y-105.226
X57.682Y-105.633
X57.682Y-106.039
X57.682Y-106.445
X57.682Y-106.852
X57.682Y-107.258
X57.682Y-107.665
X57.682Y-108.071
X57.682Y-108.477
X57.682Y-108.884
X57.682Y-109.29
X57.682Y-109.697
X57.682Y-110.103
X57.682Y-110.509
X57.682Y-110.916
X57.682Y-111.322
X57.682Y-111.729
X57.682Y-112.135
X57.682Y-112.541
X57.695Y-113.314
X57.719Y-101.164
X57.739Y-114.692
X57.749Y-116.259
X57.752Y-113.664
X57.754Y-100.763
X57.77Y-100.36
X57.773Y-99.95
X57.846Y-95.74
X57.849Y-91.504
X57.854Y-114.003
X57.935Y-97.451
X57.935Y-97.929
X57.956Y-95.204
X57.973Y-115.024
X57.998Y-116.973
X57.998Y-114.326
X58.028Y-92.043
X58.062Y-88.064
X58.073Y-88.597
X58.076Y-116.523
X58.084Y-87.478
X58.086Y-86.97
X58.127Y-86.464
X58.183Y-114.628
X58.208Y-85.962
X58.248Y-115.324
X58.315Y-94.845
X58.328Y-85.469
X58.336Y-91.725
X58.351Y-117.221
X58.378Y-114.911
X58.403Y-116.763
X58.486Y-84.986
X58.495Y-95.384
X58.55Y-115.596
X58.562Y-91.349
X58.568Y-87.701
X58.568Y-88.777
X58.578Y-88.234
X58.589Y-87.115
X58.622Y-86.608
X58.669Y-115.161
X58.675Y-94.486
X58.682Y-84.517
X58.698Y-86.106
X58.722Y-117.438
X58.746Y-116.982
X58.815Y-85.612
X58.854Y-95.025
X58.871Y-115.845
X58.913Y-84.064
X58.957Y-115.403
X58.975Y-85.129
X59.034Y-94.126
X59.098Y-117.182
X59.106Y-117.636
X59.175Y-84.662
X59.179Y-83.632
X59.209Y-116.071
X59.213Y-94.665
X59.263Y-115.623
X59.393Y-93.767
X59.413Y-84.214
X59.465Y-117.353
X59.478Y-83.221
X59.502Y-117.809
X59.563Y-116.27
X59.573Y-94.306
X59.584Y-115.819
X59.689Y-83.787
X59.752Y-93.408
X59.808Y-82.835
X59.842Y-117.504
X59.907Y-117.956
X59.918Y-115.992
X59.931Y-116.442
X59.932Y-93.947
X59.932Y-93.228
X59.999Y-83.385
X60.174Y-82.47
X60.228Y-117.631
X60.258Y-92.839
X60.264Y-116.138
X60.291Y-93.588
X60.311Y-116.587
X60.312Y-82.014
X60.321Y-118.079
X60.343Y-83.011
X60.464Y-93.401
X60.51Y-92.397
X60.621Y-116.259
X60.621Y-117.734
X60.654Y-82.56
X60.68Y-91.919
X60.7Y-116.703
X60.742Y-118.175
X60.762Y-91.417
X60.765Y-92.992
X60.767Y-90.887
X60.771Y-90.338
X60.771Y-88.235
X60.771Y-88.725
X60.771Y-89.3
X60.772Y-87.248
X60.773Y-89.811
X60.776Y-87.745
X60.798Y-82.086
X60.806Y-86.741
X60.907Y-86.243
X60.985Y-116.353
X61.001Y-92.542
X61.02Y-117.812
X61.032Y-111.909
X61.054Y-112.389
X61.069Y-111.342
X61.074Y-85.764
X61.097Y-116.79
X61.158Y-110.891
X61.167Y-92.062
X61.179Y-118.243
X61.18Y-112.838
X61.202Y-89.38
X61.259Y-91.562
X61.275Y-88.828
X61.275Y-91.055
X61.28Y-89.979
X61.287Y-88.171
X61.29Y-86.994
X61.298Y-113.216
X61.298Y-87.622
X61.298Y-90.535
X61.302Y-85.31
X61.305Y-110.456
X61.346Y-116.418
X61.368Y-86.492
X61.424Y-117.855
X61.443Y-112.084
X61.452Y-111.597
X61.463Y-113.59
X61.485Y-112.53
X61.501Y-116.838
X61.505Y-111.194
X61.507Y-110.044
X61.522Y-86.008
X61.59Y-84.891
X61.609Y-110.802
X61.623Y-118.266
X61.641Y-112.991
X61.681Y-113.951
X61.715Y-116.471
X61.748Y-85.553
X61.761Y-109.662
X61.764Y-110.426
X61.817Y-113.367
X61.834Y-117.856
X61.907Y-116.84
X61.959Y-114.237
X61.964Y-84.49
X61.967Y-110.073
X62.037Y-118.263
X62.042Y-85.139
X62.052Y-113.713
X62.085Y-109.317
X62.111Y-116.434
X62.213Y-109.75
X62.237Y-114.535
X62.241Y-117.856
X62.253Y-119.782
X62.314Y-116.84
X62.319Y-114.035
X62.332Y-84.048
X62.396Y-84.774
X62.414Y-109.007
X62.444Y-118.263
X62.472Y-111.996
X62.486Y-111.571
X62.498Y-109.461
X62.517Y-116.434
X62.546Y-112.397
X62.575Y-111.185
X62.576Y-114.807
X62.624Y-114.303
X62.63Y-83.547
X62.647Y-117.856
X62.698Y-112.774
X62.72Y-116.84
X62.74Y-110.823
X62.814Y-108.757
X62.825Y-109.218
X62.85Y-118.263
X62.865Y-82.929
X62.87Y-111.884
X62.9Y-111.47
X62.919Y-113.115
X62.923Y-116.434
X62.953Y-112.282
X62.963Y-110.502
X62.968Y-114.565
X62.989Y-115.025
X63.003Y-82.284
X63.048Y-111.058
X63.053Y-117.856
X63.103Y-112.671
X63.127Y-116.84
X63.186Y-109.031
X63.202Y-113.407
X63.238Y-110.23
X63.25Y-108.574
X63.257Y-118.263
X63.283Y-110.712
X63.33Y-116.434
X63.34Y-114.726
X63.344Y-113.007
X63.351Y-82.661
X63.423Y-82.038
X63.431Y-115.179
X63.46Y-117.856
X63.533Y-116.84
X63.545Y-113.625
X63.572Y-108.905
X63.576Y-110.032
X63.606Y-110.48
X63.663Y-118.263
X63.695Y-108.51
X63.704Y-113.222
X63.733Y-114.831
X63.736Y-116.434
X63.866Y-117.856
X63.878Y-115.273
X63.918Y-113.763
X63.939Y-116.84
X63.947Y-108.898
X63.955Y-109.932
X64.009Y-110.359
X64.069Y-118.263
X64.086Y-113.381
X64.125Y-114.883
X64.143Y-116.434
X64.144Y-108.485
X64.273Y-117.856
X64.323Y-113.799
X64.346Y-116.84
X64.349Y-109.914
X64.353Y-108.891
X64.369Y-115.27
X64.476Y-118.263
X64.526Y-113.392
X64.549Y-116.434
X64.553Y-110.321
X64.557Y-108.485
X64.573Y-114.864
X64.679Y-117.856
X64.729Y-113.799
X64.752Y-116.84
X64.756Y-109.914
X64.76Y-108.891
X64.777Y-115.27
X64.882Y-118.263
X64.932Y-113.392
X64.955Y-116.434
X64.959Y-110.321
X64.963Y-108.485
X64.98Y-114.864
X65.085Y-117.856
X65.135Y-113.799
X65.159Y-116.84
X65.162Y-109.914
X65.166Y-108.891
X65.183Y-115.27
X65.289Y-118.263
X65.339Y-113.392
X65.362Y-116.434
X65.365Y-110.321
X65.369Y-108.485
X65.386Y-114.864
X65.492Y-117.856
X65.528Y-113.785
X65.565Y-116.84
X65.569Y-109.914
X65.573Y-108.891
X65.589Y-115.27
X65.695Y-118.263
X65.731Y-113.378
X65.768Y-116.434
X65.772Y-110.321
X65.776Y-108.485
X65.793Y-114.864
X65.898Y-117.856
X65.934Y-113.785
X65.971Y-116.84
X65.975Y-109.914
X65.979Y-108.891
X65.996Y-115.27
X66.101Y-118.263
X66.138Y-113.378
X66.175Y-116.434
X66.178Y-110.321
X66.182Y-108.485
X66.199Y-114.864
X66.305Y-117.856
X66.341Y-113.785
X66.378Y-116.84
X66.381Y-109.914
X66.385Y-108.891
X66.402Y-115.27
X66.508Y-118.263
X66.544Y-113.378
X66.581Y-116.434
X66.585Y-110.321
X66.589Y-108.485
X66.605Y-114.864
X66.711Y-117.856
X66.742Y-113.836
X66.784Y-116.84
X66.788Y-109.914
X66.792Y-108.891
X66.809Y-115.27
X66.914Y-118.263
X66.945Y-113.429
X66.987Y-116.434
X66.991Y-110.321
X66.995Y-108.485
X67.012Y-114.864
X67.117Y-117.856
X67.148Y-113.836
X67.191Y-116.84
X67.194Y-109.914
X67.198Y-108.891
X67.215Y-115.27
X67.321Y-118.263
X67.351Y-113.429
X67.394Y-116.434
X67.397Y-110.321
X67.401Y-108.485
X67.418Y-114.864
X67.524Y-117.856
X67.555Y-113.836
X67.597Y-116.84
X67.601Y-109.914
X67.605Y-108.891
X67.621Y-115.27
X67.727Y-118.263
X67.758Y-113.429
X67.8Y-116.434
X67.804Y-110.321
X67.808Y-108.485
X67.825Y-114.864
X67.93Y-117.856
X67.961Y-113.836
X68.003Y-116.84
X68.007Y-109.914
X68.011Y-108.891
X68.028Y-115.27
X68.133Y-118.263
X68.164Y-113.429
X68.207Y-116.434
X68.21Y-110.321
X68.214Y-108.485
X68.231Y-114.864
X68.337Y-117.856
X68.367Y-113.836
X68.41Y-116.84
X68.413Y-109.914
X68.417Y-108.891
X68.434Y-115.27
X68.54Y-118.263
X68.571Y-113.429
X68.613Y-116.434
X68.617Y-110.321
X68.621Y-108.485
X68.637Y-114.864
X68.743Y-117.856
X68.774Y-113.836
X68.816Y-116.84
X68.82Y-109.914
X68.824Y-108.891
X68.841Y-115.27
X68.946Y-118.263
X68.977Y-113.429
X69.019Y-116.434
X69.023Y-110.321
X69.027Y-108.485
X69.044Y-114.864
X69.097Y-95.349
X69.099Y-96.361
X69.099Y-96.869
X69.104Y-97.938
X69.104Y-98.446
X69.12Y-97.387
X69.125Y-95.853
X69.149Y-117.856
X69.158Y-94.845
X69.18Y-113.836
X69.223Y-116.84
X69.226Y-109.914
X69.23Y-108.891
X69.247Y-115.27
X69.302Y-94.358
X69.353Y-118.263
X69.381Y-98.872
X69.383Y-113.429
X69.426Y-116.434
X69.433Y-110.321
X69.45Y-114.864
X69.474Y-108.503
X69.524Y-93.901
X69.556Y-117.856
X69.587Y-113.836
X69.601Y-95.617
X69.607Y-96.107
X69.607Y-96.615
X69.607Y-97.123
X69.612Y-97.684
X69.612Y-98.192
X69.617Y-95.111
X69.629Y-116.84
X69.633Y-109.911
X69.653Y-115.27
X69.674Y-108.866
X69.711Y-100.302
X69.72Y-100.73
X69.728Y-99.868
X69.745Y-94.611
X69.749Y-99.472
X69.758Y-101.155
X69.759Y-118.263
X69.775Y-108.124
X69.777Y-101.56
X69.777Y-101.967
X69.777Y-102.373
X69.777Y-102.779
X69.777Y-103.186
X69.777Y-103.592
X69.777Y-103.999
X69.777Y-104.405
X69.777Y-104.811
X69.777Y-105.218
X69.777Y-105.624
X69.777Y-106.031
X69.777Y-106.437
X69.777Y-106.843
X69.777Y-107.25
X69.777Y-107.656
X69.79Y-113.429
X69.809Y-98.613
X69.819Y-93.487
X69.832Y-116.434
X69.854Y-99.052
X69.857Y-114.864
X69.909Y-110.286
X69.953Y-94.158
X69.962Y-117.856
X69.993Y-113.836
X70.016Y-108.647
X70.024Y-109.849
X70.035Y-116.84
X70.039Y-98.196
X70.06Y-115.27
X70.101Y-99.71
X70.104Y-100.538
X70.107Y-100.117
X70.14Y-100.953
X70.147Y-99.284
X70.161Y-108.267
X70.165Y-118.263
X70.183Y-101.357
X70.183Y-101.763
X70.183Y-102.17
X70.183Y-102.576
X70.183Y-102.983
X70.183Y-103.389
X70.183Y-103.795
X70.183Y-104.202
X70.183Y-104.608
X70.183Y-105.015
X70.183Y-105.421
X70.183Y-105.827
X70.183Y-106.234
X70.183Y-106.64
X70.183Y-107.047
X70.183Y-107.453
X70.183Y-107.859
X70.196Y-113.429
X70.224Y-93.122
X70.239Y-116.434
X70.245Y-93.764
X70.263Y-114.864
X70.369Y-117.856
X70.397Y-110.142
X70.399Y-113.836
X70.41Y-109.677
X70.442Y-116.84
X70.461Y-97.962
X70.464Y-97.461
X70.466Y-115.27
X70.559Y-93.424
X70.572Y-118.263
X70.603Y-113.429
X70.619Y-92.723
X70.645Y-116.434
X70.669Y-114.864
X70.746Y-109.419
X70.775Y-117.856
X70.806Y-113.836
X70.828Y-109.88
X70.848Y-116.84
X70.873Y-115.27
X70.889Y-93.121
X70.906Y-97.461
X70.918Y-97.937
X70.978Y-118.263
X70.981Y-112.935
X70.981Y-115.882
X71.015Y-109.06
X71.026Y-113.448
X71.051Y-116.434
X71.076Y-114.864
X71.167Y-108.683
X71.178Y-92.126
X71.18Y-109.47
X71.181Y-117.856
X71.212Y-113.826
X71.224Y-101.771
X71.224Y-102.177
X71.224Y-102.583
X71.224Y-102.99
X71.224Y-103.396
X71.224Y-103.803
X71.224Y-104.209
X71.224Y-104.615
X71.224Y-105.022
X71.224Y-105.428
X71.224Y-105.835
X71.224Y-106.241
X71.224Y-106.647
X71.224Y-107.054
X71.224Y-107.46
X71.224Y-107.867
X71.225Y-108.269
X71.237Y-100.958
X71.237Y-101.364
X71.248Y-92.761
X71.255Y-116.84
X71.279Y-115.27
X71.322Y-99.708
X71.327Y-100.533
X71.329Y-100.124
X71.372Y-97.479
X71.384Y-97.955
X71.385Y-118.263
X71.44Y-109.038
X71.458Y-116.434
X71.486Y-114.867
X71.54Y-91.758
X71.588Y-117.856
X71.589Y-108.555
X71.605Y-107.264
X71.605Y-107.67
X71.608Y-92.402
X71.61Y-101.986
X71.61Y-102.393
X71.61Y-102.799
X71.61Y-103.205
X71.61Y-103.612
X71.61Y-104.018
X71.61Y-104.425
X71.61Y-104.831
X71.61Y-105.237
X71.61Y-105.644
X71.61Y-106.05
X71.61Y-106.457
X71.61Y-106.863
X71.615Y-108.102
X71.618Y-113.826
X71.623Y-101.58
X71.644Y-101.161
X71.661Y-116.84
X71.679Y-100.762
X71.708Y-99.906
X71.708Y-100.322
X71.733Y-115.271
X71.791Y-118.263
X71.807Y-95.677
X71.839Y-114.858
X71.844Y-97.458
X71.857Y-97.934
X71.864Y-116.434
X71.875Y-91.359
X71.895Y-95.204
X71.934Y-92.062
X71.994Y-117.856
X71.999Y-88.9
X72.025Y-113.826
X72.026Y-88.479
X72.028Y-87.971
X72.031Y-87.478
X72.033Y-86.97
X72.067Y-116.84
X72.075Y-86.464
X72.156Y-85.962
X72.184Y-115.269
X72.197Y-118.263
X72.246Y-114.858
X72.254Y-94.845
X72.27Y-91.716
X72.271Y-116.434
X72.271Y-107.969
X72.276Y-85.469
X72.315Y-106.793
X72.315Y-109.232
X72.358Y-140.946
X72.401Y-117.856
X72.433Y-95.384
X72.434Y-84.986
X72.445Y-113.84
X72.474Y-116.84
X72.499Y-91.348
X72.499Y-88.916
X72.514Y-88.505
X72.52Y-88.047
X72.525Y-87.6
X72.537Y-87.115
X72.57Y-86.608
X72.604Y-118.263
X72.613Y-94.486
X72.629Y-84.517
X72.635Y-115.267
X72.645Y-86.106
X72.652Y-114.858
X72.677Y-116.434
X72.763Y-85.612
X72.793Y-95.025
X72.807Y-117.856
X72.852Y-113.84
X72.86Y-84.065
X72.88Y-116.84
X72.922Y-85.129
X72.972Y-94.126
X73.01Y-118.263
X73.059Y-114.858
X73.083Y-116.434
X73.086Y-115.264
X73.122Y-84.662
X73.126Y-83.632
X73.152Y-94.665
X73.213Y-117.856
X73.249Y-140.916
X73.258Y-113.84
X73.287Y-116.84
X73.361Y-84.214
X73.387Y-93.716
X73.417Y-118.263
X73.425Y-83.221
X73.465Y-114.858
X73.49Y-116.434
X73.511Y-94.306
X73.62Y-117.856
X73.636Y-83.787
X73.664Y-113.84
X73.668Y-115.264
X73.693Y-116.84
X73.755Y-82.835
X73.797Y-93.317
X73.823Y-118.263
X73.871Y-114.858
X73.92Y-93.839
X73.947Y-83.385
X74.026Y-117.856
X74.071Y-113.84
X74.075Y-115.264
X74.099Y-116.84
X74.143Y-82.439
X74.196Y-92.839
X74.209Y-81.966
X74.229Y-118.263
X74.278Y-114.858
X74.29Y-83.011
X74.402Y-93.401
X74.448Y-92.397
X74.515Y-165.224
X74.533Y-164.812
X74.56Y-170.484
X74.561Y-165.607
X74.561Y-166.014
X74.564Y-164.37
X74.572Y-170.883
X74.572Y-171.188
X74.598Y-82.575
X74.61Y-166.42
X74.61Y-166.827
X74.61Y-167.233
X74.61Y-167.639
X74.61Y-168.046
X74.61Y-168.452
X74.61Y-168.859
X74.61Y-169.265
X74.61Y-169.671
X74.61Y-170.078
X74.618Y-91.919
X74.627Y-162.744
X74.627Y-163.15
X74.627Y-163.557
X74.627Y-163.963
X74.632Y-162.314
X74.693Y-161.852
X74.701Y-91.418
X74.704Y-92.992
X74.711Y-90.321
X74.711Y-90.88
X74.712Y-88.712
X74.712Y-89.213
X74.712Y-88.131
X74.716Y-87.678
X74.717Y-89.804
X74.72Y-87.248
X74.753Y-86.741
X74.766Y-82.116
X74.821Y-161.403
X74.855Y-86.243
X74.914Y-165.386
X74.914Y-164.983
X74.932Y-164.574
X74.94Y-92.542
X74.968Y-165.811
X74.976Y-170.254
X75.014Y-160.979
X75.017Y-166.217
X75.017Y-166.623
X75.017Y-167.03
X75.017Y-167.436
X75.017Y-167.843
X75.017Y-168.249
X75.017Y-168.655
X75.017Y-169.062
X75.017Y-169.468
X75.017Y-169.875
X75.021Y-85.764
X75.033Y-162.541
X75.033Y-162.947
X75.033Y-163.354
X75.033Y-163.76
X75.033Y-164.166
X75.053Y-162.13
X75.106Y-92.062
X75.139Y-161.737
X75.198Y-91.563
X75.203Y-87.931
X75.213Y-91.055
X75.214Y-87.441
X75.224Y-90.032
X75.224Y-90.517
X75.224Y-88.424
X75.224Y-88.924
X75.229Y-89.516
X75.237Y-86.994
X75.25Y-85.31
X75.268Y-160.588
X75.28Y-161.356
X75.315Y-86.492
X75.432Y-140.714
X75.432Y-141.12
X75.454Y-140.308
X75.469Y-86.008
X75.475Y-160.999
X75.537Y-84.891
X75.575Y-160.239
X75.696Y-85.553
X75.72Y-160.676
X75.759Y-139.564
X75.835Y-84.555
X75.914Y-159.94
X75.989Y-85.139
X76.009Y-160.39
X76.023Y-139.255
X76.049Y-162.537
X76.049Y-162.943
X76.049Y-163.35
X76.049Y-163.756
X76.049Y-164.162
X76.061Y-166.189
X76.061Y-166.595
X76.061Y-167.002
X76.061Y-167.408
X76.061Y-167.815
X76.061Y-168.221
X76.061Y-168.627
X76.061Y-169.034
X76.061Y-169.44
X76.061Y-169.847
X76.061Y-170.253
X76.087Y-162.132
X76.124Y-165.79
X76.157Y-164.566
X76.17Y-84.174
X76.175Y-165.385
X76.177Y-164.974
X76.211Y-122.463
X76.212Y-107.55
X76.219Y-161.747
X76.219Y-106.534
X76.284Y-159.681
X76.329Y-160.138
X76.343Y-84.774
X76.348Y-139.012
X76.369Y-84.73
X76.442Y-161.418
X76.453Y-83.752
X76.456Y-162.74
X76.456Y-163.146
X76.456Y-163.553
X76.456Y-163.959
X76.467Y-165.986
X76.467Y-166.392
X76.467Y-166.799
X76.467Y-167.205
X76.467Y-167.611
X76.467Y-168.018
X76.467Y-168.424
X76.467Y-168.831
X76.467Y-169.237
X76.467Y-169.643
X76.467Y-170.05
X76.472Y-162.297
X76.493Y-122.806
X76.517Y-122.112
X76.519Y-164.372
X76.53Y-165.586
X76.533Y-164.756
X76.547Y-170.456
X76.547Y-170.863
X76.547Y-171.167
X76.551Y-165.162
X76.602Y-161.893
X76.674Y-159.924
X76.679Y-159.464
X76.68Y-83.298
X76.684Y-84.332
X76.704Y-128.511
X76.704Y-128.918
X76.712Y-108.566
X76.714Y-128.105
X76.716Y-129.821
X76.719Y-105.518
X76.719Y-129.349
X76.726Y-138.838
X76.729Y-120.519
X76.729Y-120.925
X76.73Y-161.13
X76.738Y-121.344
X76.749Y-123.148
X76.754Y-120.09
X76.762Y-119.257
X76.763Y-121.768
X76.767Y-118.851
X76.767Y-123.555
X76.77Y-124.325
X76.775Y-119.692
X76.775Y-123.956
X76.787Y-124.74
X76.795Y-125.173
X76.803Y-125.6
X76.809Y-161.571
X76.846Y-82.818
X76.953Y-83.9
X76.954Y-82.296
X76.96Y-130.365
X76.999Y-141.251
X77.04Y-159.748
X77.066Y-160.906
X77.072Y-129.565
X77.083Y-128.76
X77.085Y-128.349
X77.087Y-129.161
X77.09Y-127.007
X77.096Y-159.292
X77.105Y-129.979
X77.116Y-127.947
X77.118Y-123.354
X77.124Y-138.757
X77.13Y-123.756
X77.135Y-120.316
X77.135Y-120.722
X77.135Y-121.128
X77.135Y-161.349
X77.138Y-121.53
X77.14Y-124.5
X77.143Y-119.476
X77.143Y-119.897
X77.153Y-119.057
X77.158Y-124.932
X77.168Y-139.809
X77.17Y-83.441
X77.219Y-126.268
X77.329Y-130.746
X77.334Y-82.96
X77.349Y-130.329
X77.409Y-82.439
X77.42Y-141.265
X77.424Y-159.614
X77.428Y-160.721
X77.469Y-81.954
X77.507Y-161.153
X77.529Y-159.167
X77.545Y-138.771
X77.574Y-139.787
X77.689Y-126.468
X77.698Y-130.571
X77.707Y-130.995
X77.814Y-160.592
X77.82Y-159.522
X77.865Y-140.294
X77.872Y-141.265
X77.876Y-140.834
X77.936Y-160.992
X77.951Y-138.771
X77.974Y-159.089
X77.981Y-139.787
X78.05Y-130.763
X78.169Y-126.263
X78.2Y-160.496
X78.206Y-131.203
X78.231Y-159.468
X78.245Y-119.069
X78.261Y-119.504
X78.263Y-121.572
X78.268Y-119.938
X78.27Y-120.358
X78.27Y-120.764
X78.27Y-121.17
X78.276Y-123.4
X78.277Y-124.629
X78.277Y-125.036
X78.278Y-128.513
X78.281Y-128.094
X78.281Y-128.917
X78.291Y-123.811
X78.291Y-124.218
X78.291Y-129.321
X78.293Y-140.217
X78.305Y-127.676
X78.309Y-126.999
X78.352Y-129.719
X78.357Y-160.929
X78.357Y-138.771
X78.387Y-139.787
X78.419Y-159.062
X78.466Y-130.838
X78.606Y-160.484
X78.624Y-118.879
X78.63Y-159.468
X78.632Y-119.278
X78.644Y-123.176
X78.652Y-119.699
X78.652Y-120.118
X78.656Y-121.849
X78.666Y-121.396
X78.676Y-120.561
X78.676Y-120.967
X78.683Y-123.613
X78.683Y-124.833
X78.685Y-124.01
X78.686Y-131.232
X78.695Y-124.401
X78.695Y-125.252
X78.7Y-125.658
X78.711Y-127.879
X78.742Y-128.315
X78.742Y-128.721
X78.743Y-129.102
X78.746Y-129.81
X78.764Y-138.771
X78.793Y-139.787
X78.809Y-160.89
X78.833Y-159.062
X78.889Y-130.851
X78.904Y-122.842
X78.935Y-122.166
X78.952Y-129.438
X79.013Y-160.484
X79.036Y-159.468
X79.093Y-131.232
X79.152Y-129.81
X79.177Y-138.721
X79.2Y-139.787
X79.216Y-160.89
X79.239Y-159.062
X79.247Y-122.53
X79.296Y-130.851
X79.356Y-129.403
X79.419Y-160.484
X79.443Y-159.468
X79.499Y-131.232
X79.559Y-129.81
X79.572Y-108.566
X79.584Y-138.721
X79.593Y-139.844
X79.622Y-160.89
X79.646Y-159.062
X79.702Y-130.851
X79.762Y-129.403
X79.825Y-160.484
X79.849Y-159.468
X79.905Y-131.232
X79.965Y-129.81
X79.987Y-138.684
X79.998Y-139.894
X80.021Y-160.832
X80.052Y-159.062
X80.072Y-107.55
X80.109Y-130.851
X80.168Y-129.403
X80.232Y-160.484
X80.255Y-159.468
X80.312Y-131.232
X80.372Y-129.81
X80.394Y-138.684
X80.404Y-139.896
X80.435Y-160.89
X80.459Y-159.062
X80.515Y-130.851
X80.575Y-129.403
X80.638Y-160.484
X80.662Y-159.468
X80.718Y-131.232
X80.778Y-129.81
X80.802Y-138.715
X80.811Y-139.889
X80.841Y-160.89
X80.855Y-105.518
X80.865Y-159.062
X80.921Y-130.851
X80.981Y-129.403
X81.045Y-160.484
X81.068Y-159.468
X81.109Y-115.434
X81.125Y-131.232
X81.184Y-129.81
X81.194Y-112.84
X81.209Y-138.762
X81.211Y-139.843
X81.271Y-159.062
X81.285Y-116.856
X81.313Y-115.84
X81.328Y-130.851
X81.388Y-129.403
X81.398Y-112.434
X81.406Y-113.856
X81.428Y-138.278
X81.451Y-160.484
X81.475Y-159.468
X81.516Y-115.434
X81.531Y-131.232
X81.591Y-129.81
X81.601Y-112.84
X81.627Y-139.882
X81.654Y-160.89
X81.678Y-159.062
X81.691Y-116.856
X81.719Y-115.84
X81.734Y-130.851
X81.794Y-129.403
X81.804Y-112.434
X81.812Y-113.856
X81.857Y-160.484
X81.881Y-159.468
X81.895Y-117.263
X81.916Y-138.267
X81.922Y-115.434
X81.937Y-131.232
X81.997Y-129.81
X82.007Y-112.84
X82.014Y-139.847
X82.016Y-114.263
X82.061Y-160.89
X82.084Y-159.062
X82.098Y-116.856
X82.125Y-115.84
X82.141Y-130.851
X82.162Y-138.688
X82.2Y-129.403
X82.21Y-112.434
X82.219Y-113.856
X82.264Y-160.484
X82.287Y-159.468
X82.301Y-117.263
X82.329Y-115.434
X82.344Y-131.232
X82.404Y-129.81
X82.414Y-112.84
X82.422Y-114.263
X82.424Y-139.98
X82.467Y-160.89
X82.491Y-159.062
X82.504Y-116.856
X82.532Y-115.84
X82.547Y-130.851
X82.607Y-129.403
X82.617Y-112.434
X82.625Y-113.856
X82.67Y-160.484
X82.694Y-159.468
X82.707Y-117.263
X82.735Y-115.434
X82.739Y-138.505
X82.75Y-131.232
X82.81Y-129.81
X82.82Y-112.84
X82.824Y-140.036
X82.828Y-114.263
X82.873Y-160.89
X82.897Y-159.062
X82.911Y-116.856
X82.938Y-115.84
X82.953Y-130.851
X82.972Y-127.995
X82.979Y-127.569
X82.982Y-127.158
X83.013Y-129.403
X83.023Y-112.434
X83.032Y-113.856
X83.046Y-126.314
X83.051Y-126.725
X83.061Y-125.903
X83.077Y-160.484
X83.085Y-96.301
X83.085Y-96.809
X83.088Y-95.349
X83.09Y-97.877
X83.09Y-98.385
X83.09Y-98.893
X83.091Y-125.046
X83.091Y-125.487
X83.1Y-159.468
X83.106Y-97.326
X83.111Y-95.792
X83.114Y-117.263
X83.12Y-138.505
X83.141Y-115.434
X83.141Y-124.604
X83.143Y-128.387
X83.149Y-94.845
X83.157Y-131.232
X83.216Y-129.81
X83.226Y-112.84
X83.235Y-114.263
X83.28Y-160.89
X83.293Y-94.358
X83.303Y-159.062
X83.317Y-116.856
X83.345Y-115.84
X83.36Y-130.851
X83.387Y-99.28
X83.42Y-129.403
X83.43Y-112.434
X83.438Y-113.856
X83.452Y-93.935
X83.497Y-160.498
X83.501Y-138.505
X83.507Y-159.468
X83.52Y-117.263
X83.548Y-115.434
X83.563Y-131.232
X83.584Y-128.464
X83.587Y-95.557
X83.593Y-96.047
X83.593Y-96.555
X83.593Y-97.063
X83.598Y-97.623
X83.598Y-98.131
X83.598Y-98.639
X83.603Y-124.474
X83.603Y-150.409
X83.628Y-129.793
X83.631Y-140.033
X83.633Y-112.84
X83.638Y-94.989
X83.641Y-114.263
X83.653Y-149.993
X83.656Y-105.645
X83.715Y-160.885
X83.717Y-99.552
X83.717Y-99.973
X83.717Y-100.383
X83.723Y-116.856
X83.737Y-93.576
X83.751Y-115.84
X83.753Y-100.774
X83.766Y-130.851
X83.781Y-101.147
X83.781Y-101.55
X83.782Y-94.502
X83.811Y-102.002
X83.822Y-99.069
X83.826Y-129.403
X83.836Y-112.434
X83.844Y-113.856
X83.878Y-158.968
X83.882Y-138.505
X83.892Y-102.471
X83.902Y-160.469
X83.908Y-159.384
X83.927Y-117.263
X83.954Y-115.434
X83.969Y-131.232
X83.982Y-94.106
X84.0Y-128.464
X84.01Y-97.992
X84.017Y-97.481
X84.022Y-139.998
X84.029Y-129.81
X84.036Y-93.255
X84.039Y-112.84
X84.048Y-114.263
X84.051Y-102.92
X84.054Y-124.484
X84.076Y-100.182
X84.079Y-150.394
X84.091Y-100.575
X84.097Y-99.777
X84.13Y-116.856
X84.133Y-158.591
X84.137Y-149.533
X84.14Y-149.965
X84.14Y-153.372
X84.14Y-153.778
X84.14Y-154.185
X84.14Y-154.591
X84.14Y-154.997
X84.14Y-155.404
X84.14Y-155.81
X84.14Y-156.217
X84.14Y-156.623
X84.14Y-157.029
X84.14Y-157.436
X84.14Y-157.842
X84.14Y-158.249
X84.142Y-147.537
X84.144Y-148.331
X84.144Y-149.123
X84.149Y-147.949
X84.149Y-148.727
X84.157Y-115.84
X84.16Y-100.977
X84.165Y-101.351
X84.165Y-101.758
X84.166Y-99.38
X84.173Y-130.851
X84.174Y-147.151
X84.194Y-160.804
X84.212Y-103.286
X84.22Y-138.676
X84.232Y-129.403
X84.234Y-146.738
X84.242Y-102.17
X84.242Y-112.434
X84.251Y-113.856
X84.254Y-159.19
X84.255Y-93.731
X84.289Y-108.172
X84.294Y-160.362
X84.301Y-109.291
X84.333Y-117.263
X84.341Y-92.941
X84.345Y-102.563
X84.361Y-115.434
X84.374Y-146.331
X84.376Y-131.232
X84.418Y-114.866
X84.418Y-117.863
X84.421Y-128.464
X84.43Y-139.872
X84.436Y-129.81
X84.446Y-112.84
X84.454Y-114.263
X84.461Y-97.983
X84.464Y-103.581
X84.465Y-97.483
X84.481Y-158.853
X84.505Y-124.484
X84.52Y-145.91
X84.532Y-102.977
X84.535Y-148.2
X84.535Y-148.992
X84.535Y-149.394
X84.536Y-116.856
X84.54Y-147.819
X84.54Y-148.596
X84.545Y-147.467
X84.546Y-149.787
X84.546Y-150.168
X84.546Y-153.169
X84.546Y-153.575
X84.546Y-153.981
X84.546Y-154.388
X84.546Y-154.794
X84.546Y-155.201
X84.546Y-155.607
X84.546Y-156.013
X84.546Y-156.42
X84.546Y-156.826
X84.546Y-157.233
X84.546Y-157.639
X84.546Y-158.045
X84.546Y-158.452
X84.564Y-115.84
X84.566Y-93.435
X84.568Y-147.06
X84.579Y-130.851
X84.639Y-129.403
X84.649Y-112.434
X84.651Y-146.662
X84.657Y-113.856
X84.672Y-103.914
X84.679Y-160.173
X84.684Y-160.637
X84.701Y-92.582
X84.739Y-117.263
X84.756Y-151.105
X84.761Y-152.204
X84.761Y-145.516
X84.767Y-115.434
X84.782Y-131.232
X84.784Y-103.346
X84.793Y-146.281
X84.822Y-128.464
X84.833Y-139.906
X84.842Y-129.81
X84.852Y-112.84
X84.86Y-114.263
X84.88Y-93.121
X84.889Y-104.271
X84.899Y-143.289
X84.906Y-97.483
X84.919Y-97.965
X84.926Y-124.524
X84.943Y-116.856
X84.97Y-115.84
X84.98Y-145.921
X84.985Y-130.851
X84.999Y-159.923
X85.04Y-104.629
X85.045Y-129.403
X85.05Y-103.729
X85.054Y-145.158
X85.055Y-112.434
X85.06Y-92.223
X85.064Y-113.856
X85.093Y-105.05
X85.093Y-88.899
X85.095Y-160.377
X85.146Y-117.263
X85.146Y-105.482
X85.146Y-105.888
X85.146Y-106.295
X85.146Y-106.701
X85.146Y-107.107
X85.146Y-107.525
X85.149Y-119.082
X85.149Y-138.846
X85.173Y-115.434
X85.188Y-140.146
X85.189Y-131.232
X85.206Y-108.015
X85.215Y-145.589
X85.216Y-128.615
X85.218Y-99.215
X85.239Y-92.761
X85.244Y-101.689
X85.253Y-129.793
X85.258Y-101.304
X85.258Y-112.84
X85.26Y-159.615
X85.262Y-104.076
X85.267Y-114.263
X85.289Y-102.093
X85.29Y-151.638
X85.295Y-100.886
X85.297Y-125.026
X85.299Y-99.621
X85.309Y-91.378
X85.322Y-100.07
X85.326Y-100.48
X85.327Y-125.487
X85.349Y-116.856
X85.368Y-124.584
X85.372Y-97.5
X85.377Y-115.84
X85.385Y-97.983
X85.388Y-125.888
X85.39Y-108.489
X85.392Y-130.851
X85.399Y-144.842
X85.405Y-140.499
X85.411Y-104.454
X85.418Y-126.319
X85.419Y-91.863
X85.42Y-127.075
X85.42Y-128.208
X85.442Y-159.251
X85.449Y-160.038
X85.451Y-102.466
X85.452Y-129.403
X85.462Y-112.434
X85.47Y-113.856
X85.472Y-141.134
X85.494Y-104.851
X85.494Y-145.293
X85.506Y-88.905
X85.51Y-105.257
X85.535Y-138.993
X85.547Y-158.851
X85.552Y-117.263
X85.553Y-105.685
X85.553Y-106.091
X85.553Y-106.498
X85.553Y-106.904
X85.553Y-107.311
X85.557Y-149.912
X85.557Y-150.319
X85.561Y-147.874
X85.561Y-148.28
X85.561Y-148.687
X85.561Y-149.093
X85.562Y-153.169
X85.562Y-153.575
X85.562Y-153.981
X85.562Y-154.388
X85.562Y-154.794
X85.562Y-155.201
X85.562Y-155.607
X85.562Y-156.013
X85.562Y-156.42
X85.562Y-156.826
X85.562Y-157.233
X85.562Y-157.639
X85.562Y-158.045
X85.562Y-158.452
X85.564Y-107.717
X85.575Y-147.471
X85.578Y-149.5
X85.58Y-115.434
X85.595Y-131.232
X85.599Y-92.402
X85.618Y-147.067
X85.623Y-126.669
X85.623Y-128.615
X85.654Y-101.325
X85.655Y-129.81
X85.657Y-100.926
X85.66Y-101.711
X85.662Y-108.111
X85.665Y-112.84
X85.673Y-114.263
X85.684Y-108.901
X85.684Y-99.717
X85.688Y-102.796
X85.69Y-159.622
X85.713Y-100.11
X85.713Y-100.516
X85.729Y-102.124
X85.743Y-146.68
X85.755Y-116.856
X85.778Y-91.504
X85.783Y-115.84
X85.79Y-144.582
X85.798Y-130.851
X85.814Y-145.043
X85.816Y-95.775
X85.827Y-151.111
X85.828Y-127.023
X85.828Y-128.256
X85.836Y-140.535
X85.837Y-139.262
X85.845Y-97.479
X85.853Y-152.204
X85.855Y-108.469
X85.857Y-97.962
X85.858Y-129.403
X85.868Y-112.434
X85.875Y-159.168
X85.876Y-113.856
X85.886Y-95.204
X85.898Y-102.437
X85.929Y-103.123
X85.942Y-148.841
X85.946Y-146.328
X85.952Y-147.616
X85.952Y-148.022
X85.952Y-148.428
X85.958Y-92.043
X85.959Y-117.263
X85.959Y-149.268
X85.959Y-149.674
X85.962Y-158.686
X85.969Y-153.372
X85.969Y-153.778
X85.969Y-154.185
X85.969Y-154.591
X85.969Y-154.997
X85.969Y-155.404
X85.969Y-155.81
X85.969Y-156.217
X85.969Y-156.623
X85.969Y-157.029
X85.969Y-157.436
X85.969Y-157.842
X85.969Y-158.249
X85.986Y-115.434
X86.001Y-147.2
X86.001Y-131.232
X86.009Y-87.489
X86.011Y-86.981
X86.032Y-126.616
X86.032Y-128.663
X86.032Y-109.219
X86.033Y-88.908
X86.042Y-88.018
X86.046Y-88.49
X86.052Y-86.474
X86.061Y-129.81
X86.071Y-112.84
X86.08Y-114.263
X86.129Y-108.769
X86.131Y-146.804
X86.133Y-85.973
X86.136Y-102.719
X86.15Y-103.464
X86.162Y-116.856
X86.169Y-144.845
X86.189Y-115.84
X86.205Y-130.851
X86.207Y-146.04
X86.216Y-144.386
X86.228Y-139.374
X86.235Y-127.023
X86.235Y-128.256
X86.245Y-94.845
X86.25Y-95.732
X86.253Y-91.742
X86.253Y-85.479
X86.264Y-129.403
X86.274Y-112.434
X86.283Y-113.856
X86.308Y-103.85
X86.355Y-95.293
X86.365Y-117.263
X86.367Y-146.468
X86.386Y-103.069
X86.393Y-115.434
X86.408Y-131.232
X86.411Y-84.997
X86.415Y-109.48
X86.442Y-104.234
X86.448Y-109.021
X86.459Y-126.654
X86.468Y-129.81
X86.469Y-128.643
X86.478Y-112.84
X86.486Y-114.263
X86.491Y-152.225
X86.493Y-91.356
X86.504Y-87.601
X86.512Y-88.068
X86.514Y-87.126
X86.515Y-88.509
X86.522Y-88.911
X86.528Y-104.631
X86.543Y-145.812
X86.547Y-86.619
X86.55Y-144.704
X86.55Y-150.537
X86.555Y-165.044
X86.568Y-116.856
X86.569Y-105.442
X86.569Y-105.849
X86.569Y-106.255
X86.569Y-106.661
X86.569Y-107.068
X86.569Y-107.474
X86.575Y-105.033
X86.578Y-164.622
X86.578Y-165.475
X86.578Y-165.881
X86.596Y-115.84
X86.604Y-94.486
X86.607Y-84.528
X86.608Y-171.132
X86.61Y-103.466
X86.611Y-130.851
X86.623Y-86.117
X86.634Y-160.952
X86.634Y-161.363
X86.634Y-161.77
X86.634Y-162.176
X86.634Y-162.583
X86.634Y-162.989
X86.634Y-163.395
X86.634Y-163.802
X86.634Y-164.208
X86.634Y-166.28
X86.634Y-166.687
X86.634Y-167.093
X86.634Y-167.5
X86.634Y-167.906
X86.634Y-168.312
X86.634Y-168.719
X86.634Y-169.125
X86.634Y-169.532
X86.634Y-169.938
X86.634Y-170.344
X86.634Y-170.751
X86.64Y-139.353
X86.657Y-160.507
X86.668Y-144.258
X86.671Y-129.403
X86.674Y-107.867
X86.681Y-112.434
X86.689Y-113.856
X86.703Y-146.193
X86.731Y-160.062
X86.741Y-85.623
X86.764Y-103.907
X86.771Y-117.263
X86.784Y-95.025
X86.799Y-109.226
X86.799Y-115.434
X86.804Y-150.91
X86.804Y-151.926
X86.814Y-131.232
X86.829Y-109.685
X86.838Y-84.075
X86.855Y-159.627
X86.867Y-125.963
X86.874Y-129.81
X86.884Y-112.84
X86.888Y-104.345
X86.892Y-114.263
X86.9Y-85.14
X86.921Y-164.863
X86.927Y-145.673
X86.93Y-165.271
X86.936Y-165.679
X86.949Y-144.624
X86.958Y-104.795
X86.963Y-94.126
X86.97Y-108.145
X86.975Y-116.856
X86.975Y-105.237
X86.975Y-105.645
X86.975Y-106.052
X86.975Y-106.458
X86.975Y-106.865
X86.975Y-107.271
X86.984Y-164.418
X86.984Y-166.084
X87.002Y-115.84
X87.007Y-150.504
X87.007Y-152.333
X87.017Y-130.851
X87.025Y-107.648
X87.025Y-159.208
X87.031Y-139.322
X87.04Y-161.16
X87.04Y-161.567
X87.04Y-161.973
X87.04Y-162.379
X87.04Y-162.786
X87.04Y-163.192
X87.04Y-163.599
X87.04Y-164.005
X87.04Y-166.484
X87.04Y-166.89
X87.04Y-167.296
X87.04Y-167.703
X87.04Y-168.109
X87.04Y-168.516
X87.04Y-168.922
X87.04Y-169.328
X87.04Y-169.735
X87.04Y-170.141
X87.045Y-160.754
X87.077Y-129.403
X87.085Y-146.044
X87.087Y-112.434
X87.089Y-160.35
X87.096Y-113.856
X87.1Y-84.673
X87.104Y-83.642
X87.132Y-144.201
X87.143Y-94.665
X87.175Y-109.381
X87.178Y-159.953
X87.178Y-117.263
X87.205Y-115.434
X87.211Y-150.91
X87.211Y-151.926
X87.221Y-131.232
X87.242Y-158.812
X87.268Y-109.832
X87.28Y-129.81
X87.283Y-93.816
X87.29Y-112.84
X87.299Y-114.263
X87.302Y-127.676
X87.303Y-107.901
X87.31Y-159.569
X87.321Y-108.349
X87.327Y-145.621
X87.338Y-84.224
X87.354Y-144.605
X87.381Y-116.856
X87.403Y-83.232
X87.409Y-115.84
X87.414Y-150.504
X87.414Y-152.333
X87.424Y-130.851
X87.451Y-94.339
X87.484Y-129.403
X87.485Y-159.202
X87.494Y-112.434
X87.502Y-113.856
X87.502Y-158.442
X87.53Y-146.027
X87.558Y-144.198
X87.564Y-109.497
X87.569Y-126.003
X87.584Y-117.263
X87.593Y-93.501
X87.612Y-115.434
X87.614Y-83.798
X87.617Y-150.91
X87.617Y-151.926
X87.627Y-131.232
X87.646Y-108.055
X87.687Y-129.81
X87.697Y-112.84
X87.699Y-158.857
X87.705Y-114.263
X87.708Y-108.474
X87.723Y-109.916
X87.733Y-145.621
X87.75Y-82.895
X87.761Y-144.605
X87.787Y-116.856
X87.801Y-158.104
X87.811Y-93.98
X87.815Y-115.84
X87.82Y-150.504
X87.82Y-152.333
X87.83Y-130.851
X87.852Y-127.651
X87.888Y-83.431
X87.89Y-129.403
X87.9Y-112.434
X87.908Y-113.856
X87.92Y-93.18
X87.937Y-146.027
X87.951Y-158.538
X87.964Y-144.198
X87.968Y-109.543
X87.976Y-108.132
X87.991Y-117.263
X88.018Y-115.434
X88.023Y-150.91
X88.023Y-151.926
X88.033Y-131.232
X88.056Y-161.132
X88.056Y-161.538
X88.056Y-161.944
X88.056Y-162.351
X88.056Y-162.757
X88.056Y-163.164
X88.056Y-163.57
X88.056Y-163.976
X88.056Y-166.077
X88.056Y-166.484
X88.056Y-166.89
X88.056Y-167.296
X88.056Y-167.703
X88.056Y-168.109
X88.056Y-168.516
X88.056Y-168.922
X88.056Y-169.328
X88.056Y-169.735
X88.056Y-170.141
X88.065Y-160.725
X88.068Y-82.517
X88.093Y-129.81
X88.103Y-112.84
X88.112Y-114.263
X88.112Y-164.39
X88.112Y-108.516
X88.131Y-160.324
X88.133Y-157.802
X88.138Y-93.665
X88.14Y-145.621
X88.16Y-165.661
X88.163Y-165.265
X88.167Y-144.605
X88.168Y-164.816
X88.172Y-109.938
X88.178Y-83.107
X88.188Y-92.839
X88.194Y-116.856
X88.221Y-115.84
X88.227Y-150.504
X88.227Y-152.333
X88.237Y-130.851
X88.237Y-158.249
X88.239Y-82.078
X88.241Y-126.003
X88.271Y-159.959
X88.296Y-129.403
X88.306Y-112.434
X88.315Y-113.856
X88.316Y-108.109
X88.343Y-146.027
X88.37Y-144.198
X88.378Y-109.532
X88.397Y-117.263
X88.417Y-93.333
X88.425Y-115.434
X88.43Y-150.91
X88.43Y-151.926
X88.437Y-171.132
X88.439Y-92.397
X88.44Y-131.232
X88.444Y-160.951
X88.456Y-159.597
X88.463Y-161.335
X88.463Y-161.741
X88.463Y-162.148
X88.463Y-162.554
X88.463Y-162.96
X88.463Y-163.367
X88.463Y-163.773
X88.463Y-166.28
X88.463Y-166.687
X88.463Y-167.093
X88.463Y-167.5
X88.463Y-167.906
X88.463Y-168.312
X88.463Y-168.719
X88.463Y-169.125
X88.463Y-169.532
X88.463Y-169.938
X88.463Y-170.344
X88.463Y-170.751
X88.463Y-82.793
X88.491Y-160.589
X88.494Y-157.536
X88.5Y-129.81
X88.51Y-112.84
X88.518Y-114.263
X88.518Y-164.187
X88.518Y-164.593
X88.518Y-165.475
X88.518Y-165.881
X88.519Y-108.516
X88.528Y-165.047
X88.546Y-145.621
X88.551Y-157.991
X88.569Y-128.236
X88.574Y-144.605
X88.581Y-109.938
X88.586Y-160.276
X88.594Y-127.029
X88.6Y-116.856
X88.609Y-91.919
X88.628Y-115.84
X88.633Y-150.504
X88.633Y-152.333
X88.643Y-130.851
X88.655Y-82.424
X88.692Y-91.418
X88.695Y-92.992
X88.695Y-159.268
X88.697Y-87.259
X88.698Y-90.877
X88.698Y-87.785
X88.698Y-88.293
X88.698Y-88.858
X88.698Y-89.366
X88.698Y-89.874
X88.698Y-90.382
X88.703Y-129.403
X88.713Y-112.434
X88.713Y-128.897
X88.718Y-159.959
X88.721Y-113.856
X88.722Y-108.109
X88.731Y-86.752
X88.745Y-128.609
X88.749Y-146.027
X88.777Y-126.658
X88.777Y-144.198
X88.781Y-82.005
X88.784Y-109.532
X88.803Y-117.263
X88.831Y-115.434
X88.832Y-86.254
X88.836Y-150.91
X88.836Y-151.926
X88.846Y-131.232
X88.88Y-157.308
X88.89Y-157.767
X88.898Y-159.667
X88.906Y-129.81
X88.916Y-112.84
X88.924Y-114.263
X88.925Y-108.516
X88.931Y-92.542
X88.953Y-145.621
X88.975Y-128.231
X88.98Y-144.605
X88.981Y-158.98
X88.988Y-109.938
X88.999Y-85.774
X89.0Y-127.034
X89.007Y-116.856
X89.034Y-115.84
X89.039Y-150.504
X89.039Y-152.333
X89.049Y-130.851
X89.083Y-143.678
X89.087Y-88.037
X89.087Y-88.545
X89.097Y-92.062
X89.109Y-129.403
X89.119Y-112.434
X89.123Y-89.122
X89.123Y-89.63
X89.128Y-113.856
X89.128Y-108.109
X89.135Y-90.104
X89.135Y-90.612
X89.137Y-159.383
X89.152Y-87.496
X89.165Y-146.142
X89.179Y-128.612
X89.189Y-91.563
X89.191Y-109.532
X89.205Y-91.055
X89.209Y-126.657
X89.21Y-117.263
X89.215Y-87.005
X89.227Y-85.321
X89.237Y-115.434
X89.243Y-150.91
X89.243Y-151.926
X89.251Y-157.579
X89.253Y-131.232
X89.288Y-157.122
X89.291Y-158.714
X89.293Y-86.503
X89.312Y-129.81
X89.322Y-112.84
X89.331Y-114.263
X89.332Y-108.516
X89.382Y-128.206
X89.384Y-159.176
X89.388Y-144.069
X89.394Y-109.938
X89.413Y-127.064
X89.413Y-116.856
X89.441Y-115.84
X89.446Y-150.504
X89.446Y-152.333
X89.447Y-86.019
X89.456Y-130.851
X89.514Y-84.901
X89.516Y-129.403
X89.526Y-112.434
X89.534Y-113.856
X89.535Y-108.109
X89.571Y-146.142
X89.585Y-128.612
X89.597Y-109.532
X89.616Y-126.657
X89.616Y-117.263
X89.628Y-157.43
X89.644Y-115.434
X89.649Y-150.91
X89.649Y-151.926
X89.659Y-131.232
X89.66Y-158.537
X89.663Y-158.964
X89.674Y-85.564
X89.713Y-156.978
X89.719Y-129.81
X89.729Y-112.84
X89.734Y-143.678
X89.737Y-114.263
X89.738Y-108.516
X89.8Y-109.938
X89.819Y-116.856
X89.827Y-84.555
X89.847Y-115.84
X89.852Y-150.504
X89.852Y-152.333
X89.862Y-130.851
X89.922Y-129.403
X89.932Y-112.434
X89.94Y-113.856
X89.941Y-108.109
X89.967Y-85.15
X89.978Y-146.142
X89.98Y-158.815
X89.992Y-128.612
X89.998Y-144.069
X90.004Y-109.532
X90.022Y-126.657
X90.023Y-117.263
X90.024Y-157.304
X90.039Y-158.39
X90.05Y-115.434
X90.065Y-131.232
X90.091Y-150.832
X90.093Y-144.653
X90.105Y-151.981
X90.113Y-145.621
X90.125Y-129.81
X90.135Y-112.84
X90.144Y-114.263
X90.144Y-108.516
X90.15Y-156.879
X90.162Y-84.173
X90.207Y-109.938
X90.226Y-116.856
X90.253Y-115.84
X90.269Y-130.851
X90.293Y-143.678
X90.314Y-158.711
X90.321Y-84.785
X90.328Y-129.403
X90.338Y-112.434
X90.347Y-113.856
X90.348Y-108.109
X90.356Y-145.113
X90.41Y-109.532
X90.42Y-157.25
X90.429Y-117.263
X90.435Y-158.297
X90.443Y-126.661
X90.444Y-83.751
X90.457Y-115.434
X90.459Y-146.153
X90.472Y-131.232
X90.496Y-128.627
X90.531Y-144.095
X90.532Y-129.81
X90.542Y-112.84
X90.55Y-114.263
X90.551Y-108.516
X90.574Y-144.664
X90.594Y-145.631
X90.595Y-156.826
X90.613Y-109.938
X90.632Y-116.856
X90.66Y-115.84
X90.66Y-158.655
X90.666Y-125.899
X90.666Y-126.321
X90.668Y-83.295
X90.671Y-125.45
X90.675Y-130.851
X90.676Y-84.331
X90.735Y-129.403
X90.745Y-112.434
X90.753Y-113.856
X90.754Y-108.109
X90.816Y-109.532
X90.826Y-157.223
X90.826Y-158.239
X90.83Y-82.813
X90.835Y-117.263
X90.863Y-115.434
X90.865Y-146.153
X90.878Y-131.232
X90.903Y-143.703
X90.927Y-82.315
X90.938Y-129.81
X90.943Y-83.899
X90.948Y-112.84
X90.956Y-114.263
X90.957Y-108.516
X91.02Y-109.938
X91.028Y-156.816
X91.039Y-116.856
X91.066Y-115.84
X91.069Y-158.64
X91.081Y-130.851
X91.098Y-125.371
X91.151Y-112.434
X91.158Y-83.438
X91.16Y-113.856
X91.16Y-108.109
X91.217Y-144.095
X91.223Y-109.532
X91.232Y-157.222
X91.232Y-158.238
X91.242Y-117.263
X91.269Y-115.434
X91.271Y-146.153
X91.285Y-131.232
X91.318Y-82.956
X91.344Y-129.81
X91.354Y-112.84
X91.363Y-114.263
X91.364Y-108.516
X91.42Y-82.459
X91.426Y-109.938
X91.435Y-156.816
X91.435Y-158.645
X91.445Y-116.856
X91.465Y-81.952
X91.473Y-115.84
X91.48Y-143.703
X91.488Y-130.851
X91.519Y-125.381
X91.549Y-145.625
X91.558Y-112.434
X91.566Y-113.856
X91.567Y-108.109
X91.629Y-109.532
X91.638Y-157.222
X91.638Y-158.238
X91.648Y-117.263
X91.676Y-115.434
X91.691Y-131.232
X91.751Y-129.81
X91.752Y-146.031
X91.761Y-112.84
X91.769Y-114.263
X91.77Y-108.516
X91.771Y-155.887
X91.781Y-144.064
X91.832Y-109.938
X91.842Y-156.816
X91.842Y-158.645
X91.851Y-116.856
X91.879Y-115.84
X91.894Y-130.851
X91.943Y-112.468
X91.949Y-144.588
X91.951Y-125.376
X91.956Y-145.625
X91.972Y-113.856
X91.973Y-108.109
X92.029Y-109.535
X92.045Y-157.222
X92.045Y-158.238
X92.055Y-117.263
X92.082Y-115.434
X92.097Y-131.232
X92.157Y-129.81
X92.159Y-146.031
X92.163Y-112.827
X92.176Y-108.516
X92.188Y-114.27
X92.211Y-144.212
X92.258Y-116.856
X92.269Y-109.956
X92.285Y-115.84
X92.301Y-130.851
X92.334Y-156.293
X92.346Y-112.413
X92.362Y-145.625
X92.369Y-148.964
X92.377Y-144.598
X92.378Y-125.381
X92.381Y-149.435
X92.381Y-153.73
X92.381Y-154.136
X92.381Y-154.543
X92.381Y-154.949
X92.381Y-155.355
X92.381Y-155.762
X92.382Y-113.855
X92.386Y-108.109
X92.435Y-109.536
X92.461Y-117.263
X92.489Y-115.434
X92.496Y-148.472
X92.504Y-131.232
X92.564Y-129.81
X92.564Y-112.787
X92.565Y-146.031
X92.583Y-108.515
X92.628Y-144.212
X92.643Y-114.234
X92.664Y-116.856
X92.692Y-115.84
X92.707Y-110.015
X92.707Y-130.851
X92.739Y-112.308
X92.74Y-148.027
X92.768Y-145.625
X92.784Y-113.796
X92.787Y-149.232
X92.787Y-149.639
X92.787Y-153.527
X92.787Y-153.933
X92.787Y-154.339
X92.787Y-154.746
X92.787Y-155.152
X92.787Y-155.559
X92.787Y-155.965
X92.793Y-144.598
X92.8Y-125.376
X92.81Y-148.815
X92.838Y-109.594
X92.843Y-108.134
X92.867Y-117.263
X92.895Y-115.434
X92.91Y-131.232
X92.95Y-112.66
X92.96Y-148.437
X92.97Y-129.81
X92.972Y-146.031
X92.985Y-108.572
X93.011Y-156.947
X93.016Y-158.046
X93.052Y-144.218
X93.071Y-116.856
X93.087Y-147.656
X93.094Y-114.136
X93.098Y-115.84
X93.103Y-112.091
X93.113Y-130.851
X93.145Y-110.186
X93.175Y-113.683
X93.175Y-145.625
X93.209Y-148.094
X93.214Y-109.748
X93.217Y-144.604
X93.264Y-125.358
X93.274Y-117.263
X93.299Y-108.235
X93.301Y-115.434
X93.302Y-112.456
X93.317Y-131.232
X93.37Y-142.84
X93.374Y-108.69
X93.376Y-129.81
X93.378Y-146.031
X93.379Y-142.402
X93.391Y-111.789
X93.433Y-110.538
X93.458Y-126.184
X93.458Y-127.538
X93.47Y-125.747
X93.473Y-143.259
X93.473Y-143.666
X93.473Y-144.072
X93.475Y-127.075
X93.475Y-128.429
X93.477Y-116.856
X93.48Y-126.638
X93.485Y-128.002
X93.485Y-128.912
X93.505Y-115.84
X93.52Y-130.851
X93.522Y-147.835
X93.528Y-113.978
X93.542Y-109.988
X93.543Y-147.397
X93.545Y-157.48
X93.546Y-113.518
X93.566Y-111.4
X93.58Y-129.403
X93.581Y-145.625
X93.604Y-112.184
X93.605Y-110.933
X93.628Y-144.591
X93.68Y-117.263
X93.708Y-115.434
X93.714Y-141.862
X93.723Y-131.232
X93.725Y-141.469
X93.736Y-108.404
X93.741Y-108.865
X93.747Y-142.68
X93.759Y-142.268
X93.783Y-129.81
X93.784Y-150.06
X93.799Y-110.302
X93.803Y-149.241
X93.803Y-149.647
X93.803Y-153.527
X93.803Y-153.933
X93.803Y-154.339
X93.803Y-154.746
X93.803Y-155.152
X93.803Y-155.559
X93.803Y-155.965
X93.834Y-111.86
X93.848Y-146.01
X93.879Y-143.056
X93.879Y-143.462
X93.879Y-143.869
X93.879Y-144.275
X93.883Y-116.856
X93.89Y-113.305
X93.896Y-147.671
X93.911Y-115.84
X93.926Y-130.851
X93.936Y-113.763
X93.945Y-148.874
X93.964Y-110.674
X93.977Y-111.48
X93.986Y-129.403
X93.99Y-145.58
X94.015Y-111.076
X94.025Y-147.238
X94.077Y-109.093
X94.082Y-156.953
X94.087Y-117.263
X94.108Y-158.046
X94.114Y-115.434
X94.129Y-131.232
X94.142Y-108.636
X94.173Y-149.89
X94.189Y-129.81
X94.205Y-113.046
X94.209Y-149.444
X94.209Y-153.73
X94.209Y-154.136
X94.209Y-154.543
X94.209Y-154.949
X94.209Y-155.355
X94.209Y-155.762
X94.245Y-153.249
X94.288Y-148.656
X94.29Y-116.856
X94.305Y-147.61
X94.306Y-149.061
X94.308Y-150.263
X94.308Y-113.487
X94.317Y-115.84
X94.333Y-130.851
X94.344Y-145.375
X94.356Y-145.844
X94.362Y-151.696
X94.362Y-152.178
X94.362Y-152.712
X94.382Y-109.364
X94.387Y-150.654
X94.387Y-151.188
X94.392Y-129.403
X94.493Y-112.741
X94.493Y-117.263
X94.505Y-147.2
X94.521Y-115.434
X94.522Y-108.927
X94.536Y-131.232
X94.58Y-140.701
X94.596Y-129.81
X94.634Y-149.917
X94.64Y-109.689
X94.641Y-145.083
X94.644Y-149.366
X94.655Y-113.178
X94.684Y-148.622
X94.684Y-155.788
X94.696Y-116.856
X94.712Y-147.606
X94.713Y-112.411
X94.724Y-115.84
X94.739Y-130.851
X94.768Y-151.391
X94.768Y-151.873
X94.768Y-152.407
X94.768Y-152.966
X94.794Y-145.528
X94.794Y-150.349
X94.794Y-150.883
X94.799Y-129.403
X94.819Y-156.293
X94.822Y-141.034
X94.836Y-110.044
X94.841Y-109.273
X94.845Y-144.714
X94.872Y-158.833
X94.885Y-112.043
X94.887Y-149.029
X94.899Y-117.263
X94.901Y-144.327
X94.902Y-143.108
X94.902Y-143.514
X94.902Y-143.921
X94.903Y-141.444
X94.915Y-147.2
X94.927Y-115.434
X94.93Y-140.473
X94.942Y-131.232
X94.944Y-112.81
X94.948Y-158.236
X94.974Y-110.427
X94.999Y-111.653
X95.002Y-129.81
X95.03Y-142.289
X95.035Y-141.848
X95.042Y-142.698
X95.048Y-110.827
X95.056Y-111.235
X95.09Y-148.622
X95.101Y-109.666
X95.103Y-116.856
X95.105Y-145.102
X95.118Y-147.606
X95.129Y-130.851
X95.13Y-115.84
X95.137Y-158.656
X95.149Y-155.887
X95.162Y-140.806
X95.174Y-112.403
X95.205Y-129.403
X95.278Y-144.605
X95.293Y-149.029
X95.295Y-110.096
X95.299Y-141.185
X95.306Y-117.263
X95.309Y-143.311
X95.309Y-143.718
X95.309Y-144.125
X95.321Y-147.2
X95.332Y-131.232
X95.333Y-115.434
X95.336Y-157.234
X95.339Y-111.965
X95.355Y-158.25
X95.38Y-141.595
X95.408Y-129.81
X95.418Y-110.551
X95.418Y-142.899
X95.429Y-142.026
X95.429Y-142.467
X95.436Y-111.507
X95.466Y-111.021
X95.496Y-148.622
X95.509Y-116.856
X95.525Y-147.606
X95.535Y-130.851
X95.537Y-115.84
X95.54Y-156.827
X95.558Y-158.656
X95.612Y-129.403
X95.7Y-149.029
X95.712Y-117.263
X95.728Y-147.2
X95.739Y-131.232
X95.74Y-115.434
X95.743Y-157.234
X95.761Y-158.25
X95.815Y-129.81
X95.903Y-148.622
X95.915Y-116.856
X95.931Y-147.606
X95.938Y-130.852
X95.943Y-115.84
X95.946Y-156.827
X95.964Y-158.656
X96.023Y-129.404
X96.106Y-149.029
X96.119Y-117.263
X96.134Y-147.2
X96.141Y-131.258
X96.146Y-115.434
X96.149Y-157.234
X96.167Y-158.25
X96.226Y-129.81
X96.309Y-148.622
X96.322Y-116.856
X96.337Y-147.606
X96.344Y-130.852
X96.349Y-115.84
X96.352Y-156.827
X96.371Y-158.656
X96.429Y-129.404
X96.512Y-149.029
X96.541Y-147.2
X96.541Y-117.261
X96.547Y-131.258
X96.556Y-157.234
X96.572Y-115.419
X96.574Y-158.25
X96.633Y-129.81
X96.716Y-148.622
X96.728Y-116.84
X96.744Y-147.606
X96.75Y-130.852
X96.754Y-115.808
X96.759Y-156.827
X96.777Y-158.656
X96.836Y-129.404
X96.919Y-149.029
X96.947Y-147.2
X96.954Y-131.258
X96.962Y-157.234
X96.98Y-158.25
X96.993Y-115.292
X97.007Y-117.208
X97.039Y-129.81
X97.063Y-95.349
X97.1Y-98.005
X97.102Y-95.848
X97.108Y-96.434
X97.118Y-97.488
X97.121Y-96.929
X97.122Y-148.622
X97.124Y-94.845
X97.127Y-98.617
X97.127Y-116.762
X97.137Y-115.67
X97.15Y-147.606
X97.157Y-130.852
X97.165Y-156.827
X97.183Y-158.656
X97.242Y-129.404
X97.268Y-94.358
X97.31Y-99.309
X97.325Y-149.029
X97.333Y-115.022
X97.353Y-147.2
X97.36Y-131.258
X97.368Y-157.234
X97.387Y-158.25
X97.445Y-129.81
X97.462Y-117.079
X97.468Y-115.435
X97.49Y-93.901
X97.508Y-116.62
X97.528Y-148.622
X97.557Y-147.606
X97.563Y-130.852
X97.563Y-97.85
X97.566Y-95.624
X97.568Y-114.643
X97.569Y-97.301
X97.572Y-156.827
X97.574Y-98.415
X97.574Y-98.91
X97.585Y-96.774
X97.59Y-96.226
X97.59Y-158.656
X97.613Y-94.989
X97.649Y-129.404
X97.685Y-99.958
X97.699Y-99.526
X97.71Y-100.396
X97.716Y-100.8
X97.732Y-149.029
X97.74Y-114.257
X97.747Y-115.139
X97.757Y-94.502
X97.76Y-147.2
X97.765Y-113.822
X97.765Y-101.213
X97.765Y-101.619
X97.765Y-102.026
X97.765Y-102.432
X97.765Y-102.839
X97.765Y-103.245
X97.765Y-103.651
X97.765Y-104.058
X97.765Y-104.464
X97.765Y-104.871
X97.765Y-105.277
X97.765Y-105.683
X97.765Y-106.09
X97.765Y-106.496
X97.765Y-106.903
X97.765Y-107.309
X97.765Y-107.715
X97.765Y-108.122
X97.765Y-108.528
X97.765Y-108.935
X97.765Y-109.341
X97.765Y-109.747
X97.765Y-110.154
X97.765Y-110.56
X97.765Y-110.967
X97.765Y-111.373
X97.765Y-111.779
X97.765Y-112.186
X97.765Y-112.592
X97.765Y-112.999
X97.765Y-113.405
X97.766Y-131.258
X97.775Y-157.234
X97.793Y-158.25
X97.844Y-93.501
X97.852Y-129.81
X97.86Y-116.419
X97.89Y-116.88
X97.935Y-148.622
X97.963Y-147.606
X97.966Y-114.797
X97.97Y-130.877
X97.978Y-156.827
X97.996Y-158.656
X98.017Y-98.041
X98.024Y-97.53
X98.048Y-100.181
X98.053Y-99.772
X98.055Y-129.404
X98.064Y-100.6
X98.106Y-99.372
X98.109Y-114.416
X98.123Y-101.003
X98.138Y-149.029
X98.166Y-147.2
X98.17Y-114.015
X98.172Y-101.416
X98.172Y-101.823
X98.172Y-102.229
X98.172Y-102.635
X98.172Y-103.042
X98.172Y-103.448
X98.172Y-103.855
X98.172Y-104.261
X98.172Y-104.667
X98.172Y-105.074
X98.172Y-105.48
X98.172Y-105.887
X98.172Y-106.293
X98.172Y-106.699
X98.172Y-107.106
X98.172Y-107.512
X98.172Y-107.919
X98.172Y-108.325
X98.172Y-108.731
X98.172Y-109.138
X98.172Y-109.544
X98.172Y-109.951
X98.172Y-110.357
X98.172Y-110.763
X98.172Y-111.17
X98.172Y-111.576
X98.172Y-111.983
X98.172Y-112.389
X98.172Y-112.795
X98.172Y-113.202
X98.172Y-113.608
X98.173Y-131.258
X98.181Y-157.234
X98.183Y-116.17
X98.199Y-158.25
X98.201Y-93.112
X98.258Y-129.81
X98.279Y-116.613
X98.341Y-148.622
X98.369Y-147.606
X98.376Y-130.877
X98.384Y-156.827
X98.403Y-158.656
X98.461Y-129.404
X98.466Y-115.878
X98.468Y-97.931
X98.472Y-97.532
X98.496Y-93.48
X98.544Y-149.029
X98.573Y-147.2
X98.579Y-131.258
X98.588Y-157.234
X98.606Y-158.25
X98.635Y-116.3
X98.665Y-129.81
X98.676Y-92.582
X98.719Y-115.543
X98.748Y-148.622
X98.776Y-147.606
X98.782Y-130.852
X98.791Y-156.827
X98.809Y-158.656
X98.855Y-93.121
X98.868Y-129.378
X98.913Y-97.532
X98.914Y-97.96
X98.917Y-115.189
X98.925Y-115.955
X98.951Y-149.029
X98.979Y-147.2
X98.986Y-131.233
X98.994Y-157.234
X99.012Y-158.25
X99.035Y-92.223
X99.044Y-88.906
X99.066Y-114.811
X99.071Y-129.785
X99.154Y-148.622
X99.161Y-114.426
X99.179Y-115.568
X99.182Y-147.606
X99.188Y-101.416
X99.188Y-101.823
X99.188Y-102.229
X99.188Y-102.635
X99.188Y-103.042
X99.188Y-103.448
X99.188Y-103.855
X99.188Y-104.261
X99.188Y-104.667
X99.188Y-105.074
X99.188Y-105.48
X99.188Y-105.887
X99.188Y-106.293
X99.188Y-106.699
X99.188Y-107.106
X99.188Y-107.512
X99.188Y-107.919
X99.188Y-108.325
X99.188Y-108.731
X99.188Y-109.138
X99.188Y-109.544
X99.188Y-109.951
X99.188Y-110.357
X99.188Y-110.763
X99.188Y-111.17
X99.188Y-111.576
X99.188Y-111.983
X99.188Y-112.389
X99.188Y-112.795
X99.188Y-113.202
X99.188Y-113.608
X99.189Y-130.852
X99.197Y-156.827
X99.2Y-114.022
X99.214Y-92.761
X99.215Y-158.656
X99.231Y-99.372
X99.251Y-101.01
X99.255Y-91.381
X99.274Y-129.378
X99.295Y-99.786
X99.302Y-100.2
X99.305Y-100.596
X99.357Y-149.029
X99.376Y-115.151
X99.38Y-97.549
X99.38Y-97.978
X99.385Y-147.2
X99.392Y-131.233
X99.394Y-91.863
X99.4Y-157.234
X99.419Y-158.25
X99.477Y-129.785
X99.501Y-114.713
X99.508Y-88.912
X99.56Y-148.622
X99.574Y-92.402
X99.578Y-114.257
X99.589Y-147.606
X99.594Y-101.213
X99.594Y-101.619
X99.594Y-102.026
X99.594Y-102.432
X99.594Y-102.839
X99.594Y-103.245
X99.594Y-103.651
X99.594Y-104.058
X99.594Y-104.464
X99.594Y-104.871
X99.594Y-105.277
X99.594Y-105.683
X99.594Y-106.09
X99.594Y-106.496
X99.594Y-106.903
X99.594Y-107.309
X99.594Y-107.715
X99.594Y-108.122
X99.594Y-108.528
X99.594Y-108.935
X99.594Y-109.341
X99.594Y-109.747
X99.594Y-110.154
X99.594Y-110.56
X99.594Y-110.967
X99.594Y-111.373
X99.594Y-111.779
X99.594Y-112.186
X99.594Y-112.592
X99.594Y-112.999
X99.594Y-113.405
X99.594Y-113.813
X99.595Y-130.852
X99.604Y-156.827
X99.622Y-158.656
X99.657Y-100.807
X99.681Y-129.378
X99.705Y-99.961
X99.712Y-100.389
X99.753Y-91.504
X99.764Y-149.029
X99.787Y-95.789
X99.792Y-147.2
X99.798Y-131.233
X99.807Y-157.234
X99.825Y-158.25
X99.852Y-97.528
X99.853Y-97.957
X99.861Y-95.204
X99.884Y-129.785
X99.933Y-92.043
X99.961Y-88.918
X99.967Y-148.622
X99.981Y-88.059
X99.982Y-88.556
X99.983Y-87.516
X99.984Y-87.008
X99.995Y-147.606
X100.002Y-130.852
X100.01Y-156.827
X100.026Y-86.501
X100.028Y-158.656
X100.087Y-129.378
X100.107Y-86.0
X100.17Y-149.029
X100.198Y-147.2
X100.205Y-131.233
X100.213Y-157.234
X100.22Y-94.845
X100.22Y-95.737
X100.227Y-85.506
X100.231Y-158.25
X100.235Y-91.717
X100.29Y-129.785
X100.29Y-132.105
X100.361Y-95.345
X100.373Y-148.622
X100.385Y-85.024
X100.401Y-147.606
X100.408Y-130.852
X100.416Y-156.827
X100.435Y-158.656
X100.459Y-91.344
X100.471Y-88.9
X100.473Y-88.407
X100.479Y-87.843
X100.488Y-87.153
X100.493Y-129.378
X100.521Y-86.646
X100.57Y-149.021
X100.579Y-94.486
X100.58Y-84.554
X100.596Y-86.143
X100.605Y-147.2
X100.611Y-131.233
X100.62Y-157.234
X100.638Y-158.25
X100.697Y-129.785
X100.714Y-85.649
X100.759Y-95.025
X100.782Y-148.648
X100.808Y-147.606
X100.812Y-84.102
X100.814Y-130.852
X100.823Y-156.827
X100.841Y-158.656
X100.874Y-85.167
X100.9Y-129.378
X100.939Y-94.126
X100.986Y-149.054
X101.011Y-147.2
X101.018Y-131.233
X101.026Y-157.234
X101.044Y-158.25
X101.073Y-84.7
X101.078Y-83.669
X101.103Y-129.785
X101.189Y-148.648
X101.214Y-147.606
X101.221Y-130.852
X101.229Y-156.827
X101.247Y-158.656
X101.298Y-93.767
X101.306Y-129.378
X101.312Y-84.251
X101.376Y-83.259
X101.392Y-149.054
X101.408Y-147.218
X101.424Y-131.233
X101.432Y-157.234
X101.451Y-158.25
X101.477Y-94.306
X101.509Y-129.785
X101.587Y-83.824
X101.592Y-148.622
X101.621Y-147.606
X101.627Y-130.852
X101.636Y-156.827
X101.654Y-158.656
X101.657Y-93.408
X101.706Y-82.872
X101.713Y-129.378
X101.796Y-149.029
X101.824Y-147.2
X101.83Y-131.233
X101.836Y-93.947
X101.837Y-93.228
X101.839Y-157.234
X101.857Y-158.25
X101.898Y-83.423
X101.916Y-129.785
X101.999Y-148.622
X102.001Y-82.552
X102.027Y-147.606
X102.034Y-130.852
X102.042Y-156.827
X102.06Y-158.656
X102.119Y-129.378
X102.163Y-92.839
X102.196Y-93.588
X102.202Y-149.029
X102.21Y-82.089
X102.23Y-147.2
X102.237Y-131.233
X102.242Y-83.048
X102.245Y-157.234
X102.263Y-158.25
X102.322Y-129.785
X102.369Y-93.401
X102.405Y-148.622
X102.415Y-92.397
X102.433Y-147.606
X102.44Y-130.852
X102.448Y-156.827
X102.45Y-82.796
X102.467Y-158.656
X102.525Y-129.378
X102.558Y-136.356
X102.584Y-91.919
X102.608Y-149.029
X102.626Y-131.233
X102.632Y-136.917
X102.637Y-147.2
X102.652Y-157.234
X102.666Y-87.813
X102.667Y-88.868
X102.667Y-88.334
X102.667Y-89.389
X102.667Y-91.418
X102.669Y-82.337
X102.67Y-92.992
X102.67Y-158.25
X102.671Y-87.286
X102.672Y-89.874
X102.673Y-90.395
X102.676Y-90.923
X102.705Y-86.779
X102.729Y-129.785
X102.752Y-137.362
X102.806Y-86.281
X102.812Y-148.622
X102.84Y-147.606
X102.846Y-130.869
X102.855Y-156.827
X102.866Y-135.7
X102.866Y-136.106
X102.873Y-158.656
X102.876Y-131.636
X102.876Y-132.043
X102.876Y-132.449
X102.876Y-132.855
X102.876Y-133.262
X102.876Y-133.668
X102.876Y-134.075
X102.876Y-134.481
X102.876Y-134.887
X102.884Y-135.29
X102.895Y-137.752
X102.9Y-139.186
X102.901Y-138.742
X102.906Y-92.542
X102.926Y-138.208
X102.939Y-136.56
X102.972Y-85.801
X102.983Y-129.394
X103.023Y-149.029
X103.058Y-157.234
X103.071Y-147.203
X103.072Y-92.062
X103.076Y-158.25
X103.082Y-137.156
X103.122Y-88.161
X103.122Y-87.627
X103.122Y-88.681
X103.132Y-129.836
X103.146Y-89.755
X103.146Y-89.221
X103.164Y-91.563
X103.18Y-90.191
X103.18Y-91.055
X103.185Y-90.617
X103.189Y-87.032
X103.201Y-85.347
X103.208Y-131.046
X103.218Y-148.624
X103.237Y-147.548
X103.26Y-135.497
X103.261Y-156.827
X103.266Y-86.53
X103.269Y-131.433
X103.269Y-131.839
X103.269Y-132.246
X103.269Y-132.652
X103.269Y-133.059
X103.269Y-133.465
X103.269Y-133.871
X103.269Y-134.278
X103.269Y-134.684
X103.269Y-135.091
X103.273Y-135.903
X103.278Y-136.287
X103.279Y-158.656
X103.333Y-137.954
X103.333Y-138.462
X103.333Y-139.021
X103.338Y-137.54
X103.387Y-139.462
X103.421Y-86.046
X103.464Y-157.234
X103.476Y-129.522
X103.481Y-149.003
X103.483Y-158.25
X103.488Y-84.928
X103.505Y-147.082
X103.516Y-129.946
X103.532Y-139.948
X103.618Y-147.472
X103.62Y-148.564
X103.647Y-85.591
X103.668Y-156.827
X103.686Y-158.656
X103.786Y-84.593
X103.846Y-139.648
X103.871Y-157.234
X103.872Y-130.174
X103.889Y-158.25
X103.89Y-146.867
X103.921Y-129.77
X103.935Y-148.9
X103.941Y-85.177
X103.998Y-147.277
X104.008Y-148.444
X104.038Y-140.044
X104.038Y-140.495
X104.074Y-156.827
X104.092Y-158.656
X104.121Y-84.211
X104.126Y-130.479
X104.166Y-146.518
X104.277Y-157.234
X104.294Y-84.812
X104.295Y-130.896
X104.295Y-158.25
X104.298Y-131.715
X104.298Y-132.122
X104.298Y-132.528
X104.298Y-132.935
X104.298Y-133.341
X104.298Y-133.747
X104.298Y-134.154
X104.298Y-134.56
X104.298Y-134.967
X104.298Y-135.373
X104.303Y-131.317
X104.303Y-147.029
X104.306Y-130.112
X104.329Y-135.788
X104.331Y-146.117
X104.37Y-148.731
X104.389Y-148.263
X104.404Y-83.789
X104.422Y-145.716
X104.462Y-144.127
X104.462Y-144.533
X104.462Y-144.939
X104.466Y-140.444
X104.466Y-140.85
X104.466Y-141.257
X104.466Y-141.663
X104.466Y-142.069
X104.466Y-142.476
X104.466Y-142.882
X104.466Y-143.289
X104.466Y-143.695
X104.48Y-156.827
X104.482Y-145.33
X104.499Y-158.656
X104.543Y-146.701
X104.559Y-130.548
X104.629Y-83.333
X104.675Y-146.338
X104.684Y-157.234
X104.702Y-158.25
X104.704Y-131.508
X104.704Y-131.919
X104.704Y-132.325
X104.704Y-132.731
X104.704Y-133.138
X104.704Y-133.544
X104.704Y-133.951
X104.704Y-134.357
X104.704Y-134.763
X104.704Y-135.17
X104.704Y-135.586
X104.717Y-131.029
X104.726Y-148.036
X104.775Y-148.499
X104.793Y-82.853
X104.799Y-145.951
X104.848Y-145.553
X104.868Y-144.33
X104.868Y-144.736
X104.868Y-145.143
X104.873Y-140.241
X104.873Y-140.647
X104.873Y-141.053
X104.873Y-141.46
X104.873Y-141.866
X104.873Y-142.273
X104.873Y-142.679
X104.873Y-143.085
X104.873Y-143.492
X104.873Y-143.898
X104.887Y-156.827
X104.894Y-82.355
X104.905Y-158.656
X105.024Y-147.782
X105.09Y-157.234
X105.108Y-158.25
X105.141Y-148.201
X105.192Y-135.635
X105.293Y-156.827
X105.294Y-147.472
X105.311Y-158.656
X105.386Y-82.499
X105.434Y-81.993
X105.462Y-147.863
X105.496Y-157.234
X105.515Y-158.25
X105.518Y-147.106
X105.694Y-146.74
X105.7Y-156.827
X105.7Y-135.61
X105.718Y-158.656
X105.734Y-147.497
X105.828Y-146.356
X105.89Y-145.959
X105.903Y-157.234
X105.921Y-158.25
X105.93Y-145.549
X105.935Y-144.33
X105.935Y-144.736
X105.935Y-145.143
X105.94Y-140.241
X105.94Y-140.647
X105.94Y-141.053
X105.94Y-141.46
X105.94Y-141.866
X105.94Y-142.273
X105.94Y-142.679
X105.94Y-143.085
X105.94Y-143.492
X105.94Y-143.898
X105.945Y-147.095
X106.106Y-156.827
X106.118Y-146.677
X106.124Y-158.656
X106.158Y-135.635
X106.242Y-146.242
X106.309Y-157.234
X106.317Y-145.796
X106.327Y-158.25
X106.341Y-144.127
X106.341Y-144.533
X106.341Y-144.939
X106.341Y-145.351
X106.346Y-140.444
X106.346Y-140.85
X106.346Y-141.257
X106.346Y-141.663
X106.346Y-142.069
X106.346Y-142.476
X106.346Y-142.882
X106.346Y-143.289
X106.346Y-143.695
X106.512Y-156.827
X106.531Y-158.656
X106.584Y-130.883
X106.591Y-131.444
X106.595Y-131.851
X106.595Y-132.257
X106.595Y-132.663
X106.595Y-133.07
X106.595Y-133.476
X106.595Y-133.883
X106.595Y-134.289
X106.595Y-134.695
X106.595Y-135.102
X106.595Y-135.508
X106.716Y-157.234
X106.734Y-158.25
X106.746Y-140.264
X106.8Y-130.382
X106.851Y-140.73
X106.919Y-156.827
X106.937Y-158.656
X106.963Y-131.164
X106.976Y-131.643
X106.976Y-132.054
X106.976Y-132.46
X106.976Y-132.867
X106.976Y-133.273
X106.976Y-133.679
X106.976Y-134.086
X106.976Y-134.492
X106.976Y-134.899
X106.976Y-135.305
X106.976Y-135.721
X107.047Y-130.756
X107.122Y-157.234
X107.14Y-158.25
X107.141Y-129.966
X107.224Y-130.377
X107.237Y-140.229
X107.325Y-156.827
X107.343Y-158.656
X107.358Y-139.702
X107.528Y-157.234
X107.538Y-130.064
X107.542Y-129.64
X107.547Y-158.25
X107.669Y-140.048
X107.732Y-156.827
X107.75Y-158.656
X107.794Y-139.602
X107.899Y-129.861
X107.935Y-157.234
X107.953Y-158.25
X107.986Y-137.616
X107.986Y-138.023
X107.986Y-138.912
X108.006Y-138.462
X108.024Y-132.728
X108.024Y-133.135
X108.024Y-133.541
X108.024Y-133.947
X108.024Y-134.354
X108.024Y-134.76
X108.024Y-135.167
X108.024Y-135.573
X108.024Y-135.979
X108.044Y-129.454
X108.048Y-132.301
X108.05Y-131.438
X108.05Y-131.852
X108.062Y-131.027
X108.138Y-156.827
X108.156Y-158.656
X108.179Y-137.211
X108.19Y-139.344
X108.229Y-136.386
X108.307Y-129.776
X108.341Y-157.234
X108.349Y-158.26
X108.357Y-136.77
X108.392Y-132.042
X108.393Y-130.86
X108.397Y-131.612
X108.418Y-137.566
X108.418Y-137.997
X108.43Y-132.521
X108.43Y-132.931
X108.43Y-133.338
X108.43Y-133.744
X108.43Y-134.151
X108.43Y-134.557
X108.43Y-134.963
X108.43Y-135.37
X108.43Y-135.776
X108.444Y-138.429
X108.444Y-138.937
X108.467Y-131.215
X108.47Y-129.404
X108.522Y-156.867
X108.556Y-136.186
X108.57Y-137.112
X108.573Y-158.655
X108.646Y-136.604
X108.718Y-129.776
X108.747Y-157.221
X108.755Y-158.25
X108.765Y-130.856
X108.867Y-156.773
X108.881Y-129.379
X108.899Y-131.22
X109.02Y-158.622
X109.127Y-129.775
X109.148Y-157.154
X109.159Y-158.198
X109.159Y-130.855
X109.206Y-156.691
X109.322Y-129.394
X109.33Y-131.2
X109.462Y-158.541
X109.528Y-156.561
X109.535Y-157.03
X109.536Y-129.775
X109.554Y-158.104
X109.565Y-130.86
X109.764Y-129.409
X109.786Y-131.2
X109.829Y-156.386
X109.886Y-156.83
X109.893Y-158.415
X109.947Y-157.959
X109.967Y-129.775
X109.992Y-130.85
X110.101Y-156.17
X110.204Y-131.201
X110.222Y-156.601
X110.234Y-129.372
X110.308Y-158.243
X110.329Y-157.79
X110.34Y-155.916
X110.408Y-130.845
X110.438Y-129.779
X110.521Y-156.326
X110.526Y-155.618
X110.611Y-131.201
X110.641Y-129.372
X110.661Y-157.571
X110.697Y-155.328
X110.703Y-158.028
X110.764Y-155.997
X110.807Y-154.998
X110.814Y-130.845
X110.844Y-129.779
X110.869Y-154.656
X110.897Y-146.986
X110.897Y-147.399
X110.897Y-147.805
X110.897Y-148.211
X110.897Y-148.618
X110.897Y-149.024
X110.897Y-149.431
X110.897Y-149.837
X110.897Y-150.243
X110.897Y-150.65
X110.897Y-151.056
X110.897Y-151.463
X110.897Y-151.869
X110.897Y-152.275
X110.897Y-152.682
X110.897Y-153.088
X110.897Y-153.495
X110.897Y-153.901
X110.915Y-154.272
X110.928Y-146.531
X110.981Y-131.2
X110.982Y-157.323
X110.987Y-155.669
X111.023Y-146.079
X111.03Y-96.821
X111.03Y-97.329
X111.03Y-97.837
X111.03Y-98.345
X111.03Y-98.853
X111.03Y-99.361
X111.032Y-95.349
X111.044Y-95.872
X111.044Y-96.345
X111.055Y-129.353
X111.073Y-157.773
X111.093Y-94.845
X111.143Y-155.294
X111.179Y-145.643
X111.216Y-130.86
X111.237Y-94.357
X111.244Y-154.901
X111.258Y-129.759
X111.276Y-157.042
X111.288Y-154.497
X111.304Y-147.195
X111.304Y-147.602
X111.304Y-148.008
X111.304Y-148.415
X111.304Y-148.821
X111.304Y-149.227
X111.304Y-149.634
X111.304Y-150.04
X111.304Y-150.447
X111.304Y-150.853
X111.304Y-151.259
X111.304Y-151.666
X111.304Y-152.072
X111.304Y-152.479
X111.304Y-152.885
X111.304Y-153.291
X111.304Y-153.698
X111.304Y-154.104
X111.31Y-146.789
X111.352Y-146.382
X111.393Y-145.233
X111.414Y-157.48
X111.437Y-131.2
X111.46Y-93.901
X111.461Y-129.353
X111.476Y-145.995
X111.523Y-96.069
X111.535Y-95.548
X111.538Y-96.567
X111.538Y-97.075
X111.538Y-97.583
X111.538Y-98.091
X111.538Y-98.599
X111.538Y-99.107
X111.539Y-156.732
X111.557Y-99.925
X111.583Y-94.989
X111.607Y-100.356
X111.612Y-100.787
X111.639Y-145.623
X111.643Y-130.85
X111.647Y-99.499
X111.663Y-144.857
X111.664Y-129.759
X111.71Y-101.196
X111.71Y-101.602
X111.71Y-102.009
X111.71Y-102.415
X111.71Y-102.821
X111.71Y-103.228
X111.71Y-103.634
X111.71Y-104.041
X111.71Y-104.447
X111.71Y-104.853
X111.71Y-105.26
X111.71Y-105.666
X111.71Y-106.073
X111.71Y-106.479
X111.71Y-106.885
X111.71Y-107.292
X111.71Y-107.698
X111.71Y-108.105
X111.71Y-108.511
X111.71Y-108.917
X111.71Y-109.324
X111.71Y-109.73
X111.71Y-110.137
X111.71Y-110.543
X111.71Y-110.949
X111.71Y-111.356
X111.71Y-111.762
X111.71Y-112.169
X111.71Y-112.575
X111.716Y-113.153
X111.722Y-157.153
X111.727Y-94.502
X111.754Y-93.487
X111.772Y-156.389
X111.781Y-113.589
X111.852Y-145.277
X111.855Y-131.201
X111.868Y-129.353
X111.878Y-114.015
X111.927Y-93.3
X111.964Y-94.053
X111.965Y-156.037
X111.976Y-144.525
X111.989Y-98.02
X111.993Y-100.191
X111.993Y-100.602
X111.994Y-156.795
X111.996Y-97.508
X112.003Y-99.774
X112.022Y-114.433
X112.053Y-100.996
X112.058Y-99.358
X112.059Y-130.845
X112.071Y-129.759
X112.111Y-144.964
X112.116Y-101.399
X112.116Y-101.805
X112.116Y-102.212
X112.116Y-102.618
X112.116Y-103.025
X112.116Y-103.431
X112.116Y-103.837
X112.116Y-104.244
X112.116Y-104.65
X112.116Y-105.057
X112.116Y-105.463
X112.116Y-105.869
X112.116Y-106.276
X112.116Y-106.682
X112.116Y-107.089
X112.116Y-107.495
X112.116Y-107.901
X112.116Y-108.308
X112.116Y-108.714
X112.116Y-109.121
X112.116Y-109.527
X112.116Y-109.933
X112.116Y-110.34
X112.116Y-110.746
X112.116Y-111.153
X112.116Y-111.559
X112.116Y-111.965
X112.116Y-112.372
X112.116Y-112.778
X112.118Y-155.66
X112.146Y-113.313
X112.182Y-114.84
X112.222Y-113.712
X112.226Y-156.41
X112.229Y-155.27
X112.262Y-131.201
X112.274Y-129.353
X112.286Y-93.659
X112.286Y-92.941
X112.299Y-154.869
X112.313Y-144.236
X112.319Y-154.464
X112.32Y-147.555
X112.32Y-147.961
X112.32Y-148.368
X112.32Y-148.774
X112.32Y-149.18
X112.32Y-149.587
X112.32Y-149.993
X112.32Y-150.4
X112.32Y-150.806
X112.32Y-151.212
X112.32Y-151.619
X112.32Y-152.025
X112.32Y-152.432
X112.32Y-152.838
X112.32Y-153.244
X112.32Y-153.651
X112.32Y-154.057
X112.327Y-114.105
X112.33Y-147.148
X112.345Y-146.742
X112.374Y-115.233
X112.406Y-144.685
X112.423Y-156.003
X112.439Y-146.347
X112.441Y-98.011
X112.444Y-97.51
X112.465Y-130.845
X112.466Y-93.48
X112.476Y-114.488
X112.477Y-129.759
X112.569Y-155.578
X112.595Y-115.61
X112.615Y-145.98
X112.64Y-114.86
X112.645Y-92.582
X112.663Y-155.14
X112.663Y-131.226
X112.668Y-129.397
X112.675Y-143.979
X112.717Y-154.694
X112.726Y-146.981
X112.726Y-147.758
X112.726Y-148.164
X112.726Y-148.571
X112.726Y-148.977
X112.726Y-149.384
X112.726Y-149.79
X112.726Y-150.196
X112.726Y-150.603
X112.726Y-151.009
X112.726Y-151.416
X112.726Y-151.822
X112.726Y-152.228
X112.726Y-152.635
X112.726Y-153.041
X112.726Y-153.448
X112.726Y-153.854
X112.726Y-154.261
X112.726Y-144.434
X112.736Y-147.352
X112.777Y-146.636
X112.825Y-93.12
X112.832Y-115.218
X112.844Y-115.97
X112.863Y-145.658
X112.867Y-130.845
X112.871Y-129.804
X112.884Y-146.334
X112.886Y-97.51
X112.91Y-97.983
X112.98Y-88.909
X113.004Y-92.222
X113.05Y-115.561
X113.052Y-146.061
X113.059Y-143.756
X113.068Y-144.214
X113.07Y-131.226
X113.074Y-129.397
X113.119Y-116.309
X113.132Y-101.399
X113.132Y-101.805
X113.132Y-102.212
X113.132Y-102.618
X113.132Y-103.025
X113.132Y-103.431
X113.132Y-103.837
X113.132Y-104.244
X113.132Y-104.65
X113.132Y-105.057
X113.132Y-105.463
X113.132Y-105.869
X113.132Y-106.276
X113.132Y-106.682
X113.132Y-107.089
X113.132Y-107.495
X113.132Y-107.901
X113.132Y-108.308
X113.132Y-108.714
X113.132Y-109.121
X113.132Y-109.527
X113.132Y-109.933
X113.132Y-110.34
X113.132Y-110.746
X113.132Y-111.153
X113.132Y-111.559
X113.132Y-111.965
X113.132Y-112.372
X113.132Y-112.778
X113.157Y-145.395
X113.169Y-99.288
X113.184Y-92.761
X113.192Y-113.277
X113.202Y-91.356
X113.21Y-100.961
X113.228Y-99.721
X113.235Y-100.127
X113.239Y-100.544
X113.267Y-145.793
X113.273Y-130.845
X113.278Y-129.804
X113.287Y-113.672
X113.294Y-115.886
X113.352Y-97.528
X113.364Y-91.863
X113.376Y-98.001
X113.415Y-116.626
X113.419Y-114.056
X113.429Y-144.027
X113.461Y-143.569
X113.475Y-88.907
X113.476Y-131.226
X113.481Y-129.397
X113.488Y-145.16
X113.539Y-101.196
X113.539Y-101.602
X113.539Y-102.009
X113.539Y-102.415
X113.539Y-102.821
X113.539Y-103.228
X113.539Y-103.634
X113.539Y-104.041
X113.539Y-104.447
X113.539Y-104.853
X113.539Y-105.26
X113.539Y-105.666
X113.539Y-106.073
X113.539Y-106.479
X113.539Y-106.885
X113.539Y-107.292
X113.539Y-107.698
X113.539Y-108.105
X113.539Y-108.511
X113.539Y-108.917
X113.539Y-109.324
X113.539Y-109.73
X113.539Y-110.137
X113.539Y-110.543
X113.539Y-110.949
X113.539Y-111.356
X113.539Y-111.762
X113.539Y-112.169
X113.539Y-112.575
X113.543Y-92.402
X113.551Y-145.593
X113.561Y-113.019
X113.562Y-116.192
X113.575Y-100.346
X113.58Y-100.753
X113.59Y-99.95
X113.597Y-114.467
X113.63Y-113.38
X113.679Y-130.845
X113.684Y-129.804
X113.723Y-91.504
X113.733Y-113.733
X113.74Y-116.924
X113.742Y-95.772
X113.793Y-114.842
X113.805Y-143.873
X113.824Y-97.507
X113.83Y-95.204
X113.841Y-144.973
X113.848Y-97.98
X113.849Y-116.479
X113.854Y-145.404
X113.869Y-114.076
X113.874Y-92.065
X113.88Y-143.421
X113.883Y-131.226
X113.887Y-129.397
X113.915Y-88.903
X113.939Y-87.982
X113.945Y-88.491
X113.953Y-87.516
X113.954Y-87.008
X113.996Y-86.501
X114.026Y-115.175
X114.04Y-114.467
X114.077Y-86.0
X114.086Y-130.845
X114.09Y-117.194
X114.09Y-129.804
X114.152Y-95.74
X114.16Y-116.741
X114.178Y-145.252
X114.19Y-94.845
X114.194Y-143.755
X114.197Y-85.506
X114.197Y-91.741
X114.219Y-144.823
X114.238Y-114.777
X114.289Y-131.226
X114.291Y-115.484
X114.294Y-129.397
X114.31Y-143.311
X114.345Y-95.326
X114.355Y-85.024
X114.387Y-91.358
X114.425Y-88.914
X114.442Y-87.619
X114.452Y-88.509
X114.454Y-88.099
X114.458Y-87.153
X114.462Y-117.432
X114.464Y-115.068
X114.491Y-86.646
X114.492Y-130.845
X114.493Y-116.975
X114.497Y-129.804
X114.518Y-145.14
X114.549Y-94.486
X114.55Y-84.554
X114.566Y-86.143
X114.579Y-115.77
X114.592Y-143.673
X114.607Y-144.711
X114.684Y-85.649
X114.695Y-131.226
X114.7Y-129.397
X114.722Y-115.364
X114.728Y-95.024
X114.748Y-143.242
X114.782Y-84.102
X114.844Y-85.167
X114.844Y-117.179
X114.846Y-117.658
X114.868Y-145.069
X114.898Y-116.022
X114.899Y-130.845
X114.903Y-129.804
X114.908Y-94.126
X114.996Y-143.625
X115.014Y-144.645
X115.02Y-115.628
X115.043Y-84.7
X115.048Y-83.669
X115.088Y-94.665
X115.102Y-131.226
X115.106Y-129.397
X115.189Y-143.213
X115.205Y-117.373
X115.242Y-116.239
X115.242Y-145.034
X115.253Y-117.828
X115.267Y-93.767
X115.282Y-84.251
X115.305Y-130.845
X115.31Y-129.804
X115.346Y-83.259
X115.368Y-115.841
X115.402Y-143.618
X115.421Y-144.634
X115.447Y-94.306
X115.508Y-131.226
X115.513Y-129.397
X115.557Y-83.824
X115.586Y-117.514
X115.605Y-143.212
X115.607Y-116.402
X115.624Y-145.041
X115.626Y-93.408
X115.665Y-117.961
X115.676Y-82.872
X115.711Y-130.845
X115.716Y-129.804
X115.739Y-116.025
X115.806Y-93.947
X115.806Y-93.228
X115.808Y-143.618
X115.827Y-144.634
X115.868Y-83.423
X115.915Y-131.226
X115.919Y-129.397
X115.971Y-82.552
X115.976Y-117.63
X115.99Y-116.538
X116.011Y-143.212
X116.03Y-145.041
X116.07Y-118.077
X116.118Y-130.845
X116.122Y-129.804
X116.132Y-92.838
X116.145Y-116.145
X116.165Y-93.587
X116.169Y-83.088
X116.18Y-82.089
X116.215Y-143.618
X116.233Y-144.634
X116.321Y-131.226
X116.326Y-129.397
X116.338Y-93.401
X116.369Y-117.731
X116.381Y-116.651
X116.384Y-92.397
X116.418Y-143.212
X116.437Y-145.041
X116.451Y-82.735
X116.493Y-118.172
X116.524Y-130.845
X116.529Y-129.804
X116.544Y-116.273
X116.554Y-91.918
X116.621Y-143.618
X116.633Y-89.994
X116.635Y-88.136
X116.635Y-87.722
X116.637Y-91.417
X116.639Y-90.923
X116.639Y-92.992
X116.64Y-89.035
X116.64Y-89.521
X116.64Y-90.468
X116.64Y-144.634
X116.641Y-87.286
X116.648Y-82.237
X116.652Y-88.58
X116.675Y-86.779
X116.727Y-131.226
X116.732Y-129.397
X116.769Y-117.806
X116.776Y-86.281
X116.777Y-116.741
X116.824Y-143.212
X116.843Y-145.041
X116.876Y-92.542
X116.922Y-118.237
X116.925Y-111.968
X116.931Y-130.845
X116.935Y-129.804
X116.942Y-85.801
X116.953Y-116.368
X116.962Y-111.401
X116.976Y-112.435
X117.027Y-143.618
X117.041Y-92.062
X117.046Y-144.634
X117.051Y-110.951
X117.101Y-112.883
X117.125Y-88.112
X117.132Y-87.608
X117.133Y-91.562
X117.134Y-131.226
X117.138Y-129.397
X117.143Y-90.126
X117.149Y-91.055
X117.149Y-89.167
X117.149Y-89.652
X117.149Y-90.599
X117.156Y-88.663
X117.159Y-87.032
X117.171Y-85.347
X117.172Y-117.855
X117.179Y-116.799
X117.198Y-110.516
X117.219Y-113.262
X117.231Y-143.212
X117.236Y-86.53
X117.249Y-145.041
X117.337Y-112.144
X117.337Y-130.845
X117.342Y-129.804
X117.345Y-111.657
X117.353Y-118.275
X117.366Y-116.433
X117.385Y-113.636
X117.391Y-86.046
X117.398Y-111.254
X117.401Y-110.104
X117.407Y-112.575
X117.434Y-143.618
X117.453Y-144.634
X117.458Y-84.928
X117.503Y-110.861
X117.54Y-131.226
X117.545Y-129.397
X117.563Y-113.037
X117.581Y-117.869
X117.585Y-116.825
X117.603Y-113.997
X117.617Y-85.591
X117.637Y-143.212
X117.655Y-109.721
X117.657Y-110.485
X117.663Y-145.17
X117.738Y-113.413
X117.743Y-130.845
X117.748Y-129.804
X117.756Y-84.593
X117.78Y-116.454
X117.787Y-118.263
X117.84Y-143.618
X117.859Y-144.634
X117.86Y-110.133
X117.881Y-114.282
X117.911Y-85.177
X117.947Y-131.226
X117.951Y-129.397
X117.974Y-113.759
X117.978Y-109.376
X117.991Y-116.826
X117.991Y-117.856
X118.043Y-143.212
X118.062Y-145.041
X118.091Y-84.211
X118.106Y-109.809
X118.15Y-130.845
X118.154Y-129.804
X118.172Y-114.573
X118.194Y-116.42
X118.194Y-118.263
X118.247Y-143.618
X118.254Y-114.073
X118.265Y-144.634
X118.29Y-84.767
X118.307Y-109.067
X118.353Y-131.226
X118.358Y-129.397
X118.37Y-112.057
X118.372Y-111.651
X118.374Y-83.789
X118.392Y-109.52
X118.398Y-116.84
X118.398Y-117.856
X118.446Y-112.456
X118.45Y-143.212
X118.451Y-111.252
X118.469Y-145.041
X118.514Y-114.797
X118.556Y-130.845
X118.561Y-129.804
X118.562Y-114.338
X118.591Y-112.834
X118.599Y-83.333
X118.601Y-116.434
X118.601Y-118.263
X118.605Y-84.369
X118.605Y-110.876
X118.653Y-143.618
X118.672Y-144.634
X118.708Y-108.816
X118.718Y-109.278
X118.759Y-131.226
X118.763Y-82.853
X118.764Y-129.397
X118.77Y-111.943
X118.8Y-111.529
X118.804Y-116.84
X118.804Y-117.856
X118.812Y-113.175
X118.829Y-110.537
X118.853Y-112.342
X118.856Y-143.212
X118.864Y-82.355
X118.873Y-83.937
X118.875Y-145.041
X118.906Y-114.554
X118.928Y-115.014
X118.948Y-111.111
X118.963Y-130.845
X118.967Y-129.804
X119.003Y-112.73
X119.007Y-116.434
X119.007Y-118.263
X119.059Y-143.618
X119.078Y-144.634
X119.079Y-109.091
X119.089Y-83.478
X119.095Y-113.466
X119.106Y-110.247
X119.143Y-108.634
X119.166Y-131.226
X119.17Y-129.397
X119.183Y-110.765
X119.21Y-116.84
X119.21Y-117.856
X119.237Y-113.066
X119.251Y-82.996
X119.263Y-143.212
X119.279Y-114.716
X119.281Y-145.041
X119.356Y-82.499
X119.369Y-130.845
X119.369Y-115.168
X119.374Y-129.804
X119.404Y-81.993
X119.414Y-116.434
X119.414Y-118.263
X119.438Y-113.684
X119.454Y-110.036
X119.465Y-108.965
X119.466Y-143.618
X119.484Y-110.476
X119.485Y-144.634
X119.572Y-131.226
X119.577Y-129.397
X119.598Y-113.282
X119.603Y-108.524
X119.617Y-116.84
X119.617Y-117.856
X119.669Y-143.212
X119.672Y-114.82
X119.688Y-145.041
X119.775Y-130.845
X119.78Y-129.804
X119.82Y-116.434
X119.82Y-118.263
X119.827Y-113.794
X119.829Y-115.253
X119.845Y-109.926
X119.867Y-108.903
X119.872Y-143.618
X119.891Y-144.634
X119.898Y-110.354
X119.979Y-131.226
X119.983Y-129.397
X119.991Y-113.424
X120.023Y-116.84
X120.023Y-117.856
X120.063Y-108.49
X120.075Y-143.212
X120.076Y-114.864
X120.094Y-145.041
X120.182Y-130.845
X120.186Y-129.804
X120.226Y-116.434
X120.226Y-118.263
X120.228Y-113.832
X120.251Y-109.913
X120.273Y-108.897
X120.278Y-115.272
X120.279Y-143.618
X120.297Y-144.634
X120.385Y-131.226
X120.39Y-129.397
X120.43Y-116.84
X120.43Y-117.856
X120.431Y-113.436
X120.454Y-110.319
X120.476Y-108.49
X120.482Y-143.212
X120.482Y-114.866
X120.501Y-145.041
X120.588Y-130.845
X120.593Y-129.804
X120.633Y-116.434
X120.633Y-118.263
X120.634Y-113.832
X120.658Y-109.913
X120.679Y-108.897
X120.685Y-143.618
X120.686Y-115.272
X120.704Y-144.634
X120.791Y-131.226
X120.796Y-129.397
X120.836Y-116.84
X120.836Y-117.856
X120.838Y-113.436
X120.861Y-110.319
X120.883Y-108.49
X120.888Y-143.212
X120.889Y-114.866
X120.907Y-145.041
X120.995Y-130.845
X120.999Y-129.804
X121.039Y-116.434
X121.039Y-118.263
X121.041Y-113.832
X121.064Y-109.913
X121.086Y-108.897
X121.091Y-143.618
X121.092Y-115.272
X121.11Y-144.634
X121.198Y-131.226
X121.202Y-129.397
X121.242Y-116.84
X121.242Y-117.856
X121.244Y-113.436
X121.267Y-110.319
X121.289Y-108.49
X121.295Y-143.212
X121.295Y-114.866
X121.313Y-145.041
X121.401Y-130.845
X121.406Y-129.804
X121.446Y-116.434
X121.446Y-118.263
X121.447Y-113.832
X121.47Y-109.913
X121.492Y-108.897
X121.498Y-143.618
X121.498Y-115.272
X121.517Y-144.634
X121.604Y-131.226
X121.609Y-129.397
X121.649Y-116.84
X121.649Y-117.856
X121.65Y-113.436
X121.674Y-110.319
X121.695Y-108.49
X121.701Y-143.212
X121.702Y-114.866
X121.72Y-145.041
X121.807Y-130.845
X121.812Y-129.804
X121.852Y-116.434
X121.852Y-118.263
X121.854Y-113.832
X121.877Y-109.913
X121.899Y-108.897
X121.904Y-143.618
X121.905Y-115.272
X121.923Y-144.634
X122.011Y-131.226
X122.015Y-129.397
X122.055Y-116.84
X122.055Y-117.856
X122.057Y-113.436
X122.08Y-110.319
X122.102Y-108.49
X122.107Y-143.212
X122.108Y-114.866
X122.126Y-145.041
X122.214Y-130.845
X122.218Y-129.804
X122.258Y-116.434
X122.258Y-118.263
X122.26Y-113.832
X122.283Y-109.913
X122.305Y-108.897
X122.311Y-143.618
X122.311Y-115.272
X122.329Y-144.634
X122.417Y-131.226
X122.422Y-129.397
X122.462Y-116.84
X122.462Y-117.856
X122.463Y-113.436
X122.486Y-110.319
X122.508Y-108.49
X122.514Y-143.212
X122.514Y-114.866
X122.533Y-145.041
X122.62Y-130.845
X122.625Y-129.804
X122.665Y-116.434
X122.665Y-118.263
X122.666Y-113.832
X122.69Y-109.913
X122.711Y-108.897
X122.717Y-143.618
X122.718Y-115.272
X122.736Y-144.634
X122.823Y-131.226
X122.828Y-129.397
X122.868Y-116.84
X122.868Y-117.856
X122.87Y-113.436
X122.893Y-110.319
X122.915Y-108.49
X122.92Y-143.212
X122.921Y-114.866
X122.939Y-145.041
X123.027Y-130.845
X123.031Y-129.804
X123.071Y-116.434
X123.071Y-118.263
X123.073Y-113.832
X123.096Y-109.913
X123.118Y-108.897
X123.123Y-143.618
X123.124Y-115.272
X123.142Y-144.634
X123.23Y-131.226
X123.234Y-129.397
X123.274Y-116.84
X123.274Y-117.856
X123.276Y-113.436
X123.299Y-110.319
X123.321Y-108.49
X123.327Y-143.212
X123.327Y-114.866
X123.345Y-145.041
X123.433Y-130.845
X123.438Y-129.804
X123.478Y-116.434
X123.478Y-118.263
X123.479Y-113.832
X123.502Y-109.913
X123.524Y-108.897
X123.53Y-143.618
X123.53Y-115.272
X123.549Y-144.634
X123.636Y-131.226
X123.641Y-129.397
X123.681Y-116.84
X123.681Y-117.856
X123.682Y-113.436
X123.706Y-110.319
X123.727Y-108.49
X123.733Y-143.212
X123.734Y-114.866
X123.752Y-145.041
X123.839Y-130.845
X123.844Y-129.804
X123.884Y-116.434
X123.884Y-118.263
X123.886Y-113.832
X123.909Y-109.913
X123.931Y-108.897
X123.936Y-143.618
X123.937Y-115.272
X123.955Y-144.634
X124.043Y-131.226
X124.047Y-129.397
X124.087Y-116.84
X124.087Y-117.856
X124.089Y-113.436
X124.112Y-110.319
X124.134Y-108.49
X124.139Y-143.212
X124.14Y-114.866
X124.158Y-145.041
X124.246Y-130.845
X124.25Y-129.804
X124.29Y-116.434
X124.29Y-118.263
X124.292Y-113.832
X124.315Y-109.913
X124.337Y-108.897
X124.343Y-143.618
X124.343Y-115.272
X124.361Y-144.634
X124.449Y-131.226
X124.454Y-129.397
X124.494Y-116.84
X124.494Y-117.856
X124.495Y-113.436
X124.518Y-110.319
X124.54Y-108.49
X124.546Y-143.212
X124.546Y-114.866
X124.565Y-145.041
X124.652Y-130.845
X124.657Y-129.804
X124.697Y-116.434
X124.697Y-118.263
X124.698Y-113.832
X124.722Y-109.913
X124.743Y-108.897
X124.749Y-143.618
X124.75Y-115.272
X124.768Y-144.634
X124.855Y-131.226
X124.86Y-129.397
X124.9Y-116.84
X124.9Y-117.856
X124.902Y-113.436
X124.925Y-110.319
X124.935Y-163.913
X124.94Y-164.59
X124.947Y-108.49
X124.952Y-143.212
X124.953Y-114.866
X124.971Y-145.041
X124.988Y-95.475
X124.994Y-95.983
X124.994Y-96.491
X124.994Y-96.999
X124.994Y-97.507
X125.0Y-97.997
X125.0Y-98.505
X125.0Y-99.013
X125.049Y-94.97
X125.059Y-130.845
X125.063Y-129.804
X125.103Y-116.434
X125.103Y-118.263
X125.105Y-113.827
X125.128Y-109.913
X125.15Y-108.897
X125.155Y-143.618
X125.156Y-115.272
X125.158Y-94.452
X125.174Y-144.634
X125.232Y-99.418
X125.234Y-164.914
X125.254Y-163.601
X125.254Y-164.253
X125.262Y-131.226
X125.266Y-129.397
X125.306Y-116.84
X125.306Y-117.856
X125.308Y-113.436
X125.335Y-110.326
X125.347Y-93.988
X125.359Y-143.212
X125.359Y-114.866
X125.376Y-165.319
X125.377Y-145.041
X125.391Y-108.481
X125.465Y-130.845
X125.47Y-129.804
X125.502Y-95.729
X125.502Y-96.237
X125.502Y-96.745
X125.502Y-97.253
X125.502Y-95.252
X125.508Y-97.743
X125.508Y-98.251
X125.508Y-98.759
X125.51Y-116.434
X125.51Y-118.263
X125.511Y-113.827
X125.534Y-109.916
X125.538Y-108.878
X125.552Y-163.227
X125.562Y-143.618
X125.562Y-115.272
X125.581Y-144.634
X125.622Y-94.707
X125.626Y-100.329
X125.636Y-100.758
X125.643Y-99.896
X125.652Y-93.607
X125.664Y-99.499
X125.668Y-131.226
X125.673Y-129.397
X125.673Y-101.182
X125.684Y-108.157
X125.692Y-101.619
X125.692Y-102.026
X125.692Y-102.432
X125.692Y-102.838
X125.692Y-103.245
X125.692Y-103.651
X125.692Y-104.058
X125.692Y-104.464
X125.692Y-104.87
X125.692Y-105.277
X125.692Y-105.683
X125.692Y-106.09
X125.692Y-106.496
X125.692Y-106.902
X125.692Y-107.309
X125.692Y-107.715
X125.697Y-166.315
X125.713Y-116.84
X125.713Y-117.856
X125.714Y-113.436
X125.744Y-99.104
X125.765Y-143.212
X125.766Y-114.866
X125.784Y-145.041
X125.804Y-165.466
X125.811Y-110.291
X125.832Y-94.21
X125.856Y-165.892
X125.868Y-162.153
X125.871Y-130.845
X125.876Y-129.804
X125.895Y-108.683
X125.898Y-162.558
X125.912Y-98.048
X125.916Y-116.434
X125.916Y-118.263
X125.918Y-113.837
X125.919Y-97.536
X125.923Y-162.98
X125.925Y-93.268
X125.934Y-109.842
X125.968Y-143.618
X125.969Y-115.272
X125.97Y-100.562
X125.973Y-100.14
X125.974Y-171.147
X125.987Y-144.634
X125.996Y-160.518
X125.996Y-160.939
X125.996Y-161.346
X125.996Y-161.752
X125.996Y-166.677
X125.996Y-167.083
X125.996Y-167.49
X125.996Y-167.896
X125.996Y-168.303
X125.996Y-168.709
X125.996Y-169.115
X125.996Y-169.522
X125.996Y-169.928
X125.996Y-170.335
X125.996Y-170.741
X126.003Y-99.721
X126.062Y-99.311
X126.071Y-160.016
X126.075Y-131.226
X126.077Y-100.999
X126.079Y-129.397
X126.091Y-108.325
X126.098Y-101.416
X126.098Y-101.822
X126.098Y-102.229
X126.098Y-102.635
X126.098Y-103.042
X126.098Y-103.448
X126.098Y-103.854
X126.098Y-104.261
X126.098Y-104.667
X126.098Y-105.074
X126.098Y-105.48
X126.098Y-105.886
X126.098Y-106.293
X126.098Y-106.699
X126.098Y-107.106
X126.098Y-107.512
X126.098Y-107.918
X126.116Y-93.799
X126.119Y-116.84
X126.119Y-117.856
X126.121Y-113.436
X126.171Y-143.212
X126.172Y-114.866
X126.19Y-145.041
X126.229Y-165.286
X126.235Y-165.688
X126.247Y-166.095
X126.256Y-92.941
X126.274Y-163.191
X126.278Y-130.845
X126.282Y-129.804
X126.287Y-159.542
X126.292Y-110.14
X126.304Y-109.675
X126.305Y-162.354
X126.305Y-162.761
X126.322Y-116.434
X126.322Y-118.263
X126.324Y-113.837
X126.364Y-98.039
X126.367Y-97.538
X126.375Y-143.618
X126.375Y-115.272
X126.393Y-144.634
X126.403Y-160.736
X126.403Y-161.142
X126.403Y-161.549
X126.403Y-161.955
X126.403Y-166.474
X126.403Y-166.88
X126.403Y-167.287
X126.403Y-167.693
X126.403Y-168.099
X126.403Y-168.506
X126.403Y-168.912
X126.403Y-169.319
X126.403Y-169.725
X126.403Y-170.131
X126.418Y-160.33
X126.436Y-93.48
X126.481Y-131.226
X126.486Y-129.397
X126.526Y-116.84
X126.526Y-117.856
X126.527Y-113.436
X126.532Y-159.94
X126.578Y-143.212
X126.578Y-114.866
X126.597Y-145.041
X126.615Y-92.582
X126.624Y-109.424
X126.628Y-159.145
X126.684Y-130.845
X126.689Y-129.804
X126.723Y-109.878
X126.729Y-116.434
X126.729Y-118.263
X126.73Y-113.837
X126.751Y-159.597
X126.781Y-143.618
X126.782Y-115.272
X126.795Y-93.12
X126.8Y-144.634
X126.809Y-97.538
X126.814Y-98.001
X126.874Y-109.096
X126.877Y-113.045
X126.883Y-115.83
X126.887Y-131.226
X126.892Y-129.397
X126.918Y-164.507
X126.925Y-164.037
X126.932Y-116.84
X126.932Y-117.856
X126.975Y-92.222
X126.984Y-143.212
X126.985Y-114.866
X127.003Y-145.041
X127.053Y-108.718
X127.054Y-88.897
X127.058Y-159.331
X127.077Y-158.863
X127.079Y-109.521
X127.091Y-130.845
X127.095Y-129.804
X127.114Y-101.822
X127.114Y-102.229
X127.114Y-102.635
X127.114Y-103.042
X127.114Y-103.448
X127.114Y-103.854
X127.114Y-104.261
X127.114Y-104.667
X127.114Y-105.074
X127.114Y-105.48
X127.114Y-105.886
X127.114Y-106.293
X127.114Y-106.699
X127.114Y-107.106
X127.114Y-107.512
X127.114Y-107.918
X127.12Y-99.324
X127.125Y-108.318
X127.128Y-101.416
X127.135Y-116.434
X127.135Y-118.263
X127.137Y-113.833
X127.154Y-92.761
X127.177Y-101.01
X127.187Y-143.618
X127.188Y-115.272
X127.206Y-144.634
X127.226Y-99.753
X127.231Y-100.578
X127.234Y-100.169
X127.275Y-97.556
X127.28Y-98.018
X127.294Y-131.226
X127.298Y-129.397
X127.315Y-91.362
X127.334Y-91.863
X127.338Y-116.84
X127.338Y-117.856
X127.339Y-109.081
X127.391Y-143.212
X127.391Y-114.866
X127.409Y-145.041
X127.419Y-160.731
X127.419Y-161.137
X127.419Y-161.543
X127.419Y-161.95
X127.419Y-166.474
X127.419Y-166.88
X127.419Y-167.287
X127.419Y-167.693
X127.419Y-168.099
X127.419Y-168.506
X127.419Y-168.912
X127.419Y-169.319
X127.419Y-169.725
X127.419Y-170.131
X127.431Y-159.17
X127.444Y-88.415
X127.461Y-162.356
X127.487Y-108.599
X127.495Y-107.316
X127.495Y-107.722
X127.497Y-130.845
X127.5Y-102.038
X127.5Y-102.444
X127.5Y-102.851
X127.5Y-103.257
X127.5Y-103.664
X127.5Y-104.07
X127.5Y-104.476
X127.5Y-104.883
X127.5Y-105.289
X127.5Y-105.696
X127.5Y-106.102
X127.5Y-106.508
X127.5Y-106.915
X127.502Y-129.804
X127.503Y-166.071
X127.504Y-88.915
X127.505Y-108.153
X127.507Y-160.323
X127.507Y-165.666
X127.513Y-165.262
X127.514Y-92.402
X127.514Y-101.632
X127.517Y-162.763
X127.542Y-116.434
X127.542Y-118.263
X127.543Y-113.833
X127.543Y-163.18
X127.574Y-115.262
X127.583Y-100.807
X127.583Y-101.213
X127.588Y-158.73
X127.594Y-143.618
X127.612Y-99.951
X127.612Y-100.367
X127.613Y-144.634
X127.7Y-131.226
X127.705Y-129.397
X127.711Y-95.768
X127.745Y-114.856
X127.745Y-116.84
X127.745Y-117.856
X127.747Y-97.535
X127.752Y-97.997
X127.797Y-143.212
X127.801Y-95.204
X127.803Y-171.147
X127.816Y-145.041
X127.821Y-91.365
X127.825Y-160.934
X127.825Y-161.34
X127.825Y-161.747
X127.825Y-166.271
X127.825Y-166.677
X127.825Y-167.083
X127.825Y-167.49
X127.825Y-167.896
X127.825Y-168.303
X127.825Y-168.709
X127.825Y-169.115
X127.825Y-169.522
X127.825Y-169.928
X127.825Y-170.335
X127.825Y-170.741
X127.835Y-159.127
X127.835Y-160.143
X127.866Y-162.979
X127.867Y-162.153
X127.867Y-162.559
X127.873Y-92.043
X127.888Y-165.871
X127.903Y-130.845
X127.908Y-129.804
X127.928Y-87.516
X127.929Y-87.008
X127.934Y-165.474
X127.941Y-88.915
X127.948Y-88.445
X127.948Y-116.434
X127.948Y-118.263
X127.949Y-113.833
X127.954Y-87.978
X127.967Y-115.261
X127.971Y-86.501
X128.0Y-143.618
X128.019Y-144.634
X128.027Y-158.724
X128.038Y-160.549
X128.052Y-86.0
X128.107Y-131.226
X128.111Y-129.397
X128.114Y-95.713
X128.151Y-114.856
X128.151Y-116.84
X128.151Y-117.856
X128.16Y-94.845
X128.172Y-85.506
X128.181Y-91.727
X128.189Y-163.211
X128.203Y-143.212
X128.204Y-106.68
X128.206Y-106.323
X128.222Y-145.041
X128.241Y-159.127
X128.241Y-160.143
X128.31Y-130.845
X128.314Y-129.804
X128.317Y-95.318
X128.33Y-85.024
X128.354Y-115.263
X128.354Y-116.434
X128.354Y-118.263
X128.356Y-113.833
X128.4Y-91.35
X128.403Y-88.909
X128.407Y-143.618
X128.409Y-87.606
X128.409Y-88.469
X128.416Y-88.049
X128.425Y-165.368
X128.425Y-144.634
X128.433Y-87.153
X128.444Y-158.72
X128.444Y-160.549
X128.466Y-86.646
X128.513Y-131.226
X128.518Y-129.397
X128.519Y-94.486
X128.523Y-163.596
X128.525Y-84.554
X128.538Y-164.268
X128.542Y-86.143
X128.543Y-164.909
X128.558Y-114.856
X128.558Y-116.84
X128.558Y-117.856
X128.616Y-143.212
X128.648Y-159.127
X128.648Y-160.143
X128.659Y-85.649
X128.698Y-95.024
X128.716Y-130.845
X128.721Y-129.804
X128.733Y-149.692
X128.753Y-150.085
X128.757Y-84.102
X128.761Y-115.263
X128.761Y-116.434
X128.761Y-118.263
X128.762Y-113.833
X128.773Y-150.481
X128.783Y-145.075
X128.785Y-149.29
X128.801Y-163.938
X128.809Y-148.862
X128.817Y-143.617
X128.819Y-85.167
X128.819Y-150.881
X128.819Y-151.287
X128.819Y-151.698
X128.831Y-144.655
X128.84Y-158.749
X128.851Y-160.549
X128.851Y-148.47
X128.861Y-145.486
X128.861Y-145.892
X128.862Y-152.121
X128.871Y-164.585
X128.878Y-94.126
X128.891Y-146.76
X128.891Y-147.192
X128.895Y-147.598
X128.9Y-146.329
X128.906Y-152.616
X128.919Y-131.226
X128.924Y-129.397
X128.925Y-148.009
X128.964Y-114.856
X128.964Y-116.84
X128.964Y-117.856
X129.018Y-84.7
X129.023Y-83.669
X129.054Y-159.127
X129.054Y-160.143
X129.058Y-94.665
X129.11Y-153.112
X129.119Y-143.281
X129.122Y-149.582
X129.122Y-150.276
X129.123Y-130.845
X129.127Y-129.804
X129.144Y-149.92
X129.145Y-144.906
X129.167Y-115.263
X129.167Y-116.434
X129.167Y-118.263
X129.169Y-113.833
X129.184Y-152.326
X129.199Y-151.913
X129.214Y-143.703
X129.225Y-149.186
X129.225Y-150.678
X129.225Y-151.084
X129.226Y-151.495
X129.237Y-93.767
X129.257Y-84.251
X129.257Y-158.72
X129.257Y-160.549
X129.267Y-145.282
X129.267Y-145.689
X129.267Y-146.095
X129.267Y-147.981
X129.267Y-148.387
X129.267Y-148.794
X129.321Y-83.259
X129.326Y-131.226
X129.33Y-129.397
X129.364Y-152.717
X129.37Y-114.856
X129.37Y-116.84
X129.37Y-117.856
X129.417Y-94.306
X129.459Y-153.517
X129.46Y-159.127
X129.46Y-160.143
X129.529Y-130.845
X129.532Y-83.824
X129.534Y-129.804
X129.574Y-115.263
X129.574Y-116.434
X129.574Y-118.263
X129.575Y-113.833
X129.577Y-153.063
X129.577Y-143.885
X129.584Y-143.419
X129.597Y-93.408
X129.651Y-82.872
X129.664Y-160.549
X129.678Y-158.724
X129.732Y-131.226
X129.737Y-129.397
X129.775Y-147.038
X129.776Y-93.947
X129.777Y-114.856
X129.777Y-116.84
X129.777Y-117.856
X129.843Y-83.423
X129.867Y-159.127
X129.867Y-160.143
X129.883Y-144.153
X129.887Y-153.326
X129.912Y-153.793
X129.935Y-130.845
X129.938Y-82.563
X129.94Y-129.804
X129.941Y-93.095
X129.98Y-115.263
X129.98Y-118.263
X129.981Y-113.833
X130.006Y-143.703
X130.07Y-158.72
X130.07Y-160.549
X130.118Y-144.49
X130.135Y-83.098
X130.135Y-93.587
X130.139Y-131.226
X130.143Y-129.397
X130.149Y-82.101
X130.183Y-114.856
X130.183Y-116.84
X130.183Y-117.856
X130.199Y-92.699
X130.246Y-144.878
X130.262Y-153.482
X130.273Y-159.127
X130.273Y-160.143
X130.283Y-145.282
X130.283Y-145.689
X130.283Y-146.095
X130.283Y-147.851
X130.283Y-148.257
X130.283Y-148.663
X130.34Y-144.091
X130.342Y-130.845
X130.346Y-129.804
X130.361Y-149.084
X130.361Y-150.705
X130.361Y-151.112
X130.361Y-151.523
X130.363Y-151.893
X130.379Y-152.299
X130.386Y-115.263
X130.398Y-149.904
X130.403Y-92.292
X130.406Y-149.487
X130.409Y-150.306
X130.411Y-82.738
X130.422Y-160.786
X130.424Y-153.92
X130.45Y-158.473
X130.468Y-93.227
X130.544Y-91.848
X130.545Y-131.226
X130.55Y-129.397
X130.571Y-144.545
X130.607Y-91.417
X130.609Y-82.349
X130.609Y-88.829
X130.609Y-90.897
X130.614Y-89.392
X130.616Y-87.286
X130.621Y-87.798
X130.621Y-88.343
X130.621Y-89.896
X130.621Y-90.393
X130.65Y-86.779
X130.667Y-153.521
X130.675Y-147.177
X130.678Y-92.807
X130.681Y-145.041
X130.685Y-81.847
X130.69Y-145.486
X130.69Y-145.892
X130.69Y-148.003
X130.69Y-148.41
X130.69Y-148.816
X130.695Y-147.583
X130.71Y-146.745
X130.711Y-152.497
X130.715Y-146.304
X130.729Y-152.101
X130.748Y-130.845
X130.751Y-86.281
X130.753Y-129.804
X130.767Y-149.237
X130.767Y-150.502
X130.767Y-150.909
X130.767Y-151.315
X130.768Y-151.726
X130.769Y-149.659
X130.774Y-150.085
X130.851Y-160.884
X130.852Y-158.367
X130.87Y-153.928
X130.882Y-92.426
X130.917Y-85.801
X130.951Y-131.226
X130.956Y-129.397
X130.999Y-92.01
X131.04Y-88.074
X131.064Y-88.547
X131.064Y-89.566
X131.068Y-152.505
X131.07Y-89.045
X131.073Y-153.521
X131.082Y-87.534
X131.094Y-90.046
X131.104Y-91.562
X131.108Y-152.101
X131.112Y-90.537
X131.119Y-91.055
X131.134Y-87.032
X131.146Y-85.347
X131.155Y-130.845
X131.159Y-129.804
X131.212Y-86.53
X131.263Y-158.357
X131.267Y-160.879
X131.358Y-131.226
X131.362Y-129.397
X131.366Y-86.046
X131.433Y-84.928
X131.561Y-130.845
X131.566Y-129.804
X131.592Y-85.591
X131.679Y-160.869
X131.694Y-152.404
X131.704Y-158.347
X131.724Y-153.592
X131.731Y-84.593
X131.764Y-131.226
X131.769Y-129.397
X131.886Y-85.177
X131.967Y-130.845
X131.972Y-129.804
X131.977Y-122.425
X132.066Y-84.211
X132.095Y-160.874
X132.105Y-152.374
X132.135Y-158.347
X132.171Y-131.226
X132.175Y-129.397
X132.2Y-153.607
X132.24Y-84.812
X132.312Y-122.754
X132.348Y-83.788
X132.352Y-122.147
X132.354Y-152.703
X132.363Y-153.144
X132.374Y-130.845
X132.378Y-129.804
X132.497Y-160.832
X132.548Y-158.444
X132.573Y-83.333
X132.578Y-119.25
X132.58Y-84.369
X132.58Y-131.226
X132.595Y-128.483
X132.595Y-123.109
X132.596Y-118.838
X132.599Y-119.684
X132.6Y-128.864
X132.6Y-124.046
X132.601Y-125.25
X132.608Y-125.611
X132.611Y-124.473
X132.612Y-121.839
X132.614Y-120.114
X132.615Y-124.889
X132.619Y-120.561
X132.619Y-120.967
X132.621Y-123.56
X132.63Y-128.042
X132.632Y-121.378
X132.642Y-153.6
X132.649Y-129.306
X132.664Y-152.437
X132.736Y-82.852
X132.769Y-129.765
X132.792Y-130.84
X132.835Y-82.354
X132.847Y-83.937
X132.912Y-160.813
X132.942Y-127.022
X132.973Y-158.552
X132.973Y-129.072
X132.981Y-128.297
X132.985Y-119.047
X133.005Y-119.481
X133.01Y-129.473
X133.02Y-119.911
X133.022Y-123.31
X133.025Y-120.358
X133.025Y-120.764
X133.025Y-121.17
X133.026Y-125.776
X133.026Y-127.565
X133.026Y-124.505
X133.026Y-127.921
X133.026Y-121.587
X133.027Y-123.73
X133.029Y-124.956
X133.029Y-125.363
X133.046Y-152.507
X133.061Y-126.412
X133.063Y-83.477
X133.067Y-131.186
X133.071Y-153.567
X133.224Y-82.995
X133.229Y-130.748
X133.274Y-153.973
X133.285Y-152.132
X133.328Y-82.498
X133.356Y-160.761
X133.374Y-81.992
X133.378Y-158.558
X133.474Y-152.505
X133.477Y-153.567
X133.558Y-131.003
X133.577Y-126.476
X133.638Y-130.542
X133.68Y-153.973
X133.691Y-152.029
X133.691Y-142.874
X133.787Y-158.55
X133.787Y-160.761
X133.884Y-153.567
X133.894Y-152.435
X133.968Y-130.296
X134.022Y-130.706
X134.034Y-126.428
X134.087Y-153.973
X134.097Y-152.029
X134.113Y-119.039
X134.12Y-119.469
X134.139Y-124.48
X134.139Y-124.886
X134.139Y-125.293
X134.139Y-125.699
X134.14Y-120.351
X134.14Y-120.757
X134.14Y-119.911
X134.153Y-129.511
X134.159Y-123.235
X134.163Y-123.669
X134.164Y-127.438
X134.168Y-121.156
X134.168Y-121.57
X134.169Y-127.85
X134.174Y-129.925
X134.176Y-129.076
X134.192Y-109.317
X134.193Y-158.563
X134.199Y-124.073
X134.199Y-128.672
X134.204Y-159.457
X134.214Y-158.976
X134.217Y-126.994
X134.218Y-160.335
X134.219Y-160.761
X134.219Y-128.256
X134.224Y-159.908
X134.29Y-153.567
X134.3Y-152.435
X134.374Y-130.309
X134.485Y-123.449
X134.49Y-121.812
X134.493Y-153.973
X134.495Y-123.028
X134.504Y-152.029
X134.519Y-118.836
X134.521Y-121.372
X134.527Y-119.265
X134.532Y-120.149
X134.546Y-124.277
X134.546Y-124.683
X134.546Y-125.089
X134.546Y-125.496
X134.546Y-120.554
X134.546Y-120.96
X134.547Y-119.707
X134.557Y-123.856
X134.56Y-129.841
X134.58Y-127.543
X134.59Y-127.97
X134.605Y-128.862
X134.608Y-129.328
X134.625Y-128.431
X134.69Y-153.604
X134.707Y-152.435
X134.844Y-122.703
X134.849Y-122.202
X134.9Y-153.973
X134.91Y-152.029
X135.097Y-153.604
X135.113Y-152.435
X135.214Y-122.436
X135.306Y-153.973
X135.316Y-152.029
X135.52Y-152.435
X135.532Y-153.578
X135.741Y-153.954
X135.757Y-152.054
X135.937Y-152.46
X136.061Y-154.239
X136.116Y-151.832
X136.795Y-151.786
X136.868Y-154.209
X137.003Y-152.448
X137.014Y-112.434
X137.026Y-115.434
X137.027Y-118.492
X137.173Y-152.057
X137.179Y-153.609
X137.187Y-113.856
X137.196Y-146.506
X137.203Y-116.856
X137.217Y-112.84
X137.229Y-115.84
X137.359Y-154.016
X137.393Y-118.253
X137.417Y-152.419
X137.42Y-112.434
X137.432Y-115.434
X137.593Y-113.856
X137.61Y-116.856
X137.62Y-152.012
X137.624Y-112.84
X137.629Y-153.631
X137.635Y-115.84
X137.813Y-117.263
X137.824Y-152.419
X137.827Y-112.434
X137.832Y-154.037
X137.839Y-115.434
X138.0Y-113.856
X138.016Y-116.856
X138.03Y-112.84
X138.035Y-153.631
X138.042Y-115.84
X138.05Y-152.012
X138.219Y-117.263
X138.23Y-152.441
X138.233Y-112.434
X138.238Y-154.037
X138.245Y-115.434
X138.398Y-128.047
X138.406Y-113.856
X138.422Y-116.856
X138.434Y-127.459
X138.436Y-112.84
X138.442Y-153.631
X138.443Y-152.079
X138.446Y-125.721
X138.448Y-115.84
X138.47Y-126.776
X138.492Y-146.532
X138.494Y-125.074
X138.518Y-124.451
X138.53Y-126.237
X138.585Y-128.585
X138.609Y-114.263
X138.626Y-117.263
X138.636Y-152.497
X138.64Y-112.434
X138.651Y-115.434
X138.653Y-154.013
X138.813Y-113.856
X138.829Y-116.856
X138.83Y-124.055
X138.839Y-152.091
X138.843Y-112.84
X138.855Y-115.84
X138.855Y-153.539
X138.865Y-127.464
X138.871Y-126.914
X138.871Y-127.985
X138.913Y-126.338
X138.946Y-96.187
X138.946Y-96.695
X138.946Y-97.203
X138.946Y-97.711
X138.947Y-95.762
X138.952Y-98.201
X138.952Y-98.709
X138.967Y-95.349
X138.971Y-128.38
X138.979Y-124.583
X138.979Y-125.158
X138.979Y-125.745
X139.009Y-114.203
X139.028Y-94.845
X139.032Y-117.263
X139.042Y-152.497
X139.046Y-112.434
X139.058Y-115.434
X139.058Y-153.946
X139.135Y-128.789
X139.152Y-171.525
X139.172Y-94.357
X139.189Y-99.379
X139.219Y-113.856
X139.233Y-162.204
X139.233Y-162.613
X139.233Y-163.426
X139.233Y-163.832
X139.233Y-164.239
X139.233Y-164.645
X139.233Y-165.051
X139.233Y-165.458
X139.233Y-165.864
X139.233Y-166.271
X139.233Y-166.677
X139.233Y-167.083
X139.233Y-167.49
X139.233Y-167.896
X139.233Y-168.303
X139.233Y-168.709
X139.233Y-169.115
X139.233Y-169.522
X139.233Y-169.928
X139.233Y-170.335
X139.233Y-170.741
X139.233Y-171.122
X139.235Y-116.856
X139.246Y-152.091
X139.249Y-112.84
X139.261Y-115.84
X139.262Y-153.539
X139.263Y-161.737
X139.282Y-163.02
X139.374Y-128.413
X139.389Y-161.264
X139.394Y-93.901
X139.415Y-114.203
X139.417Y-123.839
X139.438Y-117.263
X139.449Y-152.497
X139.451Y-96.02
X139.452Y-112.434
X139.454Y-96.441
X139.454Y-96.949
X139.454Y-97.457
X139.46Y-97.947
X139.46Y-98.455
X139.46Y-98.963
X139.463Y-95.517
X139.464Y-115.434
X139.465Y-153.946
X139.483Y-124.409
X139.517Y-94.989
X139.539Y-100.388
X139.545Y-100.807
X139.549Y-99.965
X139.549Y-128.829
X139.612Y-160.823
X139.625Y-113.856
X139.636Y-101.217
X139.64Y-162.41
X139.64Y-162.816
X139.64Y-163.223
X139.64Y-163.629
X139.64Y-164.035
X139.64Y-164.442
X139.64Y-164.848
X139.64Y-165.255
X139.64Y-165.661
X139.64Y-166.067
X139.64Y-166.474
X139.64Y-166.88
X139.64Y-167.287
X139.64Y-167.693
X139.64Y-168.099
X139.64Y-168.506
X139.64Y-168.912
X139.64Y-169.319
X139.64Y-169.725
X139.64Y-170.131
X139.642Y-116.856
X139.642Y-101.656
X139.643Y-162.003
X139.645Y-93.565
X139.652Y-152.091
X139.655Y-99.545
X139.656Y-112.84
X139.661Y-94.502
X139.667Y-115.84
X139.668Y-153.539
X139.698Y-102.094
X139.707Y-161.602
X139.773Y-102.521
X139.775Y-128.417
X139.822Y-114.203
X139.845Y-117.263
X139.851Y-161.222
X139.855Y-152.497
X139.859Y-112.434
X139.871Y-115.434
X139.871Y-153.946
X139.872Y-94.078
X139.906Y-98.055
X139.91Y-99.774
X139.913Y-97.543
X139.917Y-93.25
X139.917Y-100.193
X139.93Y-102.95
X139.937Y-160.437
X139.951Y-100.603
X139.955Y-128.819
X140.032Y-113.856
X140.033Y-99.334
X140.042Y-101.013
X140.042Y-101.42
X140.048Y-116.856
X140.058Y-124.421
X140.058Y-152.091
X140.062Y-112.84
X140.071Y-101.825
X140.073Y-160.882
X140.074Y-115.84
X140.074Y-153.539
X140.106Y-109.37
X140.139Y-102.226
X140.154Y-93.721
X140.154Y-103.366
X140.16Y-108.273
X140.191Y-128.425
X140.227Y-102.598
X140.235Y-114.263
X140.244Y-123.899
X140.251Y-117.263
X140.262Y-152.497
X140.262Y-92.924
X140.265Y-112.434
X140.277Y-115.434
X140.278Y-153.946
X140.294Y-114.75
X140.295Y-117.804
X140.345Y-160.141
X140.357Y-98.046
X140.361Y-97.545
X140.361Y-128.844
X140.371Y-160.605
X140.39Y-102.97
X140.396Y-103.733
X140.438Y-113.856
X140.451Y-93.418
X140.454Y-116.856
X140.465Y-152.091
X140.468Y-112.84
X140.48Y-115.84
X140.481Y-153.539
X140.58Y-92.582
X140.594Y-128.417
X140.598Y-103.319
X140.641Y-104.01
X140.641Y-114.263
X140.656Y-162.41
X140.656Y-162.816
X140.656Y-163.223
X140.656Y-163.629
X140.656Y-164.035
X140.656Y-164.442
X140.656Y-164.848
X140.656Y-165.255
X140.656Y-165.661
X140.656Y-166.067
X140.656Y-166.474
X140.656Y-166.88
X140.656Y-167.287
X140.656Y-167.693
X140.656Y-168.099
X140.656Y-168.506
X140.656Y-168.912
X140.656Y-169.319
X140.656Y-169.725
X140.656Y-170.131
X140.658Y-117.263
X140.662Y-162.003
X140.668Y-152.497
X140.67Y-124.397
X140.672Y-112.434
X140.676Y-144.855
X140.683Y-115.434
X140.684Y-153.946
X140.726Y-160.408
X140.747Y-128.819
X140.759Y-93.12
X140.796Y-98.019
X140.8Y-161.632
X140.802Y-97.545
X140.812Y-159.95
X140.845Y-113.856
X140.847Y-103.641
X140.856Y-104.331
X140.861Y-116.856
X140.871Y-152.091
X140.875Y-112.84
X140.887Y-115.84
X140.887Y-153.539
X140.939Y-92.222
X140.963Y-123.839
X140.971Y-104.648
X141.006Y-128.415
X141.028Y-119.04
X141.029Y-104.979
X141.037Y-105.756
X141.037Y-106.162
X141.037Y-106.569
X141.037Y-106.975
X141.037Y-107.383
X141.046Y-105.367
X141.048Y-114.263
X141.062Y-162.213
X141.062Y-162.613
X141.062Y-163.019
X141.062Y-163.426
X141.062Y-163.832
X141.062Y-164.239
X141.062Y-164.645
X141.062Y-165.051
X141.062Y-165.458
X141.062Y-165.864
X141.062Y-166.271
X141.062Y-166.677
X141.062Y-167.083
X141.062Y-167.49
X141.062Y-167.896
X141.062Y-168.303
X141.062Y-168.709
X141.062Y-169.115
X141.062Y-169.522
X141.062Y-169.928
X141.062Y-170.335
X141.062Y-170.741
X141.062Y-171.122
X141.063Y-107.853
X141.064Y-117.263
X141.074Y-152.497
X141.078Y-112.434
X141.083Y-101.416
X141.09Y-115.434
X141.09Y-103.966
X141.09Y-153.946
X141.107Y-99.249
X141.109Y-101.822
X141.112Y-161.369
X141.118Y-160.301
X141.118Y-92.761
X141.122Y-101.01
X141.133Y-171.525
X141.138Y-128.814
X141.155Y-124.547
X141.188Y-100.118
X141.188Y-100.58
X141.19Y-161.769
X141.191Y-99.669
X141.207Y-108.34
X141.235Y-102.231
X141.251Y-113.856
X141.262Y-98.036
X141.263Y-125.032
X141.267Y-116.856
X141.268Y-97.562
X141.278Y-152.091
X141.281Y-112.84
X141.291Y-91.353
X141.293Y-115.84
X141.294Y-153.539
X141.302Y-104.349
X141.303Y-159.877
X141.312Y-126.168
X141.313Y-126.992
X141.329Y-126.589
X141.338Y-125.707
X141.346Y-128.169
X141.351Y-91.886
X141.4Y-102.602
X141.407Y-104.742
X141.433Y-105.145
X141.443Y-105.553
X141.443Y-105.959
X141.443Y-106.365
X141.443Y-106.772
X141.443Y-107.178
X141.444Y-107.585
X141.454Y-114.263
X141.469Y-108.776
X141.47Y-117.263
X141.478Y-92.402
X141.481Y-152.497
X141.484Y-112.434
X141.489Y-101.202
X141.496Y-115.434
X141.497Y-153.946
X141.499Y-101.562
X141.51Y-107.986
X141.511Y-161.284
X141.524Y-160.283
X141.526Y-100.353
X141.528Y-100.807
X141.531Y-99.892
X141.544Y-101.924
X141.549Y-128.575
X141.55Y-124.223
X141.629Y-102.937
X141.657Y-113.856
X141.662Y-95.792
X141.673Y-108.358
X141.674Y-116.856
X141.68Y-102.254
X141.684Y-152.091
X141.688Y-112.84
X141.699Y-115.84
X141.7Y-153.539
X141.705Y-161.705
X141.727Y-159.876
X141.73Y-124.846
X141.735Y-98.015
X141.741Y-97.541
X141.745Y-128.221
X141.749Y-126.208
X141.751Y-126.599
X141.751Y-126.995
X141.765Y-95.204
X141.8Y-91.353
X141.807Y-109.123
X141.834Y-125.742
X141.837Y-92.043
X141.843Y-102.546
X141.861Y-114.263
X141.877Y-117.263
X141.887Y-152.497
X141.89Y-151.737
X141.89Y-88.91
X141.891Y-112.434
X141.891Y-87.522
X141.891Y-103.248
X141.893Y-87.014
X141.893Y-87.985
X141.897Y-88.442
X141.903Y-115.434
X141.903Y-153.946
X141.918Y-161.284
X141.921Y-160.273
X141.924Y-108.678
X141.934Y-86.508
X141.956Y-128.575
X142.015Y-86.006
X142.064Y-113.856
X142.08Y-116.856
X142.087Y-102.884
X142.094Y-103.596
X142.094Y-112.84
X142.106Y-115.84
X142.106Y-153.539
X142.111Y-161.705
X142.12Y-95.68
X142.124Y-94.845
X142.134Y-159.876
X142.135Y-85.513
X142.151Y-128.221
X142.154Y-91.712
X142.177Y-109.401
X142.2Y-126.168
X142.217Y-126.599
X142.221Y-126.977
X142.231Y-108.944
X142.26Y-103.967
X142.267Y-114.263
X142.275Y-95.254
X142.283Y-117.263
X142.293Y-85.03
X142.297Y-112.434
X142.309Y-115.434
X142.31Y-153.946
X142.315Y-161.299
X142.337Y-160.283
X142.349Y-103.209
X142.37Y-128.575
X142.373Y-91.347
X142.381Y-104.355
X142.382Y-87.603
X142.382Y-88.029
X142.388Y-88.491
X142.388Y-88.916
X142.396Y-87.159
X142.429Y-86.652
X142.455Y-104.754
X142.459Y-105.146
X142.459Y-105.552
X142.459Y-105.959
X142.459Y-106.365
X142.459Y-106.772
X142.459Y-107.178
X142.47Y-107.584
X142.47Y-113.856
X142.483Y-94.486
X142.486Y-116.856
X142.489Y-84.561
X142.5Y-112.84
X142.505Y-86.15
X142.512Y-115.84
X142.513Y-153.539
X142.518Y-161.705
X142.54Y-159.876
X142.553Y-103.612
X142.572Y-109.165
X142.582Y-109.625
X142.616Y-126.027
X142.623Y-85.656
X142.635Y-107.952
X142.636Y-129.266
X142.663Y-95.024
X142.673Y-114.263
X142.69Y-117.263
X142.704Y-112.434
X142.715Y-104.038
X142.715Y-115.434
X142.72Y-84.109
X142.721Y-161.299
X142.743Y-160.283
X142.76Y-153.949
X142.782Y-85.173
X142.824Y-104.48
X142.842Y-94.126
X142.863Y-107.409
X142.866Y-105.349
X142.866Y-105.756
X142.866Y-106.162
X142.866Y-106.568
X142.866Y-106.975
X142.877Y-113.856
X142.879Y-104.932
X142.893Y-116.856
X142.907Y-112.84
X142.919Y-115.84
X142.924Y-161.705
X142.935Y-153.543
X142.941Y-109.336
X142.946Y-159.876
X142.951Y-108.208
X142.982Y-84.706
X142.986Y-83.676
X143.014Y-109.791
X143.022Y-94.665
X143.078Y-107.78
X143.08Y-114.263
X143.096Y-117.263
X143.11Y-112.434
X143.122Y-115.434
X143.127Y-161.299
X143.15Y-160.283
X143.156Y-126.009
X143.176Y-152.389
X143.176Y-129.248
X143.186Y-153.939
X143.201Y-152.782
X143.202Y-93.767
X143.211Y-153.173
X143.215Y-151.978
X143.22Y-84.258
X143.283Y-113.856
X143.285Y-83.265
X143.299Y-116.856
X143.313Y-112.84
X143.318Y-108.379
X143.325Y-115.84
X143.329Y-109.455
X143.331Y-161.705
X143.353Y-159.876
X143.354Y-153.56
X143.381Y-94.306
X143.462Y-107.999
X143.464Y-109.896
X143.486Y-114.263
X143.496Y-83.831
X143.502Y-117.263
X143.504Y-93.472
X143.516Y-112.434
X143.528Y-115.434
X143.534Y-161.299
X143.556Y-160.283
X143.577Y-152.788
X143.589Y-152.384
X143.593Y-151.981
X143.597Y-153.179
X143.602Y-153.934
X143.615Y-82.879
X143.689Y-113.856
X143.706Y-116.856
X143.707Y-108.494
X143.72Y-112.84
X143.725Y-126.014
X143.728Y-109.541
X143.731Y-115.84
X143.737Y-161.705
X143.74Y-93.947
X143.745Y-129.253
X143.759Y-159.876
X143.767Y-153.555
X143.798Y-93.163
X143.806Y-83.429
X143.893Y-114.263
X143.908Y-108.127
X143.909Y-117.263
X143.911Y-82.555
X143.921Y-109.937
X143.923Y-112.434
X143.935Y-115.434
X143.94Y-161.299
X143.947Y-151.998
X143.962Y-160.283
X143.97Y-152.399
X143.978Y-153.194
X143.98Y-152.788
X144.011Y-93.625
X144.038Y-153.949
X144.067Y-92.838
X144.096Y-113.856
X144.112Y-116.856
X144.113Y-108.516
X144.115Y-83.074
X144.119Y-82.092
X144.126Y-112.84
X144.137Y-109.532
X144.138Y-115.84
X144.143Y-161.705
X144.148Y-153.57
X144.166Y-159.876
X144.277Y-125.979
X144.297Y-129.218
X144.299Y-114.263
X144.301Y-93.325
X144.315Y-117.263
X144.316Y-108.109
X144.318Y-92.397
X144.329Y-112.434
X144.34Y-109.938
X144.341Y-115.434
X144.347Y-161.299
X144.369Y-160.283
X144.39Y-82.733
X144.417Y-152.533
X144.472Y-128.58
X144.484Y-153.954
X144.488Y-91.918
X144.495Y-126.632
X144.502Y-113.856
X144.512Y-153.537
X144.518Y-116.856
X144.519Y-108.516
X144.532Y-112.84
X144.543Y-109.532
X144.544Y-115.84
X144.55Y-161.705
X144.564Y-89.036
X144.564Y-89.515
X144.569Y-89.965
X144.569Y-90.42
X144.569Y-90.912
X144.571Y-91.417
X144.572Y-159.876
X144.572Y-87.714
X144.574Y-92.992
X144.576Y-88.574
X144.579Y-88.152
X144.579Y-82.34
X144.579Y-87.292
X144.591Y-154.898
X144.613Y-86.785
X144.662Y-128.23
X144.692Y-127.0
X144.705Y-114.263
X144.714Y-86.287
X144.722Y-117.263
X144.722Y-108.109
X144.736Y-112.434
X144.746Y-109.938
X144.747Y-115.434
X144.753Y-161.299
X144.775Y-160.283
X144.782Y-152.531
X144.81Y-92.542
X144.876Y-128.601
X144.881Y-85.807
X144.894Y-153.544
X144.899Y-126.621
X144.909Y-113.856
X144.917Y-153.984
X144.925Y-116.856
X144.926Y-108.516
X144.939Y-112.84
X144.949Y-109.532
X144.951Y-115.84
X144.956Y-161.705
X144.976Y-92.062
X144.978Y-159.876
X145.022Y-88.142
X145.031Y-89.623
X145.043Y-87.556
X145.043Y-88.688
X145.043Y-89.162
X145.055Y-90.115
X145.061Y-90.594
X145.068Y-91.562
X145.069Y-128.23
X145.084Y-91.055
X145.097Y-87.038
X145.099Y-127.0
X145.109Y-85.354
X145.111Y-162.262
X145.112Y-114.263
X145.128Y-117.263
X145.129Y-108.109
X145.142Y-112.434
X145.153Y-109.938
X145.154Y-115.434
X145.159Y-161.299
X145.175Y-86.536
X145.182Y-160.283
X145.269Y-153.596
X145.282Y-128.601
X145.283Y-152.04
X145.285Y-156.855
X145.295Y-157.672
X145.295Y-158.078
X145.305Y-126.621
X145.315Y-113.856
X145.318Y-157.258
X145.328Y-154.008
X145.329Y-86.052
X145.331Y-116.856
X145.332Y-108.516
X145.345Y-112.84
X145.35Y-152.519
X145.356Y-109.532
X145.357Y-115.84
X145.396Y-84.935
X145.432Y-154.394
X145.445Y-158.464
X145.445Y-158.871
X145.486Y-128.124
X145.508Y-127.07
X145.518Y-114.263
X145.534Y-117.263
X145.535Y-108.109
X145.548Y-112.434
X145.556Y-85.597
X145.559Y-109.938
X145.56Y-115.434
X145.568Y-162.211
X145.643Y-153.698
X145.689Y-128.531
X145.689Y-152.154
X145.691Y-156.651
X145.691Y-157.058
X145.695Y-84.599
X145.701Y-157.468
X145.701Y-157.875
X145.712Y-126.702
X145.721Y-113.856
X145.73Y-154.1
X145.738Y-116.856
X145.738Y-108.516
X145.74Y-152.567
X145.752Y-112.84
X145.762Y-109.532
X145.763Y-115.84
X145.849Y-85.183
X145.851Y-158.261
X145.851Y-158.668
X145.851Y-159.074
X145.925Y-114.263
X145.941Y-117.263
X145.942Y-108.109
X145.955Y-112.434
X145.965Y-109.938
X145.967Y-115.434
X146.03Y-84.217
X146.09Y-152.308
X146.095Y-128.531
X146.097Y-159.995
X146.102Y-161.094
X146.118Y-126.702
X146.118Y-152.716
X146.128Y-113.856
X146.13Y-84.764
X146.144Y-116.856
X146.145Y-108.516
X146.158Y-112.84
X146.169Y-109.532
X146.17Y-115.84
X146.231Y-154.625
X146.26Y-156.348
X146.312Y-83.795
X146.331Y-114.263
X146.339Y-151.968
X146.347Y-117.263
X146.348Y-108.109
X146.361Y-112.434
X146.372Y-109.938
X146.373Y-115.434
X146.476Y-152.418
X146.502Y-128.531
X146.514Y-152.8
X146.524Y-126.702
X146.528Y-129.397
X146.534Y-113.856
X146.538Y-83.34
X146.538Y-128.965
X146.55Y-116.856
X146.551Y-108.516
X146.551Y-126.235
X146.564Y-112.84
X146.574Y-125.757
X146.575Y-109.532
X146.576Y-115.84
X146.62Y-129.824
X146.631Y-160.528
X146.651Y-154.646
X146.702Y-156.343
X146.703Y-82.86
X146.727Y-152.1
X146.734Y-125.394
X146.737Y-114.263
X146.754Y-117.263
X146.754Y-108.109
X146.768Y-112.434
X146.778Y-109.938
X146.779Y-115.434
X146.803Y-82.361
X146.848Y-152.614
X146.941Y-113.856
X146.957Y-116.856
X146.958Y-108.516
X146.971Y-112.84
X146.981Y-109.532
X146.983Y-115.84
X147.036Y-158.555
X147.036Y-158.962
X147.052Y-129.89
X147.075Y-158.167
X147.124Y-152.975
X147.144Y-114.263
X147.159Y-152.29
X147.16Y-117.263
X147.161Y-108.109
X147.168Y-160.001
X147.174Y-112.434
X147.176Y-125.371
X147.181Y-156.522
X147.185Y-109.938
X147.186Y-115.434
X147.194Y-161.094
X147.205Y-157.802
X147.205Y-156.944
X147.215Y-157.357
X147.234Y-154.345
X147.262Y-153.936
X147.27Y-153.494
X147.296Y-82.506
X147.343Y-82.0
X147.347Y-113.856
X147.363Y-116.856
X147.364Y-108.516
X147.377Y-112.84
X147.388Y-109.532
X147.389Y-115.84
X147.435Y-152.681
X147.442Y-158.352
X147.442Y-158.759
X147.471Y-129.885
X147.538Y-157.967
X147.55Y-114.263
X147.566Y-117.263
X147.567Y-108.109
X147.572Y-157.109
X147.58Y-112.434
X147.587Y-156.662
X147.591Y-109.938
X147.592Y-115.434
X147.597Y-157.539
X147.598Y-125.358
X147.649Y-153.182
X147.656Y-153.702
X147.681Y-154.174
X147.753Y-113.856
X147.77Y-116.856
X147.77Y-108.516
X147.784Y-112.84
X147.794Y-109.532
X147.795Y-115.84
X147.905Y-129.874
X147.944Y-112.452
X147.962Y-114.266
X147.973Y-117.263
X147.974Y-108.109
X147.981Y-161.754
X147.997Y-109.938
X147.999Y-115.434
X148.075Y-125.371
X148.163Y-113.857
X148.176Y-116.856
X148.177Y-108.516
X148.19Y-112.835
X148.201Y-109.532
X148.202Y-115.84
X148.319Y-112.409
X148.319Y-129.885
X148.379Y-117.263
X148.403Y-108.101
X148.405Y-115.434
X148.41Y-114.246
X148.413Y-109.957
X148.413Y-159.341
X148.464Y-161.83
X148.517Y-125.348
X148.567Y-113.813
X148.582Y-116.856
X148.59Y-108.521
X148.59Y-112.762
X148.606Y-109.561
X148.608Y-115.84
X148.629Y-112.318
X148.739Y-159.901
X148.786Y-117.263
X148.786Y-129.879
X148.808Y-161.328
X148.811Y-115.434
X148.814Y-110.062
X148.864Y-114.165
X148.865Y-108.151
X148.947Y-160.282
X148.949Y-125.335
X148.962Y-113.715
X148.966Y-112.609
X148.989Y-116.856
X148.989Y-108.595
X148.99Y-112.113
X148.993Y-109.685
X149.015Y-115.84
X149.153Y-159.906
X149.17Y-110.273
X149.192Y-117.263
X149.218Y-115.434
X149.219Y-161.313
X149.251Y-129.862
X149.291Y-111.807
X149.303Y-112.382
X149.304Y-114.023
X149.317Y-108.27
X149.338Y-129.402
X149.339Y-113.564
X149.339Y-109.898
X149.348Y-128.924
X149.356Y-160.279
X149.371Y-125.404
X149.371Y-125.871
X149.371Y-126.28
X149.371Y-126.689
X149.371Y-127.121
X149.371Y-128.47
X149.373Y-108.728
X149.383Y-127.621
X149.383Y-128.053
X149.395Y-116.856
X149.416Y-110.599
X149.421Y-115.84
X149.476Y-111.461
X149.496Y-111.025
X149.551Y-159.908
X149.585Y-112.089
X149.598Y-117.263
X149.622Y-110.189
X149.624Y-115.434
X149.685Y-161.318
X149.691Y-113.366
X149.72Y-113.823
X149.733Y-108.918
X149.746Y-108.457
X149.762Y-160.277
X149.789Y-111.737
X149.802Y-116.856
X149.819Y-110.545
X149.827Y-115.84
X149.901Y-111.346
X149.914Y-110.94
X150.0Y-159.893
X150.005Y-117.263
X150.024Y-113.128
X150.031Y-115.434
X150.059Y-109.159
X150.105Y-113.568
X150.125Y-161.315
X150.142Y-108.706
X150.168Y-160.279
X150.208Y-116.856
X150.234Y-115.84
X150.312Y-112.831
X150.347Y-161.689
X150.349Y-109.458
X150.391Y-159.893
X150.411Y-117.263
X150.437Y-115.434
X150.459Y-113.259
X150.501Y-109.022
X150.547Y-112.496
X150.557Y-161.318
X150.582Y-160.274
X150.586Y-109.789
X150.614Y-116.856
X150.64Y-115.84
X150.734Y-112.135
X150.758Y-161.669
X150.762Y-112.904
X150.767Y-110.153
X150.805Y-109.382
X150.818Y-117.263
X150.822Y-159.881
X150.843Y-115.434
X150.865Y-111.75
X150.887Y-110.541
X150.935Y-111.35
X150.944Y-110.943
X150.963Y-161.315
X150.988Y-160.277
X151.009Y-112.506
X151.021Y-116.856
X151.047Y-115.84
X151.048Y-109.786
X151.179Y-161.664
X151.192Y-112.075
X151.223Y-110.224
X151.224Y-117.263
X151.25Y-115.434
X151.264Y-159.891
X151.308Y-111.622
X151.326Y-110.684
X151.327Y-111.165
X151.395Y-161.315
X151.399Y-160.277
X151.427Y-116.856
X151.453Y-115.84
X151.63Y-117.263
X151.649Y-161.721
X151.652Y-159.896
X151.656Y-115.434
X151.808Y-160.283
X151.827Y-161.315
X151.834Y-116.856
X151.859Y-115.84
X152.005Y-162.026
X152.037Y-117.263
X152.055Y-162.483
X152.06Y-171.122
X152.063Y-115.434
X152.063Y-159.893
X152.069Y-162.97
X152.069Y-163.377
X152.069Y-163.783
X152.069Y-164.19
X152.069Y-164.596
X152.069Y-165.002
X152.069Y-165.409
X152.069Y-165.815
X152.069Y-166.222
X152.069Y-166.628
X152.069Y-167.034
X152.069Y-167.441
X152.069Y-167.847
X152.069Y-168.254
X152.069Y-168.66
X152.069Y-169.066
X152.069Y-169.473
X152.069Y-169.879
X152.069Y-170.286
X152.069Y-170.692
X152.211Y-160.335
X152.233Y-161.492
X152.24Y-116.856
X152.266Y-115.84
X152.436Y-161.899
X152.464Y-117.26
X152.475Y-162.361
X152.475Y-162.767
X152.475Y-163.174
X152.475Y-163.58
X152.475Y-163.986
X152.475Y-164.393
X152.475Y-164.799
X152.475Y-165.206
X152.475Y-165.612
X152.475Y-166.018
X152.475Y-166.425
X152.475Y-166.831
X152.475Y-167.238
X152.475Y-167.644
X152.475Y-168.05
X152.475Y-168.457
X152.475Y-168.863
X152.475Y-169.27
X152.475Y-169.676
X152.475Y-170.082
X152.494Y-115.421
X152.557Y-160.022
X152.588Y-160.488
X152.645Y-116.848
X152.67Y-115.8
X152.895Y-115.268
X152.913Y-160.731
X152.931Y-117.199
X152.953Y-95.977
X152.953Y-96.485
X152.953Y-96.993
X152.953Y-97.501
X152.958Y-95.349
X152.959Y-97.991
X152.959Y-98.499
X152.959Y-99.007
X153.019Y-94.845
X153.046Y-160.349
X153.049Y-115.652
X153.055Y-116.768
X153.163Y-94.357
X153.224Y-161.111
X153.241Y-115.027
X153.338Y-99.145
X153.374Y-115.408
X153.385Y-93.901
X153.39Y-117.063
X153.402Y-160.705
X153.427Y-161.543
X153.429Y-116.603
X153.461Y-96.231
X153.461Y-96.739
X153.461Y-97.247
X153.467Y-97.737
X153.467Y-98.245
X153.467Y-98.753
X153.474Y-99.935
X153.488Y-95.636
X153.491Y-162.38
X153.491Y-162.787
X153.491Y-163.193
X153.491Y-163.6
X153.491Y-164.006
X153.491Y-164.412
X153.491Y-164.819
X153.491Y-165.225
X153.491Y-165.632
X153.491Y-166.038
X153.491Y-166.444
X153.491Y-166.851
X153.491Y-167.257
X153.491Y-167.664
X153.491Y-168.07
X153.491Y-168.476
X153.491Y-168.883
X153.491Y-169.289
X153.491Y-169.696
X153.491Y-170.102
X153.492Y-161.975
X153.508Y-94.989
X153.509Y-100.377
X153.515Y-114.669
X153.534Y-99.489
X153.54Y-100.8
X153.571Y-101.202
X153.652Y-94.502
X153.655Y-114.253
X153.662Y-115.121
X153.666Y-102.013
X153.666Y-102.419
X153.666Y-102.825
X153.666Y-103.232
X153.666Y-103.638
X153.666Y-104.045
X153.666Y-104.451
X153.666Y-104.857
X153.666Y-105.264
X153.666Y-105.67
X153.667Y-101.578
X153.672Y-106.104
X153.672Y-106.51
X153.672Y-106.917
X153.672Y-107.323
X153.672Y-107.73
X153.672Y-108.136
X153.672Y-108.542
X153.672Y-108.949
X153.672Y-109.355
X153.672Y-109.762
X153.672Y-110.168
X153.672Y-110.574
X153.672Y-110.981
X153.672Y-111.387
X153.672Y-111.794
X153.672Y-112.2
X153.672Y-112.606
X153.672Y-113.013
X153.672Y-113.419
X153.672Y-113.826
X153.68Y-93.487
X153.706Y-161.137
X153.744Y-99.09
X153.779Y-116.397
X153.815Y-116.857
X153.843Y-98.041
X153.85Y-97.529
X153.852Y-93.3
X153.866Y-161.643
X153.889Y-171.122
X153.89Y-94.053
X153.895Y-99.765
X153.898Y-100.179
X153.898Y-162.584
X153.898Y-162.99
X153.898Y-163.396
X153.898Y-163.803
X153.898Y-164.209
X153.898Y-164.616
X153.898Y-165.022
X153.898Y-165.428
X153.898Y-165.835
X153.898Y-166.241
X153.898Y-166.648
X153.898Y-167.054
X153.898Y-167.46
X153.898Y-167.867
X153.898Y-168.273
X153.898Y-168.68
X153.898Y-169.086
X153.898Y-169.492
X153.898Y-169.899
X153.898Y-170.305
X153.898Y-170.712
X153.917Y-114.805
X153.919Y-162.152
X153.947Y-100.596
X153.947Y-101.003
X154.049Y-114.421
X154.05Y-99.356
X154.062Y-101.416
X154.062Y-101.822
X154.062Y-102.229
X154.062Y-102.635
X154.062Y-103.042
X154.062Y-103.448
X154.062Y-103.854
X154.062Y-104.261
X154.062Y-104.667
X154.062Y-105.074
X154.062Y-105.48
X154.062Y-105.886
X154.062Y-106.293
X154.062Y-106.699
X154.062Y-107.106
X154.062Y-107.512
X154.062Y-107.918
X154.062Y-108.325
X154.062Y-108.731
X154.062Y-109.138
X154.062Y-109.544
X154.062Y-109.95
X154.062Y-110.357
X154.062Y-110.763
X154.062Y-111.17
X154.062Y-111.576
X154.062Y-111.982
X154.062Y-112.389
X154.062Y-112.795
X154.062Y-113.202
X154.062Y-113.608
X154.062Y-114.014
X154.091Y-116.136
X154.201Y-116.584
X154.211Y-93.659
X154.212Y-92.941
X154.294Y-98.032
X154.298Y-97.531
X154.381Y-115.849
X154.391Y-93.48
X154.522Y-116.28
X154.571Y-92.582
X154.654Y-115.547
X154.736Y-98.014
X154.739Y-97.531
X154.75Y-93.12
X154.815Y-115.976
X154.863Y-115.198
X154.93Y-92.222
X155.001Y-114.821
X155.072Y-114.421
X155.078Y-99.346
X155.078Y-101.416
X155.078Y-101.822
X155.078Y-102.229
X155.078Y-102.635
X155.078Y-103.042
X155.078Y-103.448
X155.078Y-103.854
X155.078Y-104.261
X155.078Y-104.667
X155.078Y-105.074
X155.078Y-105.48
X155.078Y-105.886
X155.078Y-106.293
X155.078Y-106.699
X155.078Y-107.106
X155.078Y-107.512
X155.078Y-107.918
X155.078Y-108.325
X155.078Y-108.731
X155.078Y-109.138
X155.078Y-109.544
X155.078Y-109.95
X155.078Y-110.357
X155.078Y-110.763
X155.078Y-111.17
X155.078Y-111.576
X155.078Y-111.982
X155.078Y-112.389
X155.078Y-112.795
X155.078Y-113.202
X155.078Y-113.608
X155.078Y-114.014
X155.086Y-91.44
X155.104Y-115.592
X155.109Y-92.761
X155.131Y-100.996
X155.171Y-100.596
X155.177Y-100.169
X155.182Y-99.743
X155.202Y-98.031
X155.205Y-97.548
X155.289Y-91.863
X155.317Y-115.159
X155.408Y-92.447
X155.446Y-114.693
X155.469Y-101.221
X155.485Y-101.619
X155.485Y-102.026
X155.485Y-102.432
X155.485Y-102.838
X155.485Y-103.245
X155.485Y-103.651
X155.485Y-104.058
X155.485Y-104.464
X155.485Y-104.87
X155.485Y-105.277
X155.485Y-105.683
X155.485Y-106.09
X155.485Y-106.496
X155.485Y-106.902
X155.485Y-107.309
X155.485Y-107.715
X155.485Y-108.122
X155.485Y-108.528
X155.485Y-108.934
X155.485Y-109.341
X155.485Y-109.747
X155.485Y-110.154
X155.485Y-110.56
X155.485Y-110.966
X155.485Y-111.373
X155.485Y-111.779
X155.485Y-112.186
X155.485Y-112.592
X155.485Y-112.998
X155.485Y-113.405
X155.485Y-113.811
X155.485Y-114.225
X155.537Y-100.793
X155.588Y-99.919
X155.623Y-100.36
X155.67Y-95.714
X155.673Y-91.443
X155.674Y-98.01
X155.678Y-97.527
X155.753Y-92.107
X155.756Y-95.204
X155.874Y-87.587
X155.876Y-88.051
X155.889Y-88.902
X155.89Y-87.037
X155.9Y-88.442
X155.921Y-86.501
X156.002Y-86.0
X156.076Y-91.786
X156.115Y-94.845
X156.122Y-85.506
X156.28Y-85.023
X156.295Y-95.384
X156.326Y-91.44
X156.365Y-87.669
X156.365Y-88.094
X156.368Y-88.909
X156.379Y-87.225
X156.391Y-88.49
X156.416Y-86.646
X156.474Y-94.486
X156.475Y-84.554
X156.491Y-86.143
X156.609Y-85.649
X156.654Y-95.024
X156.707Y-84.102
X156.769Y-85.167
X156.834Y-94.126
X156.968Y-84.7
X156.972Y-83.669
X157.013Y-94.665
X157.193Y-93.767
X157.207Y-84.251
X157.271Y-83.259
X157.372Y-94.306
X157.482Y-83.824
X157.552Y-93.408
X157.601Y-82.872
X157.731Y-93.947
X157.732Y-93.228
X157.748Y-83.464
X157.937Y-82.511
X158.032Y-83.143
X158.058Y-92.838
X158.091Y-93.587
X158.14Y-82.103
X158.264Y-93.401
X158.31Y-92.397
X158.335Y-82.784
X158.479Y-91.918
X158.545Y-82.389
X158.562Y-91.417
X158.565Y-92.992
X158.567Y-88.179
X158.573Y-89.258
X158.573Y-89.827
X158.573Y-90.354
X158.573Y-90.852
X158.579Y-88.718
X158.579Y-87.603
X158.581Y-86.951
X158.625Y-81.887
X158.659Y-86.449
X158.801Y-92.542
X158.803Y-85.962
X158.967Y-92.062
X159.011Y-85.499
X159.017Y-90.031
X159.023Y-87.963
X159.034Y-88.502
X159.034Y-89.024
X159.046Y-89.563
X159.059Y-90.552
X159.059Y-91.562
X159.075Y-91.055
X159.077Y-87.33
X159.119Y-86.743
X159.24Y-86.25
X159.279Y-85.067
X159.437Y-85.782
X159.671Y-85.4
X159.693Y-84.581
X159.941Y-85.052
X160.027Y-84.199
X160.283Y-84.741
X160.308Y-83.776
X160.53Y-83.319
X160.541Y-84.357
X160.689Y-82.836
X160.782Y-82.337
X160.806Y-83.924
X161.019Y-83.463
X161.176Y-82.98
X161.276Y-82.482
X161.316Y-81.975
M30
