%TF.GenerationSoftware,KiCad,Pcbnew,9.0.1*%
%TF.CreationDate,2025-06-02T14:00:33-06:00*%
%TF.ProjectId,PABA-DP,50414241-2d44-4502-9e6b-696361645f70,rev?*%
%TF.SameCoordinates,Original*%
%TF.FileFunction,Plated,1,2,Blind,Drill*%
%TF.FilePolarity,Positive*%
%FSLAX46Y46*%
G04 Gerber Fmt 4.6, Leading zero omitted, Abs format (unit mm)*
G04 Created by KiCad (PCBNEW 9.0.1) date 2025-06-02 14:00:33*
%MOMM*%
%LPD*%
G01*
G04 APERTURE LIST*
%TA.AperFunction,ViaDrill*%
%ADD10C,0.127000*%
%TD*%
%TA.AperFunction,ViaDrill*%
%ADD11C,0.203200*%
%TD*%
G04 APERTURE END LIST*
D10*
X74698857Y-112348419D03*
X74698857Y-112848289D03*
X74698857Y-113848289D03*
X74698857Y-114848289D03*
X74698857Y-115348409D03*
X74698857Y-115848539D03*
X74698857Y-116848539D03*
X74698857Y-117848539D03*
X74698857Y-118348409D03*
X75198727Y-112348419D03*
X75198727Y-112848289D03*
X75198727Y-113348419D03*
X75198727Y-113848289D03*
X75198727Y-114348419D03*
X75198727Y-114848289D03*
X75198727Y-115348409D03*
X75198727Y-115848539D03*
X75198727Y-116348409D03*
X75198727Y-116848539D03*
X75198727Y-117348409D03*
X75198727Y-117848539D03*
X75198727Y-118348409D03*
X75698857Y-117848539D03*
X76198727Y-117848539D03*
X76698847Y-117848539D03*
X77198727Y-112348419D03*
X77198727Y-117848539D03*
X77198727Y-118348409D03*
X77698847Y-112348419D03*
X77698847Y-112848289D03*
X77698847Y-117848539D03*
X78198977Y-117848539D03*
X78198977Y-118348409D03*
X80198967Y-112848289D03*
X80198967Y-113348419D03*
X80198967Y-113848289D03*
X80198967Y-114348419D03*
X80198967Y-114848289D03*
X80198967Y-115348409D03*
X80198967Y-115848539D03*
X80198967Y-116348409D03*
X80198967Y-116848539D03*
X80198967Y-117348409D03*
X80198967Y-117848539D03*
X80198967Y-118348409D03*
X80698847Y-112348419D03*
X80698847Y-112848289D03*
X80698847Y-113848289D03*
X80698847Y-115848539D03*
X80698847Y-116848539D03*
X80698847Y-117848539D03*
X80698847Y-118348409D03*
X130589527Y-112348419D03*
X130589527Y-112848289D03*
X130589527Y-113848289D03*
X130589527Y-115348409D03*
X130589527Y-115848539D03*
X130589527Y-116848539D03*
X130589527Y-117848539D03*
X130589527Y-118348409D03*
X131089397Y-112348419D03*
X131089397Y-112848289D03*
X131089397Y-113348419D03*
X131089397Y-113848289D03*
X131089397Y-114348419D03*
X131089397Y-114848289D03*
X131089397Y-115348409D03*
X131089397Y-115848539D03*
X131089397Y-116348409D03*
X131089397Y-116848539D03*
X131089397Y-117848539D03*
X131089397Y-118348409D03*
X131589517Y-117848539D03*
X132089397Y-117848539D03*
X132589517Y-117848539D03*
X133089387Y-112348419D03*
X133089387Y-117848539D03*
X133089387Y-118348409D03*
X133589517Y-112348419D03*
X133589517Y-112848289D03*
X133589517Y-117848539D03*
X134089647Y-117848539D03*
X134089647Y-118348409D03*
X136089637Y-112848289D03*
X136089637Y-113348419D03*
X136089637Y-114848289D03*
X136089637Y-115348409D03*
X136089637Y-115848539D03*
X136089637Y-116348409D03*
X136089637Y-116848539D03*
X136089637Y-117348409D03*
X136089637Y-117848539D03*
X136089637Y-118348409D03*
X136589507Y-112348419D03*
X136589507Y-112848289D03*
X136589507Y-114848289D03*
X136589507Y-115348409D03*
X136589507Y-115848539D03*
X136589507Y-116848539D03*
X136589507Y-117848539D03*
X136589507Y-118348409D03*
X142286985Y-152527057D03*
X142731485Y-152532647D03*
D11*
X55142127Y-95455899D03*
X55146187Y-98071079D03*
X55151527Y-96505419D03*
X55151527Y-97013419D03*
X55151527Y-97521419D03*
X55162187Y-95930109D03*
X55203337Y-94951449D03*
X55290457Y-98668739D03*
X55332627Y-94456409D03*
X55486807Y-99089619D03*
X55561737Y-93998439D03*
X55654187Y-97817079D03*
X55654187Y-98325079D03*
X55659527Y-96251419D03*
X55659527Y-96759419D03*
X55659527Y-97267419D03*
X55670187Y-95676109D03*
X55676537Y-95154139D03*
X55757057Y-99810729D03*
X55757057Y-100220939D03*
X55769757Y-94658339D03*
X55771027Y-100631149D03*
X55778137Y-99396709D03*
X55795667Y-101038049D03*
X55822847Y-93593569D03*
X55839867Y-101464519D03*
X55851797Y-102284179D03*
X55851797Y-102690579D03*
X55851797Y-103096979D03*
X55851797Y-103503379D03*
X55851797Y-103909779D03*
X55851797Y-104316179D03*
X55851797Y-104722579D03*
X55851797Y-105128979D03*
X55851797Y-105535379D03*
X55851797Y-105941779D03*
X55851797Y-106348179D03*
X55851797Y-106754579D03*
X55851797Y-107160979D03*
X55851797Y-107567379D03*
X55851797Y-107973779D03*
X55851797Y-108380179D03*
X55851797Y-108786579D03*
X55851797Y-109192979D03*
X55851797Y-109599379D03*
X55851797Y-110005779D03*
X55851797Y-110412179D03*
X55851797Y-110818579D03*
X55851797Y-111224979D03*
X55851797Y-111631379D03*
X55851797Y-112037779D03*
X55851797Y-112444179D03*
X55853837Y-101877779D03*
X55857137Y-113272219D03*
X55867547Y-98744939D03*
X55873897Y-112858709D03*
X55900567Y-113716209D03*
X55982867Y-94194789D03*
X55987187Y-114153849D03*
X56099707Y-93210029D03*
X56100217Y-97964649D03*
X56105797Y-96962369D03*
X56107067Y-97453099D03*
X56116217Y-114580829D03*
X56132217Y-100040599D03*
X56133737Y-100444199D03*
X56149747Y-99633689D03*
X56161677Y-100849329D03*
X56205627Y-101252679D03*
X56223657Y-99232109D03*
X56253117Y-101660349D03*
X56254897Y-102082759D03*
X56257947Y-113049209D03*
X56258197Y-102487379D03*
X56258197Y-102893779D03*
X56258197Y-103300179D03*
X56258197Y-103706579D03*
X56258197Y-104112979D03*
X56258197Y-104519379D03*
X56258197Y-104925779D03*
X56258197Y-105332179D03*
X56258197Y-105738579D03*
X56258197Y-106144979D03*
X56258197Y-106551379D03*
X56258197Y-106957779D03*
X56258197Y-107364179D03*
X56258197Y-107770579D03*
X56258197Y-108176979D03*
X56258197Y-108583379D03*
X56258197Y-108989779D03*
X56258197Y-109396179D03*
X56258197Y-109802579D03*
X56258197Y-110208979D03*
X56258197Y-110615379D03*
X56258197Y-111021779D03*
X56258197Y-111428179D03*
X56258197Y-111834579D03*
X56258197Y-112240979D03*
X56258197Y-112647379D03*
X56259727Y-93800829D03*
X56277757Y-113455099D03*
X56286137Y-114993319D03*
X56337197Y-113857179D03*
X56435497Y-114251389D03*
X56440577Y-92879569D03*
X56481467Y-115387279D03*
X56551567Y-97955759D03*
X56555127Y-97454879D03*
X56571637Y-114634419D03*
X56591447Y-93479779D03*
X56730137Y-115758879D03*
X56739787Y-114999669D03*
X56771027Y-92581889D03*
X56940697Y-115351209D03*
X56950607Y-93120619D03*
X56996577Y-97454879D03*
X56996577Y-97932399D03*
X57012077Y-116104569D03*
X57130187Y-92222729D03*
X57181747Y-115678359D03*
X57275727Y-101771859D03*
X57275727Y-102178259D03*
X57275727Y-102584659D03*
X57275727Y-102991059D03*
X57275727Y-103397459D03*
X57275727Y-103803859D03*
X57275727Y-104210259D03*
X57275727Y-104616659D03*
X57275727Y-105023059D03*
X57275727Y-105429459D03*
X57275727Y-105835859D03*
X57275727Y-106242259D03*
X57275727Y-106648659D03*
X57275727Y-107055059D03*
X57275727Y-107461459D03*
X57275727Y-107867859D03*
X57275727Y-108274259D03*
X57275727Y-108680659D03*
X57275727Y-109087059D03*
X57275727Y-109493459D03*
X57275727Y-109899859D03*
X57275727Y-110306259D03*
X57275727Y-110712659D03*
X57275727Y-111119059D03*
X57275727Y-111525459D03*
X57275727Y-111931859D03*
X57275727Y-112338259D03*
X57275727Y-112744659D03*
X57277507Y-113151059D03*
X57309757Y-92761459D03*
X57310777Y-101365459D03*
X57311537Y-99336509D03*
X57316877Y-113555429D03*
X57320427Y-116417749D03*
X57358277Y-100959309D03*
X57404247Y-100149049D03*
X57407547Y-100555709D03*
X57408057Y-99741889D03*
X57408057Y-113951669D03*
X57453527Y-115980369D03*
X57462667Y-97472399D03*
X57462667Y-97949919D03*
X57489597Y-91863319D03*
X57549537Y-114332409D03*
X57657487Y-116704009D03*
X57662317Y-112932869D03*
X57669167Y-92402049D03*
X57682127Y-101568659D03*
X57682127Y-101975059D03*
X57682127Y-102381459D03*
X57682127Y-102787859D03*
X57682127Y-103194259D03*
X57682127Y-103600659D03*
X57682127Y-104007059D03*
X57682127Y-104413459D03*
X57682127Y-104819859D03*
X57682127Y-105226259D03*
X57682127Y-105632659D03*
X57682127Y-106039059D03*
X57682127Y-106445459D03*
X57682127Y-106851859D03*
X57682127Y-107258259D03*
X57682127Y-107664659D03*
X57682127Y-108071059D03*
X57682127Y-108477459D03*
X57682127Y-108883859D03*
X57682127Y-109290259D03*
X57682127Y-109696659D03*
X57682127Y-110103059D03*
X57682127Y-110509459D03*
X57682127Y-110915859D03*
X57682127Y-111322259D03*
X57682127Y-111728659D03*
X57682127Y-112135059D03*
X57682127Y-112541459D03*
X57695077Y-113314379D03*
X57719207Y-101164289D03*
X57739017Y-114692079D03*
X57749177Y-116259259D03*
X57751977Y-113663889D03*
X57754257Y-100762969D03*
X57769757Y-100360379D03*
X57773307Y-99949919D03*
X57846207Y-95740379D03*
X57848747Y-91504159D03*
X57853577Y-114002719D03*
X57935107Y-97451319D03*
X57935107Y-97928839D03*
X57956187Y-95204179D03*
X57973467Y-115024059D03*
X57997847Y-116973249D03*
X57998097Y-114325809D03*
X58028327Y-92042899D03*
X58062367Y-88063989D03*
X58073027Y-88596629D03*
X58075567Y-116522909D03*
X58083697Y-87478009D03*
X58085727Y-86970009D03*
X58127137Y-86463789D03*
X58183017Y-114627559D03*
X58208157Y-85962139D03*
X58248287Y-115323519D03*
X58315347Y-94845029D03*
X58328047Y-85468619D03*
X58335917Y-91725399D03*
X58350657Y-117220649D03*
X58378087Y-114910519D03*
X58403487Y-116762689D03*
X58486287Y-84985759D03*
X58494927Y-95383759D03*
X58549787Y-115596059D03*
X58562237Y-91349219D03*
X58567827Y-87701019D03*
X58567827Y-88776709D03*
X58578487Y-88233659D03*
X58589157Y-87115039D03*
X58621927Y-86608059D03*
X58668917Y-115161219D03*
X58674507Y-94485869D03*
X58681617Y-84516879D03*
X58697617Y-86105899D03*
X58721747Y-117438329D03*
X58746127Y-116981629D03*
X58815477Y-85611619D03*
X58854077Y-95024599D03*
X58870587Y-115845489D03*
X58912757Y-84064499D03*
X58957207Y-115403019D03*
X58974987Y-85129269D03*
X59033917Y-94126459D03*
X59097917Y-117182039D03*
X59105797Y-117635679D03*
X59174627Y-84662169D03*
X59178697Y-83631689D03*
X59208917Y-116070539D03*
X59213487Y-94665189D03*
X59262517Y-115622729D03*
X59393067Y-93767299D03*
X59412877Y-84213599D03*
X59464947Y-117352979D03*
X59477647Y-83220969D03*
X59501527Y-117808659D03*
X59563247Y-116269669D03*
X59572647Y-94306039D03*
X59583567Y-115819329D03*
X59688727Y-83786879D03*
X59752227Y-93408149D03*
X59807847Y-82834889D03*
X59842397Y-117504109D03*
X59907167Y-117956489D03*
X59918087Y-115991539D03*
X59931297Y-116442139D03*
X59931807Y-93946879D03*
X59932057Y-93228319D03*
X59999367Y-83385049D03*
X60174377Y-82469639D03*
X60228217Y-117631109D03*
X60257937Y-92838679D03*
X60264287Y-116138349D03*
X60290957Y-93587729D03*
X60311027Y-116586919D03*
X60312297Y-82014219D03*
X60321187Y-118078659D03*
X60343027Y-83010909D03*
X60463937Y-93401039D03*
X60509657Y-92397479D03*
X60620647Y-116259259D03*
X60621417Y-117733979D03*
X60653667Y-82559549D03*
X60679577Y-91918689D03*
X60700407Y-116702999D03*
X60742317Y-118174929D03*
X60762127Y-91417299D03*
X60765177Y-92991839D03*
X60767207Y-90886939D03*
X60770507Y-90338299D03*
X60770767Y-88234679D03*
X60770767Y-88724639D03*
X60770767Y-89299949D03*
X60772037Y-87248139D03*
X60772547Y-89810999D03*
X60776357Y-87744709D03*
X60797687Y-82086099D03*
X60806067Y-86741159D03*
X60907167Y-86243319D03*
X60984887Y-116353239D03*
X61001397Y-92542259D03*
X61020197Y-117811959D03*
X61032127Y-111908749D03*
X61054227Y-112389059D03*
X61068707Y-111341819D03*
X61073537Y-85763509D03*
X61097407Y-116790119D03*
X61158117Y-110891479D03*
X61167257Y-92061949D03*
X61178687Y-118243249D03*
X61179707Y-112837879D03*
X61201807Y-89379959D03*
X61258957Y-91562329D03*
X61274697Y-88828269D03*
X61274697Y-91054579D03*
X61280037Y-89978639D03*
X61287397Y-88170919D03*
X61289937Y-86994139D03*
X61297557Y-113216339D03*
X61298067Y-87622279D03*
X61298327Y-90535409D03*
X61302387Y-85309869D03*
X61305177Y-110456369D03*
X61346077Y-116417749D03*
X61367917Y-86492239D03*
X61424307Y-117855139D03*
X61443357Y-112084259D03*
X61451737Y-111597089D03*
X61463167Y-113590229D03*
X61485267Y-112529519D03*
X61501017Y-116837869D03*
X61504567Y-111194239D03*
X61507367Y-110044129D03*
X61521847Y-86008109D03*
X61589657Y-84891019D03*
X61609477Y-110801559D03*
X61622677Y-118266369D03*
X61641227Y-112991289D03*
X61681097Y-113951159D03*
X61714887Y-116471089D03*
X61748407Y-85553449D03*
X61761367Y-109661609D03*
X61764157Y-110425889D03*
X61816737Y-113367209D03*
X61834267Y-117856409D03*
X61907417Y-116840409D03*
X61959487Y-114236909D03*
X61964307Y-84490209D03*
X61966597Y-110073339D03*
X62037467Y-118262809D03*
X62042037Y-85138919D03*
X62052197Y-113713159D03*
X62085217Y-109316929D03*
X62110617Y-116434009D03*
X62212727Y-109749999D03*
X62236597Y-114534849D03*
X62240667Y-117856409D03*
X62252597Y-119781979D03*
X62313817Y-116840409D03*
X62318637Y-114034729D03*
X62331847Y-84047989D03*
X62395857Y-84774179D03*
X62413887Y-109007299D03*
X62443867Y-118262809D03*
X62472057Y-111995869D03*
X62486027Y-111570929D03*
X62498477Y-109460949D03*
X62517017Y-116434009D03*
X62546227Y-112396929D03*
X62575437Y-111185099D03*
X62575687Y-114807389D03*
X62624457Y-114302949D03*
X62630297Y-83547359D03*
X62647067Y-117856409D03*
X62697867Y-112774119D03*
X62720217Y-116840409D03*
X62740277Y-110822639D03*
X62814447Y-108756859D03*
X62824607Y-109218379D03*
X62850267Y-118262809D03*
X62864737Y-82929379D03*
X62869817Y-111883849D03*
X62900047Y-111469579D03*
X62918847Y-113115249D03*
X62923417Y-116434009D03*
X62952627Y-112282129D03*
X62962527Y-110501839D03*
X62967607Y-114564569D03*
X62989197Y-115025069D03*
X63003167Y-82283709D03*
X63047617Y-111058349D03*
X63053467Y-117856409D03*
X63102997Y-112670749D03*
X63126617Y-116840409D03*
X63185547Y-109031429D03*
X63202057Y-113406579D03*
X63238117Y-110229809D03*
X63250057Y-108574229D03*
X63256667Y-118262809D03*
X63283337Y-110712409D03*
X63329817Y-116434009D03*
X63340487Y-114726369D03*
X63343527Y-113006529D03*
X63351147Y-82660899D03*
X63423037Y-82037579D03*
X63430657Y-115178739D03*
X63459867Y-117856409D03*
X63533017Y-116840409D03*
X63544957Y-113624769D03*
X63571877Y-108905449D03*
X63576197Y-110032449D03*
X63606417Y-110479999D03*
X63663067Y-118262809D03*
X63695317Y-108510479D03*
X63704467Y-113222179D03*
X63733167Y-114830509D03*
X63736217Y-116434009D03*
X63866267Y-117856409D03*
X63877947Y-115272719D03*
X63917827Y-113763449D03*
X63939417Y-116840409D03*
X63947037Y-108897829D03*
X63955417Y-109931609D03*
X64008757Y-110359089D03*
X64069467Y-118262809D03*
X64085977Y-113381179D03*
X64125087Y-114883339D03*
X64142617Y-116434009D03*
X64143627Y-108485079D03*
X64272667Y-117856409D03*
X64322697Y-113798759D03*
X64345817Y-116840409D03*
X64349367Y-109914339D03*
X64353437Y-108891479D03*
X64368677Y-115270179D03*
X64475867Y-118262809D03*
X64525897Y-113392359D03*
X64549017Y-116434009D03*
X64552567Y-110320739D03*
X64556637Y-108485079D03*
X64573397Y-114863779D03*
X64679067Y-117856409D03*
X64729097Y-113798759D03*
X64752217Y-116840409D03*
X64755767Y-109914339D03*
X64759837Y-108891479D03*
X64776597Y-115270179D03*
X64882267Y-118262809D03*
X64932297Y-113392359D03*
X64955417Y-116434009D03*
X64958967Y-110320739D03*
X64963037Y-108485079D03*
X64979797Y-114863779D03*
X65085467Y-117856409D03*
X65135497Y-113798759D03*
X65158617Y-116840409D03*
X65162167Y-109914339D03*
X65166237Y-108891479D03*
X65182997Y-115270179D03*
X65288667Y-118262809D03*
X65338697Y-113392359D03*
X65361817Y-116434009D03*
X65365367Y-110320739D03*
X65369437Y-108485079D03*
X65386197Y-114863779D03*
X65491867Y-117856409D03*
X65527927Y-113784789D03*
X65565017Y-116840409D03*
X65568567Y-109914339D03*
X65572637Y-108891479D03*
X65589397Y-115270179D03*
X65695067Y-118262809D03*
X65731127Y-113378389D03*
X65768217Y-116434009D03*
X65771767Y-110320739D03*
X65775837Y-108485079D03*
X65792597Y-114863779D03*
X65898267Y-117856409D03*
X65934327Y-113784789D03*
X65971417Y-116840409D03*
X65974967Y-109914339D03*
X65979037Y-108891479D03*
X65995797Y-115270179D03*
X66101467Y-118262809D03*
X66137527Y-113378389D03*
X66174617Y-116434009D03*
X66178167Y-110320739D03*
X66182237Y-108485079D03*
X66198997Y-114863779D03*
X66304667Y-117856409D03*
X66340727Y-113784789D03*
X66377817Y-116840409D03*
X66381367Y-109914339D03*
X66385437Y-108891479D03*
X66402197Y-115270179D03*
X66507867Y-118262809D03*
X66543927Y-113378389D03*
X66581017Y-116434009D03*
X66584567Y-110320739D03*
X66588637Y-108485079D03*
X66605397Y-114863779D03*
X66711067Y-117856409D03*
X66741797Y-113835589D03*
X66784217Y-116840409D03*
X66787767Y-109914339D03*
X66791837Y-108891479D03*
X66808597Y-115270179D03*
X66914267Y-118262809D03*
X66944997Y-113429189D03*
X66987417Y-116434009D03*
X66990967Y-110320739D03*
X66995037Y-108485079D03*
X67011797Y-114863779D03*
X67117467Y-117856409D03*
X67148197Y-113835589D03*
X67190617Y-116840409D03*
X67194167Y-109914339D03*
X67198237Y-108891479D03*
X67214997Y-115270179D03*
X67320667Y-118262809D03*
X67351397Y-113429189D03*
X67393817Y-116434009D03*
X67397367Y-110320739D03*
X67401437Y-108485079D03*
X67418197Y-114863779D03*
X67523867Y-117856409D03*
X67554597Y-113835589D03*
X67597017Y-116840409D03*
X67600567Y-109914339D03*
X67604637Y-108891479D03*
X67621397Y-115270179D03*
X67727067Y-118262809D03*
X67757797Y-113429189D03*
X67800217Y-116434009D03*
X67803767Y-110320739D03*
X67807837Y-108485079D03*
X67824597Y-114863779D03*
X67930267Y-117856409D03*
X67960997Y-113835589D03*
X68003417Y-116840409D03*
X68006967Y-109914339D03*
X68011037Y-108891479D03*
X68027797Y-115270179D03*
X68133467Y-118262809D03*
X68164197Y-113429189D03*
X68206617Y-116434009D03*
X68210167Y-110320739D03*
X68214237Y-108485079D03*
X68230997Y-114863779D03*
X68336667Y-117856409D03*
X68367397Y-113835589D03*
X68409817Y-116840409D03*
X68413367Y-109914339D03*
X68417437Y-108891479D03*
X68434197Y-115270179D03*
X68539867Y-118262809D03*
X68570597Y-113429189D03*
X68613017Y-116434009D03*
X68616567Y-110320739D03*
X68620637Y-108485079D03*
X68637397Y-114863779D03*
X68743067Y-117856409D03*
X68773797Y-113835589D03*
X68816217Y-116840409D03*
X68819767Y-109914339D03*
X68823837Y-108891479D03*
X68840597Y-115270179D03*
X68946267Y-118262809D03*
X68976997Y-113429189D03*
X69019417Y-116434009D03*
X69022967Y-110320739D03*
X69027037Y-108485079D03*
X69043797Y-114863779D03*
X69096627Y-95349219D03*
X69098917Y-96361409D03*
X69098917Y-96869409D03*
X69104247Y-97937979D03*
X69104247Y-98445979D03*
X69119997Y-97387059D03*
X69125337Y-95853149D03*
X69149467Y-117856409D03*
X69157847Y-94844769D03*
X69180197Y-113835589D03*
X69222617Y-116840409D03*
X69226167Y-109914339D03*
X69230237Y-108891479D03*
X69246997Y-115270179D03*
X69301607Y-94357599D03*
X69352667Y-118262809D03*
X69380857Y-98872449D03*
X69383397Y-113429189D03*
X69425817Y-116434009D03*
X69432677Y-110320739D03*
X69450197Y-114863779D03*
X69474077Y-108503369D03*
X69523857Y-93900909D03*
X69555867Y-117856409D03*
X69586597Y-113835589D03*
X69600567Y-95617439D03*
X69606917Y-96107409D03*
X69606917Y-96615409D03*
X69606917Y-97123409D03*
X69612247Y-97683979D03*
X69612247Y-98191979D03*
X69616567Y-95111469D03*
X69629017Y-116840409D03*
X69632567Y-109911039D03*
X69653397Y-115270179D03*
X69674227Y-108866329D03*
X69710547Y-100301709D03*
X69720457Y-100730459D03*
X69728077Y-99868129D03*
X69744587Y-94610839D03*
X69749157Y-99471889D03*
X69758047Y-101154639D03*
X69759067Y-118262809D03*
X69775067Y-108123639D03*
X69776587Y-101560279D03*
X69776587Y-101966679D03*
X69776587Y-102373079D03*
X69776587Y-102779479D03*
X69776587Y-103185879D03*
X69776587Y-103592279D03*
X69776587Y-103998679D03*
X69776587Y-104405079D03*
X69776587Y-104811479D03*
X69776587Y-105217879D03*
X69776587Y-105624279D03*
X69776587Y-106030679D03*
X69776587Y-106437079D03*
X69776587Y-106843479D03*
X69776587Y-107249879D03*
X69776587Y-107656279D03*
X69789797Y-113429189D03*
X69808847Y-98612859D03*
X69818757Y-93487139D03*
X69832217Y-116434009D03*
X69853807Y-99051769D03*
X69856597Y-114863779D03*
X69908667Y-110285689D03*
X69952607Y-94157959D03*
X69962267Y-117856409D03*
X69992997Y-113835589D03*
X70016107Y-108647129D03*
X70024497Y-109848809D03*
X70035417Y-116840409D03*
X70038717Y-98195539D03*
X70059797Y-115270179D03*
X70101197Y-99709629D03*
X70103997Y-100537929D03*
X70106537Y-100116539D03*
X70139807Y-100953219D03*
X70146667Y-99283929D03*
X70160887Y-108266889D03*
X70165467Y-118262809D03*
X70182987Y-101357079D03*
X70182987Y-101763479D03*
X70182987Y-102169879D03*
X70182987Y-102576279D03*
X70182987Y-102982679D03*
X70182987Y-103389079D03*
X70182987Y-103795479D03*
X70182987Y-104201879D03*
X70182987Y-104608279D03*
X70182987Y-105014679D03*
X70182987Y-105421079D03*
X70182987Y-105827479D03*
X70182987Y-106233879D03*
X70182987Y-106640279D03*
X70182987Y-107046679D03*
X70182987Y-107453079D03*
X70182987Y-107859479D03*
X70196197Y-113429189D03*
X70224387Y-93122139D03*
X70238617Y-116434009D03*
X70244967Y-93764259D03*
X70262997Y-114863779D03*
X70368667Y-117856409D03*
X70397107Y-110141919D03*
X70399397Y-113835589D03*
X70409557Y-109676589D03*
X70441817Y-116840409D03*
X70460867Y-97962369D03*
X70464417Y-97461479D03*
X70466197Y-115270179D03*
X70559167Y-93423639D03*
X70571867Y-118262809D03*
X70602597Y-113429189D03*
X70618597Y-92722599D03*
X70645017Y-116434009D03*
X70669397Y-114863779D03*
X70746357Y-109419289D03*
X70775067Y-117856409D03*
X70805797Y-113835589D03*
X70828147Y-109880049D03*
X70848217Y-116840409D03*
X70872597Y-115270179D03*
X70889107Y-93120619D03*
X70905877Y-97461479D03*
X70918317Y-97937479D03*
X70978267Y-118262809D03*
X70981057Y-112935159D03*
X70981057Y-115881559D03*
X71014587Y-109059879D03*
X71026267Y-113447989D03*
X71051417Y-116434009D03*
X71075797Y-114863779D03*
X71167237Y-108682949D03*
X71177907Y-92125959D03*
X71180447Y-109469839D03*
X71181467Y-117856409D03*
X71211947Y-113826449D03*
X71223627Y-101770589D03*
X71223627Y-102176989D03*
X71223627Y-102583389D03*
X71223627Y-102989789D03*
X71223627Y-103396189D03*
X71223627Y-103802589D03*
X71223627Y-104208989D03*
X71223627Y-104615389D03*
X71223627Y-105021789D03*
X71223627Y-105428189D03*
X71223627Y-105834589D03*
X71223627Y-106240989D03*
X71223627Y-106647389D03*
X71223627Y-107053789D03*
X71223627Y-107460189D03*
X71223627Y-107866589D03*
X71224897Y-108268929D03*
X71237347Y-100958039D03*
X71237347Y-101364439D03*
X71248267Y-92761459D03*
X71254617Y-116840409D03*
X71278997Y-115270179D03*
X71321667Y-99708359D03*
X71326747Y-100533359D03*
X71329287Y-100124419D03*
X71371967Y-97479009D03*
X71384407Y-97954999D03*
X71384667Y-118262809D03*
X71440287Y-109037529D03*
X71457817Y-116434009D03*
X71485757Y-114867079D03*
X71539857Y-91758419D03*
X71587867Y-117856409D03*
X71589137Y-108555439D03*
X71604627Y-107264099D03*
X71604627Y-107670499D03*
X71607677Y-92402049D03*
X71609707Y-101986239D03*
X71609707Y-102392639D03*
X71609707Y-102799039D03*
X71609707Y-103205439D03*
X71609707Y-103611839D03*
X71609707Y-104018239D03*
X71609707Y-104424639D03*
X71609707Y-104831039D03*
X71609707Y-105237439D03*
X71609707Y-105643839D03*
X71609707Y-106050239D03*
X71609707Y-106456639D03*
X71609707Y-106863039D03*
X71614787Y-108101539D03*
X71618347Y-113826449D03*
X71623427Y-101580089D03*
X71643747Y-101161239D03*
X71661017Y-116840409D03*
X71678797Y-100761699D03*
X71708007Y-99905979D03*
X71708007Y-100322279D03*
X71733407Y-115271199D03*
X71791067Y-118262809D03*
X71806557Y-95677379D03*
X71839327Y-114857939D03*
X71844407Y-97457919D03*
X71856847Y-97933919D03*
X71864217Y-116434009D03*
X71875387Y-91358879D03*
X71894697Y-95204179D03*
X71934067Y-92061949D03*
X71994267Y-117856409D03*
X71998577Y-88900159D03*
X72024747Y-113826449D03*
X72026017Y-88479019D03*
X72027787Y-87971279D03*
X72031347Y-87478009D03*
X72033127Y-86970259D03*
X72067417Y-116840409D03*
X72074777Y-86463789D03*
X72155807Y-85962389D03*
X72184257Y-115268909D03*
X72197467Y-118262809D03*
X72245727Y-114857939D03*
X72253847Y-94845029D03*
X72269597Y-91715749D03*
X72270617Y-116434009D03*
X72271377Y-107969459D03*
X72275697Y-85468619D03*
X72314557Y-106793439D03*
X72314557Y-109231839D03*
X72357737Y-140946279D03*
X72400667Y-117856409D03*
X72433427Y-95383759D03*
X72433687Y-84986019D03*
X72445117Y-113840419D03*
X72473817Y-116840409D03*
X72498707Y-91348209D03*
X72499217Y-88916159D03*
X72514457Y-88505189D03*
X72519787Y-88047219D03*
X72525127Y-87599679D03*
X72536807Y-87115039D03*
X72569577Y-86608309D03*
X72603867Y-118262809D03*
X72613007Y-94485869D03*
X72629007Y-84516879D03*
X72635107Y-115266629D03*
X72645267Y-86105899D03*
X72652127Y-114857939D03*
X72677017Y-116434009D03*
X72763117Y-85611869D03*
X72792587Y-95024599D03*
X72807067Y-117856409D03*
X72851517Y-113840419D03*
X72860407Y-84064759D03*
X72880217Y-116840409D03*
X72922377Y-85129269D03*
X72972417Y-94126459D03*
X73010267Y-118262809D03*
X73058527Y-114857939D03*
X73083417Y-116434009D03*
X73085957Y-115264339D03*
X73122027Y-84662169D03*
X73126337Y-83631689D03*
X73151997Y-94665189D03*
X73213467Y-117856409D03*
X73249277Y-140915799D03*
X73257917Y-113840419D03*
X73286617Y-116840409D03*
X73360527Y-84213599D03*
X73387197Y-93716499D03*
X73416667Y-118262809D03*
X73425047Y-83220969D03*
X73464927Y-114857939D03*
X73489817Y-116434009D03*
X73511147Y-94306039D03*
X73619867Y-117856409D03*
X73636117Y-83786879D03*
X73664317Y-113840419D03*
X73668127Y-115264339D03*
X73693017Y-116840409D03*
X73755247Y-82834889D03*
X73797157Y-93316959D03*
X73823067Y-118262809D03*
X73871327Y-114857939D03*
X73919837Y-93838929D03*
X73946757Y-83385049D03*
X74026267Y-117856409D03*
X74070717Y-113840419D03*
X74074527Y-115264339D03*
X74099417Y-116840409D03*
X74143357Y-82439409D03*
X74196447Y-92838679D03*
X74209147Y-81965699D03*
X74229467Y-118262809D03*
X74277727Y-114857939D03*
X74290427Y-83010909D03*
X74402437Y-93401039D03*
X74448407Y-92397479D03*
X74515467Y-165223599D03*
X74532997Y-164812369D03*
X74559917Y-170483939D03*
X74561187Y-165607389D03*
X74561187Y-166013789D03*
X74563727Y-164369649D03*
X74571857Y-170883479D03*
X74571857Y-171188279D03*
X74598267Y-82575049D03*
X74610207Y-166420189D03*
X74610207Y-166826589D03*
X74610207Y-167232989D03*
X74610207Y-167639389D03*
X74610207Y-168045789D03*
X74610207Y-168452189D03*
X74610207Y-168858589D03*
X74610207Y-169264989D03*
X74610207Y-169671389D03*
X74610207Y-170077789D03*
X74618337Y-91918689D03*
X74626717Y-162744049D03*
X74626717Y-163150449D03*
X74626717Y-163556849D03*
X74626717Y-163963249D03*
X74631797Y-162314029D03*
X74692757Y-161851999D03*
X74700887Y-91417549D03*
X74703677Y-92992099D03*
X74711297Y-90320519D03*
X74711297Y-90879579D03*
X74711557Y-88711939D03*
X74711557Y-89212579D03*
X74711807Y-88131299D03*
X74715617Y-87677649D03*
X74716637Y-89803889D03*
X74719687Y-87248139D03*
X74753467Y-86741159D03*
X74766417Y-82115819D03*
X74821287Y-161403439D03*
X74854557Y-86243319D03*
X74913737Y-165386159D03*
X74914247Y-164983059D03*
X74931777Y-164574379D03*
X74939897Y-92542259D03*
X74967587Y-165810589D03*
X74976227Y-170254319D03*
X75014327Y-160979009D03*
X75016607Y-166216989D03*
X75016607Y-166623389D03*
X75016607Y-167029789D03*
X75016607Y-167436189D03*
X75016607Y-167842589D03*
X75016607Y-168248989D03*
X75016607Y-168655389D03*
X75016607Y-169061789D03*
X75016607Y-169468189D03*
X75016607Y-169874589D03*
X75021177Y-85763509D03*
X75033117Y-162540849D03*
X75033117Y-162947249D03*
X75033117Y-163353649D03*
X75033117Y-163760049D03*
X75033117Y-164166449D03*
X75053437Y-162130129D03*
X75105767Y-92062199D03*
X75139287Y-161737199D03*
X75197707Y-91562579D03*
X75203047Y-87930639D03*
X75213457Y-91054839D03*
X75213717Y-87440669D03*
X75223877Y-90032229D03*
X75223877Y-90516869D03*
X75224127Y-88423649D03*
X75224127Y-88924289D03*
X75229207Y-89515599D03*
X75237337Y-86994139D03*
X75249777Y-85309869D03*
X75268067Y-160587589D03*
X75279757Y-161355939D03*
X75315317Y-86492239D03*
X75431897Y-140713619D03*
X75431897Y-141120019D03*
X75454247Y-140307719D03*
X75469487Y-86008109D03*
X75475077Y-160999329D03*
X75537057Y-84890769D03*
X75574647Y-160239359D03*
X75696057Y-85553449D03*
X75720447Y-160675729D03*
X75758547Y-139563759D03*
X75834997Y-84555489D03*
X75914247Y-159940399D03*
X75989427Y-85138919D03*
X76009497Y-160389729D03*
X76022957Y-139254889D03*
X76049117Y-162536789D03*
X76049117Y-162943189D03*
X76049117Y-163349589D03*
X76049117Y-163755989D03*
X76049117Y-164162389D03*
X76060547Y-166189049D03*
X76060547Y-166595449D03*
X76060547Y-167001849D03*
X76060547Y-167408249D03*
X76060547Y-167814649D03*
X76060547Y-168221049D03*
X76060547Y-168627449D03*
X76060547Y-169033849D03*
X76060547Y-169440249D03*
X76060547Y-169846649D03*
X76060547Y-170253049D03*
X76087477Y-162132169D03*
X76123537Y-165789509D03*
X76157067Y-164565739D03*
X76170277Y-84173719D03*
X76174597Y-165385399D03*
X76177137Y-164974429D03*
X76210667Y-122463209D03*
X76211937Y-107550359D03*
X76218537Y-161747359D03*
X76219047Y-106534359D03*
X76283557Y-159681319D03*
X76328777Y-160138269D03*
X76343247Y-84774179D03*
X76348327Y-139011559D03*
X76368647Y-84729729D03*
X76442307Y-161417659D03*
X76453487Y-83752079D03*
X76455517Y-162739989D03*
X76455517Y-163146389D03*
X76455517Y-163552789D03*
X76455517Y-163959189D03*
X76466947Y-165985849D03*
X76466947Y-166392249D03*
X76466947Y-166798649D03*
X76466947Y-167205049D03*
X76466947Y-167611449D03*
X76466947Y-168017849D03*
X76466947Y-168424249D03*
X76466947Y-168830649D03*
X76466947Y-169237049D03*
X76466947Y-169643449D03*
X76466947Y-170049849D03*
X76471777Y-162296759D03*
X76492607Y-122806109D03*
X76516987Y-122111669D03*
X76518507Y-164372449D03*
X76529937Y-165586309D03*
X76533247Y-164756239D03*
X76547467Y-170456249D03*
X76547467Y-170862649D03*
X76547467Y-171167449D03*
X76550767Y-165162389D03*
X76601567Y-161893409D03*
X76673707Y-159923639D03*
X76679037Y-159464399D03*
X76680307Y-83297679D03*
X76684377Y-84331709D03*
X76704437Y-128511199D03*
X76704437Y-128917599D03*
X76711807Y-108566359D03*
X76714347Y-128105309D03*
X76716377Y-129821079D03*
X76718917Y-105518359D03*
X76718917Y-129348639D03*
X76726027Y-138838329D03*
X76728567Y-120518839D03*
X76728567Y-120925239D03*
X76729587Y-161130389D03*
X76737967Y-121344079D03*
X76749397Y-123148499D03*
X76754477Y-120090339D03*
X76762097Y-119257219D03*
X76762857Y-121768259D03*
X76767177Y-118850819D03*
X76767177Y-123554899D03*
X76769717Y-124324519D03*
X76774797Y-119691559D03*
X76774797Y-123956219D03*
X76787247Y-124739809D03*
X76795117Y-125172879D03*
X76802737Y-125599599D03*
X76808577Y-161570569D03*
X76846427Y-82817619D03*
X76952847Y-83900419D03*
X76953617Y-82295649D03*
X76960217Y-130364639D03*
X76999337Y-141251079D03*
X77040227Y-159747869D03*
X77066387Y-160906359D03*
X77071977Y-129564539D03*
X77082647Y-128759609D03*
X77084927Y-128348639D03*
X77087217Y-129160679D03*
X77089757Y-127006759D03*
X77095857Y-159291939D03*
X77104997Y-129978559D03*
X77115917Y-127947319D03*
X77117697Y-123354239D03*
X77124297Y-138757309D03*
X77130397Y-123755559D03*
X77134967Y-120315639D03*
X77134967Y-120722039D03*
X77134967Y-121128439D03*
X77134967Y-161348579D03*
X77137767Y-121530009D03*
X77140487Y-124499969D03*
X77143097Y-119475659D03*
X77143097Y-119897299D03*
X77153257Y-119056559D03*
X77158337Y-124931579D03*
X77168247Y-139808609D03*
X77170277Y-83441439D03*
X77219297Y-126267619D03*
X77328517Y-130745639D03*
X77333847Y-82960369D03*
X77348837Y-130329079D03*
X77409037Y-82439409D03*
X77419957Y-141265049D03*
X77423767Y-159613759D03*
X77428087Y-160720939D03*
X77469237Y-81953759D03*
X77506567Y-161152999D03*
X77529177Y-159166719D03*
X77544667Y-138770769D03*
X77574137Y-139786769D03*
X77689197Y-126468279D03*
X77698337Y-130571139D03*
X77706977Y-130994559D03*
X77813657Y-160592419D03*
X77819757Y-159522319D03*
X77865477Y-140293749D03*
X77872327Y-141265049D03*
X77875887Y-140833759D03*
X77936087Y-160991709D03*
X77951067Y-138770769D03*
X77973677Y-159089499D03*
X77980537Y-139786769D03*
X78049877Y-130763419D03*
X78169257Y-126262539D03*
X78199987Y-160495899D03*
X78205837Y-131203349D03*
X78231487Y-159467959D03*
X78245457Y-119069259D03*
X78260697Y-119503599D03*
X78262987Y-121571919D03*
X78268317Y-119937939D03*
X78269837Y-120357549D03*
X78269837Y-120763949D03*
X78269837Y-121170349D03*
X78275937Y-123399959D03*
X78276957Y-124629319D03*
X78276957Y-125035719D03*
X78278477Y-128512979D03*
X78281017Y-128093879D03*
X78281017Y-128916839D03*
X78291177Y-123811439D03*
X78291177Y-124217839D03*
X78291177Y-129320699D03*
X78293207Y-140216539D03*
X78304897Y-127675799D03*
X78308957Y-126999139D03*
X78352137Y-129719479D03*
X78356707Y-160928709D03*
X78357467Y-138770769D03*
X78386937Y-139786769D03*
X78419447Y-159061559D03*
X78465927Y-130837589D03*
X78606137Y-160483959D03*
X78623917Y-118878759D03*
X78629757Y-159467959D03*
X78631537Y-119277539D03*
X78644237Y-123175679D03*
X78651857Y-119699179D03*
X78651857Y-120118279D03*
X78656177Y-121848529D03*
X78666337Y-121396409D03*
X78676237Y-120560749D03*
X78676237Y-120967149D03*
X78683357Y-123613319D03*
X78683357Y-124832519D03*
X78684877Y-124009559D03*
X78685637Y-131232299D03*
X78695037Y-124400719D03*
X78695037Y-125251619D03*
X78700117Y-125658019D03*
X78711297Y-127878999D03*
X78741517Y-128314859D03*
X78741517Y-128721259D03*
X78743297Y-129102259D03*
X78746087Y-129809899D03*
X78763867Y-138770769D03*
X78793337Y-139786769D03*
X78809337Y-160890359D03*
X78832957Y-159061559D03*
X78889347Y-130851299D03*
X78903567Y-122842429D03*
X78935317Y-122165519D03*
X78951577Y-129437539D03*
X79012537Y-160483959D03*
X79036157Y-159467959D03*
X79092547Y-131232299D03*
X79152487Y-129809899D03*
X79177387Y-138721489D03*
X79199737Y-139786769D03*
X79215737Y-160890359D03*
X79239357Y-159061559D03*
X79247487Y-122530009D03*
X79295747Y-130851299D03*
X79355687Y-129403499D03*
X79418937Y-160483959D03*
X79442557Y-159467959D03*
X79498947Y-131232299D03*
X79558887Y-129809899D03*
X79571847Y-108566359D03*
X79583787Y-138721489D03*
X79593177Y-139844169D03*
X79622137Y-160890359D03*
X79645757Y-159061559D03*
X79702147Y-130851299D03*
X79762087Y-129403499D03*
X79825337Y-160483959D03*
X79848957Y-159467959D03*
X79905347Y-131232299D03*
X79965287Y-129809899D03*
X79986877Y-138684409D03*
X79997547Y-139894469D03*
X80020917Y-160831939D03*
X80052157Y-159061559D03*
X80071717Y-107550359D03*
X80108547Y-130851299D03*
X80168487Y-129403499D03*
X80231737Y-160483959D03*
X80255357Y-159467959D03*
X80311747Y-131232299D03*
X80371687Y-129809899D03*
X80393537Y-138684409D03*
X80404207Y-139895739D03*
X80434937Y-160890359D03*
X80458557Y-159061559D03*
X80514947Y-130851299D03*
X80574887Y-129403499D03*
X80638137Y-160483959D03*
X80661757Y-159467959D03*
X80718147Y-131232299D03*
X80778087Y-129809899D03*
X80801967Y-138715139D03*
X80811107Y-139888619D03*
X80841337Y-160890359D03*
X80855057Y-105518359D03*
X80864957Y-159061559D03*
X80921347Y-130851299D03*
X80981287Y-129403499D03*
X81044537Y-160483959D03*
X81068157Y-159467959D03*
X81109307Y-115434009D03*
X81124547Y-131232299D03*
X81184487Y-129809899D03*
X81194397Y-112840419D03*
X81209127Y-138761629D03*
X81210657Y-139843159D03*
X81271357Y-159061559D03*
X81285077Y-116856409D03*
X81312507Y-115840409D03*
X81327747Y-130851299D03*
X81387687Y-129403499D03*
X81397597Y-112434019D03*
X81405977Y-113856419D03*
X81428327Y-138277759D03*
X81450937Y-160483959D03*
X81474557Y-159467959D03*
X81515707Y-115434009D03*
X81530947Y-131232299D03*
X81590887Y-129809899D03*
X81600797Y-112840419D03*
X81626847Y-139881575D03*
X81654137Y-160890359D03*
X81677757Y-159061559D03*
X81691477Y-116856409D03*
X81718907Y-115840409D03*
X81734147Y-130851299D03*
X81794087Y-129403499D03*
X81803997Y-112434019D03*
X81812377Y-113856419D03*
X81857337Y-160483959D03*
X81880957Y-159467959D03*
X81894677Y-117262809D03*
X81915757Y-138267339D03*
X81922107Y-115434009D03*
X81937347Y-131232299D03*
X81997287Y-129809899D03*
X82007197Y-112840419D03*
X82014057Y-139847479D03*
X82015577Y-114262819D03*
X82060537Y-160890359D03*
X82084157Y-159061559D03*
X82097877Y-116856409D03*
X82125307Y-115840409D03*
X82140547Y-130851299D03*
X82162387Y-138688219D03*
X82200487Y-129403499D03*
X82210397Y-112434019D03*
X82218777Y-113856419D03*
X82263737Y-160483959D03*
X82287357Y-159467959D03*
X82301077Y-117262809D03*
X82328507Y-115434009D03*
X82343747Y-131232299D03*
X82403687Y-129809899D03*
X82413597Y-112840419D03*
X82421977Y-114262819D03*
X82424007Y-139980319D03*
X82466937Y-160890359D03*
X82490557Y-159061559D03*
X82504277Y-116856409D03*
X82531707Y-115840409D03*
X82546947Y-130851299D03*
X82606887Y-129403499D03*
X82616797Y-112434019D03*
X82625177Y-113856419D03*
X82670137Y-160483959D03*
X82693757Y-159467959D03*
X82707477Y-117262809D03*
X82734907Y-115434009D03*
X82738717Y-138505339D03*
X82750147Y-131232299D03*
X82810087Y-129809899D03*
X82819997Y-112840419D03*
X82824057Y-140036449D03*
X82828377Y-114262819D03*
X82873337Y-160890359D03*
X82896957Y-159061559D03*
X82910677Y-116856409D03*
X82938107Y-115840409D03*
X82953347Y-130851299D03*
X82971637Y-127995069D03*
X82978997Y-127568859D03*
X82982047Y-127157639D03*
X83013287Y-129403499D03*
X83023197Y-112434019D03*
X83031577Y-113856419D03*
X83046057Y-126314359D03*
X83051137Y-126725329D03*
X83061297Y-125903129D03*
X83076537Y-160483959D03*
X83084917Y-96300699D03*
X83084917Y-96808699D03*
X83087717Y-95349219D03*
X83090257Y-97877279D03*
X83090257Y-98385279D03*
X83090257Y-98893279D03*
X83091267Y-125045629D03*
X83091267Y-125487079D03*
X83100157Y-159467959D03*
X83105997Y-97326349D03*
X83111337Y-95792449D03*
X83113877Y-117262809D03*
X83119717Y-138505339D03*
X83141307Y-115434009D03*
X83141307Y-124604429D03*
X83143337Y-128387499D03*
X83148927Y-94844769D03*
X83156547Y-131232299D03*
X83216487Y-129809899D03*
X83226397Y-112840419D03*
X83234777Y-114262819D03*
X83279737Y-160890359D03*
X83292687Y-94357599D03*
X83303357Y-159061559D03*
X83317077Y-116856409D03*
X83344507Y-115840409D03*
X83359747Y-130851299D03*
X83387437Y-99279869D03*
X83419687Y-129403499D03*
X83429597Y-112434019D03*
X83437977Y-113856419D03*
X83451947Y-93935199D03*
X83496907Y-160497929D03*
X83500717Y-138505339D03*
X83506557Y-159467959D03*
X83520277Y-117262809D03*
X83547707Y-115434009D03*
X83562947Y-131232299D03*
X83583777Y-128463959D03*
X83586567Y-95556729D03*
X83592917Y-96046699D03*
X83592917Y-96554699D03*
X83592917Y-97062699D03*
X83598257Y-97623279D03*
X83598257Y-98131279D03*
X83598257Y-98639279D03*
X83602567Y-124474129D03*
X83602940Y-150408835D03*
X83627717Y-129793139D03*
X83630507Y-140032899D03*
X83632797Y-112840419D03*
X83638127Y-94989039D03*
X83641177Y-114262819D03*
X83652980Y-149992775D03*
X83656417Y-105645359D03*
X83714837Y-160884519D03*
X83716867Y-99551899D03*
X83716867Y-99972779D03*
X83716867Y-100382989D03*
X83723477Y-116856409D03*
X83736687Y-93575789D03*
X83750907Y-115840409D03*
X83753197Y-100774149D03*
X83766147Y-130851299D03*
X83780627Y-101146509D03*
X83780627Y-101549859D03*
X83782147Y-94501869D03*
X83810847Y-102002489D03*
X83822277Y-99069299D03*
X83826087Y-129403499D03*
X83835997Y-112434019D03*
X83844377Y-113856419D03*
X83877657Y-158967579D03*
X83881717Y-138505339D03*
X83891627Y-102471379D03*
X83902287Y-160469229D03*
X83907627Y-159383889D03*
X83926677Y-117262809D03*
X83954107Y-115434009D03*
X83969347Y-131232299D03*
X83982297Y-94105889D03*
X83999827Y-128463959D03*
X84009987Y-97992339D03*
X84016847Y-97480779D03*
X84021667Y-139997839D03*
X84029287Y-129809899D03*
X84036407Y-93254989D03*
X84039197Y-112840419D03*
X84047577Y-114262819D03*
X84051137Y-102919689D03*
X84053927Y-124484289D03*
X84076027Y-100181569D03*
X84079190Y-150393845D03*
X84091017Y-100575009D03*
X84096857Y-99776689D03*
X84129877Y-116856409D03*
X84133177Y-158590639D03*
X84136737Y-149533259D03*
X84139777Y-149965059D03*
X84139777Y-153371709D03*
X84139777Y-153778109D03*
X84139777Y-154184509D03*
X84139777Y-154590909D03*
X84139777Y-154997309D03*
X84139777Y-155403709D03*
X84139777Y-155810109D03*
X84139777Y-156216509D03*
X84139777Y-156622909D03*
X84139777Y-157029309D03*
X84139777Y-157435709D03*
X84139777Y-157842109D03*
X84139777Y-158248509D03*
X84141817Y-147537329D03*
X84144097Y-148330569D03*
X84144097Y-149122789D03*
X84149177Y-147949309D03*
X84149177Y-148726549D03*
X84157307Y-115840409D03*
X84159597Y-100977349D03*
X84164927Y-101351239D03*
X84164927Y-101757639D03*
X84165687Y-99380199D03*
X84172547Y-130851299D03*
X84174327Y-147151249D03*
X84193887Y-160803749D03*
X84212167Y-103286209D03*
X84219787Y-138676029D03*
X84232487Y-129403499D03*
X84234017Y-146738239D03*
X84241637Y-102169619D03*
X84242397Y-112434019D03*
X84250777Y-113856419D03*
X84253577Y-159189579D03*
X84255097Y-93731489D03*
X84288877Y-108172409D03*
X84294467Y-160362289D03*
X84300817Y-109291019D03*
X84333077Y-117262809D03*
X84341457Y-92941039D03*
X84344757Y-102562819D03*
X84360507Y-115434009D03*
X84374477Y-146331329D03*
X84375747Y-131232299D03*
X84417657Y-114865559D03*
X84417657Y-117862759D03*
X84420957Y-128464209D03*
X84430107Y-139872369D03*
X84435687Y-129809899D03*
X84445597Y-112840419D03*
X84453977Y-114262819D03*
X84461347Y-97983449D03*
X84463887Y-103581359D03*
X84464897Y-97482559D03*
X84481157Y-158852769D03*
X84505037Y-124484289D03*
X84519767Y-145910199D03*
X84531707Y-102977339D03*
X84535007Y-148200269D03*
X84535007Y-148992489D03*
X84535007Y-149393559D03*
X84536277Y-116856409D03*
X84540087Y-147819009D03*
X84540087Y-148596249D03*
X84544907Y-147467219D03*
X84546177Y-149786999D03*
X84546177Y-150168259D03*
X84546177Y-153168509D03*
X84546177Y-153574909D03*
X84546177Y-153981309D03*
X84546177Y-154387709D03*
X84546177Y-154794109D03*
X84546177Y-155200509D03*
X84546177Y-155606909D03*
X84546177Y-156013309D03*
X84546177Y-156419709D03*
X84546177Y-156826109D03*
X84546177Y-157232509D03*
X84546177Y-157638909D03*
X84546177Y-158045309D03*
X84546177Y-158451709D03*
X84563707Y-115840409D03*
X84566497Y-93434819D03*
X84567767Y-147060059D03*
X84578947Y-130851299D03*
X84638887Y-129403499D03*
X84648797Y-112434019D03*
X84650827Y-146662299D03*
X84657177Y-113856419D03*
X84671657Y-103913839D03*
X84678767Y-160173319D03*
X84683847Y-160636869D03*
X84700617Y-92581889D03*
X84739477Y-117262809D03*
X84756497Y-151105009D03*
X84760557Y-152203559D03*
X84760807Y-145515739D03*
X84766907Y-115434009D03*
X84782147Y-131232299D03*
X84784177Y-103345639D03*
X84792557Y-146281299D03*
X84822277Y-128464209D03*
X84833197Y-139905639D03*
X84842087Y-129809899D03*
X84851997Y-112840419D03*
X84860377Y-114262819D03*
X84880187Y-93120619D03*
X84889077Y-104271469D03*
X84898737Y-143288669D03*
X84906357Y-97482559D03*
X84918797Y-97965419D03*
X84926167Y-124524419D03*
X84942677Y-116856409D03*
X84970107Y-115840409D03*
X84980267Y-145920869D03*
X84985347Y-130851299D03*
X84999067Y-159923129D03*
X85039957Y-104629109D03*
X85045287Y-129403499D03*
X85050117Y-103728679D03*
X85053927Y-145158109D03*
X85055197Y-112434019D03*
X85059767Y-92222729D03*
X85063577Y-113856419D03*
X85092537Y-105049979D03*
X85092787Y-88899389D03*
X85095327Y-160376519D03*
X85145877Y-117262809D03*
X85146127Y-105481779D03*
X85146127Y-105888179D03*
X85146127Y-106294579D03*
X85146127Y-106700979D03*
X85146127Y-107107379D03*
X85146127Y-107525209D03*
X85149427Y-119081959D03*
X85149427Y-138846209D03*
X85173307Y-115434009D03*
X85188297Y-140145669D03*
X85188547Y-131232299D03*
X85206077Y-108015179D03*
X85215467Y-145589399D03*
X85216487Y-128614829D03*
X85218007Y-99214589D03*
X85239347Y-92761459D03*
X85243917Y-101689309D03*
X85253317Y-129793139D03*
X85258147Y-101303989D03*
X85258397Y-112840419D03*
X85260177Y-159615029D03*
X85261957Y-104075639D03*
X85266777Y-114262819D03*
X85289387Y-102093169D03*
X85289897Y-151638409D03*
X85294977Y-100885909D03*
X85297257Y-125025559D03*
X85298787Y-99620989D03*
X85309197Y-91378179D03*
X85322407Y-100069809D03*
X85325957Y-100480019D03*
X85327487Y-125487079D03*
X85349077Y-116856409D03*
X85367617Y-124584359D03*
X85372447Y-97500089D03*
X85376507Y-115840409D03*
X85384887Y-97982939D03*
X85387687Y-125888139D03*
X85389717Y-108489139D03*
X85391747Y-130851299D03*
X85398607Y-144842129D03*
X85405467Y-140499489D03*
X85411307Y-104453589D03*
X85417657Y-126319179D03*
X85419177Y-91863319D03*
X85419687Y-127075089D03*
X85419687Y-128208429D03*
X85442297Y-159250789D03*
X85449147Y-160038439D03*
X85450677Y-102466299D03*
X85451687Y-129403499D03*
X85461597Y-112434019D03*
X85469977Y-113856419D03*
X85471757Y-141134239D03*
X85493597Y-104851359D03*
X85494107Y-145293489D03*
X85506297Y-88905489D03*
X85510367Y-105257499D03*
X85535257Y-138993019D03*
X85547447Y-158851249D03*
X85552277Y-117262809D03*
X85552527Y-105684979D03*
X85552527Y-106091379D03*
X85552527Y-106497779D03*
X85552527Y-106904179D03*
X85552527Y-107310579D03*
X85557097Y-149912479D03*
X85557097Y-150318879D03*
X85560907Y-147873879D03*
X85560907Y-148280279D03*
X85560907Y-148686679D03*
X85560907Y-149093079D03*
X85562177Y-153168509D03*
X85562177Y-153574909D03*
X85562177Y-153981309D03*
X85562177Y-154387709D03*
X85562177Y-154794109D03*
X85562177Y-155200509D03*
X85562177Y-155606909D03*
X85562177Y-156013309D03*
X85562177Y-156419709D03*
X85562177Y-156826109D03*
X85562177Y-157232509D03*
X85562177Y-157638909D03*
X85562177Y-158045309D03*
X85562177Y-158451709D03*
X85563707Y-107716729D03*
X85575137Y-147471029D03*
X85578187Y-149500239D03*
X85579707Y-115434009D03*
X85594947Y-131232299D03*
X85598757Y-92402049D03*
X85617557Y-147066919D03*
X85622887Y-126668689D03*
X85622887Y-128614829D03*
X85653617Y-101325329D03*
X85654887Y-129809899D03*
X85656927Y-100925529D03*
X85660227Y-101711149D03*
X85661747Y-108111189D03*
X85664797Y-112840419D03*
X85673177Y-114262819D03*
X85683597Y-108900619D03*
X85684357Y-99716749D03*
X85688167Y-102795989D03*
X85690197Y-159622389D03*
X85712547Y-100109679D03*
X85712547Y-100516339D03*
X85729057Y-102124409D03*
X85742777Y-146680329D03*
X85755477Y-116856409D03*
X85778337Y-91504159D03*
X85782907Y-115840409D03*
X85789507Y-144582289D03*
X85798147Y-130851299D03*
X85813897Y-145042789D03*
X85816177Y-95775429D03*
X85827357Y-151111359D03*
X85828377Y-127022509D03*
X85828377Y-128256189D03*
X85836497Y-140534549D03*
X85836757Y-139261749D03*
X85844887Y-97479009D03*
X85852757Y-152203559D03*
X85855047Y-108468819D03*
X85857327Y-97961859D03*
X85858087Y-129403499D03*
X85867997Y-112434019D03*
X85874597Y-159168239D03*
X85876377Y-113856419D03*
X85885777Y-95204179D03*
X85898477Y-102437089D03*
X85928957Y-103123389D03*
X85941657Y-148841109D03*
X85945717Y-146328029D03*
X85952327Y-147615559D03*
X85952327Y-148021959D03*
X85952327Y-148428359D03*
X85957917Y-92042899D03*
X85958677Y-117262809D03*
X85958677Y-149267829D03*
X85958677Y-149674229D03*
X85961727Y-158686399D03*
X85968577Y-153371709D03*
X85968577Y-153778109D03*
X85968577Y-154184509D03*
X85968577Y-154590909D03*
X85968577Y-154997309D03*
X85968577Y-155403709D03*
X85968577Y-155810109D03*
X85968577Y-156216509D03*
X85968577Y-156622909D03*
X85968577Y-157029309D03*
X85968577Y-157435709D03*
X85968577Y-157842109D03*
X85968577Y-158248509D03*
X85986107Y-115434009D03*
X86001097Y-147200269D03*
X86001347Y-131232299D03*
X86008967Y-87488679D03*
X86010747Y-86980929D03*
X86031577Y-126616109D03*
X86031577Y-128662589D03*
X86032337Y-109219389D03*
X86033097Y-88908029D03*
X86041987Y-88017509D03*
X86045797Y-88490199D03*
X86052397Y-86474459D03*
X86061287Y-129809899D03*
X86071197Y-112840419D03*
X86079577Y-114262819D03*
X86128857Y-108769049D03*
X86131397Y-146804279D03*
X86133427Y-85973059D03*
X86135967Y-102718769D03*
X86150187Y-103464259D03*
X86161877Y-116856409D03*
X86168737Y-144844669D03*
X86189307Y-115840409D03*
X86204547Y-130851299D03*
X86206837Y-146039999D03*
X86215977Y-144385689D03*
X86227657Y-139374019D03*
X86234777Y-127022509D03*
X86234777Y-128256189D03*
X86244937Y-94845029D03*
X86249757Y-95731989D03*
X86253057Y-91742159D03*
X86253317Y-85479279D03*
X86264487Y-129403499D03*
X86274397Y-112434019D03*
X86282777Y-113856419D03*
X86307927Y-103850339D03*
X86354657Y-95292569D03*
X86365077Y-117262809D03*
X86367107Y-146468239D03*
X86385647Y-103069289D03*
X86392507Y-115434009D03*
X86407747Y-131232299D03*
X86411307Y-84996679D03*
X86414607Y-109479999D03*
X86441527Y-104234139D03*
X86447877Y-109020769D03*
X86459307Y-126654459D03*
X86467687Y-129809899D03*
X86469467Y-128642519D03*
X86477597Y-112840419D03*
X86485977Y-114262819D03*
X86490807Y-152224639D03*
X86492587Y-91355829D03*
X86503507Y-87600689D03*
X86512397Y-88068309D03*
X86514427Y-87125709D03*
X86515447Y-88508739D03*
X86521537Y-88911329D03*
X86528147Y-104631389D03*
X86542877Y-145811649D03*
X86547197Y-86618979D03*
X86549987Y-144703959D03*
X86550497Y-150536809D03*
X86554557Y-165044279D03*
X86568277Y-116856409D03*
X86568527Y-105442159D03*
X86568527Y-105848559D03*
X86568527Y-106254959D03*
X86568527Y-106661359D03*
X86568527Y-107067759D03*
X86568527Y-107474159D03*
X86575137Y-105033469D03*
X86577927Y-164621619D03*
X86577927Y-165474809D03*
X86577927Y-165881209D03*
X86595707Y-115840409D03*
X86604087Y-94485869D03*
X86606627Y-84527549D03*
X86608407Y-171131889D03*
X86609927Y-103465529D03*
X86610947Y-130851299D03*
X86622887Y-86116569D03*
X86633807Y-160952079D03*
X86633807Y-161363309D03*
X86633807Y-161769709D03*
X86633807Y-162176109D03*
X86633807Y-162582509D03*
X86633807Y-162988909D03*
X86633807Y-163395309D03*
X86633807Y-163801709D03*
X86633807Y-164208109D03*
X86633807Y-166280489D03*
X86633807Y-166686889D03*
X86633807Y-167093289D03*
X86633807Y-167499689D03*
X86633807Y-167906089D03*
X86633807Y-168312489D03*
X86633807Y-168718889D03*
X86633807Y-169125289D03*
X86633807Y-169531689D03*
X86633807Y-169938089D03*
X86633807Y-170344489D03*
X86633807Y-170750889D03*
X86639647Y-139352939D03*
X86657427Y-160507329D03*
X86667587Y-144257679D03*
X86670887Y-129403499D03*
X86673937Y-107866839D03*
X86680797Y-112434019D03*
X86689177Y-113856419D03*
X86703147Y-146192649D03*
X86731347Y-160061559D03*
X86740737Y-85622539D03*
X86764367Y-103906729D03*
X86771477Y-117262809D03*
X86783667Y-95024599D03*
X86798657Y-109225999D03*
X86798907Y-115434009D03*
X86804237Y-150910449D03*
X86804237Y-151926449D03*
X86814147Y-131232299D03*
X86829137Y-109685479D03*
X86838027Y-84075429D03*
X86854537Y-159626709D03*
X86866727Y-125963329D03*
X86874087Y-129809899D03*
X86883997Y-112840419D03*
X86887807Y-104344879D03*
X86892377Y-114262819D03*
X86899997Y-85139939D03*
X86920577Y-164862669D03*
X86927177Y-145673469D03*
X86930477Y-165271349D03*
X86935557Y-165678509D03*
X86948517Y-144623689D03*
X86957907Y-104794709D03*
X86963497Y-94126459D03*
X86969847Y-108145229D03*
X86974677Y-116856409D03*
X86974927Y-105237179D03*
X86974927Y-105645359D03*
X86974927Y-106051759D03*
X86974927Y-106458159D03*
X86974927Y-106864559D03*
X86974927Y-107270959D03*
X86984327Y-164418419D03*
X86984327Y-166084409D03*
X87002107Y-115840409D03*
X87007437Y-150504049D03*
X87007437Y-152332849D03*
X87017347Y-130851299D03*
X87025477Y-107648149D03*
X87025477Y-159208369D03*
X87031317Y-139321949D03*
X87040207Y-161160109D03*
X87040207Y-161566509D03*
X87040207Y-161972909D03*
X87040207Y-162379309D03*
X87040207Y-162785709D03*
X87040207Y-163192109D03*
X87040207Y-163598509D03*
X87040207Y-164004909D03*
X87040207Y-166483689D03*
X87040207Y-166890089D03*
X87040207Y-167296489D03*
X87040207Y-167702889D03*
X87040207Y-168109289D03*
X87040207Y-168515689D03*
X87040207Y-168922089D03*
X87040207Y-169328489D03*
X87040207Y-169734889D03*
X87040207Y-170141289D03*
X87045037Y-160753709D03*
X87077287Y-129403499D03*
X87084907Y-146043549D03*
X87087197Y-112434019D03*
X87088977Y-160349849D03*
X87095577Y-113856419D03*
X87099647Y-84672829D03*
X87103957Y-83642359D03*
X87131897Y-144201039D03*
X87143077Y-94665189D03*
X87174577Y-109380939D03*
X87177617Y-159953099D03*
X87177877Y-117262809D03*
X87205307Y-115434009D03*
X87210637Y-150910449D03*
X87210637Y-151926449D03*
X87220547Y-131232299D03*
X87242137Y-158811879D03*
X87268047Y-109832039D03*
X87280487Y-129809899D03*
X87282777Y-93815559D03*
X87290397Y-112840419D03*
X87298777Y-114262819D03*
X87302337Y-127676299D03*
X87302587Y-107900629D03*
X87310207Y-159569049D03*
X87321387Y-108349189D03*
X87326977Y-145620639D03*
X87338147Y-84224269D03*
X87354407Y-144604639D03*
X87381077Y-116856409D03*
X87402667Y-83231639D03*
X87408507Y-115840409D03*
X87413837Y-150504049D03*
X87413837Y-152332849D03*
X87423747Y-130851299D03*
X87451437Y-94339059D03*
X87483687Y-129403499D03*
X87484957Y-159202019D03*
X87493597Y-112434019D03*
X87501977Y-113856419D03*
X87501977Y-158442049D03*
X87530177Y-146027039D03*
X87557607Y-144198239D03*
X87564467Y-109496509D03*
X87568777Y-126003459D03*
X87584277Y-117262809D03*
X87592907Y-93500859D03*
X87611707Y-115434009D03*
X87613737Y-83797549D03*
X87617037Y-150910449D03*
X87617037Y-151926449D03*
X87626947Y-131232299D03*
X87646247Y-108055059D03*
X87686887Y-129809899D03*
X87696797Y-112840419D03*
X87699337Y-158856839D03*
X87705177Y-114262819D03*
X87707977Y-108474409D03*
X87722707Y-109916369D03*
X87733377Y-145620639D03*
X87749887Y-82894579D03*
X87760807Y-144604639D03*
X87787477Y-116856409D03*
X87801187Y-158103979D03*
X87810587Y-93979899D03*
X87814907Y-115840409D03*
X87820237Y-150504049D03*
X87820237Y-152332849D03*
X87830147Y-130851299D03*
X87852247Y-127650899D03*
X87887807Y-83430769D03*
X87890087Y-129403499D03*
X87899997Y-112434019D03*
X87908377Y-113856419D03*
X87919557Y-93180309D03*
X87936577Y-146027039D03*
X87951307Y-158537809D03*
X87964007Y-144198239D03*
X87968067Y-109542739D03*
X87975947Y-108132019D03*
X87990677Y-117262809D03*
X88018107Y-115434009D03*
X88023437Y-150910449D03*
X88023437Y-151926449D03*
X88033347Y-131232299D03*
X88056207Y-161131659D03*
X88056207Y-161538059D03*
X88056207Y-161944459D03*
X88056207Y-162350859D03*
X88056207Y-162757259D03*
X88056207Y-163163659D03*
X88056207Y-163570059D03*
X88056207Y-163976459D03*
X88056207Y-166077289D03*
X88056207Y-166483689D03*
X88056207Y-166890089D03*
X88056207Y-167296489D03*
X88056207Y-167702889D03*
X88056207Y-168109289D03*
X88056207Y-168515689D03*
X88056207Y-168922089D03*
X88056207Y-169328489D03*
X88056207Y-169734889D03*
X88056207Y-170141289D03*
X88065347Y-160725259D03*
X88067637Y-82516879D03*
X88093287Y-129809899D03*
X88103197Y-112840419D03*
X88111577Y-114262819D03*
X88112087Y-164389969D03*
X88112337Y-108515559D03*
X88130627Y-160324189D03*
X88132917Y-157801719D03*
X88138247Y-93665449D03*
X88139777Y-145620639D03*
X88160347Y-165660989D03*
X88162887Y-165265259D03*
X88167207Y-144604639D03*
X88167967Y-164816439D03*
X88172027Y-109937959D03*
X88178377Y-83107179D03*
X88187527Y-92838679D03*
X88193877Y-116856409D03*
X88221307Y-115840409D03*
X88226637Y-150504049D03*
X88226637Y-152332849D03*
X88236547Y-130851299D03*
X88236797Y-158248759D03*
X88238577Y-82077719D03*
X88240607Y-126003459D03*
X88271087Y-159959199D03*
X88296487Y-129403499D03*
X88306397Y-112434019D03*
X88314777Y-113856419D03*
X88315537Y-108109159D03*
X88342977Y-146027039D03*
X88370407Y-144198239D03*
X88378027Y-109531559D03*
X88397077Y-117262809D03*
X88416887Y-93332959D03*
X88424507Y-115434009D03*
X88429837Y-150910449D03*
X88429837Y-151926449D03*
X88437207Y-171131889D03*
X88439497Y-92397479D03*
X88439747Y-131232299D03*
X88444067Y-160951319D03*
X88456007Y-159597249D03*
X88462607Y-161334859D03*
X88462607Y-161741259D03*
X88462607Y-162147659D03*
X88462607Y-162554059D03*
X88462607Y-162960459D03*
X88462607Y-163366859D03*
X88462607Y-163773259D03*
X88462607Y-166280489D03*
X88462607Y-166686889D03*
X88462607Y-167093289D03*
X88462607Y-167499689D03*
X88462607Y-167906089D03*
X88462607Y-168312489D03*
X88462607Y-168718889D03*
X88462607Y-169125289D03*
X88462607Y-169531689D03*
X88462607Y-169938089D03*
X88462607Y-170344489D03*
X88462607Y-170750889D03*
X88463117Y-82792729D03*
X88491307Y-160588859D03*
X88493847Y-157535779D03*
X88499687Y-129809899D03*
X88509597Y-112840419D03*
X88517977Y-114262819D03*
X88518487Y-164186769D03*
X88518487Y-164593169D03*
X88518487Y-165474809D03*
X88518487Y-165881209D03*
X88518737Y-108515559D03*
X88527887Y-165046559D03*
X88546177Y-145620639D03*
X88550997Y-157990949D03*
X88569037Y-128235609D03*
X88573607Y-144604639D03*
X88581227Y-109937959D03*
X88586307Y-160276439D03*
X88593927Y-127029369D03*
X88600277Y-116856409D03*
X88609417Y-91918689D03*
X88627707Y-115840409D03*
X88633037Y-150504049D03*
X88633037Y-152332849D03*
X88642947Y-130851299D03*
X88654627Y-82424169D03*
X88691967Y-91417549D03*
X88694767Y-92992099D03*
X88694767Y-159268319D03*
X88697307Y-87258809D03*
X88697557Y-90876529D03*
X88697807Y-87785349D03*
X88697807Y-88293349D03*
X88697807Y-88857989D03*
X88697807Y-89365989D03*
X88697807Y-89873989D03*
X88697807Y-90381989D03*
X88702887Y-129403499D03*
X88712797Y-112434019D03*
X88713307Y-128897029D03*
X88718387Y-159959449D03*
X88721177Y-113856419D03*
X88721937Y-108109159D03*
X88731087Y-86751819D03*
X88744547Y-128608989D03*
X88749377Y-146027039D03*
X88776807Y-126658019D03*
X88776807Y-144198239D03*
X88780617Y-82004819D03*
X88784427Y-109531559D03*
X88803477Y-117262809D03*
X88830907Y-115434009D03*
X88832177Y-86253979D03*
X88836237Y-150910449D03*
X88836237Y-151926449D03*
X88846147Y-131232299D03*
X88880187Y-157308199D03*
X88890087Y-157767179D03*
X88897707Y-159666839D03*
X88906087Y-129809899D03*
X88915997Y-112840419D03*
X88924377Y-114262819D03*
X88925137Y-108515559D03*
X88930987Y-92542259D03*
X88952577Y-145620639D03*
X88975437Y-128231039D03*
X88980007Y-144604639D03*
X88981277Y-158980029D03*
X88987627Y-109937959D03*
X88998547Y-85774179D03*
X89000067Y-127034189D03*
X89006677Y-116856409D03*
X89034107Y-115840409D03*
X89039437Y-150504049D03*
X89039437Y-152332849D03*
X89049347Y-130851299D03*
X89083127Y-143678299D03*
X89087447Y-88037059D03*
X89087447Y-88545059D03*
X89096847Y-92062199D03*
X89109287Y-129403499D03*
X89119197Y-112434019D03*
X89123257Y-89121639D03*
X89123257Y-89629639D03*
X89127577Y-113856419D03*
X89128337Y-108109159D03*
X89135197Y-90104369D03*
X89135197Y-90612369D03*
X89137227Y-159382869D03*
X89151967Y-87496039D03*
X89164917Y-146142359D03*
X89178887Y-128612289D03*
X89188797Y-91562579D03*
X89190827Y-109531559D03*
X89204537Y-91054839D03*
X89209367Y-126657259D03*
X89209877Y-117262809D03*
X89214957Y-87004809D03*
X89227397Y-85320529D03*
X89237307Y-115434009D03*
X89242637Y-150910449D03*
X89242637Y-151926449D03*
X89250517Y-157579219D03*
X89252547Y-131232299D03*
X89287857Y-157121759D03*
X89291407Y-158713829D03*
X89292937Y-86502899D03*
X89312487Y-129809899D03*
X89322397Y-112840419D03*
X89330777Y-114262819D03*
X89331537Y-108515559D03*
X89382087Y-128205889D03*
X89384117Y-159175859D03*
X89387927Y-144069209D03*
X89394027Y-109937959D03*
X89412567Y-127063659D03*
X89413077Y-116856409D03*
X89440507Y-115840409D03*
X89445837Y-150504049D03*
X89445837Y-152332849D03*
X89447107Y-86018779D03*
X89455747Y-130851299D03*
X89514417Y-84901429D03*
X89515687Y-129403499D03*
X89525597Y-112434019D03*
X89533977Y-113856419D03*
X89534737Y-108109159D03*
X89571317Y-146142359D03*
X89585287Y-128612289D03*
X89597227Y-109531559D03*
X89615767Y-126657259D03*
X89616277Y-117262809D03*
X89628467Y-157429609D03*
X89643707Y-115434009D03*
X89649037Y-150910449D03*
X89649037Y-151926449D03*
X89658947Y-131232299D03*
X89660217Y-158536799D03*
X89663267Y-158963519D03*
X89673677Y-85564119D03*
X89712537Y-156978249D03*
X89718887Y-129809899D03*
X89728797Y-112840419D03*
X89734127Y-143677539D03*
X89737177Y-114262819D03*
X89737937Y-108515559D03*
X89800427Y-109937959D03*
X89819477Y-116856409D03*
X89827347Y-84555489D03*
X89846907Y-115840409D03*
X89852237Y-150504049D03*
X89852237Y-152332849D03*
X89862147Y-130851299D03*
X89922087Y-129403499D03*
X89931997Y-112434019D03*
X89940377Y-113856419D03*
X89941137Y-108109159D03*
X89967047Y-85149589D03*
X89977717Y-146142359D03*
X89980007Y-158814669D03*
X89991687Y-128612289D03*
X89997527Y-144069209D03*
X90003627Y-109531559D03*
X90022167Y-126657259D03*
X90022677Y-117262809D03*
X90024197Y-157304129D03*
X90039187Y-158389979D03*
X90050107Y-115434009D03*
X90065347Y-131232299D03*
X90090997Y-150831959D03*
X90093037Y-144653409D03*
X90105227Y-151981309D03*
X90113097Y-145620899D03*
X90125287Y-129809899D03*
X90135197Y-112840419D03*
X90143577Y-114262819D03*
X90144337Y-108515559D03*
X90149927Y-156879449D03*
X90162117Y-84173469D03*
X90206827Y-109937959D03*
X90225877Y-116856409D03*
X90253307Y-115840409D03*
X90268547Y-130851299D03*
X90292927Y-143677539D03*
X90314267Y-158711289D03*
X90320867Y-84784849D03*
X90328487Y-129403499D03*
X90338397Y-112434019D03*
X90346777Y-113856419D03*
X90347537Y-108109159D03*
X90355667Y-145112639D03*
X90410027Y-109531559D03*
X90420187Y-157250289D03*
X90429077Y-117262809D03*
X90434917Y-158297269D03*
X90442537Y-126661319D03*
X90443807Y-83750809D03*
X90456507Y-115434009D03*
X90458537Y-146152519D03*
X90471747Y-131232299D03*
X90495877Y-128627279D03*
X90530927Y-144094609D03*
X90531687Y-129809899D03*
X90541597Y-112840419D03*
X90549977Y-114262819D03*
X90550737Y-108515559D03*
X90573857Y-144663569D03*
X90593917Y-145631059D03*
X90594937Y-156825849D03*
X90613227Y-109937959D03*
X90632277Y-116856409D03*
X90659707Y-115840409D03*
X90659707Y-158655159D03*
X90666057Y-125899319D03*
X90666057Y-126320959D03*
X90667837Y-83294629D03*
X90671137Y-125449739D03*
X90674947Y-130851299D03*
X90676217Y-84330949D03*
X90734887Y-129403499D03*
X90744797Y-112434019D03*
X90753177Y-113856419D03*
X90753937Y-108109159D03*
X90816427Y-109531559D03*
X90825567Y-157222849D03*
X90825567Y-158239109D03*
X90829887Y-82813299D03*
X90835477Y-117262809D03*
X90862907Y-115434009D03*
X90864937Y-146152519D03*
X90878147Y-131232299D03*
X90902527Y-143702939D03*
X90927427Y-82314699D03*
X90938087Y-129809899D03*
X90942917Y-83898639D03*
X90947997Y-112840419D03*
X90956377Y-114262819D03*
X90957137Y-108515559D03*
X91019627Y-109937959D03*
X91028257Y-156815949D03*
X91038677Y-116856409D03*
X91066107Y-115840409D03*
X91068647Y-158639919D03*
X91081347Y-130851299D03*
X91097857Y-125370999D03*
X91151197Y-112434019D03*
X91157547Y-83438389D03*
X91159577Y-113856419D03*
X91160337Y-108109159D03*
X91216727Y-144094609D03*
X91222827Y-109531559D03*
X91231967Y-157222349D03*
X91231967Y-158238349D03*
X91241877Y-117262809D03*
X91269307Y-115434009D03*
X91271337Y-146152519D03*
X91284547Y-131232299D03*
X91317567Y-82956049D03*
X91344487Y-129809899D03*
X91354397Y-112840419D03*
X91362777Y-114262819D03*
X91363537Y-108515559D03*
X91420437Y-82458719D03*
X91426027Y-109937959D03*
X91435167Y-156815949D03*
X91435167Y-158644749D03*
X91445077Y-116856409D03*
X91464887Y-81952489D03*
X91472507Y-115840409D03*
X91479877Y-143703449D03*
X91487747Y-130851299D03*
X91519497Y-125381159D03*
X91549217Y-145624959D03*
X91557597Y-112434019D03*
X91565977Y-113856419D03*
X91566737Y-108109159D03*
X91629227Y-109531559D03*
X91638367Y-157222349D03*
X91638367Y-158238349D03*
X91648277Y-117262809D03*
X91675707Y-115434009D03*
X91690947Y-131232299D03*
X91750887Y-129809899D03*
X91752417Y-146031359D03*
X91760797Y-112840419D03*
X91769177Y-114262819D03*
X91769937Y-108515559D03*
X91770957Y-155886559D03*
X91780607Y-144064379D03*
X91832427Y-109937959D03*
X91841567Y-156815949D03*
X91841567Y-158644749D03*
X91851477Y-116856409D03*
X91878907Y-115840409D03*
X91894147Y-130851299D03*
X91942657Y-112468049D03*
X91948507Y-144588129D03*
X91951297Y-125376079D03*
X91955617Y-145624959D03*
X91972377Y-113856419D03*
X91973137Y-108109159D03*
X92028767Y-109535119D03*
X92044767Y-157222349D03*
X92044767Y-158238349D03*
X92054677Y-117262809D03*
X92082107Y-115434009D03*
X92097347Y-131232299D03*
X92157287Y-129809899D03*
X92158817Y-146031359D03*
X92162877Y-112826959D03*
X92176337Y-108515559D03*
X92188027Y-114269679D03*
X92211397Y-144212209D03*
X92257877Y-116856409D03*
X92268547Y-109955739D03*
X92285307Y-115840409D03*
X92300547Y-130851299D03*
X92333817Y-156292959D03*
X92346017Y-112413439D03*
X92362017Y-145624959D03*
X92368877Y-148963539D03*
X92376747Y-144598289D03*
X92378017Y-125381159D03*
X92380557Y-149435469D03*
X92380557Y-153729849D03*
X92380557Y-154136249D03*
X92380557Y-154542649D03*
X92380557Y-154949049D03*
X92380557Y-155355449D03*
X92380557Y-155761849D03*
X92382077Y-113854639D03*
X92385637Y-108109159D03*
X92435167Y-109535619D03*
X92461077Y-117262809D03*
X92488507Y-115434009D03*
X92495617Y-148472049D03*
X92503747Y-131232299D03*
X92563687Y-129809899D03*
X92564197Y-112787329D03*
X92565217Y-146031359D03*
X92582737Y-108514799D03*
X92627957Y-144211959D03*
X92643197Y-114234119D03*
X92664277Y-116856409D03*
X92691707Y-115840409D03*
X92706947Y-110015429D03*
X92706947Y-130851299D03*
X92738697Y-112308289D03*
X92740217Y-148027039D03*
X92768417Y-145624959D03*
X92784417Y-113795709D03*
X92786957Y-149232269D03*
X92786957Y-149638669D03*
X92786957Y-153526649D03*
X92786957Y-153933049D03*
X92786957Y-154339449D03*
X92786957Y-154745849D03*
X92786957Y-155152249D03*
X92786957Y-155558649D03*
X92786957Y-155965049D03*
X92793307Y-144598039D03*
X92799657Y-125376079D03*
X92810327Y-148815199D03*
X92837507Y-109594299D03*
X92842587Y-108133539D03*
X92867477Y-117262809D03*
X92894907Y-115434009D03*
X92910147Y-131232299D03*
X92950027Y-112659819D03*
X92960187Y-148437499D03*
X92970087Y-129809899D03*
X92971617Y-146031359D03*
X92985077Y-108572459D03*
X93011497Y-156947009D03*
X93015557Y-158045559D03*
X93051627Y-144217799D03*
X93070677Y-116856409D03*
X93086927Y-147656199D03*
X93094297Y-114136329D03*
X93098107Y-115840409D03*
X93103437Y-112090859D03*
X93113347Y-130851299D03*
X93145097Y-110186119D03*
X93174817Y-113682939D03*
X93174817Y-145624959D03*
X93209357Y-148094349D03*
X93213677Y-109748219D03*
X93216977Y-144603879D03*
X93264477Y-125358299D03*
X93273877Y-117262809D03*
X93299277Y-108234889D03*
X93301307Y-115434009D03*
X93301557Y-112455859D03*
X93316547Y-131232299D03*
X93370137Y-142839599D03*
X93373947Y-108690059D03*
X93376487Y-129809899D03*
X93378017Y-146031359D03*
X93378527Y-142401949D03*
X93390967Y-111789369D03*
X93432877Y-110537649D03*
X93457517Y-126183799D03*
X93457517Y-127537619D03*
X93470217Y-125746919D03*
X93472757Y-143259199D03*
X93472757Y-143665599D03*
X93472757Y-144071999D03*
X93475297Y-127075339D03*
X93475297Y-128429159D03*
X93477077Y-116856409D03*
X93480377Y-126638459D03*
X93485457Y-128002439D03*
X93485457Y-128911759D03*
X93504507Y-115840409D03*
X93519747Y-130851299D03*
X93521777Y-147834509D03*
X93527877Y-113978339D03*
X93541587Y-109987999D03*
X93543117Y-147396859D03*
X93544897Y-157480409D03*
X93546167Y-113518089D03*
X93566227Y-111400239D03*
X93579687Y-129403499D03*
X93581217Y-145624959D03*
X93603567Y-112183829D03*
X93605347Y-110932879D03*
X93628207Y-144591179D03*
X93680277Y-117262809D03*
X93707707Y-115434009D03*
X93713807Y-141861699D03*
X93722947Y-131232299D03*
X93725487Y-141469269D03*
X93735647Y-108403549D03*
X93740977Y-108864809D03*
X93747077Y-142679829D03*
X93759267Y-142268349D03*
X93782887Y-129809899D03*
X93783907Y-150060309D03*
X93799147Y-110302449D03*
X93802957Y-149240899D03*
X93802957Y-149647299D03*
X93802957Y-153526649D03*
X93802957Y-153933049D03*
X93802957Y-154339449D03*
X93802957Y-154745849D03*
X93802957Y-155152249D03*
X93802957Y-155558649D03*
X93802957Y-155965049D03*
X93834457Y-111860229D03*
X93848427Y-146010019D03*
X93879157Y-143055999D03*
X93879157Y-143462399D03*
X93879157Y-143868799D03*
X93879157Y-144275199D03*
X93883477Y-116856409D03*
X93889827Y-113304979D03*
X93895917Y-147671439D03*
X93910907Y-115840409D03*
X93926147Y-130851299D03*
X93936307Y-113762949D03*
X93945197Y-148873869D03*
X93963737Y-110674049D03*
X93977457Y-111479739D03*
X93986087Y-129403499D03*
X93990157Y-145579749D03*
X94014537Y-111076129D03*
X94025207Y-147237859D03*
X94077277Y-109092899D03*
X94082357Y-156953359D03*
X94086677Y-117262809D03*
X94107757Y-158045559D03*
X94114107Y-115434009D03*
X94129347Y-131232299D03*
X94141537Y-108636209D03*
X94172527Y-149889869D03*
X94189287Y-129809899D03*
X94205297Y-113045899D03*
X94209357Y-149444099D03*
X94209357Y-153729849D03*
X94209357Y-154136249D03*
X94209357Y-154542649D03*
X94209357Y-154949049D03*
X94209357Y-155355449D03*
X94209357Y-155761849D03*
X94245167Y-153249019D03*
X94288097Y-148655689D03*
X94289877Y-116856409D03*
X94305367Y-147609969D03*
X94305627Y-149061069D03*
X94307907Y-150263249D03*
X94308167Y-113487099D03*
X94317307Y-115840409D03*
X94332547Y-130851299D03*
X94343977Y-145375019D03*
X94356427Y-145843649D03*
X94361757Y-151695559D03*
X94361757Y-152178159D03*
X94361757Y-152711559D03*
X94382077Y-109364169D03*
X94387157Y-150654159D03*
X94387157Y-151187559D03*
X94392487Y-129403499D03*
X94492567Y-112741099D03*
X94493077Y-117262809D03*
X94504507Y-147199759D03*
X94520507Y-115434009D03*
X94521777Y-108927039D03*
X94535747Y-131232299D03*
X94579947Y-140700919D03*
X94595687Y-129809899D03*
X94633537Y-149917309D03*
X94640137Y-109688529D03*
X94640907Y-145082919D03*
X94643697Y-149365619D03*
X94655377Y-113178489D03*
X94683577Y-148622159D03*
X94683577Y-155788009D03*
X94696277Y-116856409D03*
X94711767Y-147606159D03*
X94712527Y-112411409D03*
X94723707Y-115840409D03*
X94738947Y-130851299D03*
X94768157Y-151390759D03*
X94768157Y-151873359D03*
X94768157Y-152406759D03*
X94768157Y-152965559D03*
X94793557Y-145527929D03*
X94793557Y-150349359D03*
X94793557Y-150882759D03*
X94798887Y-129403499D03*
X94818957Y-156292959D03*
X94821747Y-141033909D03*
X94836487Y-110044389D03*
X94841057Y-109272729D03*
X94845117Y-144714369D03*
X94872047Y-158832709D03*
X94884747Y-112043369D03*
X94886777Y-149028559D03*
X94899477Y-117262809D03*
X94901257Y-144327269D03*
X94902267Y-143108069D03*
X94902267Y-143514469D03*
X94902267Y-143920869D03*
X94902527Y-141443869D03*
X94914967Y-147199759D03*
X94926907Y-115434009D03*
X94930467Y-140473079D03*
X94942147Y-131232299D03*
X94943927Y-112810449D03*
X94948497Y-158235549D03*
X94973647Y-110427159D03*
X94999047Y-111653219D03*
X95002087Y-129809899D03*
X95029777Y-142289429D03*
X95034857Y-141848229D03*
X95042477Y-142697859D03*
X95047557Y-110826709D03*
X95056447Y-111235139D03*
X95089977Y-148622159D03*
X95101407Y-109666179D03*
X95102677Y-116856409D03*
X95104957Y-145102229D03*
X95118167Y-147606159D03*
X95129087Y-130851299D03*
X95130107Y-115840409D03*
X95137217Y-158656179D03*
X95149157Y-155886559D03*
X95162107Y-140806069D03*
X95173797Y-112402779D03*
X95205287Y-129403499D03*
X95277937Y-144604899D03*
X95293177Y-149028559D03*
X95295457Y-110095949D03*
X95298767Y-141184789D03*
X95305877Y-117262809D03*
X95308667Y-143311269D03*
X95308667Y-143717669D03*
X95308667Y-144125089D03*
X95321367Y-147199759D03*
X95332287Y-131232299D03*
X95333307Y-115434009D03*
X95336357Y-157233779D03*
X95339147Y-111964879D03*
X95354647Y-158249779D03*
X95379537Y-141594739D03*
X95408487Y-129809899D03*
X95418147Y-110551369D03*
X95418397Y-142898519D03*
X95428557Y-142026029D03*
X95428557Y-142467229D03*
X95436427Y-111506919D03*
X95466407Y-111020759D03*
X95496377Y-148622159D03*
X95509077Y-116856409D03*
X95524567Y-147606159D03*
X95535487Y-130851299D03*
X95536507Y-115840409D03*
X95539557Y-156827379D03*
X95557847Y-158656179D03*
X95611687Y-129403499D03*
X95699577Y-149028559D03*
X95712277Y-117262809D03*
X95727767Y-147199759D03*
X95738687Y-131232299D03*
X95739707Y-115434009D03*
X95742757Y-157233779D03*
X95761047Y-158249779D03*
X95814887Y-129809899D03*
X95902777Y-148622159D03*
X95915477Y-116856409D03*
X95930967Y-147606159D03*
X95937577Y-130851559D03*
X95942907Y-115840409D03*
X95945957Y-156827379D03*
X95964247Y-158656179D03*
X96022917Y-129403759D03*
X96105977Y-149028559D03*
X96118677Y-117262809D03*
X96134167Y-147199759D03*
X96140777Y-131257959D03*
X96146107Y-115434009D03*
X96149157Y-157233779D03*
X96167447Y-158249779D03*
X96226117Y-129810159D03*
X96309177Y-148622159D03*
X96321877Y-116856409D03*
X96337367Y-147606159D03*
X96343977Y-130851559D03*
X96349307Y-115840409D03*
X96352357Y-156827379D03*
X96370647Y-158656179D03*
X96429317Y-129403759D03*
X96512377Y-149028559D03*
X96540567Y-147199759D03*
X96541327Y-117261289D03*
X96547177Y-131257959D03*
X96555557Y-157233779D03*
X96572067Y-115418519D03*
X96573847Y-158249779D03*
X96632517Y-129810159D03*
X96715577Y-148622159D03*
X96728017Y-116840409D03*
X96743767Y-147606159D03*
X96750377Y-130851559D03*
X96754187Y-115807899D03*
X96758757Y-156827379D03*
X96777047Y-158656179D03*
X96835717Y-129403759D03*
X96918777Y-149028559D03*
X96946967Y-147199759D03*
X96953577Y-131257959D03*
X96961957Y-157233779D03*
X96980247Y-158249779D03*
X96992947Y-115292279D03*
X97007417Y-117207949D03*
X97038917Y-129810159D03*
X97062797Y-95349219D03*
X97100127Y-98004529D03*
X97102417Y-95847819D03*
X97107747Y-96433539D03*
X97118417Y-97488149D03*
X97121217Y-96928839D03*
X97121977Y-148622159D03*
X97124007Y-94844769D03*
X97126797Y-98616929D03*
X97126797Y-116761919D03*
X97136707Y-115670229D03*
X97150167Y-147606159D03*
X97156777Y-130851559D03*
X97165157Y-156827379D03*
X97183447Y-158656179D03*
X97242117Y-129403759D03*
X97267767Y-94357599D03*
X97309937Y-99308819D03*
X97325177Y-149028559D03*
X97333307Y-115022019D03*
X97353367Y-147199759D03*
X97359977Y-131257959D03*
X97368357Y-157233779D03*
X97386647Y-158249779D03*
X97445317Y-129810159D03*
X97461827Y-117079419D03*
X97467927Y-115434769D03*
X97490017Y-93900909D03*
X97507797Y-116620189D03*
X97528377Y-148622159D03*
X97556567Y-147606159D03*
X97563177Y-130851559D03*
X97563427Y-97850099D03*
X97565717Y-95624039D03*
X97568257Y-114643309D03*
X97568757Y-97301459D03*
X97571557Y-156827379D03*
X97574097Y-98414739D03*
X97574097Y-98910039D03*
X97584507Y-96774409D03*
X97589847Y-96225769D03*
X97589847Y-158656179D03*
X97613207Y-94989039D03*
X97648517Y-129403759D03*
X97685097Y-99957789D03*
X97699067Y-99526249D03*
X97709727Y-100396199D03*
X97716337Y-100799549D03*
X97731577Y-149028559D03*
X97740207Y-114257229D03*
X97746817Y-115139119D03*
X97757227Y-94501869D03*
X97759767Y-147199759D03*
X97765107Y-113822379D03*
X97765357Y-101213059D03*
X97765357Y-101619459D03*
X97765357Y-102025859D03*
X97765357Y-102432259D03*
X97765357Y-102838659D03*
X97765357Y-103245059D03*
X97765357Y-103651459D03*
X97765357Y-104057859D03*
X97765357Y-104464259D03*
X97765357Y-104870659D03*
X97765357Y-105277059D03*
X97765357Y-105683459D03*
X97765357Y-106089859D03*
X97765357Y-106496259D03*
X97765357Y-106902659D03*
X97765357Y-107309059D03*
X97765357Y-107715459D03*
X97765357Y-108121859D03*
X97765357Y-108528259D03*
X97765357Y-108934659D03*
X97765357Y-109341059D03*
X97765357Y-109747459D03*
X97765357Y-110153859D03*
X97765357Y-110560259D03*
X97765357Y-110966659D03*
X97765357Y-111373059D03*
X97765357Y-111779459D03*
X97765357Y-112185859D03*
X97765357Y-112592259D03*
X97765357Y-112998659D03*
X97765357Y-113405059D03*
X97766377Y-131257959D03*
X97774757Y-157233779D03*
X97793047Y-158249779D03*
X97844097Y-93500859D03*
X97851717Y-129810159D03*
X97860097Y-116419279D03*
X97889567Y-116879529D03*
X97934777Y-148622159D03*
X97962967Y-147606159D03*
X97966017Y-114796979D03*
X97969577Y-130876959D03*
X97977957Y-156827379D03*
X97996247Y-158656179D03*
X98017067Y-98041359D03*
X98023927Y-97529809D03*
X98047807Y-100180799D03*
X98053137Y-99772119D03*
X98054917Y-129403759D03*
X98064057Y-100599649D03*
X98105967Y-99372069D03*
X98109017Y-114416489D03*
X98122737Y-101002749D03*
X98137977Y-149028559D03*
X98166167Y-147199759D03*
X98169727Y-114014659D03*
X98171757Y-101416259D03*
X98171757Y-101822659D03*
X98171757Y-102229059D03*
X98171757Y-102635459D03*
X98171757Y-103041859D03*
X98171757Y-103448259D03*
X98171757Y-103854659D03*
X98171757Y-104261059D03*
X98171757Y-104667459D03*
X98171757Y-105073859D03*
X98171757Y-105480259D03*
X98171757Y-105886659D03*
X98171757Y-106293059D03*
X98171757Y-106699459D03*
X98171757Y-107105859D03*
X98171757Y-107512259D03*
X98171757Y-107918659D03*
X98171757Y-108325059D03*
X98171757Y-108731459D03*
X98171757Y-109137859D03*
X98171757Y-109544259D03*
X98171757Y-109950659D03*
X98171757Y-110357059D03*
X98171757Y-110763459D03*
X98171757Y-111169859D03*
X98171757Y-111576259D03*
X98171757Y-111982659D03*
X98171757Y-112389059D03*
X98171757Y-112795459D03*
X98171757Y-113201859D03*
X98171757Y-113608259D03*
X98172777Y-131257959D03*
X98181157Y-157233779D03*
X98183437Y-116170099D03*
X98199447Y-158249779D03*
X98200967Y-93111979D03*
X98258117Y-129810159D03*
X98279457Y-116613079D03*
X98341177Y-148622159D03*
X98369367Y-147606159D03*
X98375977Y-130876959D03*
X98384357Y-156827379D03*
X98402647Y-158656179D03*
X98461317Y-129403759D03*
X98465887Y-115877999D03*
X98468427Y-97930869D03*
X98471987Y-97531579D03*
X98496117Y-93479779D03*
X98544377Y-149028559D03*
X98572567Y-147199759D03*
X98579177Y-131257959D03*
X98587557Y-157233779D03*
X98605847Y-158249779D03*
X98635307Y-116299639D03*
X98664517Y-129810159D03*
X98675697Y-92581889D03*
X98718617Y-115543489D03*
X98747577Y-148622159D03*
X98775767Y-147606159D03*
X98782377Y-130851559D03*
X98790757Y-156827379D03*
X98809047Y-158656179D03*
X98855267Y-93120619D03*
X98867717Y-129378359D03*
X98913437Y-97531579D03*
X98914197Y-97960339D03*
X98917497Y-115189159D03*
X98925117Y-115955219D03*
X98950777Y-149028559D03*
X98978967Y-147199759D03*
X98985577Y-131232559D03*
X98993957Y-157233779D03*
X99012247Y-158249779D03*
X99034847Y-92222729D03*
X99044247Y-88905739D03*
X99065587Y-114810699D03*
X99070917Y-129784759D03*
X99153977Y-148622159D03*
X99160577Y-114426139D03*
X99178617Y-115568379D03*
X99182167Y-147606159D03*
X99187757Y-101416259D03*
X99187757Y-101822659D03*
X99187757Y-102229059D03*
X99187757Y-102635459D03*
X99187757Y-103041859D03*
X99187757Y-103448259D03*
X99187757Y-103854659D03*
X99187757Y-104261059D03*
X99187757Y-104667459D03*
X99187757Y-105073859D03*
X99187757Y-105480259D03*
X99187757Y-105886659D03*
X99187757Y-106293059D03*
X99187757Y-106699459D03*
X99187757Y-107105859D03*
X99187757Y-107512259D03*
X99187757Y-107918659D03*
X99187757Y-108325059D03*
X99187757Y-108731459D03*
X99187757Y-109137859D03*
X99187757Y-109544259D03*
X99187757Y-109950659D03*
X99187757Y-110357059D03*
X99187757Y-110763459D03*
X99187757Y-111169859D03*
X99187757Y-111576259D03*
X99187757Y-111982659D03*
X99187757Y-112389059D03*
X99187757Y-112795459D03*
X99187757Y-113201859D03*
X99187757Y-113608259D03*
X99188777Y-130851559D03*
X99197157Y-156827379D03*
X99200457Y-114021769D03*
X99214427Y-92761459D03*
X99215447Y-158656179D03*
X99231447Y-99372319D03*
X99250747Y-101009859D03*
X99254817Y-91381479D03*
X99274117Y-129378359D03*
X99294687Y-99786089D03*
X99301547Y-100199849D03*
X99304847Y-100596349D03*
X99357177Y-149028559D03*
X99376477Y-115150799D03*
X99379527Y-97549109D03*
X99380287Y-97977859D03*
X99385367Y-147199759D03*
X99391977Y-131232559D03*
X99394257Y-91863319D03*
X99400357Y-157233779D03*
X99418647Y-158249779D03*
X99477317Y-129784759D03*
X99501197Y-114713159D03*
X99507797Y-88911839D03*
X99560377Y-148622159D03*
X99573837Y-92402049D03*
X99577897Y-114257479D03*
X99588567Y-147606159D03*
X99594157Y-101213059D03*
X99594157Y-101619459D03*
X99594157Y-102025859D03*
X99594157Y-102432259D03*
X99594157Y-102838659D03*
X99594157Y-103245059D03*
X99594157Y-103651459D03*
X99594157Y-104057859D03*
X99594157Y-104464259D03*
X99594157Y-104870659D03*
X99594157Y-105277059D03*
X99594157Y-105683459D03*
X99594157Y-106089859D03*
X99594157Y-106496259D03*
X99594157Y-106902659D03*
X99594157Y-107309059D03*
X99594157Y-107715459D03*
X99594157Y-108121859D03*
X99594157Y-108528259D03*
X99594157Y-108934659D03*
X99594157Y-109341059D03*
X99594157Y-109747459D03*
X99594157Y-110153859D03*
X99594157Y-110560259D03*
X99594157Y-110966659D03*
X99594157Y-111373059D03*
X99594157Y-111779459D03*
X99594157Y-112185859D03*
X99594157Y-112592259D03*
X99594157Y-112998659D03*
X99594157Y-113405059D03*
X99594157Y-113812729D03*
X99595177Y-130851559D03*
X99603557Y-156827379D03*
X99621847Y-158656179D03*
X99657147Y-100806659D03*
X99680517Y-129378359D03*
X99704897Y-99961349D03*
X99711757Y-100389079D03*
X99753417Y-91504159D03*
X99763577Y-149028559D03*
X99786687Y-95789139D03*
X99791767Y-147199759D03*
X99798377Y-131232559D03*
X99806757Y-157233779D03*
X99825047Y-158249779D03*
X99851967Y-97528029D03*
X99852727Y-97956779D03*
X99860857Y-95204179D03*
X99883717Y-129784759D03*
X99932997Y-92042899D03*
X99961187Y-88917679D03*
X99966777Y-148622159D03*
X99980747Y-88059159D03*
X99981757Y-88556489D03*
X99982527Y-87515599D03*
X99984297Y-87007859D03*
X99994967Y-147606159D03*
X100001577Y-130851559D03*
X100009957Y-156827379D03*
X100025957Y-86501379D03*
X100028247Y-158656179D03*
X100086917Y-129378359D03*
X100106987Y-85999979D03*
X100169977Y-149028559D03*
X100198167Y-147199759D03*
X100204777Y-131232559D03*
X100213157Y-157233779D03*
X100220017Y-94845029D03*
X100220267Y-95737069D03*
X100226867Y-85506209D03*
X100231447Y-158249779D03*
X100234747Y-91716759D03*
X100290117Y-129784759D03*
X100290117Y-132104539D03*
X100360987Y-95345149D03*
X100373177Y-148622159D03*
X100384857Y-85023609D03*
X100401367Y-147606159D03*
X100407977Y-130851559D03*
X100416357Y-156827379D03*
X100434647Y-158656179D03*
X100458517Y-91344139D03*
X100471477Y-88899899D03*
X100472997Y-88406629D03*
X100479097Y-87843259D03*
X100487987Y-87152639D03*
X100493317Y-129378359D03*
X100520747Y-86645909D03*
X100569517Y-149020939D03*
X100579167Y-94485869D03*
X100580187Y-84554469D03*
X100596437Y-86143489D03*
X100604567Y-147199759D03*
X100611177Y-131232559D03*
X100619557Y-157233779D03*
X100637847Y-158249779D03*
X100696517Y-129784759D03*
X100714297Y-85649459D03*
X100758747Y-95024599D03*
X100782367Y-148647559D03*
X100807767Y-147606159D03*
X100811577Y-84102349D03*
X100814377Y-130851559D03*
X100822757Y-156827379D03*
X100841047Y-158656179D03*
X100873557Y-85166859D03*
X100899717Y-129378359D03*
X100938577Y-94126459D03*
X100985567Y-149053959D03*
X101010967Y-147199759D03*
X101017577Y-131232559D03*
X101025957Y-157233779D03*
X101044247Y-158249779D03*
X101073197Y-84699759D03*
X101077517Y-83669279D03*
X101102917Y-129784759D03*
X101188767Y-148647559D03*
X101214167Y-147606159D03*
X101220777Y-130851559D03*
X101229157Y-156827379D03*
X101247447Y-158656179D03*
X101297737Y-93767299D03*
X101306117Y-129378359D03*
X101311707Y-84251189D03*
X101376217Y-83258559D03*
X101391967Y-149053959D03*
X101407717Y-147217539D03*
X101423977Y-131232559D03*
X101432357Y-157233779D03*
X101450647Y-158249779D03*
X101477317Y-94306039D03*
X101509317Y-129784759D03*
X101587297Y-83824469D03*
X101592377Y-148622159D03*
X101620567Y-147606159D03*
X101627177Y-130851559D03*
X101635557Y-156827379D03*
X101653847Y-158656179D03*
X101656887Y-93408149D03*
X101706417Y-82872479D03*
X101712517Y-129378359D03*
X101795577Y-149028559D03*
X101823767Y-147199759D03*
X101830377Y-131232559D03*
X101836467Y-93946879D03*
X101836727Y-93228319D03*
X101838757Y-157233779D03*
X101857047Y-158249779D03*
X101897937Y-83422649D03*
X101915717Y-129784759D03*
X101998777Y-148622159D03*
X102000807Y-82551679D03*
X102026967Y-147606159D03*
X102033577Y-130851559D03*
X102041957Y-156827379D03*
X102060247Y-158656179D03*
X102118917Y-129378359D03*
X102162607Y-92838679D03*
X102195627Y-93587729D03*
X102201977Y-149028559D03*
X102209597Y-82088639D03*
X102230167Y-147199759D03*
X102236777Y-131232559D03*
X102241597Y-83048499D03*
X102245157Y-157233779D03*
X102263447Y-158249779D03*
X102322117Y-129784759D03*
X102368597Y-93401039D03*
X102405177Y-148622159D03*
X102414577Y-92397479D03*
X102433367Y-147606159D03*
X102439977Y-130851559D03*
X102448357Y-156827379D03*
X102450387Y-82795519D03*
X102466647Y-158656179D03*
X102525317Y-129378359D03*
X102557692Y-136356463D03*
X102584497Y-91918689D03*
X102608377Y-149028559D03*
X102625647Y-131232559D03*
X102632205Y-136917285D03*
X102636567Y-147199759D03*
X102651557Y-157233779D03*
X102666287Y-87813289D03*
X102666537Y-88867639D03*
X102666797Y-88334239D03*
X102667047Y-89388599D03*
X102667047Y-91417549D03*
X102669337Y-82337049D03*
X102669847Y-92992099D03*
X102669847Y-158249779D03*
X102670857Y-87285729D03*
X102672387Y-89874249D03*
X102672887Y-90395199D03*
X102676197Y-90922759D03*
X102704637Y-86778749D03*
X102728517Y-129784759D03*
X102751655Y-137361750D03*
X102805737Y-86280909D03*
X102811577Y-148622159D03*
X102839767Y-147606159D03*
X102845867Y-130869339D03*
X102854757Y-156827379D03*
X102866187Y-135699909D03*
X102866187Y-136106309D03*
X102873047Y-158656179D03*
X102875587Y-131636159D03*
X102875587Y-132042559D03*
X102875587Y-132448959D03*
X102875587Y-132855359D03*
X102875587Y-133261759D03*
X102875587Y-133668159D03*
X102875587Y-134074559D03*
X102875587Y-134480959D03*
X102875587Y-134887359D03*
X102884217Y-135290459D03*
X102895397Y-137752229D03*
X102900217Y-139186059D03*
X102900987Y-138741809D03*
X102906067Y-92542259D03*
X102926387Y-138208409D03*
X102939452Y-136559913D03*
X102972107Y-85801099D03*
X102983277Y-129394359D03*
X103022907Y-149028559D03*
X103057957Y-157233779D03*
X103070907Y-147202549D03*
X103071927Y-92062199D03*
X103076247Y-158249779D03*
X103082226Y-137156185D03*
X103121967Y-88160509D03*
X103122217Y-87627109D03*
X103122467Y-88681459D03*
X103131617Y-129836319D03*
X103146097Y-89754609D03*
X103146347Y-89221209D03*
X103163877Y-91562579D03*
X103179617Y-90191489D03*
X103179617Y-91054839D03*
X103185467Y-90616939D03*
X103188507Y-87031729D03*
X103200957Y-85347459D03*
X103208067Y-131046119D03*
X103217717Y-148624449D03*
X103236517Y-147547739D03*
X103259887Y-135496709D03*
X103261157Y-156827379D03*
X103266487Y-86529829D03*
X103269287Y-131432959D03*
X103269287Y-131839359D03*
X103269287Y-132245759D03*
X103269287Y-132652159D03*
X103269287Y-133058559D03*
X103269287Y-133464959D03*
X103269287Y-133871359D03*
X103269287Y-134277759D03*
X103269287Y-134684159D03*
X103269287Y-135090559D03*
X103272587Y-135903109D03*
X103278308Y-136286870D03*
X103279447Y-158656179D03*
X103332787Y-137954409D03*
X103332787Y-138462409D03*
X103332787Y-139021209D03*
X103338117Y-137540139D03*
X103386627Y-139461899D03*
X103420667Y-86045699D03*
X103464357Y-157233779D03*
X103476037Y-129522379D03*
X103480607Y-149003409D03*
X103482647Y-158249779D03*
X103487977Y-84928359D03*
X103504737Y-147082409D03*
X103515917Y-129945539D03*
X103532177Y-139948309D03*
X103617517Y-147471539D03*
X103619547Y-148563739D03*
X103647237Y-85591039D03*
X103667557Y-156827379D03*
X103685847Y-158656179D03*
X103786177Y-84592819D03*
X103846117Y-139648339D03*
X103870757Y-157233779D03*
X103871517Y-130174139D03*
X103889047Y-158249779D03*
X103890317Y-146866509D03*
X103921047Y-129769769D03*
X103935267Y-148899779D03*
X103940607Y-85176519D03*
X103997757Y-147276979D03*
X104008167Y-148444359D03*
X104038397Y-140043559D03*
X104038397Y-140494919D03*
X104073957Y-156827379D03*
X104092247Y-158656179D03*
X104121197Y-84211059D03*
X104125517Y-130478939D03*
X104166407Y-146518279D03*
X104277157Y-157233779D03*
X104294427Y-84811769D03*
X104294937Y-130896259D03*
X104295447Y-158249779D03*
X104297987Y-131715409D03*
X104297987Y-132121809D03*
X104297987Y-132528209D03*
X104297987Y-132934609D03*
X104297987Y-133341009D03*
X104297987Y-133747409D03*
X104297987Y-134153809D03*
X104297987Y-134560209D03*
X104297987Y-134966609D03*
X104297987Y-135373009D03*
X104303317Y-131317139D03*
X104303317Y-147028819D03*
X104306367Y-130112159D03*
X104328717Y-135787539D03*
X104331257Y-146116959D03*
X104369867Y-148730619D03*
X104388917Y-148262749D03*
X104403897Y-83788909D03*
X104421677Y-145715889D03*
X104461557Y-144126609D03*
X104461557Y-144533009D03*
X104461557Y-144939409D03*
X104466387Y-140443869D03*
X104466387Y-140850269D03*
X104466387Y-141256669D03*
X104466387Y-141663069D03*
X104466387Y-142069469D03*
X104466387Y-142475869D03*
X104466387Y-142882269D03*
X104466387Y-143288669D03*
X104466387Y-143695069D03*
X104480357Y-156827379D03*
X104481877Y-145329809D03*
X104498647Y-158656179D03*
X104542837Y-146700649D03*
X104559347Y-130548029D03*
X104629197Y-83333489D03*
X104674917Y-146337679D03*
X104683557Y-157233779D03*
X104701847Y-158249779D03*
X104704387Y-131508149D03*
X104704387Y-131918609D03*
X104704387Y-132325009D03*
X104704387Y-132731409D03*
X104704387Y-133137809D03*
X104704387Y-133544209D03*
X104704387Y-133950609D03*
X104704387Y-134357009D03*
X104704387Y-134763409D03*
X104704387Y-135169809D03*
X104704387Y-135585609D03*
X104717087Y-131029099D03*
X104726227Y-148035929D03*
X104774737Y-148499479D03*
X104793287Y-82852919D03*
X104798867Y-145950589D03*
X104847637Y-145553079D03*
X104867957Y-144329809D03*
X104867957Y-144736209D03*
X104867957Y-145142609D03*
X104872787Y-140240669D03*
X104872787Y-140647069D03*
X104872787Y-141053469D03*
X104872787Y-141459869D03*
X104872787Y-141866269D03*
X104872787Y-142272669D03*
X104872787Y-142679069D03*
X104872787Y-143085469D03*
X104872787Y-143491869D03*
X104872787Y-143898269D03*
X104886757Y-156827379D03*
X104893867Y-82354829D03*
X104905047Y-158656179D03*
X105024427Y-147782179D03*
X105089957Y-157233779D03*
X105108247Y-158249779D03*
X105141267Y-148201279D03*
X105192317Y-135635139D03*
X105293157Y-156827379D03*
X105293917Y-147471539D03*
X105311447Y-158656179D03*
X105386377Y-82499099D03*
X105433867Y-81993389D03*
X105461557Y-147862699D03*
X105496357Y-157233779D03*
X105514647Y-158249779D03*
X105517947Y-147106289D03*
X105693967Y-146740019D03*
X105699557Y-156827379D03*
X105700317Y-135609739D03*
X105717847Y-158656179D03*
X105733587Y-147497449D03*
X105827827Y-146356229D03*
X105889797Y-145959479D03*
X105902757Y-157233779D03*
X105921047Y-158249779D03*
X105929677Y-145549009D03*
X105934757Y-144329809D03*
X105934757Y-144736209D03*
X105934757Y-145142609D03*
X105939587Y-140240669D03*
X105939587Y-140647069D03*
X105939587Y-141053469D03*
X105939587Y-141459869D03*
X105939587Y-141866269D03*
X105939587Y-142272669D03*
X105939587Y-142679069D03*
X105939587Y-143085469D03*
X105939587Y-143491869D03*
X105939587Y-143898269D03*
X105945177Y-147094859D03*
X106105957Y-156827379D03*
X106117637Y-146676769D03*
X106124247Y-158656179D03*
X106157517Y-135635139D03*
X106242097Y-146242179D03*
X106309157Y-157233779D03*
X106317027Y-145796159D03*
X106327447Y-158249779D03*
X106341157Y-144126609D03*
X106341157Y-144533009D03*
X106341157Y-144939409D03*
X106341157Y-145350889D03*
X106345987Y-140443869D03*
X106345987Y-140850269D03*
X106345987Y-141256669D03*
X106345987Y-141663069D03*
X106345987Y-142069469D03*
X106345987Y-142475869D03*
X106345987Y-142882269D03*
X106345987Y-143288669D03*
X106345987Y-143695069D03*
X106512357Y-156827379D03*
X106530647Y-158656179D03*
X106584487Y-130883309D03*
X106590587Y-131444139D03*
X106594647Y-131850539D03*
X106594647Y-132256939D03*
X106594647Y-132663339D03*
X106594647Y-133069739D03*
X106594647Y-133476139D03*
X106594647Y-133882539D03*
X106594647Y-134288939D03*
X106594647Y-134695339D03*
X106594647Y-135101739D03*
X106594647Y-135508139D03*
X106715557Y-157233779D03*
X106733847Y-158249779D03*
X106746037Y-140264039D03*
X106800387Y-130381909D03*
X106851187Y-140730379D03*
X106918757Y-156827379D03*
X106937047Y-158656179D03*
X106962947Y-131164229D03*
X106975647Y-131643279D03*
X106975647Y-132053739D03*
X106975647Y-132460139D03*
X106975647Y-132866539D03*
X106975647Y-133272939D03*
X106975647Y-133679339D03*
X106975647Y-134085739D03*
X106975647Y-134492139D03*
X106975647Y-134898539D03*
X106975647Y-135304939D03*
X106975647Y-135720739D03*
X107046517Y-130756049D03*
X107121957Y-157233779D03*
X107140247Y-158249779D03*
X107141257Y-129965859D03*
X107224317Y-130377339D03*
X107237267Y-140228979D03*
X107325157Y-156827379D03*
X107343447Y-158656179D03*
X107357667Y-139702439D03*
X107528357Y-157233779D03*
X107538007Y-130064159D03*
X107542327Y-129639979D03*
X107546647Y-158249779D03*
X107668567Y-140048389D03*
X107731557Y-156827379D03*
X107749847Y-158656179D03*
X107793787Y-139602369D03*
X107898937Y-129861209D03*
X107934757Y-157233779D03*
X107953047Y-158249779D03*
X107986317Y-137616339D03*
X107986317Y-138022739D03*
X107986317Y-138911739D03*
X108006387Y-138462409D03*
X108023657Y-132728109D03*
X108023657Y-133134509D03*
X108023657Y-133540909D03*
X108023657Y-133947309D03*
X108023657Y-134353709D03*
X108023657Y-134760109D03*
X108023657Y-135166509D03*
X108023657Y-135572909D03*
X108023657Y-135979309D03*
X108043717Y-129454299D03*
X108047787Y-132300629D03*
X108049567Y-131437539D03*
X108049817Y-131851559D03*
X108062007Y-131026559D03*
X108137957Y-156827379D03*
X108156247Y-158656179D03*
X108179234Y-137210540D03*
X108189517Y-139343539D03*
X108229326Y-136386041D03*
X108307377Y-129775609D03*
X108341157Y-157233779D03*
X108349027Y-158260439D03*
X108357420Y-136770442D03*
X108391957Y-132041799D03*
X108392717Y-130859939D03*
X108397287Y-131611529D03*
X108418117Y-137565539D03*
X108418117Y-137997339D03*
X108430057Y-132520849D03*
X108430057Y-132931309D03*
X108430057Y-133337709D03*
X108430057Y-133744109D03*
X108430057Y-134150509D03*
X108430057Y-134556909D03*
X108430057Y-134963309D03*
X108430057Y-135369709D03*
X108430057Y-135776109D03*
X108443517Y-138429139D03*
X108443517Y-138937139D03*
X108467397Y-131215289D03*
X108469937Y-129404269D03*
X108521747Y-156867249D03*
X108556495Y-136185956D03*
X108569955Y-137111786D03*
X108573307Y-158655159D03*
X108646155Y-136603786D03*
X108718347Y-129775609D03*
X108747297Y-157221079D03*
X108755427Y-158249779D03*
X108765077Y-130855879D03*
X108867447Y-156772769D03*
X108881157Y-129379119D03*
X108898687Y-131220369D03*
X109019587Y-158621889D03*
X109127027Y-129775359D03*
X109148117Y-157153769D03*
X109158527Y-158198209D03*
X109159287Y-130854859D03*
X109205517Y-156690719D03*
X109322357Y-129394109D03*
X109329977Y-131200299D03*
X109461547Y-158541369D03*
X109528097Y-156560679D03*
X109534957Y-157029559D03*
X109535717Y-129775359D03*
X109553747Y-158104489D03*
X109565437Y-130859939D03*
X109763557Y-129409349D03*
X109786157Y-131200299D03*
X109828837Y-156385919D03*
X109885987Y-156829919D03*
X109892837Y-158414619D03*
X109947447Y-157958689D03*
X109966757Y-129775109D03*
X109991647Y-130850029D03*
X110101377Y-156169519D03*
X110204497Y-131201059D03*
X110221517Y-156600809D03*
X110234467Y-129372259D03*
X110308127Y-158242919D03*
X110328957Y-157790289D03*
X110339877Y-155916279D03*
X110407697Y-130845459D03*
X110437667Y-129778659D03*
X110520987Y-156325979D03*
X110525807Y-155617569D03*
X110610897Y-131201059D03*
X110640867Y-129372259D03*
X110660687Y-157571089D03*
X110696747Y-155328009D03*
X110703097Y-158028289D03*
X110763557Y-155997049D03*
X110807237Y-154998319D03*
X110814097Y-130845459D03*
X110844067Y-129778659D03*
X110869217Y-154655929D03*
X110897157Y-146985639D03*
X110897157Y-147398639D03*
X110897157Y-147805039D03*
X110897157Y-148211439D03*
X110897157Y-148617839D03*
X110897157Y-149024239D03*
X110897157Y-149430639D03*
X110897157Y-149837039D03*
X110897157Y-150243439D03*
X110897157Y-150649839D03*
X110897157Y-151056239D03*
X110897157Y-151462639D03*
X110897157Y-151869039D03*
X110897157Y-152275439D03*
X110897157Y-152681839D03*
X110897157Y-153088239D03*
X110897157Y-153494639D03*
X110897157Y-153901039D03*
X110915447Y-154272389D03*
X110928147Y-146531489D03*
X110980977Y-131200299D03*
X110982497Y-157322929D03*
X110986567Y-155669389D03*
X111022637Y-146078599D03*
X111029997Y-96821399D03*
X111029997Y-97329399D03*
X111029997Y-97837399D03*
X111029997Y-98345399D03*
X111029997Y-98853399D03*
X111029997Y-99361399D03*
X111032287Y-95348959D03*
X111043717Y-95871689D03*
X111043717Y-96345149D03*
X111054887Y-129352699D03*
X111072927Y-157773019D03*
X111093497Y-94844519D03*
X111143287Y-155294489D03*
X111178847Y-145643249D03*
X111216437Y-130859939D03*
X111237267Y-94357349D03*
X111244377Y-154900789D03*
X111258087Y-129759099D03*
X111276377Y-157042009D03*
X111287807Y-154496669D03*
X111303557Y-147195439D03*
X111303557Y-147601839D03*
X111303557Y-148008239D03*
X111303557Y-148414639D03*
X111303557Y-148821039D03*
X111303557Y-149227439D03*
X111303557Y-149633839D03*
X111303557Y-150040239D03*
X111303557Y-150446639D03*
X111303557Y-150853039D03*
X111303557Y-151259439D03*
X111303557Y-151665839D03*
X111303557Y-152072239D03*
X111303557Y-152478639D03*
X111303557Y-152885039D03*
X111303557Y-153291439D03*
X111303557Y-153697839D03*
X111303557Y-154104239D03*
X111310157Y-146789039D03*
X111352327Y-146382389D03*
X111393477Y-145233289D03*
X111413797Y-157480159D03*
X111437157Y-131200299D03*
X111459517Y-93900649D03*
X111461287Y-129352699D03*
X111475767Y-145995289D03*
X111523267Y-96069309D03*
X111535207Y-95547839D03*
X111537997Y-96567399D03*
X111537997Y-97075399D03*
X111537997Y-97583399D03*
X111537997Y-98091399D03*
X111537997Y-98599399D03*
X111537997Y-99107399D03*
X111538757Y-156731869D03*
X111556797Y-99924769D03*
X111582707Y-94988789D03*
X111606837Y-100356059D03*
X111611917Y-100787099D03*
X111639087Y-145623179D03*
X111642647Y-130850029D03*
X111646967Y-99498559D03*
X111662717Y-144857119D03*
X111664487Y-129759099D03*
X111709957Y-101195789D03*
X111709957Y-101602189D03*
X111709957Y-102008589D03*
X111709957Y-102414989D03*
X111709957Y-102821389D03*
X111709957Y-103227789D03*
X111709957Y-103634189D03*
X111709957Y-104040589D03*
X111709957Y-104446989D03*
X111709957Y-104853389D03*
X111709957Y-105259789D03*
X111709957Y-105666189D03*
X111709957Y-106072589D03*
X111709957Y-106478989D03*
X111709957Y-106885389D03*
X111709957Y-107291789D03*
X111709957Y-107698189D03*
X111709957Y-108104589D03*
X111709957Y-108510989D03*
X111709957Y-108917389D03*
X111709957Y-109323789D03*
X111709957Y-109730189D03*
X111709957Y-110136589D03*
X111709957Y-110542989D03*
X111709957Y-110949389D03*
X111709957Y-111355789D03*
X111709957Y-111762189D03*
X111709957Y-112168589D03*
X111709957Y-112574989D03*
X111715547Y-113152579D03*
X111721897Y-157152749D03*
X111726717Y-94501619D03*
X111754407Y-93486889D03*
X111772437Y-156388969D03*
X111780567Y-113588699D03*
X111851947Y-145277229D03*
X111855497Y-131201059D03*
X111867687Y-129352699D03*
X111877847Y-114015169D03*
X111926877Y-93299939D03*
X111964207Y-94052549D03*
X111965227Y-156036929D03*
X111976147Y-144525389D03*
X111989357Y-98020029D03*
X111992917Y-100190709D03*
X111992917Y-100601679D03*
X111993677Y-156794859D03*
X111996217Y-97508469D03*
X112003077Y-99774399D03*
X112021617Y-114432999D03*
X112053107Y-100996139D03*
X112058187Y-99358349D03*
X112058697Y-130845459D03*
X112070887Y-129759099D03*
X112110767Y-144963799D03*
X112116357Y-101398989D03*
X112116357Y-101805389D03*
X112116357Y-102211789D03*
X112116357Y-102618189D03*
X112116357Y-103024589D03*
X112116357Y-103430989D03*
X112116357Y-103837389D03*
X112116357Y-104243789D03*
X112116357Y-104650189D03*
X112116357Y-105056589D03*
X112116357Y-105462989D03*
X112116357Y-105869389D03*
X112116357Y-106275789D03*
X112116357Y-106682189D03*
X112116357Y-107088589D03*
X112116357Y-107494989D03*
X112116357Y-107901389D03*
X112116357Y-108307789D03*
X112116357Y-108714189D03*
X112116357Y-109120589D03*
X112116357Y-109526989D03*
X112116357Y-109933389D03*
X112116357Y-110339789D03*
X112116357Y-110746189D03*
X112116357Y-111152589D03*
X112116357Y-111558989D03*
X112116357Y-111965389D03*
X112116357Y-112371789D03*
X112116357Y-112778189D03*
X112117627Y-155660249D03*
X112146327Y-113313109D03*
X112182397Y-114839649D03*
X112221517Y-113712399D03*
X112225827Y-156410049D03*
X112229137Y-155269589D03*
X112261897Y-131201059D03*
X112274087Y-129352699D03*
X112285777Y-93659349D03*
X112286027Y-92940789D03*
X112298987Y-154869039D03*
X112312957Y-144235829D03*
X112319307Y-154463649D03*
X112319557Y-147554849D03*
X112319557Y-147961249D03*
X112319557Y-148367649D03*
X112319557Y-148774049D03*
X112319557Y-149180449D03*
X112319557Y-149586849D03*
X112319557Y-149993249D03*
X112319557Y-150399649D03*
X112319557Y-150806049D03*
X112319557Y-151212449D03*
X112319557Y-151618849D03*
X112319557Y-152025249D03*
X112319557Y-152431649D03*
X112319557Y-152838049D03*
X112319557Y-153244449D03*
X112319557Y-153650849D03*
X112319557Y-154057249D03*
X112326927Y-114104829D03*
X112329967Y-147148449D03*
X112345467Y-146742309D03*
X112373917Y-115232839D03*
X112406167Y-144684649D03*
X112423187Y-156002889D03*
X112439447Y-146346829D03*
X112440717Y-98011139D03*
X112444267Y-97510249D03*
X112465097Y-130845459D03*
X112465607Y-93479519D03*
X112476017Y-114488119D03*
X112477287Y-129759099D03*
X112569237Y-155577949D03*
X112594897Y-115610289D03*
X112614707Y-145980309D03*
X112639847Y-114859969D03*
X112645187Y-92581629D03*
X112662967Y-155140049D03*
X112663477Y-131226209D03*
X112668047Y-129397409D03*
X112674647Y-143978529D03*
X112716557Y-154693779D03*
X112725707Y-146981319D03*
X112725957Y-147758049D03*
X112725957Y-148164449D03*
X112725957Y-148570849D03*
X112725957Y-148977249D03*
X112725957Y-149383649D03*
X112725957Y-149790049D03*
X112725957Y-150196449D03*
X112725957Y-150602849D03*
X112725957Y-151009249D03*
X112725957Y-151415649D03*
X112725957Y-151822049D03*
X112725957Y-152228449D03*
X112725957Y-152634849D03*
X112725957Y-153041249D03*
X112725957Y-153447649D03*
X112725957Y-153854049D03*
X112725957Y-154260709D03*
X112726207Y-144434209D03*
X112736367Y-147351649D03*
X112777267Y-146636129D03*
X112824767Y-93120369D03*
X112831617Y-115218369D03*
X112843817Y-115969949D03*
X112863117Y-145658489D03*
X112866677Y-130845209D03*
X112871247Y-129803809D03*
X112883947Y-146333869D03*
X112885727Y-97510249D03*
X112909597Y-97983199D03*
X112979707Y-88909049D03*
X113004337Y-92222479D03*
X113050057Y-115561269D03*
X113051837Y-146061079D03*
X113058697Y-143755769D03*
X113068097Y-144214239D03*
X113069877Y-131226209D03*
X113074447Y-129397409D03*
X113119407Y-116309299D03*
X113132357Y-101398989D03*
X113132357Y-101805389D03*
X113132357Y-102211789D03*
X113132357Y-102618189D03*
X113132357Y-103024589D03*
X113132357Y-103430989D03*
X113132357Y-103837389D03*
X113132357Y-104243789D03*
X113132357Y-104650189D03*
X113132357Y-105056589D03*
X113132357Y-105462989D03*
X113132357Y-105869389D03*
X113132357Y-106275789D03*
X113132357Y-106682189D03*
X113132357Y-107088589D03*
X113132357Y-107494989D03*
X113132357Y-107901389D03*
X113132357Y-108307789D03*
X113132357Y-108714189D03*
X113132357Y-109120589D03*
X113132357Y-109526989D03*
X113132357Y-109933389D03*
X113132357Y-110339789D03*
X113132357Y-110746189D03*
X113132357Y-111152589D03*
X113132357Y-111558989D03*
X113132357Y-111965389D03*
X113132357Y-112371789D03*
X113132357Y-112778189D03*
X113156737Y-145395339D03*
X113169187Y-99288499D03*
X113183917Y-92761209D03*
X113191797Y-113277039D03*
X113201957Y-91355829D03*
X113210337Y-100961089D03*
X113228367Y-99720809D03*
X113234717Y-100127459D03*
X113238787Y-100543769D03*
X113267227Y-145793109D03*
X113273077Y-130845209D03*
X113277647Y-129803809D03*
X113287047Y-113672009D03*
X113293897Y-115886129D03*
X113351817Y-97527769D03*
X113363747Y-91863069D03*
X113375687Y-98000719D03*
X113415057Y-116626029D03*
X113419377Y-114056319D03*
X113428517Y-144026539D03*
X113461287Y-143569339D03*
X113475257Y-88906759D03*
X113476277Y-131226209D03*
X113480847Y-129397409D03*
X113487957Y-145159889D03*
X113538757Y-101195789D03*
X113538757Y-101602189D03*
X113538757Y-102008589D03*
X113538757Y-102414989D03*
X113538757Y-102821389D03*
X113538757Y-103227789D03*
X113538757Y-103634189D03*
X113538757Y-104040589D03*
X113538757Y-104446989D03*
X113538757Y-104853389D03*
X113538757Y-105259789D03*
X113538757Y-105666189D03*
X113538757Y-106072589D03*
X113538757Y-106478989D03*
X113538757Y-106885389D03*
X113538757Y-107291789D03*
X113538757Y-107698189D03*
X113538757Y-108104589D03*
X113538757Y-108510989D03*
X113538757Y-108917389D03*
X113538757Y-109323789D03*
X113538757Y-109730189D03*
X113538757Y-110136589D03*
X113538757Y-110542989D03*
X113538757Y-110949389D03*
X113538757Y-111355789D03*
X113538757Y-111762189D03*
X113538757Y-112168589D03*
X113538757Y-112574989D03*
X113543327Y-92401799D03*
X113550697Y-145593459D03*
X113560597Y-113019489D03*
X113561617Y-116191949D03*
X113575337Y-100346409D03*
X113580417Y-100752559D03*
X113590317Y-99950429D03*
X113597427Y-114467029D03*
X113629947Y-113380169D03*
X113679477Y-130845209D03*
X113684047Y-129803809D03*
X113722907Y-91503909D03*
X113733067Y-113733479D03*
X113740437Y-116924479D03*
X113741957Y-95772129D03*
X113792507Y-114842449D03*
X113804697Y-143873119D03*
X113824257Y-97506689D03*
X113830347Y-95203929D03*
X113841267Y-144972689D03*
X113848127Y-97979639D03*
X113849147Y-116479219D03*
X113854227Y-145403979D03*
X113868957Y-114075619D03*
X113873527Y-92064739D03*
X113879627Y-143420749D03*
X113882677Y-131226209D03*
X113887247Y-129397409D03*
X113914677Y-88903199D03*
X113939057Y-87981689D03*
X113945157Y-88491219D03*
X113952527Y-87515599D03*
X113954297Y-87007859D03*
X113995957Y-86501379D03*
X114026437Y-115174679D03*
X114040157Y-114466779D03*
X114076987Y-85999979D03*
X114085877Y-130845209D03*
X114090187Y-117193719D03*
X114090447Y-129803809D03*
X114152167Y-95740119D03*
X114160297Y-116740839D03*
X114178077Y-145252089D03*
X114189507Y-94844769D03*
X114193567Y-143754759D03*
X114196867Y-85506209D03*
X114197377Y-91741149D03*
X114218967Y-144822569D03*
X114237767Y-114777419D03*
X114289077Y-131226209D03*
X114290847Y-115483539D03*
X114293647Y-129397409D03*
X114309647Y-143311019D03*
X114344957Y-95326359D03*
X114354857Y-85023609D03*
X114387117Y-91357859D03*
X114425217Y-88914379D03*
X114441727Y-87619489D03*
X114451637Y-88508999D03*
X114454427Y-88098789D03*
X114457987Y-87152639D03*
X114462047Y-117431719D03*
X114463567Y-115067999D03*
X114490747Y-86645909D03*
X114492277Y-130845209D03*
X114492777Y-116974519D03*
X114496847Y-129803809D03*
X114517927Y-145140069D03*
X114548657Y-94485619D03*
X114550187Y-84554469D03*
X114566437Y-86143489D03*
X114579397Y-115769549D03*
X114591587Y-143672719D03*
X114607337Y-144711069D03*
X114684297Y-85649459D03*
X114695477Y-131226209D03*
X114700047Y-129397409D03*
X114722397Y-115364419D03*
X114728237Y-95024349D03*
X114748047Y-143241679D03*
X114781577Y-84102349D03*
X114843557Y-85166859D03*
X114844067Y-117178739D03*
X114846097Y-117657779D03*
X114868447Y-145069459D03*
X114897657Y-116022279D03*
X114898677Y-130845209D03*
X114903247Y-129803809D03*
X114908067Y-94126209D03*
X114996207Y-143624709D03*
X115014497Y-144645029D03*
X115019577Y-115627559D03*
X115043197Y-84699759D03*
X115047517Y-83669279D03*
X115087647Y-94664939D03*
X115101877Y-131226209D03*
X115106447Y-129397409D03*
X115189247Y-143212979D03*
X115204997Y-117372789D03*
X115241577Y-116238679D03*
X115242337Y-145033649D03*
X115253257Y-117828469D03*
X115267227Y-93767049D03*
X115281707Y-84251189D03*
X115305077Y-130845209D03*
X115309647Y-129803809D03*
X115346217Y-83258559D03*
X115368067Y-115840669D03*
X115401847Y-143618359D03*
X115420647Y-144634359D03*
X115446807Y-94305779D03*
X115508277Y-131226209D03*
X115512847Y-129397409D03*
X115557297Y-83824469D03*
X115586247Y-117513509D03*
X115605047Y-143211959D03*
X115607337Y-116402009D03*
X115623847Y-145040759D03*
X115626387Y-93407889D03*
X115664987Y-117961059D03*
X115676417Y-82872479D03*
X115711477Y-130845209D03*
X115716047Y-129803809D03*
X115739157Y-116024819D03*
X115805957Y-93946629D03*
X115806217Y-93228059D03*
X115808247Y-143618359D03*
X115827047Y-144634359D03*
X115867937Y-83422649D03*
X115914677Y-131226209D03*
X115919247Y-129397409D03*
X115970807Y-82551679D03*
X115975637Y-117629589D03*
X115990367Y-116537899D03*
X116011447Y-143211959D03*
X116030247Y-145040759D03*
X116069867Y-118077139D03*
X116117877Y-130845209D03*
X116122447Y-129803809D03*
X116132097Y-92838429D03*
X116145307Y-116145209D03*
X116165117Y-93587469D03*
X116168927Y-83088129D03*
X116179597Y-82088639D03*
X116214647Y-143618359D03*
X116233447Y-144634359D03*
X116321077Y-131226209D03*
X116325647Y-129397409D03*
X116338087Y-93400779D03*
X116369077Y-117731189D03*
X116380507Y-116651179D03*
X116384067Y-92397229D03*
X116417847Y-143211959D03*
X116436647Y-145040759D03*
X116450617Y-82734559D03*
X116493027Y-118171619D03*
X116524277Y-130845209D03*
X116528847Y-129803809D03*
X116543827Y-116272969D03*
X116553987Y-91918439D03*
X116621047Y-143618359D03*
X116633497Y-89994389D03*
X116634507Y-88135619D03*
X116634767Y-87722099D03*
X116636537Y-91417299D03*
X116639337Y-90923269D03*
X116639337Y-92991839D03*
X116639587Y-89035279D03*
X116639587Y-89520929D03*
X116639587Y-90467839D03*
X116639847Y-144634359D03*
X116640857Y-87285729D03*
X116648227Y-82236969D03*
X116651777Y-88579609D03*
X116674637Y-86778749D03*
X116727477Y-131226209D03*
X116732047Y-129397409D03*
X116768617Y-117806369D03*
X116775737Y-86280909D03*
X116777007Y-116741349D03*
X116824247Y-143211959D03*
X116843047Y-145040759D03*
X116875557Y-92542009D03*
X116921527Y-118237409D03*
X116925337Y-111968179D03*
X116930677Y-130845209D03*
X116935247Y-129803809D03*
X116942107Y-85801099D03*
X116952517Y-116368219D03*
X116961917Y-111401249D03*
X116975627Y-112434529D03*
X117027447Y-143618359D03*
X117041417Y-92061949D03*
X117046247Y-144634359D03*
X117051327Y-110950909D03*
X117101107Y-112883339D03*
X117125487Y-88111739D03*
X117131837Y-87608059D03*
X117133367Y-91562329D03*
X117133877Y-131226209D03*
X117138447Y-129397409D03*
X117143267Y-90125709D03*
X117149117Y-91054579D03*
X117149367Y-89166599D03*
X117149367Y-89652249D03*
X117149367Y-90599159D03*
X117155717Y-88662919D03*
X117158507Y-87031729D03*
X117170957Y-85347459D03*
X117171977Y-117854889D03*
X117179087Y-116799259D03*
X117198387Y-110515809D03*
X117218967Y-113261799D03*
X117230647Y-143211959D03*
X117236487Y-86529829D03*
X117249447Y-145040759D03*
X117336567Y-112143699D03*
X117337077Y-130845209D03*
X117341647Y-129803809D03*
X117344947Y-111656519D03*
X117353327Y-118274749D03*
X117366287Y-116433499D03*
X117384567Y-113635689D03*
X117390667Y-86045699D03*
X117397777Y-111253679D03*
X117400577Y-110103569D03*
X117406667Y-112574989D03*
X117433847Y-143618359D03*
X117452647Y-144634359D03*
X117457977Y-84928359D03*
X117502677Y-110860999D03*
X117540277Y-131226209D03*
X117544847Y-129397409D03*
X117562627Y-113036759D03*
X117580917Y-117868599D03*
X117584727Y-116825169D03*
X117602507Y-113996629D03*
X117617237Y-85591039D03*
X117637047Y-143211959D03*
X117654577Y-109721039D03*
X117657367Y-110485329D03*
X117663253Y-145169931D03*
X117738137Y-113412679D03*
X117743477Y-130845209D03*
X117748047Y-129803809D03*
X117756177Y-84592819D03*
X117779797Y-116453569D03*
X117786657Y-118262809D03*
X117840247Y-143618359D03*
X117859047Y-144634359D03*
X117859807Y-110132779D03*
X117880887Y-114282379D03*
X117910607Y-85176519D03*
X117946677Y-131226209D03*
X117951247Y-129397409D03*
X117973597Y-113758629D03*
X117978427Y-109376369D03*
X117991127Y-116826439D03*
X117991127Y-117856409D03*
X118043447Y-143211959D03*
X118062247Y-145040759D03*
X118091197Y-84211059D03*
X118105927Y-109809439D03*
X118149877Y-130845209D03*
X118154447Y-129803809D03*
X118171717Y-114573209D03*
X118194327Y-116420039D03*
X118194327Y-118262809D03*
X118246647Y-143618359D03*
X118253757Y-114073079D03*
X118265447Y-144634359D03*
X118289827Y-84767069D03*
X118307097Y-109066739D03*
X118353077Y-131226209D03*
X118357647Y-129397409D03*
X118370087Y-112057339D03*
X118371617Y-111650939D03*
X118373897Y-83788909D03*
X118391677Y-109520379D03*
X118397527Y-116840409D03*
X118397527Y-117856409D03*
X118446287Y-112456369D03*
X118449847Y-143211959D03*
X118450867Y-111252409D03*
X118468647Y-145040759D03*
X118514367Y-114796729D03*
X118556277Y-130845209D03*
X118560847Y-129803809D03*
X118561857Y-114337999D03*
X118591067Y-112833559D03*
X118599197Y-83333489D03*
X118600727Y-116434009D03*
X118600727Y-118262809D03*
X118605297Y-84369049D03*
X118605297Y-110876489D03*
X118653047Y-143618359D03*
X118671847Y-144634359D03*
X118707657Y-108816299D03*
X118717817Y-109277809D03*
X118759477Y-131226209D03*
X118763287Y-82852919D03*
X118764047Y-129397409D03*
X118769887Y-111943289D03*
X118800117Y-111529019D03*
X118803927Y-116840409D03*
X118803927Y-117856409D03*
X118812047Y-113174679D03*
X118828817Y-110536889D03*
X118852687Y-112341559D03*
X118856247Y-143211959D03*
X118863867Y-82354829D03*
X118872757Y-83937249D03*
X118875047Y-145040759D03*
X118906287Y-114553899D03*
X118927877Y-115014399D03*
X118947687Y-111110929D03*
X118962677Y-130845209D03*
X118967247Y-129803809D03*
X119003057Y-112730179D03*
X119007127Y-116434009D03*
X119007127Y-118262809D03*
X119059447Y-143618359D03*
X119078247Y-144634359D03*
X119078747Y-109090869D03*
X119088907Y-83477509D03*
X119095257Y-113466019D03*
X119106437Y-110246819D03*
X119143267Y-108633669D03*
X119165877Y-131226209D03*
X119170447Y-129397409D03*
X119183397Y-110764979D03*
X119210327Y-116840409D03*
X119210327Y-117856409D03*
X119236737Y-113065969D03*
X119250967Y-82995929D03*
X119262647Y-143211959D03*
X119279157Y-114715699D03*
X119281447Y-145040759D03*
X119356377Y-82499099D03*
X119369077Y-130845209D03*
X119369327Y-115168069D03*
X119373647Y-129803809D03*
X119403867Y-81993389D03*
X119413527Y-116434009D03*
X119413527Y-118262809D03*
X119438157Y-113684209D03*
X119453657Y-110035749D03*
X119465087Y-108964889D03*
X119465847Y-143618359D03*
X119483877Y-110476439D03*
X119484647Y-144634359D03*
X119572277Y-131226209D03*
X119576847Y-129397409D03*
X119597677Y-113281619D03*
X119602757Y-108524199D03*
X119616727Y-116840409D03*
X119616727Y-117856409D03*
X119669047Y-143211959D03*
X119671837Y-114819839D03*
X119687847Y-145040759D03*
X119775477Y-130845209D03*
X119780047Y-129803809D03*
X119819927Y-116434009D03*
X119819927Y-118262809D03*
X119827037Y-113793929D03*
X119828817Y-115253419D03*
X119845067Y-109926279D03*
X119866657Y-108902909D03*
X119872247Y-143618359D03*
X119891047Y-144634359D03*
X119898407Y-110353759D03*
X119978677Y-131226209D03*
X119983247Y-129397409D03*
X119991377Y-113424359D03*
X120023127Y-116840409D03*
X120023127Y-117856409D03*
X120063257Y-108490159D03*
X120075447Y-143211959D03*
X120075957Y-114864039D03*
X120094247Y-145040759D03*
X120181877Y-130845209D03*
X120186447Y-129803809D03*
X120226327Y-116434009D03*
X120226327Y-118262809D03*
X120228097Y-113831779D03*
X120251217Y-109912559D03*
X120273057Y-108896559D03*
X120277627Y-115271959D03*
X120278647Y-143618359D03*
X120297447Y-144634359D03*
X120385077Y-131226209D03*
X120389647Y-129397409D03*
X120429527Y-116840409D03*
X120429527Y-117856409D03*
X120431297Y-113435539D03*
X120454417Y-110318959D03*
X120476257Y-108490159D03*
X120481847Y-143211959D03*
X120482357Y-114865559D03*
X120500647Y-145040759D03*
X120588277Y-130845209D03*
X120592847Y-129803809D03*
X120632727Y-116434009D03*
X120632727Y-118262809D03*
X120634497Y-113831779D03*
X120657617Y-109912559D03*
X120679457Y-108896559D03*
X120685047Y-143618359D03*
X120685557Y-115271959D03*
X120703847Y-144634359D03*
X120791477Y-131226209D03*
X120796047Y-129397409D03*
X120835927Y-116840409D03*
X120835927Y-117856409D03*
X120837697Y-113435539D03*
X120860817Y-110318959D03*
X120882657Y-108490159D03*
X120888247Y-143211959D03*
X120888757Y-114865559D03*
X120907047Y-145040759D03*
X120994677Y-130845209D03*
X120999247Y-129803809D03*
X121039127Y-116434009D03*
X121039127Y-118262809D03*
X121040897Y-113831779D03*
X121064017Y-109912559D03*
X121085857Y-108896559D03*
X121091447Y-143618359D03*
X121091957Y-115271959D03*
X121110247Y-144634359D03*
X121197877Y-131226209D03*
X121202447Y-129397409D03*
X121242327Y-116840409D03*
X121242327Y-117856409D03*
X121244097Y-113435539D03*
X121267217Y-110318959D03*
X121289057Y-108490159D03*
X121294647Y-143211959D03*
X121295157Y-114865559D03*
X121313447Y-145040759D03*
X121401077Y-130845209D03*
X121405647Y-129803809D03*
X121445527Y-116434009D03*
X121445527Y-118262809D03*
X121447297Y-113831779D03*
X121470417Y-109912559D03*
X121492257Y-108896559D03*
X121497847Y-143618359D03*
X121498357Y-115271959D03*
X121516647Y-144634359D03*
X121604277Y-131226209D03*
X121608847Y-129397409D03*
X121648727Y-116840409D03*
X121648727Y-117856409D03*
X121650497Y-113435539D03*
X121673617Y-110318959D03*
X121695457Y-108490159D03*
X121701047Y-143211959D03*
X121701557Y-114865559D03*
X121719847Y-145040759D03*
X121807477Y-130845209D03*
X121812047Y-129803809D03*
X121851927Y-116434009D03*
X121851927Y-118262809D03*
X121853697Y-113831779D03*
X121876817Y-109912559D03*
X121898657Y-108896559D03*
X121904247Y-143618359D03*
X121904757Y-115271959D03*
X121923047Y-144634359D03*
X122010677Y-131226209D03*
X122015247Y-129397409D03*
X122055127Y-116840409D03*
X122055127Y-117856409D03*
X122056897Y-113435539D03*
X122080017Y-110318959D03*
X122101857Y-108490159D03*
X122107447Y-143211959D03*
X122107957Y-114865559D03*
X122126247Y-145040759D03*
X122213877Y-130845209D03*
X122218447Y-129803809D03*
X122258327Y-116434009D03*
X122258327Y-118262809D03*
X122260097Y-113831779D03*
X122283217Y-109912559D03*
X122305057Y-108896559D03*
X122310647Y-143618359D03*
X122311157Y-115271959D03*
X122329447Y-144634359D03*
X122417077Y-131226209D03*
X122421647Y-129397409D03*
X122461527Y-116840409D03*
X122461527Y-117856409D03*
X122463297Y-113435539D03*
X122486417Y-110318959D03*
X122508257Y-108490159D03*
X122513847Y-143211959D03*
X122514357Y-114865559D03*
X122532647Y-145040759D03*
X122620277Y-130845209D03*
X122624847Y-129803809D03*
X122664727Y-116434009D03*
X122664727Y-118262809D03*
X122666497Y-113831779D03*
X122689617Y-109912559D03*
X122711457Y-108896559D03*
X122717047Y-143618359D03*
X122717557Y-115271959D03*
X122735847Y-144634359D03*
X122823477Y-131226209D03*
X122828047Y-129397409D03*
X122867927Y-116840409D03*
X122867927Y-117856409D03*
X122869697Y-113435539D03*
X122892817Y-110318959D03*
X122914657Y-108490159D03*
X122920247Y-143211959D03*
X122920757Y-114865559D03*
X122939047Y-145040759D03*
X123026677Y-130845209D03*
X123031247Y-129803809D03*
X123071127Y-116434009D03*
X123071127Y-118262809D03*
X123072897Y-113831779D03*
X123096017Y-109912559D03*
X123117857Y-108896559D03*
X123123447Y-143618359D03*
X123123957Y-115271959D03*
X123142247Y-144634359D03*
X123229877Y-131226209D03*
X123234447Y-129397409D03*
X123274327Y-116840409D03*
X123274327Y-117856409D03*
X123276097Y-113435539D03*
X123299217Y-110318959D03*
X123321057Y-108490159D03*
X123326647Y-143211959D03*
X123327157Y-114865559D03*
X123345447Y-145040759D03*
X123433077Y-130845209D03*
X123437647Y-129803809D03*
X123477527Y-116434009D03*
X123477527Y-118262809D03*
X123479297Y-113831779D03*
X123502417Y-109912559D03*
X123524257Y-108896559D03*
X123529847Y-143618359D03*
X123530357Y-115271959D03*
X123548647Y-144634359D03*
X123636277Y-131226209D03*
X123640847Y-129397409D03*
X123680727Y-116840409D03*
X123680727Y-117856409D03*
X123682497Y-113435539D03*
X123705617Y-110318959D03*
X123727457Y-108490159D03*
X123733047Y-143211959D03*
X123733557Y-114865559D03*
X123751847Y-145040759D03*
X123839477Y-130845209D03*
X123844047Y-129803809D03*
X123883927Y-116434009D03*
X123883927Y-118262809D03*
X123885697Y-113831779D03*
X123908817Y-109912559D03*
X123930657Y-108896559D03*
X123936247Y-143618359D03*
X123936757Y-115271959D03*
X123955047Y-144634359D03*
X124042677Y-131226209D03*
X124047247Y-129397409D03*
X124087127Y-116840409D03*
X124087127Y-117856409D03*
X124088897Y-113435539D03*
X124112017Y-110318959D03*
X124133857Y-108490159D03*
X124139447Y-143211959D03*
X124139957Y-114865559D03*
X124158247Y-145040759D03*
X124245877Y-130845209D03*
X124250447Y-129803809D03*
X124290327Y-116434009D03*
X124290327Y-118262809D03*
X124292097Y-113831779D03*
X124315217Y-109912559D03*
X124337057Y-108896559D03*
X124342647Y-143618359D03*
X124343157Y-115271959D03*
X124361447Y-144634359D03*
X124449077Y-131226209D03*
X124453647Y-129397409D03*
X124493527Y-116840409D03*
X124493527Y-117856409D03*
X124495297Y-113435539D03*
X124518417Y-110318959D03*
X124540257Y-108490159D03*
X124545847Y-143211959D03*
X124546357Y-114865559D03*
X124564647Y-145040759D03*
X124652277Y-130845209D03*
X124656847Y-129803809D03*
X124696727Y-116434009D03*
X124696727Y-118262809D03*
X124698497Y-113831779D03*
X124721617Y-109912559D03*
X124743457Y-108896559D03*
X124749047Y-143618359D03*
X124749557Y-115271959D03*
X124767847Y-144634359D03*
X124855477Y-131226209D03*
X124860047Y-129397409D03*
X124899927Y-116840409D03*
X124899927Y-117856409D03*
X124901697Y-113435539D03*
X124924817Y-110318959D03*
X124935227Y-163912959D03*
X124940307Y-164589619D03*
X124946657Y-108490159D03*
X124952247Y-143211959D03*
X124952757Y-114865559D03*
X124971047Y-145040759D03*
X124987557Y-95474689D03*
X124993907Y-95983199D03*
X124993907Y-96491199D03*
X124993907Y-96999199D03*
X124993907Y-97507199D03*
X124999747Y-97996909D03*
X124999747Y-98504909D03*
X124999747Y-99012909D03*
X125048767Y-94970249D03*
X125058677Y-130845209D03*
X125063247Y-129803809D03*
X125103127Y-116434009D03*
X125103127Y-118262809D03*
X125104897Y-113826699D03*
X125128017Y-109912559D03*
X125149857Y-108896559D03*
X125155447Y-143618359D03*
X125155957Y-115271959D03*
X125157987Y-94452089D03*
X125174247Y-144634359D03*
X125231647Y-99417529D03*
X125233677Y-164914479D03*
X125253747Y-163600789D03*
X125253747Y-164252559D03*
X125261877Y-131226209D03*
X125266447Y-129397409D03*
X125306327Y-116840409D03*
X125306327Y-117856409D03*
X125308097Y-113435539D03*
X125334517Y-110326069D03*
X125346707Y-93987779D03*
X125358647Y-143211959D03*
X125359157Y-114865559D03*
X125376427Y-165319359D03*
X125377447Y-145040759D03*
X125390907Y-108481269D03*
X125465077Y-130845209D03*
X125469647Y-129803809D03*
X125501907Y-95729199D03*
X125501907Y-96237199D03*
X125501907Y-96745199D03*
X125501907Y-97253199D03*
X125502157Y-95252439D03*
X125507747Y-97742909D03*
X125507747Y-98250909D03*
X125507747Y-98758909D03*
X125509527Y-116434009D03*
X125509527Y-118262809D03*
X125511297Y-113826699D03*
X125534417Y-109916369D03*
X125538477Y-108877759D03*
X125551687Y-163226649D03*
X125561847Y-143618359D03*
X125562357Y-115271959D03*
X125580647Y-144634359D03*
X125622047Y-94707099D03*
X125625597Y-100329139D03*
X125635507Y-100757889D03*
X125643127Y-99895559D03*
X125652017Y-93607029D03*
X125664207Y-99499319D03*
X125668277Y-131226209D03*
X125672847Y-129397409D03*
X125673097Y-101182069D03*
X125684017Y-108157169D03*
X125691637Y-101619209D03*
X125691637Y-102025609D03*
X125691637Y-102432009D03*
X125691637Y-102838409D03*
X125691637Y-103244809D03*
X125691637Y-103651209D03*
X125691637Y-104057609D03*
X125691637Y-104464009D03*
X125691637Y-104870409D03*
X125691637Y-105276809D03*
X125691637Y-105683209D03*
X125691637Y-106089609D03*
X125691637Y-106496009D03*
X125691637Y-106902409D03*
X125691637Y-107308809D03*
X125691637Y-107715209D03*
X125696969Y-166315195D03*
X125712727Y-116840409D03*
X125712727Y-117856409D03*
X125714497Y-113435539D03*
X125744217Y-99103589D03*
X125765047Y-143211959D03*
X125765557Y-114865559D03*
X125783847Y-145040759D03*
X125803907Y-165466419D03*
X125810517Y-110291019D03*
X125831847Y-94209519D03*
X125856237Y-165892129D03*
X125867917Y-162152739D03*
X125871477Y-130845209D03*
X125876047Y-129803809D03*
X125895347Y-108683199D03*
X125898397Y-162557619D03*
X125912367Y-98047969D03*
X125915927Y-116434009D03*
X125915927Y-118262809D03*
X125917697Y-113836859D03*
X125919227Y-97536409D03*
X125923037Y-162980019D03*
X125924817Y-93268449D03*
X125933957Y-109842459D03*
X125968247Y-143618359D03*
X125968757Y-115271959D03*
X125970027Y-100561799D03*
X125972567Y-100140419D03*
X125974347Y-171147389D03*
X125987047Y-144634359D03*
X125996437Y-160517739D03*
X125996437Y-160939129D03*
X125996437Y-161345529D03*
X125996437Y-161751929D03*
X125996437Y-166676989D03*
X125996437Y-167083389D03*
X125996437Y-167489789D03*
X125996437Y-167896189D03*
X125996437Y-168302589D03*
X125996437Y-168708989D03*
X125996437Y-169115389D03*
X125996437Y-169521789D03*
X125996437Y-169928189D03*
X125996437Y-170334589D03*
X125996437Y-170740989D03*
X126003297Y-99720559D03*
X126061717Y-99311359D03*
X126070867Y-160016349D03*
X126074677Y-131226209D03*
X126076707Y-100999449D03*
X126079247Y-129397409D03*
X126090927Y-108324809D03*
X126098037Y-101416009D03*
X126098037Y-101822409D03*
X126098037Y-102228809D03*
X126098037Y-102635209D03*
X126098037Y-103041609D03*
X126098037Y-103448009D03*
X126098037Y-103854409D03*
X126098037Y-104260809D03*
X126098037Y-104667209D03*
X126098037Y-105073609D03*
X126098037Y-105480009D03*
X126098037Y-105886409D03*
X126098037Y-106292809D03*
X126098037Y-106699209D03*
X126098037Y-107105609D03*
X126098037Y-107512009D03*
X126098037Y-107918409D03*
X126116327Y-93798799D03*
X126119127Y-116840409D03*
X126119127Y-117856409D03*
X126120897Y-113435539D03*
X126171447Y-143211959D03*
X126171957Y-114865559D03*
X126190247Y-145040759D03*
X126229107Y-165285579D03*
X126235457Y-165687659D03*
X126246887Y-166094569D03*
X126256287Y-92940789D03*
X126273807Y-163191089D03*
X126277877Y-130845209D03*
X126282447Y-129803809D03*
X126286507Y-159542129D03*
X126291847Y-110140139D03*
X126304287Y-109674819D03*
X126304797Y-162354419D03*
X126304797Y-162760819D03*
X126322327Y-116434009D03*
X126322327Y-118262809D03*
X126324097Y-113836859D03*
X126363727Y-98039079D03*
X126367277Y-97538189D03*
X126374647Y-143618359D03*
X126375157Y-115271959D03*
X126393447Y-144634359D03*
X126402837Y-160735929D03*
X126402837Y-161142329D03*
X126402837Y-161548729D03*
X126402837Y-161955129D03*
X126402837Y-166473789D03*
X126402837Y-166880189D03*
X126402837Y-167286589D03*
X126402837Y-167692989D03*
X126402837Y-168099389D03*
X126402837Y-168505789D03*
X126402837Y-168912189D03*
X126402837Y-169318589D03*
X126402837Y-169724989D03*
X126402837Y-170131389D03*
X126417577Y-160329779D03*
X126435857Y-93479519D03*
X126481077Y-131226209D03*
X126485647Y-129397409D03*
X126525527Y-116840409D03*
X126525527Y-117856409D03*
X126527297Y-113435539D03*
X126531877Y-159939639D03*
X126577847Y-143211959D03*
X126578357Y-114865559D03*
X126596647Y-145040759D03*
X126615437Y-92581629D03*
X126623567Y-109423609D03*
X126628137Y-159145129D03*
X126684277Y-130845209D03*
X126688847Y-129803809D03*
X126722877Y-109878269D03*
X126728727Y-116434009D03*
X126728727Y-118262809D03*
X126730497Y-113836859D03*
X126750567Y-159596989D03*
X126781047Y-143618359D03*
X126781557Y-115271959D03*
X126795017Y-93120369D03*
X126799847Y-144634359D03*
X126808737Y-97538189D03*
X126813557Y-98000979D03*
X126873507Y-109095949D03*
X126876807Y-113045399D03*
X126883157Y-115830249D03*
X126887477Y-131226209D03*
X126892047Y-129397409D03*
X126918207Y-164506559D03*
X126925067Y-164037169D03*
X126931927Y-116840409D03*
X126931927Y-117856409D03*
X126974597Y-92222479D03*
X126984247Y-143211959D03*
X126984757Y-114865559D03*
X127003047Y-145040759D03*
X127053077Y-108717999D03*
X127054347Y-88897109D03*
X127057907Y-159331309D03*
X127076707Y-158863189D03*
X127078737Y-109520639D03*
X127090677Y-130845209D03*
X127095247Y-129803809D03*
X127114037Y-101822409D03*
X127114037Y-102228809D03*
X127114037Y-102635209D03*
X127114037Y-103041609D03*
X127114037Y-103448009D03*
X127114037Y-103854409D03*
X127114037Y-104260809D03*
X127114037Y-104667209D03*
X127114037Y-105073609D03*
X127114037Y-105480009D03*
X127114037Y-105886409D03*
X127114037Y-106292809D03*
X127114037Y-106699209D03*
X127114037Y-107105609D03*
X127114037Y-107512009D03*
X127114037Y-107918409D03*
X127119627Y-99324319D03*
X127125217Y-108317949D03*
X127127757Y-101416259D03*
X127135127Y-116434009D03*
X127135127Y-118262809D03*
X127136647Y-113832799D03*
X127154177Y-92761209D03*
X127176777Y-101009859D03*
X127187447Y-143618359D03*
X127187957Y-115271959D03*
X127206247Y-144634359D03*
X127226057Y-99753319D03*
X127231137Y-100578309D03*
X127233677Y-100169369D03*
X127274827Y-97555709D03*
X127279647Y-98018499D03*
X127293877Y-131226209D03*
X127298447Y-129397409D03*
X127314957Y-91361919D03*
X127334007Y-91863069D03*
X127338327Y-116840409D03*
X127338327Y-117856409D03*
X127338577Y-109081219D03*
X127390647Y-143211959D03*
X127391157Y-114865559D03*
X127409447Y-145040759D03*
X127418837Y-160730589D03*
X127418837Y-161136989D03*
X127418837Y-161543389D03*
X127418837Y-161949789D03*
X127418837Y-166473789D03*
X127418837Y-166880189D03*
X127418837Y-167286589D03*
X127418837Y-167692989D03*
X127418837Y-168099389D03*
X127418837Y-168505789D03*
X127418837Y-168912189D03*
X127418837Y-169318589D03*
X127418837Y-169724989D03*
X127418837Y-170131389D03*
X127430777Y-159169759D03*
X127444497Y-88414759D03*
X127461007Y-162356189D03*
X127487417Y-108599129D03*
X127495037Y-107315919D03*
X127495037Y-107722319D03*
X127497077Y-130845209D03*
X127500117Y-102038049D03*
X127500117Y-102444449D03*
X127500117Y-102850849D03*
X127500117Y-103257249D03*
X127500117Y-103663649D03*
X127500117Y-104070049D03*
X127500117Y-104476449D03*
X127500117Y-104882849D03*
X127500117Y-105289249D03*
X127500117Y-105695649D03*
X127500117Y-106102049D03*
X127500117Y-106508449D03*
X127500117Y-106914849D03*
X127501647Y-129803809D03*
X127502917Y-166071199D03*
X127503677Y-88914889D03*
X127505197Y-108153359D03*
X127506727Y-160323179D03*
X127506727Y-165666319D03*
X127512567Y-165261949D03*
X127513587Y-92401799D03*
X127513837Y-101631909D03*
X127517137Y-162762589D03*
X127541527Y-116434009D03*
X127541527Y-118262809D03*
X127543047Y-113832799D03*
X127543047Y-163180419D03*
X127573815Y-115262143D03*
X127583177Y-100806659D03*
X127583177Y-101213059D03*
X127588007Y-158729579D03*
X127593847Y-143618359D03*
X127612387Y-99950929D03*
X127612387Y-100367239D03*
X127612647Y-144634359D03*
X127700277Y-131226209D03*
X127704847Y-129397409D03*
X127711447Y-95767809D03*
X127744727Y-114856419D03*
X127744727Y-116840409D03*
X127744727Y-117856409D03*
X127747267Y-97534629D03*
X127752087Y-97997419D03*
X127797047Y-143211959D03*
X127800607Y-95203929D03*
X127803147Y-171147389D03*
X127815847Y-145040759D03*
X127821427Y-91364969D03*
X127825237Y-160933789D03*
X127825237Y-161340189D03*
X127825237Y-161746589D03*
X127825237Y-166270589D03*
X127825237Y-166676989D03*
X127825237Y-167083389D03*
X127825237Y-167489789D03*
X127825237Y-167896189D03*
X127825237Y-168302589D03*
X127825237Y-168708989D03*
X127825237Y-169115389D03*
X127825237Y-169521789D03*
X127825237Y-169928189D03*
X127825237Y-170334589D03*
X127825237Y-170740989D03*
X127834897Y-159126579D03*
X127834897Y-160142579D03*
X127865627Y-162979259D03*
X127867407Y-162152989D03*
X127867407Y-162559389D03*
X127872737Y-92042639D03*
X127888237Y-165871049D03*
X127903477Y-130845209D03*
X127908047Y-129803809D03*
X127927607Y-87515599D03*
X127929377Y-87007859D03*
X127934207Y-165473539D03*
X127941317Y-88915399D03*
X127947927Y-88445239D03*
X127947927Y-116434009D03*
X127947927Y-118262809D03*
X127949447Y-113832799D03*
X127954017Y-87977629D03*
X127966889Y-115260754D03*
X127971037Y-86501379D03*
X128000247Y-143618359D03*
X128019047Y-144634359D03*
X128026917Y-158723739D03*
X128038097Y-160548979D03*
X128052067Y-85999979D03*
X128106677Y-131226209D03*
X128111247Y-129397409D03*
X128114037Y-95713199D03*
X128151127Y-114856419D03*
X128151127Y-116840409D03*
X128151127Y-117856409D03*
X128159757Y-94844769D03*
X128171947Y-85506209D03*
X128181347Y-91726669D03*
X128188967Y-163211159D03*
X128203447Y-143211959D03*
X128204467Y-106679899D03*
X128206237Y-106323289D03*
X128222247Y-145040759D03*
X128241297Y-159126579D03*
X128241297Y-160142579D03*
X128309877Y-130845209D03*
X128314447Y-129803809D03*
X128316727Y-95318479D03*
X128329937Y-85023609D03*
X128354327Y-115262819D03*
X128354327Y-116434009D03*
X128354327Y-118262809D03*
X128355847Y-113832799D03*
X128399787Y-91349989D03*
X128402587Y-88909299D03*
X128406647Y-143618359D03*
X128409437Y-87605769D03*
X128409437Y-88468609D03*
X128415537Y-88049259D03*
X128424677Y-165368379D03*
X128425447Y-144634359D03*
X128433067Y-87152639D03*
X128444497Y-158720179D03*
X128444497Y-160548979D03*
X128465827Y-86645909D03*
X128513077Y-131226209D03*
X128517647Y-129397409D03*
X128518917Y-94485619D03*
X128522727Y-163595709D03*
X128525267Y-84554469D03*
X128537967Y-164267539D03*
X128541517Y-86143489D03*
X128542787Y-164909399D03*
X128557527Y-114856419D03*
X128557527Y-116840409D03*
X128557527Y-117856409D03*
X128615687Y-143211959D03*
X128647697Y-159126579D03*
X128647697Y-160142579D03*
X128659377Y-85649459D03*
X128698497Y-95024349D03*
X128716277Y-130845209D03*
X128720847Y-129803809D03*
X128733037Y-149692009D03*
X128752847Y-150085449D03*
X128756657Y-84102349D03*
X128760727Y-115262819D03*
X128760727Y-116434009D03*
X128760727Y-118262809D03*
X128762247Y-113832799D03*
X128772917Y-150481439D03*
X128783327Y-145074539D03*
X128784597Y-149290179D03*
X128800857Y-163937849D03*
X128808987Y-148862439D03*
X128816607Y-143617339D03*
X128818637Y-85166859D03*
X128818887Y-150880729D03*
X128818887Y-151287129D03*
X128819343Y-151697905D03*
X128831337Y-144654929D03*
X128839717Y-158749139D03*
X128850897Y-160548979D03*
X128851147Y-148470009D03*
X128861057Y-145485509D03*
X128861057Y-145891909D03*
X128861513Y-152121325D03*
X128871217Y-164584789D03*
X128878327Y-94126209D03*
X128890517Y-146760339D03*
X128890517Y-147192139D03*
X128894837Y-147597779D03*
X128899917Y-146329299D03*
X128905703Y-152615605D03*
X128919477Y-131226209D03*
X128924047Y-129397409D03*
X128924807Y-148008749D03*
X128963927Y-114856419D03*
X128963927Y-116840409D03*
X128963927Y-117856409D03*
X129018277Y-84699759D03*
X129022597Y-83669279D03*
X129054097Y-159126579D03*
X129054097Y-160142579D03*
X129057907Y-94664939D03*
X129110173Y-153111925D03*
X129119117Y-143280539D03*
X129122167Y-149582029D03*
X129122167Y-150276459D03*
X129122677Y-130845209D03*
X129127247Y-129803809D03*
X129144007Y-149920099D03*
X129144517Y-144906139D03*
X129167127Y-115262819D03*
X129167127Y-116434009D03*
X129167127Y-118262809D03*
X129168647Y-113832799D03*
X129183656Y-152325573D03*
X129198646Y-151912823D03*
X129213857Y-143702689D03*
X129225287Y-149186039D03*
X129225287Y-150677529D03*
X129225287Y-151083929D03*
X129225743Y-151494705D03*
X129237477Y-93767049D03*
X129256787Y-84251189D03*
X129257297Y-158720179D03*
X129257297Y-160548979D03*
X129267457Y-145282309D03*
X129267457Y-145688709D03*
X129267457Y-146095109D03*
X129267457Y-147980809D03*
X129267457Y-148387209D03*
X129267457Y-148793609D03*
X129321297Y-83258559D03*
X129325877Y-131226209D03*
X129330447Y-129397409D03*
X129363663Y-152717205D03*
X129370327Y-114856419D03*
X129370327Y-116840409D03*
X129370327Y-117856409D03*
X129417057Y-94305779D03*
X129459423Y-153516545D03*
X129460497Y-159126579D03*
X129460497Y-160142579D03*
X129529077Y-130845209D03*
X129532377Y-83824469D03*
X129533647Y-129803809D03*
X129573527Y-115262819D03*
X129573527Y-116434009D03*
X129573527Y-118262809D03*
X129575047Y-113832799D03*
X129576773Y-153063155D03*
X129577077Y-143884809D03*
X129583687Y-143418969D03*
X129596637Y-93407889D03*
X129651497Y-82872479D03*
X129663697Y-160548979D03*
X129677917Y-158723739D03*
X129732277Y-131226209D03*
X129736847Y-129397409D03*
X129775457Y-147037959D03*
X129776217Y-93946629D03*
X129776727Y-114856419D03*
X129776727Y-116840409D03*
X129776727Y-117856409D03*
X129843017Y-83422649D03*
X129866897Y-159126579D03*
X129866897Y-160142579D03*
X129882897Y-144152519D03*
X129887163Y-153325535D03*
X129912053Y-153793145D03*
X129935477Y-130845209D03*
X129937507Y-82562599D03*
X129940047Y-129803809D03*
X129941057Y-93094709D03*
X129979927Y-115262819D03*
X129979927Y-118262809D03*
X129981447Y-113832799D03*
X130006087Y-143703199D03*
X130070097Y-158720179D03*
X130070097Y-160548979D03*
X130117847Y-144489829D03*
X130135117Y-83097779D03*
X130135367Y-93587469D03*
X130138677Y-131226209D03*
X130143247Y-129397409D03*
X130149087Y-82100829D03*
X130183127Y-114856419D03*
X130183127Y-116840409D03*
X130183127Y-117856409D03*
X130198617Y-92699229D03*
X130245607Y-144877689D03*
X130262063Y-153482255D03*
X130273297Y-159126579D03*
X130273297Y-160142579D03*
X130283457Y-145282309D03*
X130283457Y-145688709D03*
X130283457Y-146095109D03*
X130283457Y-147850509D03*
X130283457Y-148256909D03*
X130283457Y-148663309D03*
X130340347Y-144091049D03*
X130341877Y-130845209D03*
X130346447Y-129803809D03*
X130360667Y-149083679D03*
X130360667Y-150705469D03*
X130360667Y-151111869D03*
X130361123Y-151522645D03*
X130363249Y-151892831D03*
X130378989Y-152298971D03*
X130386327Y-115262819D03*
X130398007Y-149904349D03*
X130402577Y-92291559D03*
X130406137Y-149486779D03*
X130408927Y-150306429D03*
X130410957Y-82738119D03*
X130421887Y-160785969D03*
X130423863Y-153920405D03*
X130450327Y-158472529D03*
X130468367Y-93226539D03*
X130543547Y-91848079D03*
X130545077Y-131226209D03*
X130549647Y-129397409D03*
X130571487Y-144544699D03*
X130606797Y-91417299D03*
X130608577Y-82349239D03*
X130608577Y-88829039D03*
X130608577Y-90896599D03*
X130614417Y-89392409D03*
X130615937Y-87285729D03*
X130620507Y-87798049D03*
X130620507Y-88343389D03*
X130620507Y-89895839D03*
X130620507Y-90393169D03*
X130649717Y-86778749D03*
X130666683Y-153521365D03*
X130674867Y-147176649D03*
X130678167Y-92807179D03*
X130681467Y-145041009D03*
X130684517Y-81846829D03*
X130689857Y-145485509D03*
X130689857Y-145891909D03*
X130689857Y-148003419D03*
X130689857Y-148409819D03*
X130689857Y-148816219D03*
X130694677Y-147582539D03*
X130709917Y-146745349D03*
X130711060Y-152496782D03*
X130714997Y-146304159D03*
X130728610Y-152100636D03*
X130748277Y-130845209D03*
X130750817Y-86280909D03*
X130752847Y-129803809D03*
X130767067Y-149236589D03*
X130767067Y-150502269D03*
X130767067Y-150908669D03*
X130767067Y-151315069D03*
X130767523Y-151725845D03*
X130769097Y-149658729D03*
X130773927Y-150084689D03*
X130851147Y-160884009D03*
X130851647Y-158367119D03*
X130869883Y-153927765D03*
X130882127Y-92426439D03*
X130917187Y-85801099D03*
X130951477Y-131226209D03*
X130956047Y-129397409D03*
X130998967Y-92009879D03*
X131040117Y-88073889D03*
X131063997Y-88547349D03*
X131063997Y-89566139D03*
X131068263Y-152505365D03*
X131070087Y-89044679D03*
X131073083Y-153521365D03*
X131082027Y-87534399D03*
X131093967Y-90045699D03*
X131103617Y-91562329D03*
X131108111Y-152101130D03*
X131111997Y-90537189D03*
X131119367Y-91054579D03*
X131133587Y-87031729D03*
X131146037Y-85347459D03*
X131154677Y-130845209D03*
X131159247Y-129803809D03*
X131211567Y-86529829D03*
X131262627Y-158357219D03*
X131267197Y-160878929D03*
X131357877Y-131226209D03*
X131362447Y-129397409D03*
X131365747Y-86045699D03*
X131433057Y-84928359D03*
X131561077Y-130845209D03*
X131565647Y-129803809D03*
X131592317Y-85591039D03*
X131678677Y-160869019D03*
X131693863Y-152404025D03*
X131703817Y-158347059D03*
X131724093Y-153592235D03*
X131731257Y-84592819D03*
X131764277Y-131226209D03*
X131768847Y-129397409D03*
X131885687Y-85176519D03*
X131967477Y-130845209D03*
X131972047Y-129803809D03*
X131977127Y-122424849D03*
X132066277Y-84210809D03*
X132094977Y-160873599D03*
X132105093Y-152374055D03*
X132135117Y-158347059D03*
X132170677Y-131226209D03*
X132175247Y-129397409D03*
X132200343Y-153607225D03*
X132239507Y-84811769D03*
X132312147Y-122753529D03*
X132348477Y-83788409D03*
X132352287Y-122146979D03*
X132353503Y-152702725D03*
X132363403Y-153143925D03*
X132373877Y-130845209D03*
X132378447Y-129803809D03*
X132497317Y-160831939D03*
X132548117Y-158444339D03*
X132573007Y-83332979D03*
X132578347Y-119250109D03*
X132580117Y-84368799D03*
X132580117Y-131226209D03*
X132594597Y-128482749D03*
X132595357Y-123108879D03*
X132596377Y-118838119D03*
X132598667Y-119684449D03*
X132599677Y-128863749D03*
X132600437Y-124046389D03*
X132601446Y-125250335D03*
X132608444Y-125610757D03*
X132610597Y-124472599D03*
X132612377Y-121839379D03*
X132613907Y-120113709D03*
X132615427Y-124888649D03*
X132618987Y-120560749D03*
X132618987Y-120967149D03*
X132620507Y-123560229D03*
X132629647Y-128041559D03*
X132632447Y-121378119D03*
X132641793Y-153600105D03*
X132649467Y-129305709D03*
X132664143Y-152436785D03*
X132736327Y-82851909D03*
X132768587Y-129764689D03*
X132791957Y-130839619D03*
X132835387Y-82353559D03*
X132847327Y-83936739D03*
X132912097Y-160813399D03*
X132941817Y-127021999D03*
X132972807Y-158552039D03*
X132973317Y-129072029D03*
X132980677Y-128297079D03*
X132984747Y-119046909D03*
X133005067Y-119481249D03*
X133010397Y-129473099D03*
X133020307Y-119910509D03*
X133021577Y-123309539D03*
X133025387Y-120357549D03*
X133025387Y-120763949D03*
X133025387Y-121170349D03*
X133025637Y-125776129D03*
X133025637Y-127565309D03*
X133025743Y-124504806D03*
X133025887Y-127921159D03*
X133026397Y-121586909D03*
X133026657Y-123730409D03*
X133028937Y-124956219D03*
X133028937Y-125362619D03*
X133046473Y-152507425D03*
X133061197Y-126412399D03*
X133062977Y-83476749D03*
X133067037Y-131186079D03*
X133070793Y-153567085D03*
X133223757Y-82994909D03*
X133228837Y-130748179D03*
X133273993Y-153973485D03*
X133284612Y-152131645D03*
X133328147Y-82497829D03*
X133356347Y-160760569D03*
X133374377Y-81991859D03*
X133378187Y-158557879D03*
X133473643Y-152505365D03*
X133477193Y-153567085D03*
X133558017Y-131003449D03*
X133576817Y-126475899D03*
X133637777Y-130542439D03*
X133680393Y-153973485D03*
X133690813Y-152028865D03*
X133691117Y-142874139D03*
X133786617Y-158550259D03*
X133787387Y-160760569D03*
X133883593Y-153567085D03*
X133894013Y-152435265D03*
X133967977Y-130296059D03*
X134022077Y-130706019D03*
X134034017Y-126427639D03*
X134086793Y-153973485D03*
X134097213Y-152028865D03*
X134112507Y-119039289D03*
X134120127Y-119468549D03*
X134139427Y-124479709D03*
X134139427Y-124886109D03*
X134139427Y-125292509D03*
X134139427Y-125698909D03*
X134139677Y-120350689D03*
X134139677Y-120757089D03*
X134140447Y-119910509D03*
X134153397Y-129511199D03*
X134159237Y-123235109D03*
X134162797Y-123669449D03*
X134164067Y-127438309D03*
X134167877Y-121156379D03*
X134168127Y-121570399D03*
X134168887Y-127849789D03*
X134173717Y-129925219D03*
X134176007Y-129075589D03*
X134191747Y-109316679D03*
X134192767Y-158562959D03*
X134198538Y-124072614D03*
X134199117Y-128671979D03*
X134203687Y-159457039D03*
X134213597Y-158975709D03*
X134216897Y-126994059D03*
X134217917Y-160335119D03*
X134218677Y-160760569D03*
X134219187Y-128255929D03*
X134223757Y-159908139D03*
X134289993Y-153567085D03*
X134300413Y-152435265D03*
X134374377Y-130308759D03*
X134485377Y-123449489D03*
X134490197Y-121811949D03*
X134493193Y-153973485D03*
X134495277Y-123028359D03*
X134503613Y-152028865D03*
X134518907Y-118836089D03*
X134520677Y-121371769D03*
X134526527Y-119265349D03*
X134531857Y-120148759D03*
X134545827Y-124276509D03*
X134545827Y-124682909D03*
X134545827Y-125089309D03*
X134545827Y-125495709D03*
X134546077Y-120553889D03*
X134546077Y-120960289D03*
X134546847Y-119707309D03*
X134556888Y-123855937D03*
X134559797Y-129841399D03*
X134580117Y-127543459D03*
X134590277Y-127969929D03*
X134605267Y-128862229D03*
X134608057Y-129328319D03*
X134625327Y-128431189D03*
X134690382Y-153603989D03*
X134706813Y-152435265D03*
X134844277Y-122703489D03*
X134849357Y-122202099D03*
X134899593Y-153973485D03*
X134910013Y-152028865D03*
X135096782Y-153603989D03*
X135113213Y-152435265D03*
X135214357Y-122435519D03*
X135305993Y-153973485D03*
X135316413Y-152028865D03*
X135519613Y-152435265D03*
X135532053Y-153577755D03*
X135741103Y-153954435D03*
X135756593Y-152053505D03*
X135937183Y-152459645D03*
X136061143Y-154238915D03*
X136116253Y-151832015D03*
X136794747Y-151786239D03*
X136867897Y-154209399D03*
X137002767Y-152448159D03*
X137013947Y-112434019D03*
X137025887Y-115434009D03*
X137027407Y-118492429D03*
X137173457Y-152056999D03*
X137178787Y-153609449D03*
X137186917Y-113856419D03*
X137196317Y-146506339D03*
X137203177Y-116856409D03*
X137217147Y-112840419D03*
X137229087Y-115840409D03*
X137359387Y-154015599D03*
X137392917Y-118252899D03*
X137417297Y-152418699D03*
X137420347Y-112434019D03*
X137432287Y-115434009D03*
X137593317Y-113856419D03*
X137609577Y-116856409D03*
X137620497Y-152012299D03*
X137623547Y-112840419D03*
X137628877Y-153630529D03*
X137635487Y-115840409D03*
X137812777Y-117262809D03*
X137823697Y-152418699D03*
X137826747Y-112434019D03*
X137832077Y-154036929D03*
X137838687Y-115434009D03*
X137999717Y-113856419D03*
X138015977Y-116856409D03*
X138029947Y-112840419D03*
X138035277Y-153630529D03*
X138041887Y-115840409D03*
X138049507Y-152012299D03*
X138219177Y-117262809D03*
X138229587Y-152441049D03*
X138233147Y-112434019D03*
X138238477Y-154036929D03*
X138245087Y-115434009D03*
X138397987Y-128046889D03*
X138406117Y-113856419D03*
X138422377Y-116856409D03*
X138433807Y-127459389D03*
X138436347Y-112840419D03*
X138441677Y-153630529D03*
X138442947Y-152079099D03*
X138445997Y-125721269D03*
X138448287Y-115840409D03*
X138469877Y-126776129D03*
X138491717Y-146531739D03*
X138493747Y-125074069D03*
X138517877Y-124450759D03*
X138529817Y-126236889D03*
X138585187Y-128585119D03*
X138609317Y-114262819D03*
X138625577Y-117262809D03*
X138635987Y-152496929D03*
X138639547Y-112434019D03*
X138651487Y-115434009D03*
X138653007Y-154013059D03*
X138812517Y-113856419D03*
X138828777Y-116856409D03*
X138829537Y-124055279D03*
X138839187Y-152090529D03*
X138842747Y-112840419D03*
X138854687Y-115840409D03*
X138855187Y-153539349D03*
X138865347Y-127463959D03*
X138871447Y-126913799D03*
X138871447Y-127985169D03*
X138913357Y-126338489D03*
X138946377Y-96186909D03*
X138946377Y-96694909D03*
X138946377Y-97202909D03*
X138946377Y-97710909D03*
X138947397Y-95762219D03*
X138952217Y-98200619D03*
X138952217Y-98708619D03*
X138966697Y-95348959D03*
X138971267Y-128379629D03*
X138979397Y-124582579D03*
X138979397Y-125157889D03*
X138979397Y-125745139D03*
X139008857Y-114203379D03*
X139027907Y-94844519D03*
X139031977Y-117262809D03*
X139042387Y-152496929D03*
X139045947Y-112434019D03*
X139057887Y-115434009D03*
X139058387Y-153945749D03*
X139134847Y-128788569D03*
X139152117Y-171525339D03*
X139171677Y-94357349D03*
X139188947Y-99378669D03*
X139218917Y-113856419D03*
X139233147Y-162203539D03*
X139233147Y-162612989D03*
X139233147Y-163425789D03*
X139233147Y-163832189D03*
X139233147Y-164238589D03*
X139233147Y-164644989D03*
X139233147Y-165051389D03*
X139233147Y-165457789D03*
X139233147Y-165864189D03*
X139233147Y-166270589D03*
X139233147Y-166676989D03*
X139233147Y-167083389D03*
X139233147Y-167489789D03*
X139233147Y-167896189D03*
X139233147Y-168302589D03*
X139233147Y-168708989D03*
X139233147Y-169115389D03*
X139233147Y-169521789D03*
X139233147Y-169928189D03*
X139233147Y-170334589D03*
X139233147Y-170740989D03*
X139233147Y-171121989D03*
X139235177Y-116856409D03*
X139245587Y-152090529D03*
X139249147Y-112840419D03*
X139261087Y-115840409D03*
X139261587Y-153539349D03*
X139263117Y-161736939D03*
X139282232Y-163020008D03*
X139373607Y-128412649D03*
X139388847Y-161264499D03*
X139393927Y-93900649D03*
X139415257Y-114203379D03*
X139416787Y-123839379D03*
X139438377Y-117262809D03*
X139448787Y-152496929D03*
X139451077Y-96020029D03*
X139452347Y-112434019D03*
X139454377Y-96440909D03*
X139454377Y-96948909D03*
X139454377Y-97456909D03*
X139460217Y-97946619D03*
X139460217Y-98454619D03*
X139460217Y-98962619D03*
X139463017Y-95516599D03*
X139464287Y-115434009D03*
X139464787Y-153945749D03*
X139482827Y-124408849D03*
X139517117Y-94988789D03*
X139538707Y-100388069D03*
X139545057Y-100806659D03*
X139548867Y-99964649D03*
X139548867Y-128828699D03*
X139611857Y-160822539D03*
X139625317Y-113856419D03*
X139635987Y-101216619D03*
X139639547Y-162409789D03*
X139639547Y-162816189D03*
X139639547Y-163222589D03*
X139639547Y-163628989D03*
X139639547Y-164035389D03*
X139639547Y-164441789D03*
X139639547Y-164848189D03*
X139639547Y-165254589D03*
X139639547Y-165660989D03*
X139639547Y-166067389D03*
X139639547Y-166473789D03*
X139639547Y-166880189D03*
X139639547Y-167286589D03*
X139639547Y-167692989D03*
X139639547Y-168099389D03*
X139639547Y-168505789D03*
X139639547Y-168912189D03*
X139639547Y-169318589D03*
X139639547Y-169724989D03*
X139639547Y-170131389D03*
X139641577Y-116856409D03*
X139641827Y-101655529D03*
X139642587Y-162003389D03*
X139644877Y-93565119D03*
X139651987Y-152090529D03*
X139654787Y-99544529D03*
X139655547Y-112840419D03*
X139661137Y-94501619D03*
X139667487Y-115840409D03*
X139667987Y-153539349D03*
X139697967Y-102093929D03*
X139706597Y-161602069D03*
X139773147Y-102521159D03*
X139774667Y-128417479D03*
X139821657Y-114203379D03*
X139844777Y-117262809D03*
X139850617Y-161222079D03*
X139855187Y-152496929D03*
X139858747Y-112434019D03*
X139870687Y-115434009D03*
X139871187Y-153945749D03*
X139872457Y-94077689D03*
X139905737Y-98054569D03*
X139909797Y-99774149D03*
X139912597Y-97543009D03*
X139917417Y-93250409D03*
X139917417Y-100192739D03*
X139930377Y-102949659D03*
X139936727Y-160437219D03*
X139951457Y-100603459D03*
X139955007Y-128818799D03*
X140031717Y-113856419D03*
X140033247Y-99333969D03*
X140042387Y-101013419D03*
X140042387Y-101419819D03*
X140047977Y-116856409D03*
X140058137Y-124420789D03*
X140058387Y-152090529D03*
X140061947Y-112840419D03*
X140071347Y-101825199D03*
X140073377Y-160882229D03*
X140073887Y-115840409D03*
X140074387Y-153539349D03*
X140106137Y-109370019D03*
X140138657Y-102226009D03*
X140154147Y-93721079D03*
X140154170Y-103365810D03*
X140160247Y-108272989D03*
X140190727Y-128425099D03*
X140226787Y-102597869D03*
X140234917Y-114262819D03*
X140243807Y-123899319D03*
X140251177Y-117262809D03*
X140261587Y-152496929D03*
X140262097Y-92924019D03*
X140265147Y-112434019D03*
X140277087Y-115434009D03*
X140277587Y-153945749D03*
X140294097Y-114749739D03*
X140294607Y-117803829D03*
X140344647Y-160140549D03*
X140357097Y-98045679D03*
X140360647Y-97544789D03*
X140361157Y-128843689D03*
X140370807Y-160605119D03*
X140389857Y-102969979D03*
X140395957Y-103732989D03*
X140438117Y-113856419D03*
X140450817Y-93418309D03*
X140454377Y-116856409D03*
X140464787Y-152090529D03*
X140468347Y-112840419D03*
X140480287Y-115840409D03*
X140480787Y-153539349D03*
X140579597Y-92581629D03*
X140594327Y-128417479D03*
X140597627Y-103319229D03*
X140641317Y-104010109D03*
X140641317Y-114262819D03*
X140655547Y-162409789D03*
X140655547Y-162816189D03*
X140655547Y-163222589D03*
X140655547Y-163628989D03*
X140655547Y-164035389D03*
X140655547Y-164441789D03*
X140655547Y-164848189D03*
X140655547Y-165254589D03*
X140655547Y-165660989D03*
X140655547Y-166067389D03*
X140655547Y-166473789D03*
X140655547Y-166880189D03*
X140655547Y-167286589D03*
X140655547Y-167692989D03*
X140655547Y-168099389D03*
X140655547Y-168505789D03*
X140655547Y-168912189D03*
X140655547Y-169318589D03*
X140655547Y-169724989D03*
X140655547Y-170131389D03*
X140657577Y-117262809D03*
X140662147Y-162003389D03*
X140667987Y-152496929D03*
X140669517Y-124396659D03*
X140671547Y-112434019D03*
X140676117Y-144855339D03*
X140683487Y-115434009D03*
X140683987Y-153945749D03*
X140725897Y-160407509D03*
X140747237Y-128818799D03*
X140759177Y-93120369D03*
X140796257Y-98018759D03*
X140800067Y-161631529D03*
X140802097Y-97544789D03*
X140811757Y-159950049D03*
X140844517Y-113856419D03*
X140846807Y-103640539D03*
X140856207Y-104330909D03*
X140860777Y-116856409D03*
X140871187Y-152090529D03*
X140874747Y-112840419D03*
X140886687Y-115840409D03*
X140887187Y-153539349D03*
X140938757Y-92222479D03*
X140963137Y-123839379D03*
X140970507Y-104647649D03*
X141005807Y-128414939D03*
X141027907Y-119040049D03*
X141029177Y-104979119D03*
X141036797Y-105755849D03*
X141036797Y-106162249D03*
X141036797Y-106568649D03*
X141036797Y-106975049D03*
X141036797Y-107382719D03*
X141045937Y-105366979D03*
X141047717Y-114262819D03*
X141061947Y-162213189D03*
X141061947Y-162612989D03*
X141061947Y-163019389D03*
X141061947Y-163425789D03*
X141061947Y-163832189D03*
X141061947Y-164238589D03*
X141061947Y-164644989D03*
X141061947Y-165051389D03*
X141061947Y-165457789D03*
X141061947Y-165864189D03*
X141061947Y-166270589D03*
X141061947Y-166676989D03*
X141061947Y-167083389D03*
X141061947Y-167489789D03*
X141061947Y-167896189D03*
X141061947Y-168302589D03*
X141061947Y-168708989D03*
X141061947Y-169115389D03*
X141061947Y-169521789D03*
X141061947Y-169928189D03*
X141061947Y-170334589D03*
X141061947Y-170740989D03*
X141061947Y-171121989D03*
X141063217Y-107852869D03*
X141063977Y-117262809D03*
X141074387Y-152496929D03*
X141077947Y-112434019D03*
X141083027Y-101416009D03*
X141089887Y-115434009D03*
X141090137Y-103965909D03*
X141090387Y-153945749D03*
X141107157Y-99248879D03*
X141109437Y-101821639D03*
X141111977Y-161368899D03*
X141117827Y-160300569D03*
X141118327Y-92761209D03*
X141121637Y-101009859D03*
X141133317Y-171525339D03*
X141138397Y-128813719D03*
X141154907Y-124546519D03*
X141187927Y-100117809D03*
X141187927Y-100580349D03*
X141190217Y-161768949D03*
X141191487Y-99669249D03*
X141207487Y-108340299D03*
X141234667Y-102230579D03*
X141250917Y-113856419D03*
X141262347Y-98036279D03*
X141262857Y-125032159D03*
X141267177Y-116856409D03*
X141268187Y-97562319D03*
X141277587Y-152090529D03*
X141281147Y-112840419D03*
X141290797Y-91352529D03*
X141293087Y-115840409D03*
X141293587Y-153539349D03*
X141302477Y-104348939D03*
X141302737Y-159877149D03*
X141312387Y-126168309D03*
X141313147Y-126992029D03*
X141329407Y-126588679D03*
X141337537Y-125706789D03*
X141345917Y-128168809D03*
X141350997Y-91885929D03*
X141400267Y-102601679D03*
X141407127Y-104741629D03*
X141432787Y-105145489D03*
X141443197Y-105552649D03*
X141443197Y-105959049D03*
X141443197Y-106365449D03*
X141443197Y-106771849D03*
X141443197Y-107178249D03*
X141444217Y-107584649D03*
X141454117Y-114262819D03*
X141468597Y-108776419D03*
X141470377Y-117262809D03*
X141477737Y-92401799D03*
X141480787Y-152496929D03*
X141484347Y-112434019D03*
X141489427Y-101202139D03*
X141496287Y-115434009D03*
X141496787Y-153945749D03*
X141498827Y-101561799D03*
X141509747Y-107985969D03*
X141511126Y-161283689D03*
X141523967Y-160282789D03*
X141525997Y-100353019D03*
X141528037Y-100806659D03*
X141531077Y-99891749D03*
X141543777Y-101924009D03*
X141549117Y-128575209D03*
X141550387Y-124222919D03*
X141629127Y-102937469D03*
X141657317Y-113856419D03*
X141662397Y-95792189D03*
X141673067Y-108358079D03*
X141673577Y-116856409D03*
X141680437Y-102254209D03*
X141683987Y-152090529D03*
X141687547Y-112840419D03*
X141699487Y-115840409D03*
X141699987Y-153539349D03*
X141705067Y-161705189D03*
X141727167Y-159876389D03*
X141730217Y-124846239D03*
X141734787Y-98015199D03*
X141740627Y-97541239D03*
X141744697Y-128221389D03*
X141748507Y-126208439D03*
X141750537Y-126598839D03*
X141751297Y-126994819D03*
X141764757Y-95203929D03*
X141800317Y-91352529D03*
X141806927Y-109123379D03*
X141834107Y-125741839D03*
X141836897Y-92042639D03*
X141842997Y-102546049D03*
X141860517Y-114262819D03*
X141876777Y-117262809D03*
X141887187Y-152496929D03*
X141889597Y-151737416D03*
X141890487Y-88910059D03*
X141890747Y-112434019D03*
X141890997Y-87521949D03*
X141890997Y-103248359D03*
X141892777Y-87014209D03*
X141892777Y-87985249D03*
X141896837Y-88442189D03*
X141902687Y-115434009D03*
X141903187Y-153945749D03*
X141917858Y-161283689D03*
X141920717Y-160273139D03*
X141923767Y-108677869D03*
X141934437Y-86507729D03*
X141955517Y-128575209D03*
X142015457Y-86006329D03*
X142063717Y-113856419D03*
X142079977Y-116856409D03*
X142086837Y-102884379D03*
X142093687Y-103596089D03*
X142093947Y-112840419D03*
X142105887Y-115840409D03*
X142106387Y-153539349D03*
X142111467Y-161705189D03*
X142119857Y-95680429D03*
X142123917Y-94844769D03*
X142133567Y-159876389D03*
X142135347Y-85512559D03*
X142151097Y-128221389D03*
X142153887Y-91712439D03*
X142177007Y-109400999D03*
X142200117Y-126168049D03*
X142216877Y-126598579D03*
X142220687Y-126976789D03*
X142231107Y-108943799D03*
X142260317Y-103966669D03*
X142266917Y-114262819D03*
X142275297Y-95253709D03*
X142283177Y-117262809D03*
X142293337Y-85029959D03*
X142297147Y-112434019D03*
X142309087Y-115434009D03*
X142309587Y-153945749D03*
X142314667Y-161298789D03*
X142336767Y-160282789D03*
X142349217Y-103209249D03*
X142370297Y-128574959D03*
X142372837Y-91346679D03*
X142381477Y-104354789D03*
X142382237Y-87603229D03*
X142382237Y-88028679D03*
X142387827Y-88490709D03*
X142387827Y-88916159D03*
X142396457Y-87158989D03*
X142429227Y-86652259D03*
X142455137Y-104754329D03*
X142459197Y-105145999D03*
X142459197Y-105552399D03*
X142459197Y-105958799D03*
X142459197Y-106365199D03*
X142459197Y-106771599D03*
X142459197Y-107177999D03*
X142470117Y-107583629D03*
X142470117Y-113856419D03*
X142483077Y-94485619D03*
X142486377Y-116856409D03*
X142488657Y-84560819D03*
X142500347Y-112840419D03*
X142504917Y-86149839D03*
X142512287Y-115840409D03*
X142512787Y-153539349D03*
X142517867Y-161705189D03*
X142539967Y-159876389D03*
X142553427Y-103612339D03*
X142572227Y-109164529D03*
X142581877Y-109625029D03*
X142616427Y-126026569D03*
X142622777Y-85655809D03*
X142635217Y-107952189D03*
X142636487Y-129265579D03*
X142662647Y-95024349D03*
X142673317Y-114262819D03*
X142689577Y-117262809D03*
X142703547Y-112434019D03*
X142714717Y-104037789D03*
X142715487Y-115434009D03*
X142720057Y-84108699D03*
X142721067Y-161298789D03*
X142743167Y-160282789D03*
X142759677Y-153948789D03*
X142782027Y-85173209D03*
X142823937Y-104479749D03*
X142842487Y-94126209D03*
X142862807Y-107409389D03*
X142865597Y-105349199D03*
X142865597Y-105755599D03*
X142865597Y-106161999D03*
X142865597Y-106568399D03*
X142865597Y-106974799D03*
X142876517Y-113856419D03*
X142879317Y-104931619D03*
X142892777Y-116856409D03*
X142906747Y-112840419D03*
X142918687Y-115840409D03*
X142924267Y-161705189D03*
X142935197Y-153542649D03*
X142940527Y-109336229D03*
X142946367Y-159876389D03*
X142951197Y-108207709D03*
X142981677Y-84706109D03*
X142985997Y-83675629D03*
X143013677Y-109790889D03*
X143022057Y-94664939D03*
X143078447Y-107780479D03*
X143079717Y-114262819D03*
X143095977Y-117262809D03*
X143109947Y-112434019D03*
X143121887Y-115434009D03*
X143127467Y-161298789D03*
X143149567Y-160282789D03*
X143155917Y-126008539D03*
X143175727Y-152388979D03*
X143175987Y-129247549D03*
X143185887Y-153938629D03*
X143201127Y-152782169D03*
X143201637Y-93767049D03*
X143211287Y-153173079D03*
X143214597Y-151977749D03*
X143220177Y-84257539D03*
X143282917Y-113856419D03*
X143284697Y-83264909D03*
X143299177Y-116856409D03*
X143313147Y-112840419D03*
X143317967Y-108378649D03*
X143325087Y-115840409D03*
X143329147Y-109455359D03*
X143330667Y-161705189D03*
X143352767Y-159876389D03*
X143353787Y-153559919D03*
X143381217Y-94305779D03*
X143461987Y-107998669D03*
X143464277Y-109895799D03*
X143486117Y-114262819D03*
X143495767Y-83830819D03*
X143502377Y-117262809D03*
X143504157Y-93471899D03*
X143516347Y-112434019D03*
X143528287Y-115434009D03*
X143533867Y-161298789D03*
X143555967Y-160282789D03*
X143577047Y-152788009D03*
X143589247Y-152383899D03*
X143592797Y-151980549D03*
X143596867Y-153178669D03*
X143601947Y-153933549D03*
X143614897Y-82878829D03*
X143689317Y-113856419D03*
X143705577Y-116856409D03*
X143706847Y-108493969D03*
X143719547Y-112840419D03*
X143725137Y-126014379D03*
X143727927Y-109541469D03*
X143731487Y-115840409D03*
X143737067Y-161705189D03*
X143740377Y-93946629D03*
X143745197Y-129253389D03*
X143759167Y-159876389D03*
X143767297Y-153554839D03*
X143798027Y-93163289D03*
X143806417Y-83428999D03*
X143892517Y-114262819D03*
X143908017Y-108126689D03*
X143908777Y-117262809D03*
X143911317Y-82555489D03*
X143921477Y-109937199D03*
X143922747Y-112434019D03*
X143934687Y-115434009D03*
X143940267Y-161298789D03*
X143946617Y-151998069D03*
X143962367Y-160282789D03*
X143970247Y-152398889D03*
X143977867Y-153193649D03*
X143980407Y-152787759D03*
X144010627Y-93624809D03*
X144038317Y-153948789D03*
X144066507Y-92838429D03*
X144095717Y-113856419D03*
X144111977Y-116856409D03*
X144112737Y-108515559D03*
X144114517Y-83074409D03*
X144119337Y-82091939D03*
X144125947Y-112840419D03*
X144136617Y-109531559D03*
X144137887Y-115840409D03*
X144143467Y-161705189D03*
X144148297Y-153569829D03*
X144165567Y-159876389D03*
X144276567Y-125978569D03*
X144296637Y-129217579D03*
X144298917Y-114262819D03*
X144301457Y-93325089D03*
X144315177Y-117262809D03*
X144315937Y-108109159D03*
X144318477Y-92397229D03*
X144329147Y-112434019D03*
X144339817Y-109937959D03*
X144341087Y-115434009D03*
X144346667Y-161298789D03*
X144368767Y-160282789D03*
X144390357Y-82732779D03*
X144417477Y-152533138D03*
X144471897Y-128580039D03*
X144484337Y-153953619D03*
X144488407Y-91918439D03*
X144495257Y-126631599D03*
X144502117Y-113856419D03*
X144511767Y-153536809D03*
X144518377Y-116856409D03*
X144519137Y-108515559D03*
X144532347Y-112840419D03*
X144543017Y-109531559D03*
X144544287Y-115840409D03*
X144549867Y-161705189D03*
X144563587Y-89035789D03*
X144563587Y-89515339D03*
X144569427Y-89964919D03*
X144569427Y-90420349D03*
X144569427Y-90911839D03*
X144570957Y-91417299D03*
X144571967Y-159876389D03*
X144572477Y-87713979D03*
X144573747Y-92991839D03*
X144575527Y-88574019D03*
X144578577Y-88151619D03*
X144579337Y-82340349D03*
X144579337Y-87292079D03*
X144590767Y-154898499D03*
X144613117Y-86785099D03*
X144662137Y-128229519D03*
X144692107Y-126999649D03*
X144705317Y-114262819D03*
X144714207Y-86287259D03*
X144721577Y-117262809D03*
X144722337Y-108109159D03*
X144735547Y-112434019D03*
X144746217Y-109937959D03*
X144747487Y-115434009D03*
X144753067Y-161298789D03*
X144775167Y-160282789D03*
X144782065Y-152530741D03*
X144809967Y-92542009D03*
X144876007Y-128600859D03*
X144880577Y-85807449D03*
X144894037Y-153543659D03*
X144898867Y-126621189D03*
X144908517Y-113856419D03*
X144916897Y-153984099D03*
X144924777Y-116856409D03*
X144925537Y-108515559D03*
X144938747Y-112840419D03*
X144949417Y-109531559D03*
X144950687Y-115840409D03*
X144956267Y-161705189D03*
X144975827Y-92061949D03*
X144978367Y-159876389D03*
X145022057Y-88142469D03*
X145030947Y-89623289D03*
X145042887Y-87555729D03*
X145042887Y-88688319D03*
X145042887Y-89161779D03*
X145054827Y-90114529D03*
X145060917Y-90594079D03*
X145067777Y-91562329D03*
X145068537Y-128229519D03*
X145083527Y-91054579D03*
X145096987Y-87038079D03*
X145098507Y-126999649D03*
X145109437Y-85353809D03*
X145110957Y-162261959D03*
X145111717Y-114262819D03*
X145127977Y-117262809D03*
X145128737Y-108109159D03*
X145141947Y-112434019D03*
X145152617Y-109937959D03*
X145153887Y-115434009D03*
X145159467Y-161298789D03*
X145174967Y-86536179D03*
X145181567Y-160282789D03*
X145269197Y-153596499D03*
X145282407Y-128600859D03*
X145282962Y-152039731D03*
X145284697Y-156854549D03*
X145294597Y-157671669D03*
X145294597Y-158078069D03*
X145305267Y-126621189D03*
X145314917Y-113856419D03*
X145318217Y-157258409D03*
X145328377Y-154007979D03*
X145329147Y-86052049D03*
X145331177Y-116856409D03*
X145331937Y-108515559D03*
X145345147Y-112840419D03*
X145349717Y-152518519D03*
X145355817Y-109531559D03*
X145357087Y-115840409D03*
X145396457Y-84934709D03*
X145432017Y-154393799D03*
X145444967Y-158464409D03*
X145444967Y-158870809D03*
X145485607Y-128124359D03*
X145508467Y-127069749D03*
X145518117Y-114262819D03*
X145534377Y-117262809D03*
X145535137Y-108109159D03*
X145548347Y-112434019D03*
X145555707Y-85597389D03*
X145559017Y-109937959D03*
X145560287Y-115434009D03*
X145568157Y-162211159D03*
X145642837Y-153698099D03*
X145688807Y-128530759D03*
X145689191Y-152153871D03*
X145691097Y-156651349D03*
X145691097Y-157057749D03*
X145694647Y-84599169D03*
X145700997Y-157468469D03*
X145700997Y-157874869D03*
X145711667Y-126701959D03*
X145721317Y-113856419D03*
X145729957Y-154099669D03*
X145737577Y-116856409D03*
X145738337Y-108515559D03*
X145739857Y-152567029D03*
X145751547Y-112840419D03*
X145762217Y-109531559D03*
X145763487Y-115840409D03*
X145849077Y-85182869D03*
X145851367Y-158261209D03*
X145851367Y-158667609D03*
X145851367Y-159074009D03*
X145924517Y-114262819D03*
X145940777Y-117262809D03*
X145941537Y-108109159D03*
X145954747Y-112434019D03*
X145965417Y-109937959D03*
X145966687Y-115434009D03*
X146029677Y-84217409D03*
X146090127Y-152307949D03*
X146095207Y-128530759D03*
X146097497Y-159995009D03*
X146101557Y-161093559D03*
X146118067Y-126701959D03*
X146118067Y-152715619D03*
X146127717Y-113856419D03*
X146129747Y-84763769D03*
X146143977Y-116856409D03*
X146144737Y-108515559D03*
X146157947Y-112840419D03*
X146168617Y-109531559D03*
X146169887Y-115840409D03*
X146230587Y-154625199D03*
X146260307Y-156347569D03*
X146312377Y-83795259D03*
X146330917Y-114262819D03*
X146339297Y-151967849D03*
X146347177Y-117262809D03*
X146347937Y-108109159D03*
X146361147Y-112434019D03*
X146371817Y-109937959D03*
X146373087Y-115434009D03*
X146475957Y-152417939D03*
X146501607Y-128530759D03*
X146514307Y-152799699D03*
X146524467Y-126701959D03*
X146528277Y-129396899D03*
X146534117Y-113856419D03*
X146537927Y-83340099D03*
X146538437Y-128965099D03*
X146550377Y-116856409D03*
X146551137Y-108515559D03*
X146551137Y-126234599D03*
X146564347Y-112840419D03*
X146573997Y-125757079D03*
X146575017Y-109531559D03*
X146576287Y-115840409D03*
X146619717Y-129823619D03*
X146630897Y-160528409D03*
X146650957Y-154646279D03*
X146701507Y-156342739D03*
X146702517Y-82859529D03*
X146727417Y-152099669D03*
X146734017Y-125393859D03*
X146737317Y-114262819D03*
X146753577Y-117262809D03*
X146754337Y-108109159D03*
X146767547Y-112434019D03*
X146778217Y-109937959D03*
X146779487Y-115434009D03*
X146803107Y-82361429D03*
X146848067Y-152614279D03*
X146940517Y-113856419D03*
X146956777Y-116856409D03*
X146957537Y-108515559D03*
X146970747Y-112840419D03*
X146981417Y-109531559D03*
X146982687Y-115840409D03*
X147035517Y-158555339D03*
X147035517Y-158961739D03*
X147051517Y-129889659D03*
X147075137Y-158166719D03*
X147123907Y-152974959D03*
X147143717Y-114262819D03*
X147158707Y-152290169D03*
X147159977Y-117262809D03*
X147160737Y-108109159D03*
X147168357Y-160001359D03*
X147173947Y-112434019D03*
X147175977Y-125370999D03*
X147181057Y-156522069D03*
X147184617Y-109937959D03*
X147185887Y-115434009D03*
X147193757Y-161093559D03*
X147204677Y-157802479D03*
X147205437Y-156944219D03*
X147215347Y-157357219D03*
X147234397Y-154344529D03*
X147262087Y-153935589D03*
X147269707Y-153494389D03*
X147295607Y-82505709D03*
X147343367Y-81999989D03*
X147346917Y-113856419D03*
X147363177Y-116856409D03*
X147363937Y-108515559D03*
X147377147Y-112840419D03*
X147387817Y-109531559D03*
X147389087Y-115840409D03*
X147434547Y-152681329D03*
X147441917Y-158352139D03*
X147441917Y-158758539D03*
X147470617Y-129884579D03*
X147537677Y-157967069D03*
X147550117Y-114262819D03*
X147566377Y-117262809D03*
X147567137Y-108109159D03*
X147572217Y-157108549D03*
X147580347Y-112434019D03*
X147587207Y-156662279D03*
X147591017Y-109937959D03*
X147592287Y-115434009D03*
X147597367Y-157539339D03*
X147597617Y-125358299D03*
X147649437Y-153181709D03*
X147655787Y-153702409D03*
X147680927Y-154173579D03*
X147753317Y-113856419D03*
X147769577Y-116856409D03*
X147770337Y-108515559D03*
X147783547Y-112840419D03*
X147794217Y-109531559D03*
X147795487Y-115840409D03*
X147904957Y-129874419D03*
X147943567Y-112452049D03*
X147962357Y-114266369D03*
X147972777Y-117262809D03*
X147973537Y-108109159D03*
X147981157Y-161753959D03*
X147997417Y-109937959D03*
X147998687Y-115434009D03*
X148075137Y-125370999D03*
X148163277Y-113857429D03*
X148175977Y-116856409D03*
X148176737Y-108515559D03*
X148189947Y-112834579D03*
X148200617Y-109531559D03*
X148201887Y-115840409D03*
X148318977Y-112408619D03*
X148318977Y-129884579D03*
X148379177Y-117262809D03*
X148402547Y-108100519D03*
X148405087Y-115434009D03*
X148409907Y-114246309D03*
X148412957Y-109957259D03*
X148412957Y-159340959D03*
X148463757Y-161830159D03*
X148517097Y-125348139D03*
X148567137Y-113813489D03*
X148582377Y-116856409D03*
X148589737Y-108520889D03*
X148589737Y-112761679D03*
X148605997Y-109561019D03*
X148608287Y-115840409D03*
X148628857Y-112318449D03*
X148739347Y-159901029D03*
X148785577Y-117262809D03*
X148786337Y-129879499D03*
X148807677Y-161327999D03*
X148811487Y-115434009D03*
X148814027Y-110062419D03*
X148864317Y-114165279D03*
X148864827Y-108150559D03*
X148947377Y-160282029D03*
X148948897Y-125335439D03*
X148961597Y-113715189D03*
X148966167Y-112608519D03*
X148988777Y-116856409D03*
X148989287Y-108594809D03*
X148989787Y-112112959D03*
X148993097Y-109684719D03*
X149014687Y-115840409D03*
X149152857Y-159905859D03*
X149170127Y-110272989D03*
X149191977Y-117262809D03*
X149217887Y-115434009D03*
X149218647Y-161313019D03*
X149251157Y-129861719D03*
X149290527Y-111807149D03*
X149303227Y-112381689D03*
X149303737Y-114023299D03*
X149317197Y-108270199D03*
X149337517Y-129401979D03*
X149338787Y-113564059D03*
X149339037Y-109897829D03*
X149347677Y-128924459D03*
X149356057Y-160279489D03*
X149370537Y-125404019D03*
X149370537Y-125871379D03*
X149370537Y-126280319D03*
X149370537Y-126689259D03*
X149370537Y-127121059D03*
X149370537Y-128469799D03*
X149373077Y-108728159D03*
X149383237Y-127621439D03*
X149383237Y-128053239D03*
X149395177Y-116856409D03*
X149415747Y-110599119D03*
X149421087Y-115840409D03*
X149476197Y-111461199D03*
X149496267Y-111024829D03*
X149551387Y-159908399D03*
X149585167Y-112088579D03*
X149598377Y-117262809D03*
X149622247Y-110189169D03*
X149624287Y-115434009D03*
X149684987Y-161317839D03*
X149691337Y-113366449D03*
X149719537Y-113822889D03*
X149732737Y-108917899D03*
X149746207Y-108456889D03*
X149761947Y-160276949D03*
X149788617Y-111737039D03*
X149801577Y-116856409D03*
X149818847Y-110545019D03*
X149827487Y-115840409D03*
X149900887Y-111346389D03*
X149913587Y-110940239D03*
X150000207Y-159893409D03*
X150004777Y-117262809D03*
X150024077Y-113128449D03*
X150030687Y-115434009D03*
X150059387Y-109159449D03*
X150104597Y-113568129D03*
X150124917Y-161314539D03*
X150142187Y-108705809D03*
X150168097Y-160279489D03*
X150207977Y-116856409D03*
X150233887Y-115840409D03*
X150311607Y-112830509D03*
X150346917Y-161688679D03*
X150349457Y-109458409D03*
X150391367Y-159893409D03*
X150411177Y-117262809D03*
X150437087Y-115434009D03*
X150458927Y-113259259D03*
X150500587Y-109022289D03*
X150547317Y-112495739D03*
X150557477Y-161317839D03*
X150581867Y-160274409D03*
X150586177Y-109788609D03*
X150614377Y-116856409D03*
X150640287Y-115840409D03*
X150734267Y-112134809D03*
X150757887Y-161668619D03*
X150762207Y-112903919D03*
X150767027Y-110152589D03*
X150804877Y-109381949D03*
X150817577Y-117262809D03*
X150822397Y-159880959D03*
X150843487Y-115434009D03*
X150864567Y-111749999D03*
X150887167Y-110540959D03*
X150935177Y-111349689D03*
X150943817Y-110943289D03*
X150963117Y-161314539D03*
X150988007Y-160276949D03*
X151008587Y-112505899D03*
X151020777Y-116856409D03*
X151046687Y-115840409D03*
X151047957Y-109786319D03*
X151179267Y-161663789D03*
X151191717Y-112075119D03*
X151223217Y-110224219D03*
X151223977Y-117262809D03*
X151249887Y-115434009D03*
X151263597Y-159890869D03*
X151307797Y-111621729D03*
X151326087Y-110684469D03*
X151326847Y-111165289D03*
X151394917Y-161314539D03*
X151398977Y-160276949D03*
X151427177Y-116856409D03*
X151453087Y-115840409D03*
X151630377Y-117262809D03*
X151648917Y-161720939D03*
X151652217Y-159895949D03*
X151656287Y-115434009D03*
X151807917Y-160282789D03*
X151826717Y-161314539D03*
X151833577Y-116856409D03*
X151859487Y-115840409D03*
X152004517Y-162025739D03*
X152036777Y-117262809D03*
X152055317Y-162482939D03*
X152060147Y-171121989D03*
X152062687Y-115434009D03*
X152062937Y-159892649D03*
X152068777Y-162970369D03*
X152068777Y-163376769D03*
X152068777Y-163783169D03*
X152068777Y-164189569D03*
X152068777Y-164595969D03*
X152068777Y-165002369D03*
X152068777Y-165408769D03*
X152068777Y-165815169D03*
X152068777Y-166221569D03*
X152068777Y-166627969D03*
X152068777Y-167034369D03*
X152068777Y-167440769D03*
X152068777Y-167847169D03*
X152068777Y-168253569D03*
X152068777Y-168659969D03*
X152068777Y-169066369D03*
X152068777Y-169472769D03*
X152068777Y-169879169D03*
X152068777Y-170285569D03*
X152068777Y-170691969D03*
X152211017Y-160334609D03*
X152233117Y-161492339D03*
X152239977Y-116856409D03*
X152265887Y-115840409D03*
X152436317Y-161898739D03*
X152464007Y-117259509D03*
X152475177Y-162360769D03*
X152475177Y-162767169D03*
X152475177Y-163173569D03*
X152475177Y-163579969D03*
X152475177Y-163986369D03*
X152475177Y-164392769D03*
X152475177Y-164799169D03*
X152475177Y-165205569D03*
X152475177Y-165611969D03*
X152475177Y-166018369D03*
X152475177Y-166424769D03*
X152475177Y-166831169D03*
X152475177Y-167237569D03*
X152475177Y-167643969D03*
X152475177Y-168050369D03*
X152475177Y-168456769D03*
X152475177Y-168863169D03*
X152475177Y-169269569D03*
X152475177Y-169675969D03*
X152475177Y-170082369D03*
X152494227Y-115420799D03*
X152556967Y-160022439D03*
X152587697Y-160487519D03*
X152645107Y-116848029D03*
X152670247Y-115799519D03*
X152895297Y-115267899D03*
X152913077Y-160730849D03*
X152930857Y-117198799D03*
X152953457Y-95977099D03*
X152953457Y-96485099D03*
X152953457Y-96993099D03*
X152953457Y-97501099D03*
X152957777Y-95348959D03*
X152959307Y-97990819D03*
X152959307Y-98498819D03*
X152959307Y-99006819D03*
X153018997Y-94844519D03*
X153045917Y-160349339D03*
X153049217Y-115652449D03*
X153055057Y-116767509D03*
X153162757Y-94357349D03*
X153223717Y-161111339D03*
X153241247Y-115027359D03*
X153338267Y-99145249D03*
X153374337Y-115408359D03*
X153385007Y-93900649D03*
X153390337Y-117063419D03*
X153401517Y-160704939D03*
X153426917Y-161543139D03*
X153428947Y-116603429D03*
X153461457Y-96231099D03*
X153461457Y-96739099D03*
X153461457Y-97247099D03*
X153467307Y-97736819D03*
X153467307Y-98244819D03*
X153467307Y-98752819D03*
X153473907Y-99935439D03*
X153487877Y-95636489D03*
X153491177Y-162380319D03*
X153491177Y-162786719D03*
X153491177Y-163193119D03*
X153491177Y-163599519D03*
X153491177Y-164005919D03*
X153491177Y-164412319D03*
X153491177Y-164818719D03*
X153491177Y-165225119D03*
X153491177Y-165631519D03*
X153491177Y-166037919D03*
X153491177Y-166444319D03*
X153491177Y-166850719D03*
X153491177Y-167257119D03*
X153491177Y-167663519D03*
X153491177Y-168069919D03*
X153491177Y-168476319D03*
X153491177Y-168882719D03*
X153491177Y-169289119D03*
X153491177Y-169695519D03*
X153491177Y-170101919D03*
X153491937Y-161974689D03*
X153508197Y-94988789D03*
X153508957Y-100376639D03*
X153514547Y-114668709D03*
X153534107Y-99489159D03*
X153540197Y-100799549D03*
X153571447Y-101201879D03*
X153652217Y-94501619D03*
X153655007Y-114252659D03*
X153661617Y-115121079D03*
X153666437Y-102012649D03*
X153666437Y-102419049D03*
X153666437Y-102825449D03*
X153666437Y-103231849D03*
X153666437Y-103638249D03*
X153666437Y-104044649D03*
X153666437Y-104451049D03*
X153666437Y-104857449D03*
X153666437Y-105263849D03*
X153666437Y-105670249D03*
X153666697Y-101577549D03*
X153671517Y-106104079D03*
X153671517Y-106510479D03*
X153671517Y-106916879D03*
X153671517Y-107323279D03*
X153671517Y-107729679D03*
X153671517Y-108136079D03*
X153671517Y-108542479D03*
X153671517Y-108948879D03*
X153671517Y-109355279D03*
X153671517Y-109761679D03*
X153671517Y-110168079D03*
X153671517Y-110574479D03*
X153671517Y-110980879D03*
X153671517Y-111387279D03*
X153671517Y-111793679D03*
X153671517Y-112200079D03*
X153671517Y-112606479D03*
X153671517Y-113012879D03*
X153671517Y-113419279D03*
X153671517Y-113825679D03*
X153679897Y-93486889D03*
X153706317Y-161136739D03*
X153744417Y-99090129D03*
X153778957Y-116396669D03*
X153815027Y-116856919D03*
X153842967Y-98040599D03*
X153849827Y-97529039D03*
X153852367Y-93299939D03*
X153866087Y-161643219D03*
X153888947Y-171121989D03*
X153889707Y-94052549D03*
X153895037Y-99765259D03*
X153897577Y-100178769D03*
X153897577Y-162583519D03*
X153897577Y-162989919D03*
X153897577Y-163396319D03*
X153897577Y-163802719D03*
X153897577Y-164209119D03*
X153897577Y-164615519D03*
X153897577Y-165021919D03*
X153897577Y-165428319D03*
X153897577Y-165834719D03*
X153897577Y-166241119D03*
X153897577Y-166647519D03*
X153897577Y-167053919D03*
X153897577Y-167460319D03*
X153897577Y-167866719D03*
X153897577Y-168273119D03*
X153897577Y-168679519D03*
X153897577Y-169085919D03*
X153897577Y-169492319D03*
X153897577Y-169898719D03*
X153897577Y-170305119D03*
X153897577Y-170711519D03*
X153917137Y-114805109D03*
X153919427Y-162151979D03*
X153946597Y-100596349D03*
X153946597Y-101002749D03*
X154049217Y-114420809D03*
X154050237Y-99356069D03*
X154062427Y-101416009D03*
X154062427Y-101822409D03*
X154062427Y-102228809D03*
X154062427Y-102635209D03*
X154062427Y-103041609D03*
X154062427Y-103448009D03*
X154062427Y-103854409D03*
X154062427Y-104260809D03*
X154062427Y-104667209D03*
X154062427Y-105073609D03*
X154062427Y-105480009D03*
X154062427Y-105886409D03*
X154062427Y-106292809D03*
X154062427Y-106699209D03*
X154062427Y-107105609D03*
X154062427Y-107512009D03*
X154062427Y-107918409D03*
X154062427Y-108324809D03*
X154062427Y-108731209D03*
X154062427Y-109137609D03*
X154062427Y-109544009D03*
X154062427Y-109950409D03*
X154062427Y-110356809D03*
X154062427Y-110763209D03*
X154062427Y-111169609D03*
X154062427Y-111576009D03*
X154062427Y-111982409D03*
X154062427Y-112388809D03*
X154062427Y-112795209D03*
X154062427Y-113201609D03*
X154062427Y-113608009D03*
X154062427Y-114014409D03*
X154090877Y-116136069D03*
X154200597Y-116584379D03*
X154211267Y-93659349D03*
X154211527Y-92940789D03*
X154294327Y-98031709D03*
X154297887Y-97530819D03*
X154381447Y-115848789D03*
X154391097Y-93479519D03*
X154521657Y-116279829D03*
X154570677Y-92581629D03*
X154653737Y-115547039D03*
X154735777Y-98013679D03*
X154739337Y-97530819D03*
X154750257Y-93120369D03*
X154815027Y-115975539D03*
X154863037Y-115197789D03*
X154929837Y-92222479D03*
X155000957Y-114821109D03*
X155071567Y-114420809D03*
X155078167Y-99345909D03*
X155078427Y-101416009D03*
X155078427Y-101822409D03*
X155078427Y-102228809D03*
X155078427Y-102635209D03*
X155078427Y-103041609D03*
X155078427Y-103448009D03*
X155078427Y-103854409D03*
X155078427Y-104260809D03*
X155078427Y-104667209D03*
X155078427Y-105073609D03*
X155078427Y-105480009D03*
X155078427Y-105886409D03*
X155078427Y-106292809D03*
X155078427Y-106699209D03*
X155078427Y-107105609D03*
X155078427Y-107512009D03*
X155078427Y-107918409D03*
X155078427Y-108324809D03*
X155078427Y-108731209D03*
X155078427Y-109137609D03*
X155078427Y-109544009D03*
X155078427Y-109950409D03*
X155078427Y-110356809D03*
X155078427Y-110763209D03*
X155078427Y-111169609D03*
X155078427Y-111576009D03*
X155078427Y-111982409D03*
X155078427Y-112388809D03*
X155078427Y-112795209D03*
X155078427Y-113201609D03*
X155078427Y-113608009D03*
X155078427Y-114014409D03*
X155085537Y-91439899D03*
X155104077Y-115591999D03*
X155109417Y-92761209D03*
X155131007Y-100995889D03*
X155170627Y-100595589D03*
X155176727Y-100169369D03*
X155181547Y-99743159D03*
X155201867Y-98031199D03*
X155205427Y-97548349D03*
X155289247Y-91863069D03*
X155317437Y-115158929D03*
X155407867Y-92447269D03*
X155445707Y-114693349D03*
X155469327Y-101221189D03*
X155484827Y-101619209D03*
X155484827Y-102025609D03*
X155484827Y-102432009D03*
X155484827Y-102838409D03*
X155484827Y-103244809D03*
X155484827Y-103651209D03*
X155484827Y-104057609D03*
X155484827Y-104464009D03*
X155484827Y-104870409D03*
X155484827Y-105276809D03*
X155484827Y-105683209D03*
X155484827Y-106089609D03*
X155484827Y-106496009D03*
X155484827Y-106902409D03*
X155484827Y-107308809D03*
X155484827Y-107715209D03*
X155484827Y-108121609D03*
X155484827Y-108528009D03*
X155484827Y-108934409D03*
X155484827Y-109340809D03*
X155484827Y-109747209D03*
X155484827Y-110153609D03*
X155484827Y-110560009D03*
X155484827Y-110966409D03*
X155484827Y-111372809D03*
X155484827Y-111779209D03*
X155484827Y-112185609D03*
X155484827Y-112592009D03*
X155484827Y-112998409D03*
X155484827Y-113404809D03*
X155484827Y-113811209D03*
X155484827Y-114224719D03*
X155537407Y-100792689D03*
X155587697Y-99918679D03*
X155622997Y-100359869D03*
X155669987Y-95714209D03*
X155672787Y-91442949D03*
X155674307Y-98010119D03*
X155677867Y-97527269D03*
X155752537Y-92107159D03*
X155755847Y-95203929D03*
X155873957Y-87587479D03*
X155875727Y-88050779D03*
X155888687Y-88901929D03*
X155890467Y-87037069D03*
X155900117Y-88441689D03*
X155920947Y-86501379D03*
X156001967Y-85999979D03*
X156076137Y-91786359D03*
X156114997Y-94844769D03*
X156121857Y-85506209D03*
X156279847Y-85023349D03*
X156294577Y-95383509D03*
X156326077Y-91439899D03*
X156365187Y-87668759D03*
X156365187Y-88094209D03*
X156368237Y-88909299D03*
X156379417Y-87224519D03*
X156391097Y-88490199D03*
X156415737Y-86645649D03*
X156474157Y-94485619D03*
X156475167Y-84554469D03*
X156491177Y-86143489D03*
X156609287Y-85649209D03*
X156653737Y-95024349D03*
X156706567Y-84102349D03*
X156768537Y-85166859D03*
X156833567Y-94126209D03*
X156968187Y-84699759D03*
X156972247Y-83669279D03*
X157013147Y-94664939D03*
X157192717Y-93767049D03*
X157206687Y-84251189D03*
X157271207Y-83258559D03*
X157372297Y-94305779D03*
X157482277Y-83824469D03*
X157551877Y-93407889D03*
X157601407Y-82872479D03*
X157731457Y-93946629D03*
X157731707Y-93228059D03*
X157747967Y-83463789D03*
X157936687Y-82510789D03*
X158032447Y-83143249D03*
X158057587Y-92838429D03*
X158090607Y-93587469D03*
X158140397Y-82103369D03*
X158263587Y-93400779D03*
X158309557Y-92397229D03*
X158335217Y-82783579D03*
X158479487Y-91918439D03*
X158545017Y-82388869D03*
X158562037Y-91417299D03*
X158564827Y-92991839D03*
X158566857Y-88178799D03*
X158572707Y-89257529D03*
X158572707Y-89826999D03*
X158572707Y-90354309D03*
X158572707Y-90851889D03*
X158578797Y-88718039D03*
X158579057Y-87603489D03*
X158580577Y-86950959D03*
X158624517Y-81887219D03*
X158658807Y-86449059D03*
X158801047Y-92542009D03*
X158803337Y-85961879D03*
X158966907Y-92061949D03*
X159011107Y-85498589D03*
X159016697Y-90030709D03*
X159022537Y-87963149D03*
X159034477Y-88502389D03*
X159034477Y-89023849D03*
X159046417Y-89563099D03*
X159058607Y-90552169D03*
X159058857Y-91562329D03*
X159074607Y-91054579D03*
X159077397Y-87330179D03*
X159118547Y-86743189D03*
X159240467Y-86250169D03*
X159279077Y-85066789D03*
X159436557Y-85781539D03*
X159671257Y-85400039D03*
X159692587Y-84581389D03*
X159940997Y-85052309D03*
X160027107Y-84199119D03*
X160282627Y-84740649D03*
X160307777Y-83775709D03*
X160529517Y-83318759D03*
X160540697Y-84357109D03*
X160688777Y-82836159D03*
X160782247Y-82336799D03*
X160806127Y-83924039D03*
X161019227Y-83462779D03*
X161176457Y-82979669D03*
X161275767Y-82481579D03*
X161315907Y-81975099D03*
M02*
