%TF.GenerationSoftware,KiCad,Pcbnew,9.0.1*%
%TF.CreationDate,2025-06-02T14:00:32-06:00*%
%TF.ProjectId,PABA-DP,50414241-2d44-4502-9e6b-696361645f70,rev?*%
%TF.SameCoordinates,Original*%
%TF.FileFunction,Plated,1,8,PTH,Drill*%
%TF.FilePolarity,Positive*%
%FSLAX46Y46*%
G04 Gerber Fmt 4.6, Leading zero omitted, Abs format (unit mm)*
G04 Created by KiCad (PCBNEW 9.0.1) date 2025-06-02 14:00:32*
%MOMM*%
%LPD*%
G01*
G04 APERTURE LIST*
%TA.AperFunction,ViaDrill*%
%ADD10C,0.152400*%
%TD*%
%TA.AperFunction,ViaDrill*%
%ADD11C,0.203200*%
%TD*%
%TA.AperFunction,ViaDrill*%
%ADD12C,0.254000*%
%TD*%
%TA.AperFunction,ComponentDrill*%
%ADD13C,0.254000*%
%TD*%
%TA.AperFunction,ViaDrill*%
%ADD14C,0.330200*%
%TD*%
%TA.AperFunction,ComponentDrill*%
%ADD15C,0.400000*%
%TD*%
%TA.AperFunction,ComponentDrill*%
%ADD16C,1.000000*%
%TD*%
%TA.AperFunction,ComponentDrill*%
%ADD17C,1.143000*%
%TD*%
%TA.AperFunction,ComponentDrill*%
%ADD18C,1.341600*%
%TD*%
%TA.AperFunction,ComponentDrill*%
%ADD19C,1.600000*%
%TD*%
%TA.AperFunction,ComponentDrill*%
%ADD20C,3.175000*%
%TD*%
G04 APERTURE END LIST*
D10*
X76698847Y-112848289D03*
X77198727Y-112848289D03*
X78198977Y-112348419D03*
X78198977Y-112848289D03*
X78698847Y-112848289D03*
X79198977Y-112848289D03*
X79698847Y-112848289D03*
X79698847Y-117848539D03*
X80198967Y-112348419D03*
X132589517Y-112848289D03*
X133089387Y-112848289D03*
X134089647Y-112348419D03*
X134089647Y-112848289D03*
X134589517Y-112848289D03*
X135089637Y-112848289D03*
X135589517Y-112848289D03*
X135589517Y-117848539D03*
X136089637Y-112348419D03*
D11*
X51369717Y-163854539D03*
X51369717Y-164260939D03*
X51369717Y-164667339D03*
X51369717Y-165073739D03*
X51369717Y-165480139D03*
X51369717Y-165886539D03*
X51369717Y-166292939D03*
X51369717Y-166699339D03*
X51369717Y-167105739D03*
X51369717Y-170712539D03*
X51369717Y-171118939D03*
X51369717Y-171525339D03*
X51776117Y-171525339D03*
X52182517Y-171525339D03*
X52588917Y-171525339D03*
X52792117Y-135142379D03*
X52873397Y-137199779D03*
X52995317Y-171525339D03*
X53267097Y-95462499D03*
X53401717Y-171525339D03*
X53770017Y-112366199D03*
X53808117Y-171525339D03*
X53884317Y-161527899D03*
X54214517Y-171525339D03*
X54620917Y-171525339D03*
X55027317Y-138683139D03*
X55027317Y-171525339D03*
X55433717Y-171525339D03*
X55713117Y-131139339D03*
X55713117Y-132536339D03*
X55840117Y-171525339D03*
X56246517Y-171525339D03*
X56261757Y-164674959D03*
X56439557Y-119996359D03*
X56652917Y-171525339D03*
X56886597Y-125759619D03*
X57059317Y-171525339D03*
X57465717Y-171525339D03*
X57750197Y-125091599D03*
X57872117Y-171525339D03*
X58278517Y-171525339D03*
X58369957Y-156394559D03*
X58684917Y-171525339D03*
X58938917Y-161212939D03*
X59032387Y-100325079D03*
X59091317Y-171525339D03*
X59152277Y-111972499D03*
X59497717Y-171525339D03*
X59769497Y-106760419D03*
X59769497Y-154634339D03*
X59904117Y-171525339D03*
X60069977Y-138164979D03*
X60071757Y-131680359D03*
X60248037Y-100325079D03*
X60310517Y-171525339D03*
X60716917Y-171525339D03*
X61001397Y-126549559D03*
X61029337Y-131004719D03*
X61123317Y-171525339D03*
X61529717Y-171525339D03*
X61656717Y-136981339D03*
X61683387Y-128901349D03*
X61699897Y-135917079D03*
X61898017Y-148746619D03*
X61936117Y-171525339D03*
X62291717Y-125119539D03*
X62342517Y-171525339D03*
X62545717Y-97484339D03*
X62596517Y-92912339D03*
X62596517Y-95325339D03*
X62748917Y-171525339D03*
X63130189Y-133737236D03*
X63155317Y-171525339D03*
X63561717Y-138505339D03*
X63561717Y-171525339D03*
X63968117Y-171525339D03*
X63998597Y-131154579D03*
X64069717Y-132307739D03*
X64374517Y-171525339D03*
X64633597Y-144456559D03*
X64780917Y-171525339D03*
X64918077Y-146851779D03*
X65187317Y-171525339D03*
X65253357Y-120123359D03*
X65339717Y-161339939D03*
X65593717Y-171525339D03*
X65936617Y-111860739D03*
X66000117Y-171525339D03*
X66406517Y-171525339D03*
X66670677Y-139315599D03*
X66812917Y-171525339D03*
X67097397Y-141538099D03*
X67219317Y-171525339D03*
X67392037Y-145815459D03*
X67503797Y-147245479D03*
X67546977Y-148843139D03*
X67625717Y-171525339D03*
X67894957Y-164751159D03*
X68032117Y-171525339D03*
X68438517Y-171525339D03*
X68844917Y-171525339D03*
X68910957Y-157512159D03*
X69251317Y-171525339D03*
X69413877Y-147408039D03*
X69657717Y-171525339D03*
X69901557Y-149193659D03*
X70064117Y-171525339D03*
X70089517Y-97712939D03*
X70127617Y-148114159D03*
X70165717Y-131774339D03*
X70267317Y-146226939D03*
X70277477Y-130062379D03*
X70470517Y-171525339D03*
X70757537Y-84644639D03*
X70876917Y-171525339D03*
X71036937Y-140293499D03*
X71046213Y-134773269D03*
X71119574Y-136142673D03*
X71257917Y-99262339D03*
X71283317Y-171525339D03*
X71400157Y-125533559D03*
X71527157Y-121977559D03*
X71689717Y-171525339D03*
X72096117Y-171525339D03*
X72502517Y-171525339D03*
X72568557Y-133686959D03*
X72604117Y-154329539D03*
X72662537Y-163996779D03*
X72680317Y-166419939D03*
X72858117Y-128599339D03*
X72908917Y-101319739D03*
X72908917Y-171525339D03*
X72934317Y-102869139D03*
X72964797Y-140148719D03*
X72967337Y-100346409D03*
X73112117Y-122782739D03*
X73188317Y-120572939D03*
X73315317Y-171525339D03*
X73594717Y-159638139D03*
X73678537Y-137750959D03*
X73721717Y-171525339D03*
X73891897Y-133189119D03*
X73950317Y-130783739D03*
X73975717Y-124840139D03*
X74102717Y-97357339D03*
X74102717Y-97992339D03*
X74128117Y-171525339D03*
X74153517Y-102513539D03*
X74188317Y-100357079D03*
X74534517Y-171525339D03*
X74712317Y-132510939D03*
X74737717Y-97357339D03*
X74737717Y-97992339D03*
X74915517Y-159688939D03*
X75220317Y-100481539D03*
X75220317Y-101421339D03*
X75309667Y-94776191D03*
X75324457Y-121192699D03*
X75474317Y-97611339D03*
X75474317Y-129793139D03*
X75499717Y-130377339D03*
X75669825Y-158545598D03*
X75677517Y-100989539D03*
X75697587Y-113374069D03*
X75697587Y-113849049D03*
X75697587Y-114349179D03*
X75697587Y-114849049D03*
X75697587Y-115349179D03*
X75697587Y-115849049D03*
X75697587Y-116349169D03*
X75697587Y-116849049D03*
X75697587Y-117298629D03*
X76022957Y-143237359D03*
X76022957Y-144634359D03*
X76197457Y-113374069D03*
X76197457Y-113849049D03*
X76197457Y-114349179D03*
X76197457Y-114849049D03*
X76197457Y-115349179D03*
X76197457Y-115849049D03*
X76197457Y-116349169D03*
X76197457Y-116849049D03*
X76197457Y-117298629D03*
X76515717Y-171525339D03*
X76617317Y-137747399D03*
X76657957Y-143999359D03*
X76697577Y-113374069D03*
X76697577Y-113849049D03*
X76697577Y-114349179D03*
X76697577Y-114849049D03*
X76697577Y-115349179D03*
X76697577Y-115849049D03*
X76697577Y-116349169D03*
X76697577Y-116849049D03*
X76820517Y-133653939D03*
X76922117Y-171525339D03*
X77197457Y-113849049D03*
X77197457Y-114349179D03*
X77197457Y-114849049D03*
X77197457Y-115349179D03*
X77197457Y-115849049D03*
X77197457Y-116349169D03*
X77197457Y-116849049D03*
X77208337Y-113363763D03*
X77328517Y-171525339D03*
X77399637Y-149061579D03*
X77419957Y-143237359D03*
X77419957Y-144634359D03*
X77531717Y-163244939D03*
X77658717Y-158139539D03*
X77697577Y-113349179D03*
X77697577Y-113849049D03*
X77697577Y-114349179D03*
X77697577Y-114849049D03*
X77697577Y-115849049D03*
X77697577Y-116349169D03*
X77697577Y-116849049D03*
X77698847Y-115348409D03*
X77709517Y-171525339D03*
X78090517Y-171525339D03*
X78131157Y-149536559D03*
X78197447Y-113849049D03*
X78197447Y-114349179D03*
X78197447Y-114849049D03*
X78197447Y-115349179D03*
X78197447Y-115849049D03*
X78197447Y-116349169D03*
X78197447Y-116849049D03*
X78199737Y-132729379D03*
X78202277Y-133260239D03*
X78217517Y-166445339D03*
X78496917Y-171525339D03*
X78631537Y-164108539D03*
X78697577Y-113849049D03*
X78697577Y-114349179D03*
X78697577Y-114849049D03*
X78697577Y-115349179D03*
X78697577Y-115849049D03*
X78697577Y-116349169D03*
X78697577Y-116849049D03*
X78852517Y-152068939D03*
X78852517Y-171525339D03*
X78997297Y-94454119D03*
X79106517Y-158215739D03*
X79197447Y-113849049D03*
X79197447Y-114349179D03*
X79197447Y-114849049D03*
X79197447Y-115349179D03*
X79197447Y-115849049D03*
X79197447Y-116349169D03*
X79197447Y-116849049D03*
X79197447Y-117323769D03*
X79233517Y-171525339D03*
X79401157Y-149587359D03*
X79639917Y-171525339D03*
X79697577Y-113849049D03*
X79697577Y-114349179D03*
X79697577Y-114849049D03*
X79697577Y-115349179D03*
X79697577Y-115849049D03*
X79697577Y-116349169D03*
X79697577Y-116849049D03*
X79697577Y-117323769D03*
X80005677Y-148205599D03*
X80046317Y-171525339D03*
X80071717Y-161416139D03*
X80305397Y-151492359D03*
X80452717Y-171525339D03*
X80458557Y-88867899D03*
X80458557Y-91411199D03*
X80630517Y-163117939D03*
X80681317Y-106552139D03*
X80683857Y-149569579D03*
X80715607Y-138124339D03*
X80716877Y-128909219D03*
X80790455Y-102703974D03*
X80859117Y-171525339D03*
X81069937Y-85820659D03*
X81138517Y-135736739D03*
X81240117Y-141680339D03*
X81240117Y-160882739D03*
X81265517Y-142823339D03*
X81265517Y-171525339D03*
X81671917Y-171525339D03*
X81875117Y-134593739D03*
X81900517Y-146379339D03*
X81951317Y-147344539D03*
X82078317Y-171525339D03*
X82154517Y-143940939D03*
X82179917Y-144931539D03*
X82195157Y-155899259D03*
X82252307Y-150782939D03*
X82347557Y-154489559D03*
X82400537Y-103211764D03*
X82484717Y-171525339D03*
X82728557Y-144837559D03*
X82728557Y-146259959D03*
X82728557Y-147275959D03*
X82753957Y-141256159D03*
X82753957Y-166153239D03*
X82779357Y-142449959D03*
X82779357Y-143719959D03*
X82891117Y-171525339D03*
X83225377Y-140036449D03*
X83297517Y-100608539D03*
X83297517Y-101268939D03*
X83297517Y-171525339D03*
X83653117Y-163041739D03*
X83661604Y-133671680D03*
X83703917Y-135939939D03*
X83703917Y-171525339D03*
X84110317Y-171525339D03*
X84252557Y-142018159D03*
X84277957Y-143389759D03*
X84516717Y-171525339D03*
X84603627Y-138489188D03*
X84694517Y-142493139D03*
X84719917Y-141146939D03*
X84745317Y-166369139D03*
X84923117Y-171525339D03*
X84999317Y-132587139D03*
X85106265Y-109673211D03*
X85329517Y-171525339D03*
X85735917Y-171525339D03*
X85740997Y-111345119D03*
X86040717Y-135939939D03*
X86066117Y-138454539D03*
X86142317Y-171525339D03*
X86548717Y-171525339D03*
X86904317Y-158444339D03*
X87788237Y-111345119D03*
X87919384Y-101105656D03*
X88072717Y-102056339D03*
X88162887Y-100413209D03*
X88529917Y-171525339D03*
X88713307Y-135838339D03*
X88849957Y-138792359D03*
X88849957Y-140189359D03*
X88849957Y-141459359D03*
X88860117Y-155675739D03*
X88936317Y-171525339D03*
X89215717Y-134187339D03*
X89342717Y-171525339D03*
X89495117Y-159587339D03*
X89749117Y-171525339D03*
X89825317Y-156158339D03*
X90155517Y-171525339D03*
X90206317Y-166394539D03*
X90373957Y-138792359D03*
X90373957Y-140189359D03*
X90373957Y-141459359D03*
X90544397Y-103892737D03*
X90561917Y-171525339D03*
X90968317Y-171525339D03*
X91120717Y-100151339D03*
X91120717Y-100659339D03*
X91120717Y-101167339D03*
X91120717Y-101675339D03*
X91120717Y-102183339D03*
X91135957Y-150730359D03*
X91135957Y-151619359D03*
X91135957Y-152508359D03*
X91374717Y-171525339D03*
X91516957Y-160255359D03*
X91623637Y-132531259D03*
X91628717Y-99643339D03*
X91628717Y-102310339D03*
X91666817Y-94286479D03*
X91770957Y-138792359D03*
X91770957Y-140189359D03*
X91770957Y-141459359D03*
X91781117Y-171525339D03*
X92024957Y-150730359D03*
X92024957Y-151619359D03*
X92024957Y-152508359D03*
X92136717Y-99643339D03*
X92136717Y-102310339D03*
X92187517Y-171525339D03*
X92593917Y-98289519D03*
X92593917Y-171525339D03*
X92644717Y-100151339D03*
X92644717Y-100659339D03*
X92644717Y-101167339D03*
X92644717Y-101675339D03*
X92644717Y-102183339D03*
X92913957Y-150730359D03*
X92913957Y-151619359D03*
X92913957Y-152508359D03*
X93000317Y-171525339D03*
X93152717Y-102310339D03*
X93208597Y-106364179D03*
X93254317Y-160552539D03*
X93264477Y-105525979D03*
X93406717Y-99516339D03*
X93406717Y-101548339D03*
X93406717Y-171525339D03*
X93813117Y-171525339D03*
X94201737Y-146681599D03*
X94219517Y-171525339D03*
X94625917Y-171525339D03*
X95032317Y-171525339D03*
X95133917Y-97687539D03*
X95413317Y-159536539D03*
X95438717Y-171525339D03*
X95563177Y-106387039D03*
X95619057Y-105470099D03*
X95719897Y-146793359D03*
X95722687Y-143100709D03*
X95784157Y-139920119D03*
X95804477Y-138947299D03*
X95845117Y-171525339D03*
X96048317Y-141832739D03*
X96073717Y-109295339D03*
X96188017Y-97187159D03*
X96251517Y-171525339D03*
X96332797Y-132447439D03*
X96335337Y-99325839D03*
X96373437Y-85035799D03*
X96403917Y-113514279D03*
X96429317Y-152754739D03*
X96444557Y-139655959D03*
X96495357Y-137268359D03*
X96520757Y-138411359D03*
X96657917Y-171525339D03*
X96962717Y-109295339D03*
X97064317Y-171525339D03*
X97188777Y-103720039D03*
X97452937Y-139239399D03*
X97470717Y-171525339D03*
X97663757Y-166463119D03*
X97699317Y-159536539D03*
X97877117Y-171525339D03*
X98029517Y-93979139D03*
X98049837Y-144888359D03*
X98077777Y-141667639D03*
X98110797Y-138421519D03*
X98275897Y-139970919D03*
X98283517Y-171525339D03*
X98562917Y-132587139D03*
X98689917Y-171525339D03*
X98934033Y-146737986D03*
X99009957Y-138487559D03*
X99037897Y-137088019D03*
X99096317Y-171525339D03*
X99502717Y-171525339D03*
X99863397Y-143350639D03*
X99909117Y-171525339D03*
X100043737Y-138441839D03*
X100234237Y-139912499D03*
X100279957Y-97029679D03*
X100300277Y-142869059D03*
X100315517Y-171525339D03*
X100366317Y-143801239D03*
X100391717Y-105739339D03*
X100391717Y-106247339D03*
X100391717Y-106755339D03*
X100424737Y-139290199D03*
X100523797Y-114720779D03*
X100592377Y-140953899D03*
X100721917Y-171525339D03*
X100831137Y-109282639D03*
X100926864Y-100949653D03*
X101026717Y-105739339D03*
X101026717Y-106247339D03*
X101026717Y-106755339D03*
X101052117Y-94639539D03*
X101128317Y-171525339D03*
X101306117Y-103265379D03*
X101534717Y-171525339D03*
X101610917Y-135635139D03*
X101712517Y-142104519D03*
X101727757Y-144611499D03*
X101872537Y-144144139D03*
X101938577Y-143598039D03*
X101941117Y-171525339D03*
X102347517Y-171525339D03*
X102428797Y-167443559D03*
X102621837Y-116036499D03*
X102662477Y-113354259D03*
X102677717Y-109295339D03*
X102695497Y-121403519D03*
X102753917Y-171525339D03*
X102962856Y-100860292D03*
X103160317Y-171525339D03*
X103566717Y-171525339D03*
X103617517Y-146074539D03*
X103744517Y-88797539D03*
X103744517Y-91261339D03*
X103973117Y-171525339D03*
X103975657Y-121340019D03*
X103998517Y-116115239D03*
X104222037Y-103031699D03*
X104303317Y-89356339D03*
X104303317Y-90575539D03*
X104379517Y-171525339D03*
X104608117Y-102335739D03*
X104755187Y-137116209D03*
X104755187Y-138005209D03*
X104755187Y-138894209D03*
X104785917Y-171525339D03*
X105192317Y-171525339D03*
X105283757Y-116059359D03*
X105334557Y-113234879D03*
X105334557Y-121324779D03*
X105598717Y-171525339D03*
X105624117Y-94230599D03*
X105624117Y-100151339D03*
X105624117Y-101878539D03*
X105626657Y-100974299D03*
X105644187Y-137116209D03*
X105644187Y-138005209D03*
X105644187Y-138894209D03*
X105679747Y-132663589D03*
X106005117Y-171525339D03*
X106309917Y-98881339D03*
X106411517Y-171525339D03*
X106533187Y-137116209D03*
X106533187Y-138005209D03*
X106533187Y-138894209D03*
X106817917Y-171525339D03*
X107224317Y-171525339D03*
X107630717Y-171525339D03*
X108037117Y-171525339D03*
X108443517Y-171525339D03*
X108484157Y-119401999D03*
X108761017Y-145254119D03*
X108849917Y-171525339D03*
X108900717Y-100151339D03*
X108900717Y-100659339D03*
X108900717Y-101167339D03*
X108900717Y-101675339D03*
X108900717Y-102183339D03*
X109256317Y-171525339D03*
X109408717Y-99643339D03*
X109408717Y-102310339D03*
X109644937Y-145259199D03*
X109662717Y-171525339D03*
X109827817Y-115282119D03*
X109916717Y-99643339D03*
X109916717Y-102310339D03*
X110069117Y-171525339D03*
X110170717Y-144194939D03*
X110424717Y-100151339D03*
X110424717Y-100659339D03*
X110424717Y-101167339D03*
X110424717Y-101675339D03*
X110424717Y-102183339D03*
X110438880Y-99545102D03*
X110450117Y-148512939D03*
X110450117Y-150189339D03*
X110475517Y-171525339D03*
X110612677Y-103143459D03*
X110805717Y-106755339D03*
X110810797Y-124278799D03*
X110856517Y-145033139D03*
X110881917Y-144194939D03*
X110881917Y-171525339D03*
X111288317Y-144575939D03*
X111288317Y-171525339D03*
X111557557Y-144103499D03*
X111694717Y-171525339D03*
X111974117Y-144017139D03*
X112101117Y-171525339D03*
X112507517Y-171525339D03*
X112913917Y-171525339D03*
X113249197Y-84868159D03*
X113320317Y-171525339D03*
X113343177Y-142345819D03*
X113579397Y-149600059D03*
X113579397Y-150593199D03*
X113726717Y-171525339D03*
X113841157Y-146156390D03*
X114133117Y-171525339D03*
X114169947Y-150099929D03*
X114260117Y-152932539D03*
X114539517Y-171525339D03*
X114755417Y-149605139D03*
X114768117Y-145490339D03*
X114798597Y-150621139D03*
X114945917Y-171525339D03*
X115352317Y-171525339D03*
X115377717Y-137479179D03*
X115617497Y-101012909D03*
X115758717Y-171525339D03*
X116110813Y-103931136D03*
X116149877Y-100312119D03*
X116165117Y-171525339D03*
X116520717Y-105993339D03*
X116520717Y-106501339D03*
X116520717Y-107009339D03*
X116520717Y-107517339D03*
X116571517Y-171525339D03*
X116749317Y-150855329D03*
X116977917Y-171525339D03*
X117028717Y-105485339D03*
X117384317Y-171525339D03*
X117536717Y-105485339D03*
X117790717Y-171525339D03*
X117856757Y-142500759D03*
X117968517Y-145807839D03*
X118044717Y-105993339D03*
X118044717Y-106501339D03*
X118044717Y-107009339D03*
X118044717Y-107517339D03*
X118197117Y-171525339D03*
X118527317Y-142569339D03*
X118603517Y-171525339D03*
X118628917Y-145820539D03*
X119009917Y-171525339D03*
X119340117Y-142594739D03*
X119340117Y-145820539D03*
X119413777Y-137479179D03*
X119416317Y-171525339D03*
X119525537Y-140771019D03*
X119553477Y-106562299D03*
X119822717Y-171525339D03*
X119863865Y-145817028D03*
X119931069Y-142600409D03*
X120229117Y-171525339D03*
X120635517Y-171525339D03*
X121041917Y-171525339D03*
X121377197Y-94454119D03*
X121448317Y-171525339D03*
X121854717Y-171525339D03*
X122261117Y-171525339D03*
X122667517Y-171525339D03*
X123073917Y-171525339D03*
X123480317Y-171525339D03*
X123632717Y-112978339D03*
X123703837Y-106422599D03*
X123843537Y-84812279D03*
X123886717Y-171525339D03*
X123899417Y-121865799D03*
X124089917Y-166394539D03*
X124178817Y-127639219D03*
X124293117Y-171525339D03*
X124699517Y-171525339D03*
X124864617Y-145718939D03*
X125105917Y-171525339D03*
X125161797Y-125510699D03*
X125215137Y-121809919D03*
X125512317Y-171525339D03*
X125918717Y-171525339D03*
X125999997Y-141710819D03*
X126561337Y-138794899D03*
X127493517Y-154202539D03*
X127899917Y-171525339D03*
X128194557Y-108363159D03*
X128194557Y-109150559D03*
X128306317Y-171525339D03*
X128636517Y-103366979D03*
X128662373Y-154257715D03*
X128687317Y-128751739D03*
X128712717Y-171525339D03*
X128952237Y-100370029D03*
X128992117Y-141502539D03*
X129027677Y-119960799D03*
X129119117Y-171525339D03*
X129525517Y-171525339D03*
X129576317Y-166394539D03*
X129782057Y-165002619D03*
X129931917Y-171525339D03*
X130149597Y-100370029D03*
X130338317Y-171525339D03*
X130541517Y-163143339D03*
X130744717Y-171525339D03*
X131036817Y-165030559D03*
X131151117Y-171525339D03*
X131532117Y-128751739D03*
X131557517Y-171525339D03*
X131588247Y-113374069D03*
X131588247Y-113849049D03*
X131588247Y-114349179D03*
X131588247Y-114849049D03*
X131588247Y-115349179D03*
X131588247Y-115849049D03*
X131588247Y-116349169D03*
X131588247Y-116849049D03*
X131588247Y-117298629D03*
X131963917Y-171525339D03*
X132004557Y-108566359D03*
X132088127Y-113374069D03*
X132088127Y-114849049D03*
X132088127Y-115349179D03*
X132088127Y-115849049D03*
X132088127Y-116349169D03*
X132088127Y-116849049D03*
X132088127Y-117298629D03*
X132309357Y-150857359D03*
X132370317Y-171525339D03*
X132588247Y-113849049D03*
X132588247Y-114349179D03*
X132588247Y-114849049D03*
X132588247Y-115349179D03*
X132588247Y-115849049D03*
X132588247Y-116349169D03*
X132588247Y-116849049D03*
X132609587Y-105518359D03*
X132715757Y-106534359D03*
X132741157Y-107474159D03*
X132776717Y-171525339D03*
X133088117Y-113849049D03*
X133088117Y-114349179D03*
X133088117Y-114849049D03*
X133088117Y-115349179D03*
X133088117Y-115849049D03*
X133088117Y-116349169D03*
X133088117Y-116849049D03*
X133183117Y-171525339D03*
X133588247Y-113849049D03*
X133588247Y-114349179D03*
X133588247Y-114849049D03*
X133588247Y-115849049D03*
X133588247Y-116349169D03*
X133588247Y-116849049D03*
X133589517Y-171525339D03*
X133614917Y-135624979D03*
X133627617Y-137999879D03*
X133757157Y-149841359D03*
X133782557Y-148774559D03*
X133861935Y-140604660D03*
X133995917Y-171525339D03*
X134088117Y-113849049D03*
X134088117Y-114349179D03*
X134088117Y-114849049D03*
X134088117Y-115349179D03*
X134088117Y-115849049D03*
X134088117Y-116349169D03*
X134088117Y-116849049D03*
X134326117Y-171525339D03*
X134549637Y-94398239D03*
X134588247Y-113849049D03*
X134588247Y-114349179D03*
X134588247Y-114849049D03*
X134588247Y-115349179D03*
X134588247Y-115849049D03*
X134588247Y-116349169D03*
X134588247Y-116849049D03*
X134681717Y-171525339D03*
X135088117Y-113849049D03*
X135088117Y-114349179D03*
X135088117Y-114849049D03*
X135088117Y-115349179D03*
X135088117Y-115849049D03*
X135088117Y-116349169D03*
X135088117Y-116849049D03*
X135088117Y-117323769D03*
X135088117Y-171525339D03*
X135189717Y-162228939D03*
X135494517Y-171525339D03*
X135549797Y-131727091D03*
X135588247Y-113849049D03*
X135588247Y-114349179D03*
X135588247Y-114849049D03*
X135588247Y-115349179D03*
X135588247Y-115849049D03*
X135588247Y-116349169D03*
X135588247Y-116849049D03*
X135605837Y-117275942D03*
X135900917Y-171525339D03*
X136068557Y-108515559D03*
X136228577Y-149937879D03*
X136256517Y-155066139D03*
X136307317Y-171525339D03*
X136457687Y-152272389D03*
X136579097Y-158642459D03*
X136622277Y-159958179D03*
X136627357Y-107550359D03*
X136713717Y-171525339D03*
X136728957Y-106559759D03*
X137120117Y-148004939D03*
X137120117Y-171525339D03*
X137287757Y-104883359D03*
X137374117Y-166369139D03*
X137526517Y-171525339D03*
X137709397Y-158845659D03*
X137709397Y-159838799D03*
X137932917Y-171525339D03*
X137973557Y-164420959D03*
X138064997Y-149592439D03*
X138222477Y-122035979D03*
X138252957Y-132188359D03*
X138299947Y-159345529D03*
X138339317Y-171525339D03*
X138466317Y-148004939D03*
X138745717Y-171525339D03*
X138885417Y-158850739D03*
X138923517Y-155091539D03*
X138928597Y-159866739D03*
X139370557Y-84868159D03*
X139497557Y-145040759D03*
X139649957Y-138284359D03*
X139649957Y-139173359D03*
X139649957Y-140062359D03*
X139817597Y-158754219D03*
X139817597Y-159754979D03*
X140272257Y-105660599D03*
X140538957Y-138284359D03*
X140538957Y-139173359D03*
X140538957Y-140062359D03*
X140742157Y-132289959D03*
X141135857Y-122035979D03*
X141417797Y-110374839D03*
X141427957Y-138284359D03*
X141427957Y-139173359D03*
X141427957Y-140062359D03*
X141427957Y-145218559D03*
X141539717Y-171525339D03*
X141562577Y-164357459D03*
X141645837Y-162720484D03*
X141946117Y-171525339D03*
X142098517Y-159104739D03*
X142174717Y-145109339D03*
X142276317Y-171525339D03*
X142657317Y-171525339D03*
X142682717Y-145109339D03*
X142809717Y-166369139D03*
X142835117Y-147776339D03*
X142844007Y-100320249D03*
X143063717Y-171525339D03*
X143256757Y-132162959D03*
X143459957Y-164954359D03*
X143470117Y-171525339D03*
X143876517Y-171525339D03*
X143993357Y-144812159D03*
X144047207Y-100320249D03*
X144282917Y-171525339D03*
X144475957Y-142094359D03*
X144689317Y-171525339D03*
X144902677Y-159313019D03*
X145009357Y-132543959D03*
X145095717Y-171525339D03*
X145502117Y-171525339D03*
X145806917Y-140638939D03*
X145908517Y-171525339D03*
X146015197Y-121195239D03*
X146314917Y-171525339D03*
X146335382Y-162787463D03*
X146378417Y-103311099D03*
X146568667Y-164116159D03*
X146721317Y-171525339D03*
X146873717Y-145998339D03*
X146899117Y-143915539D03*
X146939757Y-94062959D03*
X146978367Y-162633049D03*
X147000717Y-148030339D03*
X147102317Y-137463939D03*
X147127717Y-171525339D03*
X147473157Y-132467759D03*
X147534117Y-171525339D03*
X147889717Y-159384139D03*
X147904957Y-150069959D03*
X147940517Y-171525339D03*
X148031957Y-151187559D03*
X148169117Y-140232539D03*
X148331677Y-147146419D03*
X148346917Y-171525339D03*
X148369777Y-106450539D03*
X148463757Y-164827359D03*
X148753317Y-171525339D03*
X149083517Y-137641739D03*
X149083517Y-139013339D03*
X149159717Y-171525339D03*
X149507697Y-159452719D03*
X149566117Y-171525339D03*
X149642317Y-154151739D03*
X149972517Y-171525339D03*
X150013157Y-132645559D03*
X150251917Y-166419939D03*
X150378917Y-171525339D03*
X150556717Y-153288139D03*
X150556717Y-155370939D03*
X150785317Y-171525339D03*
X150973277Y-163133179D03*
X151191717Y-171525339D03*
X151598117Y-171525339D03*
X151704797Y-154273659D03*
X151704797Y-155266799D03*
X152004517Y-171525339D03*
X152291537Y-103369519D03*
X152295347Y-154773529D03*
X152347417Y-130049679D03*
X152542997Y-147961759D03*
X152880817Y-154278739D03*
X152923997Y-155294739D03*
X153960317Y-171525339D03*
X154366717Y-171525339D03*
X154646117Y-159917539D03*
X154686757Y-156064359D03*
X154773117Y-171525339D03*
X154953457Y-84362699D03*
X155179517Y-171525339D03*
X155585917Y-171525339D03*
X155662117Y-166419939D03*
X155712917Y-150722739D03*
X155789117Y-152957939D03*
X155789117Y-154456539D03*
X155992317Y-171525339D03*
X156398717Y-171525339D03*
X156805117Y-171525339D03*
X156839657Y-100385529D03*
X157211517Y-171525339D03*
X157617917Y-171525339D03*
X158024317Y-171525339D03*
X158072827Y-100385529D03*
X158430717Y-103593039D03*
X158430717Y-171525339D03*
X158458657Y-108302199D03*
X158837117Y-171525339D03*
X159243517Y-171525339D03*
X159649917Y-171525339D03*
X160028377Y-118561259D03*
X160081717Y-171525339D03*
X160107117Y-160095339D03*
X160168077Y-94062959D03*
X160488117Y-171525339D03*
X160894517Y-171525339D03*
X161300917Y-171525339D03*
X161605717Y-147522339D03*
X161707317Y-171525339D03*
X161808917Y-143890139D03*
X162113717Y-171525339D03*
X162520117Y-170712539D03*
X162520117Y-171118939D03*
X162520117Y-171525339D03*
X162545517Y-163854539D03*
X162545517Y-164260939D03*
X162545517Y-164667339D03*
X162545517Y-165073739D03*
X162545517Y-165480139D03*
X162545517Y-165886539D03*
X162545517Y-166292939D03*
X162545517Y-166699339D03*
X162545517Y-167105739D03*
D12*
X52112157Y-90142469D03*
X52528977Y-88867899D03*
X52528977Y-91411199D03*
X53286147Y-92108939D03*
X53297827Y-88169909D03*
X54331357Y-87890759D03*
X54407557Y-92411959D03*
X54988707Y-135322969D03*
X55001407Y-134713119D03*
X55052717Y-128345339D03*
X55052717Y-128980339D03*
X55474357Y-92132559D03*
X55525157Y-88195559D03*
X56261757Y-88855959D03*
X56261757Y-91446759D03*
X57084717Y-139394339D03*
X58354717Y-139902339D03*
X59083187Y-136355989D03*
X59116717Y-127456339D03*
X59315347Y-138179709D03*
X60972697Y-159975959D03*
X61033397Y-127341019D03*
X61734697Y-159975959D03*
X62503557Y-98771099D03*
X62504057Y-99420839D03*
X62586357Y-159975959D03*
X62766697Y-143872359D03*
X62888617Y-141538099D03*
X63307717Y-134695339D03*
X63307717Y-135330339D03*
X63322957Y-45381319D03*
X63322957Y-45889319D03*
X63348357Y-159975959D03*
X63370173Y-140000779D03*
X63561717Y-128345339D03*
X63561717Y-128980339D03*
X64516757Y-156877159D03*
X64516757Y-157588359D03*
X64562743Y-107052700D03*
X65085717Y-141680339D03*
X65197743Y-107052700D03*
X65723175Y-110987709D03*
X66048627Y-90142469D03*
X66355717Y-127202339D03*
X66465447Y-88867899D03*
X66465447Y-91411199D03*
X66736717Y-99516339D03*
X66863717Y-127202339D03*
X66993175Y-110987709D03*
X67222617Y-92108939D03*
X67234307Y-88169909D03*
X67591177Y-130366419D03*
X67897497Y-140791339D03*
X67958457Y-101537419D03*
X67958457Y-102248619D03*
X68006717Y-99516339D03*
X68006717Y-107009339D03*
X68006717Y-107644339D03*
X68241417Y-135965339D03*
X68267827Y-87890759D03*
X68344027Y-92411959D03*
X68514717Y-93674339D03*
X68891397Y-130355749D03*
X69066726Y-99536131D03*
X69149717Y-139267339D03*
X69410827Y-92132559D03*
X69461627Y-88195559D03*
X69541387Y-133171339D03*
X69911717Y-111454339D03*
X70198227Y-88855959D03*
X70198227Y-91446759D03*
X70229217Y-160857339D03*
X70612757Y-139310009D03*
X70927717Y-155142339D03*
X70927717Y-155777339D03*
X71119737Y-142121029D03*
X71145137Y-142856609D03*
X72324717Y-103961339D03*
X72959717Y-126567339D03*
X72959717Y-127202339D03*
X73062183Y-105096538D03*
X73062693Y-105746268D03*
X73213717Y-129615339D03*
X73213717Y-130123339D03*
X73650087Y-145203829D03*
X73807567Y-135265569D03*
X73820267Y-134655719D03*
X73975717Y-104342339D03*
X74229717Y-160603339D03*
X74419457Y-148656959D03*
X75245717Y-93658339D03*
X75337157Y-147504559D03*
X75631797Y-136083199D03*
X75753717Y-103707339D03*
X76073757Y-147504559D03*
X76261717Y-130250339D03*
X76261717Y-130885339D03*
X76435957Y-98744179D03*
X76436467Y-99393909D03*
X76810357Y-147453759D03*
X77292957Y-45381319D03*
X77292957Y-45889319D03*
X77467967Y-148099429D03*
X77586577Y-132379619D03*
X78668617Y-145891409D03*
X78671667Y-108566359D03*
X78694017Y-146563739D03*
X79467707Y-145853309D03*
X79467707Y-146551039D03*
X79736437Y-104645869D03*
X79884267Y-144099689D03*
X79909667Y-144835269D03*
X80041747Y-90142469D03*
X80493357Y-133051959D03*
X80626707Y-119081959D03*
X81215737Y-92108939D03*
X81227417Y-88169909D03*
X81240117Y-132841139D03*
X81468717Y-128726339D03*
X81471767Y-152641959D03*
X81482177Y-152082909D03*
X81494877Y-140638179D03*
X81756247Y-136648089D03*
X81768947Y-136038239D03*
X82103717Y-128726339D03*
X82257637Y-140764419D03*
X82260947Y-87890759D03*
X82337147Y-92411959D03*
X83057737Y-102802849D03*
X83399117Y-156234539D03*
X83403947Y-92132559D03*
X83454747Y-88195559D03*
X84135717Y-132663339D03*
X84191347Y-88855959D03*
X84191347Y-91446759D03*
X84289367Y-104674040D03*
X84897717Y-108914339D03*
X85852757Y-132385459D03*
X85925657Y-123658279D03*
X86944957Y-137141359D03*
X86944957Y-137903359D03*
X87021157Y-132289959D03*
X87452957Y-143110359D03*
X89110870Y-105370149D03*
X89130191Y-104635936D03*
X89564923Y-104252728D03*
X89577803Y-104983721D03*
X90231717Y-135076339D03*
X90411037Y-98829269D03*
X90411547Y-99478999D03*
X91262957Y-45381319D03*
X91262957Y-45889319D03*
X91908367Y-105256989D03*
X94022157Y-90142469D03*
X94265237Y-136947049D03*
X94438977Y-88867899D03*
X94438977Y-91411199D03*
X94448367Y-102395179D03*
X94448367Y-105256989D03*
X94945957Y-146412359D03*
X95196147Y-92108939D03*
X95207827Y-88169909D03*
X95946717Y-95706339D03*
X95946717Y-96341339D03*
X96241357Y-87890759D03*
X96317557Y-92411959D03*
X96321117Y-160459069D03*
X96835717Y-104476959D03*
X96988367Y-102564339D03*
X96988367Y-108507689D03*
X97384357Y-92132559D03*
X97435157Y-88195559D03*
X98171757Y-88855959D03*
X98171757Y-91446759D03*
X98232717Y-156158339D03*
X98994717Y-156158339D03*
X101041957Y-150349359D03*
X102057957Y-150349359D03*
X102068367Y-122470569D03*
X102446577Y-94332199D03*
X103302557Y-122485559D03*
X103961937Y-108907479D03*
X104608367Y-122576749D03*
X104982767Y-98807929D03*
X104983277Y-99457669D03*
X105232957Y-45381319D03*
X105232957Y-45889319D03*
X105240067Y-110792919D03*
X105250737Y-110089849D03*
X105273347Y-111890709D03*
X105852717Y-97611339D03*
X107029497Y-108255459D03*
X107029497Y-111187129D03*
X107148117Y-105180539D03*
X107838997Y-109504129D03*
X107992157Y-90142219D03*
X108408977Y-88867639D03*
X108408977Y-91410949D03*
X109166147Y-92108679D03*
X109177827Y-88169649D03*
X109426497Y-110080449D03*
X109618267Y-108216089D03*
X110043717Y-151459339D03*
X110043717Y-152348339D03*
X110170717Y-146633339D03*
X110170717Y-147395339D03*
X110211357Y-87890509D03*
X110287557Y-92411709D03*
X111354357Y-92132309D03*
X111405157Y-88195309D03*
X112141757Y-88855709D03*
X112141757Y-91446509D03*
X113458997Y-121164759D03*
X114728997Y-121190159D03*
X114768367Y-102919689D03*
X114768367Y-105129989D03*
X114954557Y-152941179D03*
X115123717Y-109549339D03*
X115453917Y-147395339D03*
X115631717Y-109549339D03*
X115998997Y-121164759D03*
X116408957Y-141586359D03*
X117268997Y-126542959D03*
X117308367Y-102919689D03*
X118404127Y-98850609D03*
X118404637Y-99500339D03*
X119202957Y-45381319D03*
X119202957Y-45889319D03*
X119329957Y-147842629D03*
X120203717Y-112724339D03*
X121485657Y-107263339D03*
X121590807Y-139745879D03*
X121962157Y-90142219D03*
X122336557Y-139735209D03*
X122378977Y-88867639D03*
X122378977Y-91410949D03*
X123136147Y-92108679D03*
X123147827Y-88169649D03*
X124181357Y-87890509D03*
X124257557Y-92411709D03*
X125324357Y-92132309D03*
X125375157Y-88195309D03*
X126111757Y-88855709D03*
X126111757Y-91446509D03*
X126299717Y-118947339D03*
X126299717Y-119709339D03*
X128153917Y-148843139D03*
X128153917Y-150087739D03*
X128280917Y-146150739D03*
X128493007Y-127297839D03*
X128498337Y-126669449D03*
X129035547Y-105159709D03*
X129036057Y-105809439D03*
X129089657Y-163139279D03*
X131940606Y-148291540D03*
X132001270Y-147599962D03*
X132268717Y-143966339D03*
X132314947Y-98829269D03*
X132315457Y-99478999D03*
X133172957Y-45381319D03*
X133172957Y-45889319D03*
X133808977Y-146538339D03*
X134562337Y-108566359D03*
X134619487Y-156920339D03*
X134619487Y-157809339D03*
X134900157Y-150552559D03*
X135345677Y-106534359D03*
X135900917Y-144804539D03*
X135924797Y-90142219D03*
X135932157Y-90142219D03*
X136341607Y-88867639D03*
X136341607Y-91410949D03*
X136348977Y-88867639D03*
X136348977Y-91410949D03*
X136494517Y-119040049D03*
X137098777Y-92108679D03*
X137110467Y-88169649D03*
X137117827Y-88169649D03*
X138143987Y-87890509D03*
X138220187Y-92411709D03*
X138553697Y-163078319D03*
X139286987Y-92132309D03*
X139337787Y-88195309D03*
X139572487Y-103569929D03*
X140074387Y-88855709D03*
X140074387Y-91446509D03*
X140350997Y-106940759D03*
X141666717Y-135965339D03*
X141717517Y-149249539D03*
X141717517Y-149782939D03*
X141742917Y-150316339D03*
X142174717Y-135965339D03*
X142428717Y-156666339D03*
X142428717Y-157555339D03*
X143078957Y-136633359D03*
X143078957Y-137395359D03*
X144602957Y-140443359D03*
X144983957Y-149714359D03*
X144983957Y-150349359D03*
X145222717Y-138124339D03*
X145222717Y-139013339D03*
X146311617Y-98807679D03*
X146312127Y-99457409D03*
X147142957Y-45381319D03*
X147142957Y-45889319D03*
X148405587Y-162548729D03*
X148778717Y-157428339D03*
X148778717Y-158190339D03*
X148859784Y-151126220D03*
X148859784Y-151761220D03*
X149916127Y-90142219D03*
X150292557Y-91446759D03*
X150332947Y-88867639D03*
X150556717Y-130885339D03*
X151054557Y-92157959D03*
X151101797Y-88169649D03*
X152135327Y-87890509D03*
X152197557Y-92488159D03*
X153289757Y-92208759D03*
X153329127Y-88195309D03*
X154065727Y-88855709D03*
X154077157Y-91472159D03*
X155712917Y-151746359D03*
X158696657Y-149693279D03*
X158799777Y-151193399D03*
X159512247Y-98796759D03*
X159512757Y-99446489D03*
X161138357Y-45406719D03*
X161138357Y-45914719D03*
X161986717Y-142442339D03*
X162014147Y-146025769D03*
D13*
%TO.C,ANT1*%
X51867557Y-27169519D03*
X51867557Y-28419199D03*
X51867557Y-29668879D03*
X51867557Y-30918559D03*
X51867557Y-32168239D03*
X51867557Y-33417919D03*
X51867557Y-34667599D03*
X51867557Y-35917279D03*
X51867557Y-37166959D03*
X51867557Y-38416639D03*
X51867557Y-39666319D03*
%TO.C,ANT2*%
X51867557Y-41139519D03*
X51867557Y-42389199D03*
X51867557Y-43638879D03*
X51867557Y-44888559D03*
X51867557Y-46138239D03*
X51867557Y-47387919D03*
X51867557Y-48637599D03*
X51867557Y-49887279D03*
X51867557Y-51136959D03*
X51867557Y-52386639D03*
X51867557Y-53636319D03*
%TO.C,ANT3*%
X51867557Y-55109519D03*
X51867557Y-56359199D03*
X51867557Y-57608879D03*
X51867557Y-58858559D03*
X51867557Y-60108239D03*
X51867557Y-61357919D03*
X51867557Y-62607599D03*
X51867557Y-63857279D03*
X51867557Y-65106959D03*
X51867557Y-66356639D03*
X51867557Y-67606319D03*
%TO.C,ANT4*%
X51867557Y-69079519D03*
X51867557Y-70329199D03*
X51867557Y-71578879D03*
X51867557Y-72828559D03*
X51867557Y-74078239D03*
X51867557Y-75327919D03*
X51867557Y-76577599D03*
X51867557Y-77827279D03*
X51867557Y-79076959D03*
X51867557Y-80326639D03*
X51867557Y-81576319D03*
%TO.C,ANT1*%
X53117237Y-27169519D03*
X53117237Y-39666319D03*
%TO.C,ANT2*%
X53117237Y-41139519D03*
X53117237Y-53636319D03*
%TO.C,ANT3*%
X53117237Y-55109519D03*
X53117237Y-67606319D03*
%TO.C,ANT4*%
X53117237Y-69079519D03*
X53117237Y-81576319D03*
%TO.C,ANT1*%
X55616597Y-27169519D03*
X55616597Y-39666319D03*
%TO.C,ANT2*%
X55616597Y-41139519D03*
X55616597Y-53636319D03*
%TO.C,ANT3*%
X55616597Y-55109519D03*
X55616597Y-67606319D03*
%TO.C,ANT4*%
X55616597Y-69079519D03*
X55616597Y-81576319D03*
%TO.C,ANT1*%
X56866277Y-27169519D03*
X56866277Y-39666319D03*
%TO.C,ANT2*%
X56866277Y-41139519D03*
X56866277Y-53636319D03*
%TO.C,ANT3*%
X56866277Y-55109519D03*
X56866277Y-67606319D03*
%TO.C,ANT4*%
X56866277Y-69079519D03*
X56866277Y-81576319D03*
%TO.C,ANT1*%
X58115957Y-27169519D03*
X58115957Y-31652619D03*
X58115957Y-39666319D03*
%TO.C,ANT2*%
X58115957Y-41139519D03*
X58115957Y-45622619D03*
X58115957Y-53636319D03*
%TO.C,ANT3*%
X58115957Y-55109519D03*
X58115957Y-59592619D03*
X58115957Y-67606319D03*
%TO.C,ANT4*%
X58115957Y-69079519D03*
X58115957Y-73562619D03*
X58115957Y-81576319D03*
%TO.C,ANT1*%
X59365637Y-27169519D03*
X59365637Y-39666319D03*
%TO.C,ANT2*%
X59365637Y-41139519D03*
X59365637Y-53636319D03*
%TO.C,ANT3*%
X59365637Y-55109519D03*
X59365637Y-67606319D03*
%TO.C,ANT4*%
X59365637Y-69079519D03*
X59365637Y-81576319D03*
%TO.C,ANT1*%
X60615317Y-27169519D03*
X60615317Y-39666319D03*
%TO.C,ANT2*%
X60615317Y-41139519D03*
X60615317Y-53636319D03*
%TO.C,ANT3*%
X60615317Y-55109519D03*
X60615317Y-67606319D03*
%TO.C,ANT4*%
X60615317Y-69079519D03*
X60615317Y-81576319D03*
%TO.C,ANT1*%
X63114677Y-27169519D03*
X63114677Y-39666319D03*
%TO.C,ANT2*%
X63114677Y-41139519D03*
X63114677Y-53636319D03*
%TO.C,ANT3*%
X63114677Y-55109519D03*
X63114677Y-67606319D03*
%TO.C,ANT4*%
X63114677Y-69079519D03*
X63114677Y-81576319D03*
%TO.C,ANT1*%
X64364357Y-27169519D03*
X64364357Y-28419199D03*
X64364357Y-29668879D03*
X64364357Y-30918559D03*
X64364357Y-32168239D03*
X64364357Y-33417919D03*
X64364357Y-34667599D03*
X64364357Y-35917279D03*
X64364357Y-37166959D03*
X64364357Y-38416639D03*
X64364357Y-39666319D03*
%TO.C,ANT2*%
X64364357Y-41139519D03*
X64364357Y-42389199D03*
X64364357Y-43638879D03*
X64364357Y-44888559D03*
X64364357Y-46138239D03*
X64364357Y-47387919D03*
X64364357Y-48637599D03*
X64364357Y-49887279D03*
X64364357Y-51136959D03*
X64364357Y-52386639D03*
X64364357Y-53636319D03*
%TO.C,ANT3*%
X64364357Y-55109519D03*
X64364357Y-56359199D03*
X64364357Y-57608879D03*
X64364357Y-58858559D03*
X64364357Y-60108239D03*
X64364357Y-61357919D03*
X64364357Y-62607599D03*
X64364357Y-63857279D03*
X64364357Y-65106959D03*
X64364357Y-66356639D03*
X64364357Y-67606319D03*
%TO.C,ANT4*%
X64364357Y-69079519D03*
X64364357Y-70329199D03*
X64364357Y-71578879D03*
X64364357Y-72828559D03*
X64364357Y-74078239D03*
X64364357Y-75327919D03*
X64364357Y-76577599D03*
X64364357Y-77827279D03*
X64364357Y-79076959D03*
X64364357Y-80326639D03*
X64364357Y-81576319D03*
%TO.C,ANT5*%
X65837557Y-27169519D03*
X65837557Y-28419199D03*
X65837557Y-29668879D03*
X65837557Y-30918559D03*
X65837557Y-32168239D03*
X65837557Y-33417919D03*
X65837557Y-34667599D03*
X65837557Y-35917279D03*
X65837557Y-37166959D03*
X65837557Y-38416639D03*
X65837557Y-39666319D03*
%TO.C,ANT6*%
X65837557Y-41139519D03*
X65837557Y-42389199D03*
X65837557Y-43638879D03*
X65837557Y-44888559D03*
X65837557Y-46138239D03*
X65837557Y-47387919D03*
X65837557Y-48637599D03*
X65837557Y-49887279D03*
X65837557Y-51136959D03*
X65837557Y-52386639D03*
X65837557Y-53636319D03*
%TO.C,ANT7*%
X65837557Y-55109519D03*
X65837557Y-56359199D03*
X65837557Y-57608879D03*
X65837557Y-58858559D03*
X65837557Y-60108239D03*
X65837557Y-61357919D03*
X65837557Y-62607599D03*
X65837557Y-63857279D03*
X65837557Y-65106959D03*
X65837557Y-66356639D03*
X65837557Y-67606319D03*
%TO.C,ANT8*%
X65837557Y-69079519D03*
X65837557Y-70329199D03*
X65837557Y-71578879D03*
X65837557Y-72828559D03*
X65837557Y-74078239D03*
X65837557Y-75327919D03*
X65837557Y-76577599D03*
X65837557Y-77827279D03*
X65837557Y-79076959D03*
X65837557Y-80326639D03*
X65837557Y-81576319D03*
%TO.C,ANT5*%
X67087237Y-27169519D03*
X67087237Y-39666319D03*
%TO.C,ANT6*%
X67087237Y-41139519D03*
X67087237Y-53636319D03*
%TO.C,ANT7*%
X67087237Y-55109519D03*
X67087237Y-67606319D03*
%TO.C,ANT8*%
X67087237Y-69079519D03*
X67087237Y-81576319D03*
%TO.C,ANT5*%
X69586597Y-27169519D03*
X69586597Y-39666319D03*
%TO.C,ANT6*%
X69586597Y-41139519D03*
X69586597Y-53636319D03*
%TO.C,ANT7*%
X69586597Y-55109519D03*
X69586597Y-67606319D03*
%TO.C,ANT8*%
X69586597Y-69079519D03*
X69586597Y-81576319D03*
%TO.C,ANT5*%
X70836277Y-27169519D03*
X70836277Y-39666319D03*
%TO.C,ANT6*%
X70836277Y-41139519D03*
X70836277Y-53636319D03*
%TO.C,ANT7*%
X70836277Y-55109519D03*
X70836277Y-67606319D03*
%TO.C,ANT8*%
X70836277Y-69079519D03*
X70836277Y-81576319D03*
%TO.C,ANT5*%
X72085957Y-27169519D03*
X72085957Y-31652619D03*
X72085957Y-39666319D03*
%TO.C,ANT6*%
X72085957Y-41139519D03*
X72085957Y-45622619D03*
X72085957Y-53636319D03*
%TO.C,ANT7*%
X72085957Y-55109519D03*
X72085957Y-59592619D03*
X72085957Y-67606319D03*
%TO.C,ANT8*%
X72085957Y-69079519D03*
X72085957Y-73562619D03*
X72085957Y-81576319D03*
%TO.C,ANT5*%
X73335637Y-27169519D03*
X73335637Y-39666319D03*
%TO.C,ANT6*%
X73335637Y-41139519D03*
X73335637Y-53636319D03*
%TO.C,ANT7*%
X73335637Y-55109519D03*
X73335637Y-67606319D03*
%TO.C,ANT8*%
X73335637Y-69079519D03*
X73335637Y-81576319D03*
%TO.C,ANT5*%
X74585317Y-27169519D03*
X74585317Y-39666319D03*
%TO.C,ANT6*%
X74585317Y-41139519D03*
X74585317Y-53636319D03*
%TO.C,ANT7*%
X74585317Y-55109519D03*
X74585317Y-67606319D03*
%TO.C,ANT8*%
X74585317Y-69079519D03*
X74585317Y-81576319D03*
%TO.C,ANT5*%
X77084677Y-27169519D03*
X77084677Y-39666319D03*
%TO.C,ANT6*%
X77084677Y-41139519D03*
X77084677Y-53636319D03*
%TO.C,ANT7*%
X77084677Y-55109519D03*
X77084677Y-67606319D03*
%TO.C,ANT8*%
X77084677Y-69079519D03*
X77084677Y-81576319D03*
%TO.C,ANT5*%
X78334357Y-27169519D03*
X78334357Y-28419199D03*
X78334357Y-29668879D03*
X78334357Y-30918559D03*
X78334357Y-32168239D03*
X78334357Y-33417919D03*
X78334357Y-34667599D03*
X78334357Y-35917279D03*
X78334357Y-37166959D03*
X78334357Y-38416639D03*
X78334357Y-39666319D03*
%TO.C,ANT6*%
X78334357Y-41139519D03*
X78334357Y-42389199D03*
X78334357Y-43638879D03*
X78334357Y-44888559D03*
X78334357Y-46138239D03*
X78334357Y-47387919D03*
X78334357Y-48637599D03*
X78334357Y-49887279D03*
X78334357Y-51136959D03*
X78334357Y-52386639D03*
X78334357Y-53636319D03*
%TO.C,ANT7*%
X78334357Y-55109519D03*
X78334357Y-56359199D03*
X78334357Y-57608879D03*
X78334357Y-58858559D03*
X78334357Y-60108239D03*
X78334357Y-61357919D03*
X78334357Y-62607599D03*
X78334357Y-63857279D03*
X78334357Y-65106959D03*
X78334357Y-66356639D03*
X78334357Y-67606319D03*
%TO.C,ANT8*%
X78334357Y-69079519D03*
X78334357Y-70329199D03*
X78334357Y-71578879D03*
X78334357Y-72828559D03*
X78334357Y-74078239D03*
X78334357Y-75327919D03*
X78334357Y-76577599D03*
X78334357Y-77827279D03*
X78334357Y-79076959D03*
X78334357Y-80326639D03*
X78334357Y-81576319D03*
%TO.C,ANT9*%
X79807557Y-27169519D03*
X79807557Y-28419199D03*
X79807557Y-29668879D03*
X79807557Y-30918559D03*
X79807557Y-32168239D03*
X79807557Y-33417919D03*
X79807557Y-34667599D03*
X79807557Y-35917279D03*
X79807557Y-37166959D03*
X79807557Y-38416639D03*
X79807557Y-39666319D03*
%TO.C,ANT10*%
X79807557Y-41139519D03*
X79807557Y-42389199D03*
X79807557Y-43638879D03*
X79807557Y-44888559D03*
X79807557Y-46138239D03*
X79807557Y-47387919D03*
X79807557Y-48637599D03*
X79807557Y-49887279D03*
X79807557Y-51136959D03*
X79807557Y-52386639D03*
X79807557Y-53636319D03*
%TO.C,ANT11*%
X79807557Y-55109519D03*
X79807557Y-56359199D03*
X79807557Y-57608879D03*
X79807557Y-58858559D03*
X79807557Y-60108239D03*
X79807557Y-61357919D03*
X79807557Y-62607599D03*
X79807557Y-63857279D03*
X79807557Y-65106959D03*
X79807557Y-66356639D03*
X79807557Y-67606319D03*
%TO.C,ANT12*%
X79807557Y-69079519D03*
X79807557Y-70329199D03*
X79807557Y-71578879D03*
X79807557Y-72828559D03*
X79807557Y-74078239D03*
X79807557Y-75327919D03*
X79807557Y-76577599D03*
X79807557Y-77827279D03*
X79807557Y-79076959D03*
X79807557Y-80326639D03*
X79807557Y-81576319D03*
%TO.C,ANT9*%
X81057237Y-27169519D03*
X81057237Y-39666319D03*
%TO.C,ANT10*%
X81057237Y-41139519D03*
X81057237Y-53636319D03*
%TO.C,ANT11*%
X81057237Y-55109519D03*
X81057237Y-67606319D03*
%TO.C,ANT12*%
X81057237Y-69079519D03*
X81057237Y-81576319D03*
%TO.C,ANT9*%
X83556597Y-27169519D03*
X83556597Y-39666319D03*
%TO.C,ANT10*%
X83556597Y-41139519D03*
X83556597Y-53636319D03*
%TO.C,ANT11*%
X83556597Y-55109519D03*
X83556597Y-67606319D03*
%TO.C,ANT12*%
X83556597Y-69079519D03*
X83556597Y-81576319D03*
%TO.C,ANT9*%
X84806277Y-27169519D03*
X84806277Y-39666319D03*
%TO.C,ANT10*%
X84806277Y-41139519D03*
X84806277Y-53636319D03*
%TO.C,ANT11*%
X84806277Y-55109519D03*
X84806277Y-67606319D03*
%TO.C,ANT12*%
X84806277Y-69079519D03*
X84806277Y-81576319D03*
%TO.C,ANT9*%
X86055957Y-27169519D03*
X86055957Y-31652619D03*
X86055957Y-39666319D03*
%TO.C,ANT10*%
X86055957Y-41139519D03*
X86055957Y-45622619D03*
X86055957Y-53636319D03*
%TO.C,ANT11*%
X86055957Y-55109519D03*
X86055957Y-59592619D03*
X86055957Y-67606319D03*
%TO.C,ANT12*%
X86055957Y-69079519D03*
X86055957Y-73562619D03*
X86055957Y-81576319D03*
%TO.C,ANT9*%
X87305637Y-27169519D03*
X87305637Y-39666319D03*
%TO.C,ANT10*%
X87305637Y-41139519D03*
X87305637Y-53636319D03*
%TO.C,ANT11*%
X87305637Y-55109519D03*
X87305637Y-67606319D03*
%TO.C,ANT12*%
X87305637Y-69079519D03*
X87305637Y-81576319D03*
%TO.C,ANT9*%
X88555317Y-27169519D03*
X88555317Y-39666319D03*
%TO.C,ANT10*%
X88555317Y-41139519D03*
X88555317Y-53636319D03*
%TO.C,ANT11*%
X88555317Y-55109519D03*
X88555317Y-67606319D03*
%TO.C,ANT12*%
X88555317Y-69079519D03*
X88555317Y-81576319D03*
%TO.C,ANT9*%
X91054677Y-27169519D03*
X91054677Y-39666319D03*
%TO.C,ANT10*%
X91054677Y-41139519D03*
X91054677Y-53636319D03*
%TO.C,ANT11*%
X91054677Y-55109519D03*
X91054677Y-67606319D03*
%TO.C,ANT12*%
X91054677Y-69079519D03*
X91054677Y-81576319D03*
%TO.C,ANT9*%
X92304357Y-27169519D03*
X92304357Y-28419199D03*
X92304357Y-29668879D03*
X92304357Y-30918559D03*
X92304357Y-32168239D03*
X92304357Y-33417919D03*
X92304357Y-34667599D03*
X92304357Y-35917279D03*
X92304357Y-37166959D03*
X92304357Y-38416639D03*
X92304357Y-39666319D03*
%TO.C,ANT10*%
X92304357Y-41139519D03*
X92304357Y-42389199D03*
X92304357Y-43638879D03*
X92304357Y-44888559D03*
X92304357Y-46138239D03*
X92304357Y-47387919D03*
X92304357Y-48637599D03*
X92304357Y-49887279D03*
X92304357Y-51136959D03*
X92304357Y-52386639D03*
X92304357Y-53636319D03*
%TO.C,ANT11*%
X92304357Y-55109519D03*
X92304357Y-56359199D03*
X92304357Y-57608879D03*
X92304357Y-58858559D03*
X92304357Y-60108239D03*
X92304357Y-61357919D03*
X92304357Y-62607599D03*
X92304357Y-63857279D03*
X92304357Y-65106959D03*
X92304357Y-66356639D03*
X92304357Y-67606319D03*
%TO.C,ANT12*%
X92304357Y-69079519D03*
X92304357Y-70329199D03*
X92304357Y-71578879D03*
X92304357Y-72828559D03*
X92304357Y-74078239D03*
X92304357Y-75327919D03*
X92304357Y-76577599D03*
X92304357Y-77827279D03*
X92304357Y-79076959D03*
X92304357Y-80326639D03*
X92304357Y-81576319D03*
%TO.C,ANT13*%
X93777557Y-27169519D03*
X93777557Y-28419199D03*
X93777557Y-29668879D03*
X93777557Y-30918559D03*
X93777557Y-32168239D03*
X93777557Y-33417919D03*
X93777557Y-34667599D03*
X93777557Y-35917279D03*
X93777557Y-37166959D03*
X93777557Y-38416639D03*
X93777557Y-39666319D03*
%TO.C,ANT14*%
X93777557Y-41139519D03*
X93777557Y-42389199D03*
X93777557Y-43638879D03*
X93777557Y-44888559D03*
X93777557Y-46138239D03*
X93777557Y-47387919D03*
X93777557Y-48637599D03*
X93777557Y-49887279D03*
X93777557Y-51136959D03*
X93777557Y-52386639D03*
X93777557Y-53636319D03*
%TO.C,ANT15*%
X93777557Y-55109519D03*
X93777557Y-56359199D03*
X93777557Y-57608879D03*
X93777557Y-58858559D03*
X93777557Y-60108239D03*
X93777557Y-61357919D03*
X93777557Y-62607599D03*
X93777557Y-63857279D03*
X93777557Y-65106959D03*
X93777557Y-66356639D03*
X93777557Y-67606319D03*
%TO.C,ANT16*%
X93777557Y-69079519D03*
X93777557Y-70329199D03*
X93777557Y-71578879D03*
X93777557Y-72828559D03*
X93777557Y-74078239D03*
X93777557Y-75327919D03*
X93777557Y-76577599D03*
X93777557Y-77827279D03*
X93777557Y-79076959D03*
X93777557Y-80326639D03*
X93777557Y-81576319D03*
%TO.C,ANT13*%
X95027237Y-27169519D03*
X95027237Y-39666319D03*
%TO.C,ANT14*%
X95027237Y-41139519D03*
X95027237Y-53636319D03*
%TO.C,ANT15*%
X95027237Y-55109519D03*
X95027237Y-67606319D03*
%TO.C,ANT16*%
X95027237Y-69079519D03*
X95027237Y-81576319D03*
%TO.C,ANT13*%
X97526597Y-27169519D03*
X97526597Y-39666319D03*
%TO.C,ANT14*%
X97526597Y-41139519D03*
X97526597Y-53636319D03*
%TO.C,ANT15*%
X97526597Y-55109519D03*
X97526597Y-67606319D03*
%TO.C,ANT16*%
X97526597Y-69079519D03*
X97526597Y-81576319D03*
%TO.C,ANT13*%
X98776277Y-27169519D03*
X98776277Y-39666319D03*
%TO.C,ANT14*%
X98776277Y-41139519D03*
X98776277Y-53636319D03*
%TO.C,ANT15*%
X98776277Y-55109519D03*
X98776277Y-67606319D03*
%TO.C,ANT16*%
X98776277Y-69079519D03*
X98776277Y-81576319D03*
%TO.C,ANT13*%
X100025957Y-27169519D03*
X100025957Y-31652619D03*
X100025957Y-39666319D03*
%TO.C,ANT14*%
X100025957Y-41139519D03*
X100025957Y-45622619D03*
X100025957Y-53636319D03*
%TO.C,ANT15*%
X100025957Y-55109519D03*
X100025957Y-59592619D03*
X100025957Y-67606319D03*
%TO.C,ANT16*%
X100025957Y-69079519D03*
X100025957Y-73562619D03*
X100025957Y-81576319D03*
%TO.C,ANT13*%
X101275637Y-27169519D03*
X101275637Y-39666319D03*
%TO.C,ANT14*%
X101275637Y-41139519D03*
X101275637Y-53636319D03*
%TO.C,ANT15*%
X101275637Y-55109519D03*
X101275637Y-67606319D03*
%TO.C,ANT16*%
X101275637Y-69079519D03*
X101275637Y-81576319D03*
%TO.C,ANT13*%
X102525317Y-27169519D03*
X102525317Y-39666319D03*
%TO.C,ANT14*%
X102525317Y-41139519D03*
X102525317Y-53636319D03*
%TO.C,ANT15*%
X102525317Y-55109519D03*
X102525317Y-67606319D03*
%TO.C,ANT16*%
X102525317Y-69079519D03*
X102525317Y-81576319D03*
%TO.C,ANT13*%
X105024677Y-27169519D03*
X105024677Y-39666319D03*
%TO.C,ANT14*%
X105024677Y-41139519D03*
X105024677Y-53636319D03*
%TO.C,ANT15*%
X105024677Y-55109519D03*
X105024677Y-67606319D03*
%TO.C,ANT16*%
X105024677Y-69079519D03*
X105024677Y-81576319D03*
%TO.C,ANT13*%
X106274357Y-27169519D03*
X106274357Y-28419199D03*
X106274357Y-29668879D03*
X106274357Y-30918559D03*
X106274357Y-32168239D03*
X106274357Y-33417919D03*
X106274357Y-34667599D03*
X106274357Y-35917279D03*
X106274357Y-37166959D03*
X106274357Y-38416639D03*
X106274357Y-39666319D03*
%TO.C,ANT14*%
X106274357Y-41139519D03*
X106274357Y-42389199D03*
X106274357Y-43638879D03*
X106274357Y-44888559D03*
X106274357Y-46138239D03*
X106274357Y-47387919D03*
X106274357Y-48637599D03*
X106274357Y-49887279D03*
X106274357Y-51136959D03*
X106274357Y-52386639D03*
X106274357Y-53636319D03*
%TO.C,ANT15*%
X106274357Y-55109519D03*
X106274357Y-56359199D03*
X106274357Y-57608879D03*
X106274357Y-58858559D03*
X106274357Y-60108239D03*
X106274357Y-61357919D03*
X106274357Y-62607599D03*
X106274357Y-63857279D03*
X106274357Y-65106959D03*
X106274357Y-66356639D03*
X106274357Y-67606319D03*
%TO.C,ANT16*%
X106274357Y-69079519D03*
X106274357Y-70329199D03*
X106274357Y-71578879D03*
X106274357Y-72828559D03*
X106274357Y-74078239D03*
X106274357Y-75327919D03*
X106274357Y-76577599D03*
X106274357Y-77827279D03*
X106274357Y-79076959D03*
X106274357Y-80326639D03*
X106274357Y-81576319D03*
%TO.C,ANT17*%
X107747557Y-27169519D03*
X107747557Y-28419199D03*
X107747557Y-29668879D03*
X107747557Y-30918559D03*
X107747557Y-32168239D03*
X107747557Y-33417919D03*
X107747557Y-34667599D03*
X107747557Y-35917279D03*
X107747557Y-37166959D03*
X107747557Y-38416639D03*
X107747557Y-39666319D03*
%TO.C,ANT18*%
X107747557Y-41139519D03*
X107747557Y-42389199D03*
X107747557Y-43638879D03*
X107747557Y-44888559D03*
X107747557Y-46138239D03*
X107747557Y-47387919D03*
X107747557Y-48637599D03*
X107747557Y-49887279D03*
X107747557Y-51136959D03*
X107747557Y-52386639D03*
X107747557Y-53636319D03*
%TO.C,ANT19*%
X107747557Y-55109519D03*
X107747557Y-56359199D03*
X107747557Y-57608879D03*
X107747557Y-58858559D03*
X107747557Y-60108239D03*
X107747557Y-61357919D03*
X107747557Y-62607599D03*
X107747557Y-63857279D03*
X107747557Y-65106959D03*
X107747557Y-66356639D03*
X107747557Y-67606319D03*
%TO.C,ANT20*%
X107747557Y-69079519D03*
X107747557Y-70329199D03*
X107747557Y-71578879D03*
X107747557Y-72828559D03*
X107747557Y-74078239D03*
X107747557Y-75327919D03*
X107747557Y-76577599D03*
X107747557Y-77827279D03*
X107747557Y-79076959D03*
X107747557Y-80326639D03*
X107747557Y-81576319D03*
%TO.C,ANT17*%
X108997237Y-27169519D03*
X108997237Y-39666319D03*
%TO.C,ANT18*%
X108997237Y-41139519D03*
X108997237Y-53636319D03*
%TO.C,ANT19*%
X108997237Y-55109519D03*
X108997237Y-67606319D03*
%TO.C,ANT20*%
X108997237Y-69079519D03*
X108997237Y-81576319D03*
%TO.C,ANT17*%
X111496597Y-27169519D03*
X111496597Y-39666319D03*
%TO.C,ANT18*%
X111496597Y-41139519D03*
X111496597Y-53636319D03*
%TO.C,ANT19*%
X111496597Y-55109519D03*
X111496597Y-67606319D03*
%TO.C,ANT20*%
X111496597Y-69079519D03*
X111496597Y-81576319D03*
%TO.C,ANT17*%
X112746277Y-27169519D03*
X112746277Y-39666319D03*
%TO.C,ANT18*%
X112746277Y-41139519D03*
X112746277Y-53636319D03*
%TO.C,ANT19*%
X112746277Y-55109519D03*
X112746277Y-67606319D03*
%TO.C,ANT20*%
X112746277Y-69079519D03*
X112746277Y-81576319D03*
%TO.C,ANT17*%
X113995957Y-27169519D03*
X113995957Y-31652619D03*
X113995957Y-39666319D03*
%TO.C,ANT18*%
X113995957Y-41139519D03*
X113995957Y-45622619D03*
X113995957Y-53636319D03*
%TO.C,ANT19*%
X113995957Y-55109519D03*
X113995957Y-59592619D03*
X113995957Y-67606319D03*
%TO.C,ANT20*%
X113995957Y-69079519D03*
X113995957Y-73562619D03*
X113995957Y-81576319D03*
%TO.C,ANT17*%
X115245637Y-27169519D03*
X115245637Y-39666319D03*
%TO.C,ANT18*%
X115245637Y-41139519D03*
X115245637Y-53636319D03*
%TO.C,ANT19*%
X115245637Y-55109519D03*
X115245637Y-67606319D03*
%TO.C,ANT20*%
X115245637Y-69079519D03*
X115245637Y-81576319D03*
%TO.C,ANT17*%
X116495317Y-27169519D03*
X116495317Y-39666319D03*
%TO.C,ANT18*%
X116495317Y-41139519D03*
X116495317Y-53636319D03*
%TO.C,ANT19*%
X116495317Y-55109519D03*
X116495317Y-67606319D03*
%TO.C,ANT20*%
X116495317Y-69079519D03*
X116495317Y-81576319D03*
%TO.C,ANT17*%
X118994677Y-27169519D03*
X118994677Y-39666319D03*
%TO.C,ANT18*%
X118994677Y-41139519D03*
X118994677Y-53636319D03*
%TO.C,ANT19*%
X118994677Y-55109519D03*
X118994677Y-67606319D03*
%TO.C,ANT20*%
X118994677Y-69079519D03*
X118994677Y-81576319D03*
%TO.C,ANT17*%
X120244357Y-27169519D03*
X120244357Y-28419199D03*
X120244357Y-29668879D03*
X120244357Y-30918559D03*
X120244357Y-32168239D03*
X120244357Y-33417919D03*
X120244357Y-34667599D03*
X120244357Y-35917279D03*
X120244357Y-37166959D03*
X120244357Y-38416639D03*
X120244357Y-39666319D03*
%TO.C,ANT18*%
X120244357Y-41139519D03*
X120244357Y-42389199D03*
X120244357Y-43638879D03*
X120244357Y-44888559D03*
X120244357Y-46138239D03*
X120244357Y-47387919D03*
X120244357Y-48637599D03*
X120244357Y-49887279D03*
X120244357Y-51136959D03*
X120244357Y-52386639D03*
X120244357Y-53636319D03*
%TO.C,ANT19*%
X120244357Y-55109519D03*
X120244357Y-56359199D03*
X120244357Y-57608879D03*
X120244357Y-58858559D03*
X120244357Y-60108239D03*
X120244357Y-61357919D03*
X120244357Y-62607599D03*
X120244357Y-63857279D03*
X120244357Y-65106959D03*
X120244357Y-66356639D03*
X120244357Y-67606319D03*
%TO.C,ANT20*%
X120244357Y-69079519D03*
X120244357Y-70329199D03*
X120244357Y-71578879D03*
X120244357Y-72828559D03*
X120244357Y-74078239D03*
X120244357Y-75327919D03*
X120244357Y-76577599D03*
X120244357Y-77827279D03*
X120244357Y-79076959D03*
X120244357Y-80326639D03*
X120244357Y-81576319D03*
%TO.C,ANT21*%
X121717557Y-27169519D03*
X121717557Y-28419199D03*
X121717557Y-29668879D03*
X121717557Y-30918559D03*
X121717557Y-32168239D03*
X121717557Y-33417919D03*
X121717557Y-34667599D03*
X121717557Y-35917279D03*
X121717557Y-37166959D03*
X121717557Y-38416639D03*
X121717557Y-39666319D03*
%TO.C,ANT22*%
X121717557Y-41139519D03*
X121717557Y-42389199D03*
X121717557Y-43638879D03*
X121717557Y-44888559D03*
X121717557Y-46138239D03*
X121717557Y-47387919D03*
X121717557Y-48637599D03*
X121717557Y-49887279D03*
X121717557Y-51136959D03*
X121717557Y-52386639D03*
X121717557Y-53636319D03*
%TO.C,ANT23*%
X121717557Y-55109519D03*
X121717557Y-56359199D03*
X121717557Y-57608879D03*
X121717557Y-58858559D03*
X121717557Y-60108239D03*
X121717557Y-61357919D03*
X121717557Y-62607599D03*
X121717557Y-63857279D03*
X121717557Y-65106959D03*
X121717557Y-66356639D03*
X121717557Y-67606319D03*
%TO.C,ANT24*%
X121717557Y-69079519D03*
X121717557Y-70329199D03*
X121717557Y-71578879D03*
X121717557Y-72828559D03*
X121717557Y-74078239D03*
X121717557Y-75327919D03*
X121717557Y-76577599D03*
X121717557Y-77827279D03*
X121717557Y-79076959D03*
X121717557Y-80326639D03*
X121717557Y-81576319D03*
%TO.C,ANT21*%
X122967237Y-27169519D03*
X122967237Y-39666319D03*
%TO.C,ANT22*%
X122967237Y-41139519D03*
X122967237Y-53636319D03*
%TO.C,ANT23*%
X122967237Y-55109519D03*
X122967237Y-67606319D03*
%TO.C,ANT24*%
X122967237Y-69079519D03*
X122967237Y-81576319D03*
%TO.C,ANT21*%
X125466597Y-27169519D03*
X125466597Y-39666319D03*
%TO.C,ANT22*%
X125466597Y-41139519D03*
X125466597Y-53636319D03*
%TO.C,ANT23*%
X125466597Y-55109519D03*
X125466597Y-67606319D03*
%TO.C,ANT24*%
X125466597Y-69079519D03*
X125466597Y-81576319D03*
%TO.C,ANT21*%
X126716277Y-27169519D03*
X126716277Y-39666319D03*
%TO.C,ANT22*%
X126716277Y-41139519D03*
X126716277Y-53636319D03*
%TO.C,ANT23*%
X126716277Y-55109519D03*
X126716277Y-67606319D03*
%TO.C,ANT24*%
X126716277Y-69079519D03*
X126716277Y-81576319D03*
%TO.C,ANT21*%
X127965957Y-27169519D03*
X127965957Y-31652619D03*
X127965957Y-39666319D03*
%TO.C,ANT22*%
X127965957Y-41139519D03*
X127965957Y-45622619D03*
X127965957Y-53636319D03*
%TO.C,ANT23*%
X127965957Y-55109519D03*
X127965957Y-59592619D03*
X127965957Y-67606319D03*
%TO.C,ANT24*%
X127965957Y-69079519D03*
X127965957Y-73562619D03*
X127965957Y-81576319D03*
%TO.C,ANT21*%
X129215637Y-27169519D03*
X129215637Y-39666319D03*
%TO.C,ANT22*%
X129215637Y-41139519D03*
X129215637Y-53636319D03*
%TO.C,ANT23*%
X129215637Y-55109519D03*
X129215637Y-67606319D03*
%TO.C,ANT24*%
X129215637Y-69079519D03*
X129215637Y-81576319D03*
%TO.C,ANT21*%
X130465317Y-27169519D03*
X130465317Y-39666319D03*
%TO.C,ANT22*%
X130465317Y-41139519D03*
X130465317Y-53636319D03*
%TO.C,ANT23*%
X130465317Y-55109519D03*
X130465317Y-67606319D03*
%TO.C,ANT24*%
X130465317Y-69079519D03*
X130465317Y-81576319D03*
%TO.C,ANT21*%
X132964677Y-27169519D03*
X132964677Y-39666319D03*
%TO.C,ANT22*%
X132964677Y-41139519D03*
X132964677Y-53636319D03*
%TO.C,ANT23*%
X132964677Y-55109519D03*
X132964677Y-67606319D03*
%TO.C,ANT24*%
X132964677Y-69079519D03*
X132964677Y-81576319D03*
%TO.C,ANT21*%
X134214357Y-27169519D03*
X134214357Y-28419199D03*
X134214357Y-29668879D03*
X134214357Y-30918559D03*
X134214357Y-32168239D03*
X134214357Y-33417919D03*
X134214357Y-34667599D03*
X134214357Y-35917279D03*
X134214357Y-37166959D03*
X134214357Y-38416639D03*
X134214357Y-39666319D03*
%TO.C,ANT22*%
X134214357Y-41139519D03*
X134214357Y-42389199D03*
X134214357Y-43638879D03*
X134214357Y-44888559D03*
X134214357Y-46138239D03*
X134214357Y-47387919D03*
X134214357Y-48637599D03*
X134214357Y-49887279D03*
X134214357Y-51136959D03*
X134214357Y-52386639D03*
X134214357Y-53636319D03*
%TO.C,ANT23*%
X134214357Y-55109519D03*
X134214357Y-56359199D03*
X134214357Y-57608879D03*
X134214357Y-58858559D03*
X134214357Y-60108239D03*
X134214357Y-61357919D03*
X134214357Y-62607599D03*
X134214357Y-63857279D03*
X134214357Y-65106959D03*
X134214357Y-66356639D03*
X134214357Y-67606319D03*
%TO.C,ANT24*%
X134214357Y-69079519D03*
X134214357Y-70329199D03*
X134214357Y-71578879D03*
X134214357Y-72828559D03*
X134214357Y-74078239D03*
X134214357Y-75327919D03*
X134214357Y-76577599D03*
X134214357Y-77827279D03*
X134214357Y-79076959D03*
X134214357Y-80326639D03*
X134214357Y-81576319D03*
%TO.C,ANT25*%
X135687557Y-27169519D03*
X135687557Y-28419199D03*
X135687557Y-29668879D03*
X135687557Y-30918559D03*
X135687557Y-32168239D03*
X135687557Y-33417919D03*
X135687557Y-34667599D03*
X135687557Y-35917279D03*
X135687557Y-37166959D03*
X135687557Y-38416639D03*
X135687557Y-39666319D03*
%TO.C,ANT26*%
X135687557Y-41139519D03*
X135687557Y-42389199D03*
X135687557Y-43638879D03*
X135687557Y-44888559D03*
X135687557Y-46138239D03*
X135687557Y-47387919D03*
X135687557Y-48637599D03*
X135687557Y-49887279D03*
X135687557Y-51136959D03*
X135687557Y-52386639D03*
X135687557Y-53636319D03*
%TO.C,ANT27*%
X135687557Y-55109519D03*
X135687557Y-56359199D03*
X135687557Y-57608879D03*
X135687557Y-58858559D03*
X135687557Y-60108239D03*
X135687557Y-61357919D03*
X135687557Y-62607599D03*
X135687557Y-63857279D03*
X135687557Y-65106959D03*
X135687557Y-66356639D03*
X135687557Y-67606319D03*
%TO.C,ANT28*%
X135687557Y-69079519D03*
X135687557Y-70329199D03*
X135687557Y-71578879D03*
X135687557Y-72828559D03*
X135687557Y-74078239D03*
X135687557Y-75327919D03*
X135687557Y-76577599D03*
X135687557Y-77827279D03*
X135687557Y-79076959D03*
X135687557Y-80326639D03*
X135687557Y-81576319D03*
%TO.C,ANT25*%
X136937237Y-27169519D03*
X136937237Y-39666319D03*
%TO.C,ANT26*%
X136937237Y-41139519D03*
X136937237Y-53636319D03*
%TO.C,ANT27*%
X136937237Y-55109519D03*
X136937237Y-67606319D03*
%TO.C,ANT28*%
X136937237Y-69079519D03*
X136937237Y-81576319D03*
%TO.C,ANT25*%
X139436597Y-27169519D03*
X139436597Y-39666319D03*
%TO.C,ANT26*%
X139436597Y-41139519D03*
X139436597Y-53636319D03*
%TO.C,ANT27*%
X139436597Y-55109519D03*
X139436597Y-67606319D03*
%TO.C,ANT28*%
X139436597Y-69079519D03*
X139436597Y-81576319D03*
%TO.C,ANT25*%
X140686277Y-27169519D03*
X140686277Y-39666319D03*
%TO.C,ANT26*%
X140686277Y-41139519D03*
X140686277Y-53636319D03*
%TO.C,ANT27*%
X140686277Y-55109519D03*
X140686277Y-67606319D03*
%TO.C,ANT28*%
X140686277Y-69079519D03*
X140686277Y-81576319D03*
%TO.C,ANT25*%
X141935957Y-27169519D03*
X141935957Y-31652619D03*
X141935957Y-39666319D03*
%TO.C,ANT26*%
X141935957Y-41139519D03*
X141935957Y-45622619D03*
X141935957Y-53636319D03*
%TO.C,ANT27*%
X141935957Y-55109519D03*
X141935957Y-59592619D03*
X141935957Y-67606319D03*
%TO.C,ANT28*%
X141935957Y-69079519D03*
X141935957Y-73562619D03*
X141935957Y-81576319D03*
%TO.C,ANT25*%
X143185637Y-27169519D03*
X143185637Y-39666319D03*
%TO.C,ANT26*%
X143185637Y-41139519D03*
X143185637Y-53636319D03*
%TO.C,ANT27*%
X143185637Y-55109519D03*
X143185637Y-67606319D03*
%TO.C,ANT28*%
X143185637Y-69079519D03*
X143185637Y-81576319D03*
%TO.C,ANT25*%
X144435317Y-27169519D03*
X144435317Y-39666319D03*
%TO.C,ANT26*%
X144435317Y-41139519D03*
X144435317Y-53636319D03*
%TO.C,ANT27*%
X144435317Y-55109519D03*
X144435317Y-67606319D03*
%TO.C,ANT28*%
X144435317Y-69079519D03*
X144435317Y-81576319D03*
%TO.C,ANT25*%
X146934677Y-27169519D03*
X146934677Y-39666319D03*
%TO.C,ANT26*%
X146934677Y-41139519D03*
X146934677Y-53636319D03*
%TO.C,ANT27*%
X146934677Y-55109519D03*
X146934677Y-67606319D03*
%TO.C,ANT28*%
X146934677Y-69079519D03*
X146934677Y-81576319D03*
%TO.C,ANT25*%
X148184357Y-27169519D03*
X148184357Y-28419199D03*
X148184357Y-29668879D03*
X148184357Y-30918559D03*
X148184357Y-32168239D03*
X148184357Y-33417919D03*
X148184357Y-34667599D03*
X148184357Y-35917279D03*
X148184357Y-37166959D03*
X148184357Y-38416639D03*
X148184357Y-39666319D03*
%TO.C,ANT26*%
X148184357Y-41139519D03*
X148184357Y-42389199D03*
X148184357Y-43638879D03*
X148184357Y-44888559D03*
X148184357Y-46138239D03*
X148184357Y-47387919D03*
X148184357Y-48637599D03*
X148184357Y-49887279D03*
X148184357Y-51136959D03*
X148184357Y-52386639D03*
X148184357Y-53636319D03*
%TO.C,ANT27*%
X148184357Y-55109519D03*
X148184357Y-56359199D03*
X148184357Y-57608879D03*
X148184357Y-58858559D03*
X148184357Y-60108239D03*
X148184357Y-61357919D03*
X148184357Y-62607599D03*
X148184357Y-63857279D03*
X148184357Y-65106959D03*
X148184357Y-66356639D03*
X148184357Y-67606319D03*
%TO.C,ANT28*%
X148184357Y-69079519D03*
X148184357Y-70329199D03*
X148184357Y-71578879D03*
X148184357Y-72828559D03*
X148184357Y-74078239D03*
X148184357Y-75327919D03*
X148184357Y-76577599D03*
X148184357Y-77827279D03*
X148184357Y-79076959D03*
X148184357Y-80326639D03*
X148184357Y-81576319D03*
%TO.C,ANT29*%
X149657557Y-27169519D03*
X149657557Y-28419199D03*
X149657557Y-29668879D03*
X149657557Y-30918559D03*
X149657557Y-32168239D03*
X149657557Y-33417919D03*
X149657557Y-34667599D03*
X149657557Y-35917279D03*
X149657557Y-37166959D03*
X149657557Y-38416639D03*
X149657557Y-39666319D03*
%TO.C,ANT30*%
X149657557Y-41139519D03*
X149657557Y-42389199D03*
X149657557Y-43638879D03*
X149657557Y-44888559D03*
X149657557Y-46138239D03*
X149657557Y-47387919D03*
X149657557Y-48637599D03*
X149657557Y-49887279D03*
X149657557Y-51136959D03*
X149657557Y-52386639D03*
X149657557Y-53636319D03*
%TO.C,ANT31*%
X149657557Y-55109519D03*
X149657557Y-56359199D03*
X149657557Y-57608879D03*
X149657557Y-58858559D03*
X149657557Y-60108239D03*
X149657557Y-61357919D03*
X149657557Y-62607599D03*
X149657557Y-63857279D03*
X149657557Y-65106959D03*
X149657557Y-66356639D03*
X149657557Y-67606319D03*
%TO.C,ANT32*%
X149657557Y-69079519D03*
X149657557Y-70329199D03*
X149657557Y-71578879D03*
X149657557Y-72828559D03*
X149657557Y-74078239D03*
X149657557Y-75327919D03*
X149657557Y-76577599D03*
X149657557Y-77827279D03*
X149657557Y-79076959D03*
X149657557Y-80326639D03*
X149657557Y-81576319D03*
%TO.C,ANT29*%
X150907237Y-27169519D03*
X150907237Y-39666319D03*
%TO.C,ANT30*%
X150907237Y-41139519D03*
X150907237Y-53636319D03*
%TO.C,ANT31*%
X150907237Y-55109519D03*
X150907237Y-67606319D03*
%TO.C,ANT32*%
X150907237Y-69079519D03*
X150907237Y-81576319D03*
%TO.C,ANT29*%
X153406597Y-27169519D03*
X153406597Y-39666319D03*
%TO.C,ANT30*%
X153406597Y-41139519D03*
X153406597Y-53636319D03*
%TO.C,ANT31*%
X153406597Y-55109519D03*
X153406597Y-67606319D03*
%TO.C,ANT32*%
X153406597Y-69079519D03*
X153406597Y-81576319D03*
%TO.C,ANT29*%
X154656277Y-27169519D03*
X154656277Y-39666319D03*
%TO.C,ANT30*%
X154656277Y-41139519D03*
X154656277Y-53636319D03*
%TO.C,ANT31*%
X154656277Y-55109519D03*
X154656277Y-67606319D03*
%TO.C,ANT32*%
X154656277Y-69079519D03*
X154656277Y-81576319D03*
%TO.C,ANT29*%
X155905957Y-27169519D03*
X155905957Y-31652619D03*
X155905957Y-39666319D03*
%TO.C,ANT30*%
X155905957Y-41139519D03*
X155905957Y-45622619D03*
X155905957Y-53636319D03*
%TO.C,ANT31*%
X155905957Y-55109519D03*
X155905957Y-59592619D03*
X155905957Y-67606319D03*
%TO.C,ANT32*%
X155905957Y-69079519D03*
X155905957Y-73562619D03*
X155905957Y-81576319D03*
%TO.C,ANT29*%
X157155637Y-27169519D03*
X157155637Y-39666319D03*
%TO.C,ANT30*%
X157155637Y-41139519D03*
X157155637Y-53636319D03*
%TO.C,ANT31*%
X157155637Y-55109519D03*
X157155637Y-67606319D03*
%TO.C,ANT32*%
X157155637Y-69079519D03*
X157155637Y-81576319D03*
%TO.C,ANT29*%
X158405317Y-27169519D03*
X158405317Y-39666319D03*
%TO.C,ANT30*%
X158405317Y-41139519D03*
X158405317Y-53636319D03*
%TO.C,ANT31*%
X158405317Y-55109519D03*
X158405317Y-67606319D03*
%TO.C,ANT32*%
X158405317Y-69079519D03*
X158405317Y-81576319D03*
%TO.C,ANT29*%
X160904677Y-27169519D03*
X160904677Y-39666319D03*
%TO.C,ANT30*%
X160904677Y-41139519D03*
X160904677Y-53636319D03*
%TO.C,ANT31*%
X160904677Y-55109519D03*
X160904677Y-67606319D03*
%TO.C,ANT32*%
X160904677Y-69079519D03*
X160904677Y-81576319D03*
%TO.C,ANT29*%
X162154357Y-27169519D03*
X162154357Y-28419199D03*
X162154357Y-29668879D03*
X162154357Y-30918559D03*
X162154357Y-32168239D03*
X162154357Y-33417919D03*
X162154357Y-34667599D03*
X162154357Y-35917279D03*
X162154357Y-37166959D03*
X162154357Y-38416639D03*
X162154357Y-39666319D03*
%TO.C,ANT30*%
X162154357Y-41139519D03*
X162154357Y-42389199D03*
X162154357Y-43638879D03*
X162154357Y-44888559D03*
X162154357Y-46138239D03*
X162154357Y-47387919D03*
X162154357Y-48637599D03*
X162154357Y-49887279D03*
X162154357Y-51136959D03*
X162154357Y-52386639D03*
X162154357Y-53636319D03*
%TO.C,ANT31*%
X162154357Y-55109519D03*
X162154357Y-56359199D03*
X162154357Y-57608879D03*
X162154357Y-58858559D03*
X162154357Y-60108239D03*
X162154357Y-61357919D03*
X162154357Y-62607599D03*
X162154357Y-63857279D03*
X162154357Y-65106959D03*
X162154357Y-66356639D03*
X162154357Y-67606319D03*
%TO.C,ANT32*%
X162154357Y-69079519D03*
X162154357Y-70329199D03*
X162154357Y-71578879D03*
X162154357Y-72828559D03*
X162154357Y-74078239D03*
X162154357Y-75327919D03*
X162154357Y-76577599D03*
X162154357Y-77827279D03*
X162154357Y-79076959D03*
X162154357Y-80326639D03*
X162154357Y-81576319D03*
%TD*%
D14*
X76962247Y-122485559D03*
X78435447Y-122485559D03*
X132852917Y-122460159D03*
X134326117Y-122460159D03*
X136457687Y-153745589D03*
X145271997Y-154948539D03*
X145271997Y-156091539D03*
X147684997Y-154948539D03*
X147684997Y-156091539D03*
D15*
%TO.C,P16*%
X59327203Y-162486305D03*
X59727203Y-163186305D03*
X60127203Y-162486305D03*
X60527203Y-163186305D03*
X60927203Y-162486305D03*
X61327203Y-163186305D03*
X61727203Y-162486305D03*
X62527203Y-162486305D03*
X62927203Y-163186305D03*
X63327203Y-162486305D03*
X63727203Y-163186305D03*
X64127203Y-162486305D03*
X64527203Y-163186305D03*
X64927203Y-162486305D03*
D16*
%TO.C,P18*%
X52926737Y-100646353D03*
X52926737Y-103186353D03*
X52926737Y-105726353D03*
X52926737Y-108266353D03*
X52926737Y-110806353D03*
X52926737Y-113346353D03*
X52926737Y-115886353D03*
%TO.C,P1*%
X53951459Y-140844486D03*
X53951459Y-143384486D03*
X53951459Y-145924486D03*
X53951459Y-148464486D03*
X53951459Y-151004486D03*
X53951459Y-153544486D03*
X53951459Y-156084486D03*
X56491459Y-140844486D03*
X56491459Y-143384486D03*
X56491459Y-145924486D03*
X56491459Y-148464486D03*
X56491459Y-151004486D03*
X56491459Y-153544486D03*
X56491459Y-156084486D03*
%TO.C,P3*%
X59408307Y-103110150D03*
X59408307Y-105650150D03*
%TO.C,P11*%
X150521157Y-136062879D03*
X150521157Y-138602879D03*
X150521157Y-141142879D03*
%TO.C,P6*%
X154673807Y-136088633D03*
X154673807Y-138628633D03*
X154673807Y-141168633D03*
D17*
%TO.C,W1*%
X131445757Y-134383169D03*
%TO.C,W2*%
X131445757Y-136890409D03*
%TO.C,W4*%
X131445757Y-139271909D03*
%TO.C,W7*%
X131445757Y-141680339D03*
%TO.C,W3*%
X137190217Y-130537359D03*
%TO.C,W5*%
X139599667Y-130537359D03*
%TO.C,W6*%
X142022067Y-130537359D03*
D18*
%TO.C,P16*%
X57857203Y-163636305D03*
X57857203Y-168366305D03*
X66397203Y-163636305D03*
X66397203Y-168366305D03*
D19*
%TO.C,VTUNE1*%
X101407494Y-133501731D03*
%TO.C,AGND3*%
X158598806Y-130537359D03*
D20*
%TO.C,*%
X53400263Y-123016664D03*
X53400930Y-168754394D03*
X65087351Y-24169596D03*
X65094613Y-84568055D03*
X107007589Y-84574221D03*
X107012094Y-24169596D03*
X107084995Y-166306459D03*
X113683513Y-166306459D03*
%TO.C,REF\u002A\u002A*%
X148922600Y-24169596D03*
%TO.C,*%
X148926585Y-84573339D03*
X160601357Y-123008926D03*
X160657969Y-168883127D03*
M02*
