%TF.GenerationSoftware,KiCad,Pcbnew,9.0.1*%
%TF.CreationDate,2025-06-02T14:00:06-06:00*%
%TF.ProjectId,PABA-DP,50414241-2d44-4502-9e6b-696361645f70,rev?*%
%TF.SameCoordinates,Original*%
%TF.FileFunction,Soldermask,Bot*%
%TF.FilePolarity,Negative*%
%FSLAX46Y46*%
G04 Gerber Fmt 4.6, Leading zero omitted, Abs format (unit mm)*
G04 Created by KiCad (PCBNEW 9.0.1) date 2025-06-02 14:00:06*
%MOMM*%
%LPD*%
G01*
G04 APERTURE LIST*
G04 Aperture macros list*
%AMRoundRect*
0 Rectangle with rounded corners*
0 $1 Rounding radius*
0 $2 $3 $4 $5 $6 $7 $8 $9 X,Y pos of 4 corners*
0 Add a 4 corners polygon primitive as box body*
4,1,4,$2,$3,$4,$5,$6,$7,$8,$9,$2,$3,0*
0 Add four circle primitives for the rounded corners*
1,1,$1+$1,$2,$3*
1,1,$1+$1,$4,$5*
1,1,$1+$1,$6,$7*
1,1,$1+$1,$8,$9*
0 Add four rect primitives between the rounded corners*
20,1,$1+$1,$2,$3,$4,$5,0*
20,1,$1+$1,$4,$5,$6,$7,0*
20,1,$1+$1,$6,$7,$8,$9,0*
20,1,$1+$1,$8,$9,$2,$3,0*%
%AMFreePoly0*
4,1,9,0.500000,-1.000000,-0.500000,-1.000000,-0.500000,-0.500000,-1.600000,-0.500000,-1.600000,0.500000,-0.500000,0.500000,-0.500000,1.000000,0.500000,1.000000,0.500000,-1.000000,0.500000,-1.000000,$1*%
%AMFreePoly1*
4,1,9,0.500000,0.500000,1.600000,0.500000,1.600000,-0.500000,0.500000,-0.500000,0.500000,-1.000000,-0.500000,-1.000000,-0.500000,1.000000,0.500000,1.000000,0.500000,0.500000,0.500000,0.500000,$1*%
G04 Aperture macros list end*
%ADD10RoundRect,0.100000X0.425000X0.100000X-0.425000X0.100000X-0.425000X-0.100000X0.425000X-0.100000X0*%
%ADD11R,0.980000X3.400000*%
%ADD12R,0.250000X0.700000*%
%ADD13R,0.700000X0.250000*%
%ADD14R,0.375000X0.375000*%
%ADD15R,1.450000X1.450000*%
%ADD16FreePoly0,0.000000*%
%ADD17FreePoly1,0.000000*%
%ADD18R,0.300000X0.850000*%
%ADD19R,2.540000X1.700000*%
%ADD20C,4.445000*%
%ADD21R,1.700000X1.700000*%
%ADD22C,1.700000*%
%ADD23C,3.175000*%
%ADD24C,1.905000*%
%ADD25R,1.400000X5.000000*%
%ADD26C,2.100000*%
%ADD27C,0.650000*%
%ADD28C,2.012000*%
%ADD29C,2.600000*%
%ADD30RoundRect,0.200000X-0.275000X0.200000X-0.275000X-0.200000X0.275000X-0.200000X0.275000X0.200000X0*%
%ADD31R,0.609600X1.524000*%
%ADD32RoundRect,0.200000X-0.200000X-0.275000X0.200000X-0.275000X0.200000X0.275000X-0.200000X0.275000X0*%
%ADD33RoundRect,0.196250X0.278750X-0.196250X0.278750X0.196250X-0.278750X0.196250X-0.278750X-0.196250X0*%
%ADD34RoundRect,0.197500X0.277500X-0.197500X0.277500X0.197500X-0.277500X0.197500X-0.277500X-0.197500X0*%
%ADD35RoundRect,0.135000X0.185000X-0.135000X0.185000X0.135000X-0.185000X0.135000X-0.185000X-0.135000X0*%
%ADD36RoundRect,0.196250X0.196250X0.278750X-0.196250X0.278750X-0.196250X-0.278750X0.196250X-0.278750X0*%
%ADD37RoundRect,0.197500X0.197500X0.277500X-0.197500X0.277500X-0.197500X-0.277500X0.197500X-0.277500X0*%
%ADD38RoundRect,0.200000X0.200000X0.275000X-0.200000X0.275000X-0.200000X-0.275000X0.200000X-0.275000X0*%
%ADD39RoundRect,0.196250X-0.196250X-0.278750X0.196250X-0.278750X0.196250X0.278750X-0.196250X0.278750X0*%
%ADD40RoundRect,0.197500X-0.197500X-0.277500X0.197500X-0.277500X0.197500X0.277500X-0.197500X0.277500X0*%
%ADD41RoundRect,0.196250X-0.278750X0.196250X-0.278750X-0.196250X0.278750X-0.196250X0.278750X0.196250X0*%
%ADD42RoundRect,0.197500X-0.277500X0.197500X-0.277500X-0.197500X0.277500X-0.197500X0.277500X0.197500X0*%
%ADD43RoundRect,0.200000X0.275000X-0.200000X0.275000X0.200000X-0.275000X0.200000X-0.275000X-0.200000X0*%
%ADD44C,1.016000*%
%ADD45RoundRect,0.100000X-0.100000X0.637500X-0.100000X-0.637500X0.100000X-0.637500X0.100000X0.637500X0*%
%ADD46R,1.000000X2.500000*%
%ADD47RoundRect,0.250000X0.325000X1.100000X-0.325000X1.100000X-0.325000X-1.100000X0.325000X-1.100000X0*%
%ADD48RoundRect,0.250000X-1.000000X-0.650000X1.000000X-0.650000X1.000000X0.650000X-1.000000X0.650000X0*%
%ADD49RoundRect,0.135000X0.135000X0.185000X-0.135000X0.185000X-0.135000X-0.185000X0.135000X-0.185000X0*%
%ADD50RoundRect,0.100000X-0.637500X-0.100000X0.637500X-0.100000X0.637500X0.100000X-0.637500X0.100000X0*%
%ADD51RoundRect,0.135000X-0.135000X-0.185000X0.135000X-0.185000X0.135000X0.185000X-0.135000X0.185000X0*%
%ADD52RoundRect,0.150000X0.150000X-0.825000X0.150000X0.825000X-0.150000X0.825000X-0.150000X-0.825000X0*%
%ADD53RoundRect,0.100000X0.480000X0.100000X-0.480000X0.100000X-0.480000X-0.100000X0.480000X-0.100000X0*%
%ADD54RoundRect,0.150000X-0.512500X-0.150000X0.512500X-0.150000X0.512500X0.150000X-0.512500X0.150000X0*%
%ADD55RoundRect,0.250000X-1.100000X0.325000X-1.100000X-0.325000X1.100000X-0.325000X1.100000X0.325000X0*%
%ADD56RoundRect,0.100000X0.637500X0.100000X-0.637500X0.100000X-0.637500X-0.100000X0.637500X-0.100000X0*%
%ADD57RoundRect,0.150000X0.825000X0.150000X-0.825000X0.150000X-0.825000X-0.150000X0.825000X-0.150000X0*%
%ADD58R,2.290000X3.000000*%
%ADD59RoundRect,0.112500X0.187500X0.112500X-0.187500X0.112500X-0.187500X-0.112500X0.187500X-0.112500X0*%
G04 APERTURE END LIST*
D10*
%TO.C,U36*%
X140463057Y-141347674D03*
X140463057Y-141997674D03*
X140463057Y-142647674D03*
X140463057Y-143297674D03*
X140463057Y-143947674D03*
X140463057Y-144597674D03*
X140463057Y-145247674D03*
X140463057Y-145897674D03*
X140463057Y-146547674D03*
X140463057Y-147197674D03*
X134913057Y-147197674D03*
X134913057Y-146547674D03*
X134913057Y-145897674D03*
X134913057Y-145247674D03*
X134913057Y-144597674D03*
X134913057Y-143947674D03*
X134913057Y-143297674D03*
X134913057Y-142647674D03*
X134913057Y-141997674D03*
X134913057Y-141347674D03*
%TD*%
D11*
%TO.C,L4*%
X103163660Y-141181770D03*
X105533660Y-141181770D03*
%TD*%
D12*
%TO.C,VR1*%
X99108664Y-141953167D03*
X99608664Y-141953167D03*
X100108664Y-141953167D03*
X100608664Y-141953167D03*
D13*
X101258664Y-142603167D03*
X101258664Y-143103167D03*
X101258664Y-143603167D03*
X101258664Y-144103167D03*
D12*
X100608664Y-144753167D03*
X100108664Y-144753167D03*
X99608664Y-144753167D03*
X99108664Y-144753167D03*
D13*
X98458664Y-144103167D03*
X98458664Y-143603167D03*
X98458664Y-143103167D03*
X98458664Y-142603167D03*
D14*
X98545664Y-144666167D03*
X98545664Y-142040167D03*
X101171664Y-142040167D03*
X101171664Y-144666167D03*
D15*
X99858664Y-143353167D03*
%TD*%
D16*
%TO.C,L1*%
X76627417Y-155072269D03*
D17*
X78927417Y-155072269D03*
%TD*%
D18*
%TO.C,U35*%
X129585954Y-160774855D03*
X129085954Y-160774855D03*
X128585954Y-160774855D03*
X128085954Y-160774855D03*
X128085954Y-157874855D03*
X128585954Y-157874855D03*
X129085954Y-157874855D03*
X129585954Y-157874855D03*
D19*
X128835954Y-159324855D03*
%TD*%
D18*
%TO.C,U29*%
X139058427Y-160789912D03*
X138558427Y-160789912D03*
X138058427Y-160789912D03*
X137558427Y-160789912D03*
X137558427Y-157889912D03*
X138058427Y-157889912D03*
X138558427Y-157889912D03*
X139058427Y-157889912D03*
D19*
X138308427Y-159339912D03*
%TD*%
D18*
%TO.C,U11*%
X151573025Y-153334455D03*
X152073025Y-153334455D03*
X152573025Y-153334455D03*
X153073025Y-153334455D03*
X153073025Y-156234455D03*
X152573025Y-156234455D03*
X152073025Y-156234455D03*
X151573025Y-156234455D03*
D19*
X152323025Y-154784455D03*
%TD*%
D18*
%TO.C,U28*%
X113448558Y-148673140D03*
X113948558Y-148673140D03*
X114448558Y-148673140D03*
X114948558Y-148673140D03*
X114948558Y-151573140D03*
X114448558Y-151573140D03*
X113948558Y-151573140D03*
X113448558Y-151573140D03*
D19*
X114198558Y-150123140D03*
%TD*%
D20*
%TO.C,*%
X53400930Y-168754394D03*
%TD*%
%TO.C,REF\u002A\u002A*%
X148922600Y-24169596D03*
%TD*%
D21*
%TO.C,P1*%
X53951459Y-140844486D03*
D22*
X56491459Y-140844486D03*
X53951459Y-143384486D03*
X56491459Y-143384486D03*
X53951459Y-145924486D03*
X56491459Y-145924486D03*
X53951459Y-148464486D03*
X56491459Y-148464486D03*
X53951459Y-151004486D03*
X56491459Y-151004486D03*
X53951459Y-153544486D03*
X56491459Y-153544486D03*
X53951459Y-156084486D03*
X56491459Y-156084486D03*
%TD*%
D23*
%TO.C,*%
X64174161Y-152897782D03*
%TD*%
%TO.C,*%
X64167161Y-103893286D03*
%TD*%
D20*
%TO.C,*%
X160657969Y-168883127D03*
%TD*%
D24*
%TO.C,W2*%
X131445757Y-136890409D03*
%TD*%
D20*
%TO.C,*%
X107012094Y-24169596D03*
%TD*%
D25*
%TO.C,EXT_LO1*%
X72841117Y-169242504D03*
X78241117Y-169242504D03*
%TD*%
D24*
%TO.C,W7*%
X131445757Y-141680339D03*
%TD*%
%TO.C,W1*%
X131445757Y-134383169D03*
%TD*%
D20*
%TO.C,*%
X53400263Y-123016664D03*
%TD*%
D23*
%TO.C,*%
X122178640Y-103876037D03*
%TD*%
D26*
%TO.C,VTUNE1*%
X101407494Y-133501731D03*
%TD*%
D23*
%TO.C,*%
X122161643Y-152883285D03*
%TD*%
D25*
%TO.C,TXIN1*%
X124210837Y-169242014D03*
X129610837Y-169242014D03*
%TD*%
D27*
%TO.C,P16*%
X64927203Y-162486305D03*
X64527203Y-163186305D03*
X63727203Y-163186305D03*
X63327203Y-162486305D03*
X62927203Y-163186305D03*
X62527203Y-162486305D03*
X61727203Y-162486305D03*
X61327203Y-163186305D03*
X60927203Y-162486305D03*
X60527203Y-163186305D03*
X59727203Y-163186305D03*
X59327203Y-162486305D03*
X64127203Y-162486305D03*
X60127203Y-162486305D03*
D28*
X66397203Y-168366305D03*
X66397203Y-163636305D03*
X57857203Y-163636305D03*
X57857203Y-168366305D03*
%TD*%
D20*
%TO.C,*%
X65087351Y-24169596D03*
%TD*%
D24*
%TO.C,W3*%
X137190217Y-130537359D03*
%TD*%
D29*
%TO.C,AGND3*%
X158598806Y-130537359D03*
%TD*%
D20*
%TO.C,*%
X148926585Y-84573339D03*
%TD*%
D25*
%TO.C,LO_OUT1*%
X84848207Y-169242506D03*
X90248207Y-169242506D03*
%TD*%
D21*
%TO.C,P3*%
X59408307Y-103110150D03*
D22*
X59408307Y-105650150D03*
%TD*%
D21*
%TO.C,P18*%
X52926737Y-115886353D03*
D22*
X52926737Y-113346353D03*
X52926737Y-110806353D03*
X52926737Y-108266353D03*
X52926737Y-105726353D03*
X52926737Y-103186353D03*
X52926737Y-100646353D03*
%TD*%
D25*
%TO.C,OUT2*%
X137447547Y-169238003D03*
X142847547Y-169238003D03*
%TD*%
D20*
%TO.C,*%
X65094613Y-84568055D03*
%TD*%
D24*
%TO.C,W6*%
X142022067Y-130537359D03*
%TD*%
%TO.C,W5*%
X139599667Y-130537359D03*
%TD*%
%TO.C,W4*%
X131445757Y-139271909D03*
%TD*%
D20*
%TO.C,*%
X160601357Y-123008926D03*
%TD*%
D25*
%TO.C,OUT1*%
X150283177Y-169242934D03*
X155683177Y-169242934D03*
%TD*%
D20*
%TO.C,*%
X113683513Y-166306459D03*
%TD*%
%TO.C,*%
X107084995Y-166306459D03*
%TD*%
%TO.C,*%
X107007589Y-84574221D03*
%TD*%
D21*
%TO.C,P11*%
X150521157Y-141142879D03*
D22*
X150521157Y-138602879D03*
X150521157Y-136062879D03*
%TD*%
D21*
%TO.C,P6*%
X154673807Y-141168633D03*
D22*
X154673807Y-138628633D03*
X154673807Y-136088633D03*
%TD*%
D30*
%TO.C,R54*%
X96493684Y-152951487D03*
X96493684Y-154601487D03*
%TD*%
D31*
%TO.C,P8*%
X63211097Y-92916352D03*
X64023897Y-92916352D03*
%TD*%
D32*
%TO.C,R50*%
X135409812Y-156312375D03*
X137059812Y-156312375D03*
%TD*%
D33*
%TO.C,C141*%
X128528577Y-156479158D03*
D34*
X128528577Y-155041658D03*
%TD*%
D35*
%TO.C,R63*%
X81309918Y-160083964D03*
X81309918Y-159063964D03*
%TD*%
D32*
%TO.C,R91*%
X146430797Y-161556925D03*
X148080797Y-161556925D03*
%TD*%
D36*
%TO.C,C59*%
X116779463Y-110353486D03*
D37*
X115341963Y-110353486D03*
%TD*%
D30*
%TO.C,R21*%
X69191276Y-137008048D03*
X69191276Y-138658048D03*
%TD*%
%TO.C,R152*%
X98564575Y-145911959D03*
X98564575Y-147561959D03*
%TD*%
D38*
%TO.C,R148*%
X101436826Y-146112752D03*
X99786826Y-146112752D03*
%TD*%
D30*
%TO.C,R30*%
X69197396Y-97227206D03*
X69197396Y-98877206D03*
%TD*%
D33*
%TO.C,C2*%
X64189077Y-130428084D03*
D34*
X64189077Y-128990584D03*
%TD*%
D33*
%TO.C,C153*%
X55713609Y-130181192D03*
D34*
X55713609Y-128743692D03*
%TD*%
D32*
%TO.C,R100*%
X129451872Y-144754095D03*
X131101872Y-144754095D03*
%TD*%
D39*
%TO.C,C143*%
X129084497Y-162327273D03*
D40*
X130521997Y-162327273D03*
%TD*%
D30*
%TO.C,R6*%
X87550320Y-125652418D03*
X87550320Y-127302418D03*
%TD*%
D41*
%TO.C,C145*%
X149720943Y-151507530D03*
D42*
X149720943Y-152945030D03*
%TD*%
D43*
%TO.C,R162*%
X118560014Y-128357461D03*
X118560014Y-126707461D03*
%TD*%
D44*
%TO.C,CSB0*%
X76931176Y-139708056D03*
%TD*%
D41*
%TO.C,C130*%
X131728594Y-160264997D03*
D42*
X131728594Y-161702497D03*
%TD*%
D30*
%TO.C,R8*%
X84588002Y-137692276D03*
X84588002Y-139342276D03*
%TD*%
D44*
%TO.C,CSB2*%
X70609640Y-138158530D03*
%TD*%
D45*
%TO.C,U39*%
X57131424Y-128790340D03*
X57781424Y-128790340D03*
X58431424Y-128790340D03*
X59081424Y-128790340D03*
X59731424Y-128790340D03*
X60381424Y-128790340D03*
X61031424Y-128790340D03*
X61681424Y-128790340D03*
X61681424Y-134515340D03*
X61031424Y-134515340D03*
X60381424Y-134515340D03*
X59731424Y-134515340D03*
X59081424Y-134515340D03*
X58431424Y-134515340D03*
X57781424Y-134515340D03*
X57131424Y-134515340D03*
%TD*%
D30*
%TO.C,R25*%
X67742212Y-137023295D03*
X67742212Y-138673295D03*
%TD*%
D39*
%TO.C,C125*%
X123427391Y-144835672D03*
D40*
X124864891Y-144835672D03*
%TD*%
D43*
%TO.C,R1*%
X64783660Y-109152761D03*
X64783660Y-107502761D03*
%TD*%
D31*
%TO.C,P9*%
X63203852Y-95307375D03*
X64016652Y-95307375D03*
%TD*%
D30*
%TO.C,R23*%
X74753125Y-92197393D03*
X74753125Y-93847393D03*
%TD*%
%TO.C,R24*%
X88917505Y-154810997D03*
X88917505Y-156460997D03*
%TD*%
D46*
%TO.C,P2*%
X68977184Y-106438159D03*
X68977184Y-101398159D03*
X71517184Y-106438159D03*
X71517184Y-101398159D03*
X74057184Y-106438159D03*
X74057184Y-101398159D03*
X76597184Y-106438159D03*
X76597184Y-101398159D03*
X79137184Y-106438159D03*
X79137184Y-101398159D03*
X81677184Y-106438159D03*
X81677184Y-101398159D03*
X84217184Y-106438159D03*
X84217184Y-101398159D03*
X86757184Y-106438159D03*
X86757184Y-101398159D03*
X89297184Y-106438159D03*
X89297184Y-101398159D03*
X91837184Y-106438159D03*
X91837184Y-101398159D03*
X94377184Y-106438159D03*
X94377184Y-101398159D03*
X96917184Y-106438159D03*
X96917184Y-101398159D03*
X99457184Y-106438159D03*
X99457184Y-101398159D03*
X101997184Y-106438159D03*
X101997184Y-101398159D03*
X104537184Y-106438159D03*
X104537184Y-101398159D03*
X107077184Y-106438159D03*
X107077184Y-101398159D03*
X109617184Y-106438159D03*
X109617184Y-101398159D03*
X112157184Y-106438159D03*
X112157184Y-101398159D03*
X114697184Y-106438159D03*
X114697184Y-101398159D03*
X117237184Y-106438159D03*
X117237184Y-101398159D03*
%TD*%
D41*
%TO.C,C154*%
X55694398Y-133423632D03*
D42*
X55694398Y-134861132D03*
%TD*%
D32*
%TO.C,R92*%
X129473827Y-143491652D03*
X131123827Y-143491652D03*
%TD*%
D41*
%TO.C,C122*%
X111681982Y-142241128D03*
D42*
X111681982Y-143678628D03*
%TD*%
D41*
%TO.C,C126*%
X87805092Y-157423866D03*
D42*
X87805092Y-158861366D03*
%TD*%
D41*
%TO.C,C123*%
X85032598Y-157440943D03*
D42*
X85032598Y-158878443D03*
%TD*%
D38*
%TO.C,R99*%
X131108580Y-149260465D03*
X129458580Y-149260465D03*
%TD*%
D41*
%TO.C,C118*%
X73255266Y-157370738D03*
D42*
X73255266Y-158808238D03*
%TD*%
D32*
%TO.C,R15*%
X121406465Y-111665328D03*
X123056465Y-111665328D03*
%TD*%
D38*
%TO.C,R12*%
X155151575Y-150236143D03*
X153501575Y-150236143D03*
%TD*%
D33*
%TO.C,C1*%
X74808371Y-130369670D03*
D34*
X74808371Y-128932170D03*
%TD*%
D41*
%TO.C,C117*%
X74978088Y-157384631D03*
D42*
X74978088Y-158822131D03*
%TD*%
D36*
%TO.C,C14*%
X72415533Y-98679641D03*
D37*
X70978033Y-98679641D03*
%TD*%
D30*
%TO.C,R28*%
X57069654Y-137097247D03*
X57069654Y-138747247D03*
%TD*%
D39*
%TO.C,C137*%
X144665684Y-144045343D03*
D40*
X146103184Y-144045343D03*
%TD*%
D32*
%TO.C,R102*%
X129420768Y-147321061D03*
X131070768Y-147321061D03*
%TD*%
D33*
%TO.C,C163*%
X100090559Y-95871482D03*
D34*
X100090559Y-94433982D03*
%TD*%
D43*
%TO.C,R7*%
X85883377Y-139320321D03*
X85883377Y-137670321D03*
%TD*%
D44*
%TO.C,TP2*%
X120043599Y-127110966D03*
%TD*%
D32*
%TO.C,R29*%
X97411637Y-98786021D03*
X99061637Y-98786021D03*
%TD*%
D38*
%TO.C,R59*%
X143805885Y-141118550D03*
X142155885Y-141118550D03*
%TD*%
%TO.C,R10*%
X131466796Y-156386475D03*
X129816796Y-156386475D03*
%TD*%
D33*
%TO.C,C110*%
X82838116Y-130113630D03*
D34*
X82838116Y-128676130D03*
%TD*%
D38*
%TO.C,R17*%
X127201936Y-156453256D03*
X125551936Y-156453256D03*
%TD*%
D47*
%TO.C,C139*%
X140485595Y-149498545D03*
X137535595Y-149498545D03*
%TD*%
D48*
%TO.C,D1*%
X143295251Y-138674744D03*
X147295251Y-138674744D03*
%TD*%
D32*
%TO.C,R137*%
X133057061Y-140146643D03*
X134707061Y-140146643D03*
%TD*%
D41*
%TO.C,C140*%
X154882451Y-153101839D03*
D42*
X154882451Y-154539339D03*
%TD*%
D38*
%TO.C,R18*%
X127223892Y-155092014D03*
X125573892Y-155092014D03*
%TD*%
D41*
%TO.C,C144*%
X116755004Y-148590541D03*
D42*
X116755004Y-150028041D03*
%TD*%
D30*
%TO.C,R27*%
X58353137Y-137074834D03*
X58353137Y-138724834D03*
%TD*%
D41*
%TO.C,C170*%
X141302611Y-160337687D03*
D42*
X141302611Y-161775187D03*
%TD*%
D30*
%TO.C,R32*%
X66478006Y-97216542D03*
X66478006Y-98866542D03*
%TD*%
D41*
%TO.C,C3*%
X64134188Y-133307344D03*
D42*
X64134188Y-134744844D03*
%TD*%
D43*
%TO.C,R60*%
X145044703Y-142812014D03*
X145044703Y-141162014D03*
%TD*%
%TO.C,R26*%
X74710468Y-96513461D03*
X74710468Y-94863461D03*
%TD*%
D41*
%TO.C,C148*%
X141302611Y-157768891D03*
D42*
X141302611Y-159206391D03*
%TD*%
D49*
%TO.C,R3*%
X105038229Y-97638832D03*
X104018229Y-97638832D03*
%TD*%
D30*
%TO.C,R53*%
X96435136Y-155703245D03*
X96435136Y-157353245D03*
%TD*%
D50*
%TO.C,U4*%
X66323208Y-95979614D03*
X66323208Y-95329614D03*
X66323208Y-94679614D03*
X66323208Y-94029614D03*
X72048208Y-94029614D03*
X72048208Y-94679614D03*
X72048208Y-95329614D03*
X72048208Y-95979614D03*
%TD*%
D32*
%TO.C,R164*%
X146466345Y-160170569D03*
X148116345Y-160170569D03*
%TD*%
D36*
%TO.C,C13*%
X72408423Y-97343052D03*
D37*
X70970923Y-97343052D03*
%TD*%
D31*
%TO.C,P10*%
X63227400Y-97684812D03*
X64040200Y-97684812D03*
%TD*%
D41*
%TO.C,C121*%
X76712981Y-161913770D03*
D42*
X76712981Y-163351270D03*
%TD*%
D30*
%TO.C,R138*%
X55748664Y-137138414D03*
X55748664Y-138788414D03*
%TD*%
D51*
%TO.C,R143*%
X113711719Y-147338329D03*
X114731719Y-147338329D03*
%TD*%
D41*
%TO.C,C124*%
X110375629Y-142252106D03*
D42*
X110375629Y-143689606D03*
%TD*%
D33*
%TO.C,C164*%
X98698871Y-95871482D03*
D34*
X98698871Y-94433982D03*
%TD*%
D38*
%TO.C,R153*%
X97197073Y-144224272D03*
X95547073Y-144224272D03*
%TD*%
D33*
%TO.C,C172*%
X138305949Y-156327299D03*
D34*
X138305949Y-154889799D03*
%TD*%
D33*
%TO.C,C66*%
X149763600Y-156818993D03*
D34*
X149763600Y-155381493D03*
%TD*%
D41*
%TO.C,C173*%
X94935147Y-157374771D03*
D42*
X94935147Y-158812271D03*
%TD*%
D32*
%TO.C,R156*%
X120019244Y-147836718D03*
X121669244Y-147836718D03*
%TD*%
D33*
%TO.C,C68*%
X111456862Y-151783355D03*
D34*
X111456862Y-150345855D03*
%TD*%
D44*
%TO.C,TP1*%
X124357135Y-112350758D03*
%TD*%
D45*
%TO.C,U40*%
X101820729Y-90028879D03*
X102470729Y-90028879D03*
X103120729Y-90028879D03*
X103770729Y-90028879D03*
X103770729Y-95753879D03*
X103120729Y-95753879D03*
X102470729Y-95753879D03*
X101820729Y-95753879D03*
%TD*%
D44*
%TO.C,CSB1*%
X78802756Y-139692059D03*
%TD*%
D30*
%TO.C,R149*%
X98320648Y-139163792D03*
X98320648Y-140813792D03*
%TD*%
D39*
%TO.C,C171*%
X135939994Y-162272193D03*
D40*
X137377494Y-162272193D03*
%TD*%
D52*
%TO.C,U38*%
X122368304Y-124617381D03*
X121098304Y-124617381D03*
X119828304Y-124617381D03*
X118558304Y-124617381D03*
X117288304Y-124617381D03*
X116018304Y-124617381D03*
X114748304Y-124617381D03*
X113478304Y-124617381D03*
X113478304Y-119667381D03*
X114748304Y-119667381D03*
X116018304Y-119667381D03*
X117288304Y-119667381D03*
X118558304Y-119667381D03*
X119828304Y-119667381D03*
X121098304Y-119667381D03*
X122368304Y-119667381D03*
%TD*%
D32*
%TO.C,R151*%
X95843472Y-146796727D03*
X97493472Y-146796727D03*
%TD*%
D30*
%TO.C,R94*%
X85846022Y-125649673D03*
X85846022Y-127299673D03*
%TD*%
D38*
%TO.C,R161*%
X125367283Y-113855392D03*
X123717283Y-113855392D03*
%TD*%
D32*
%TO.C,R57*%
X75163448Y-160605873D03*
X76813448Y-160605873D03*
%TD*%
%TO.C,R11*%
X153497576Y-151577278D03*
X155147576Y-151577278D03*
%TD*%
D30*
%TO.C,R31*%
X67832369Y-97227206D03*
X67832369Y-98877206D03*
%TD*%
D41*
%TO.C,C146*%
X89232201Y-157429355D03*
D42*
X89232201Y-158866855D03*
%TD*%
D33*
%TO.C,C48*%
X99603681Y-140720887D03*
D34*
X99603681Y-139283387D03*
%TD*%
D43*
%TO.C,R2*%
X66439776Y-109247113D03*
X66439776Y-107597113D03*
%TD*%
D30*
%TO.C,R61*%
X146371183Y-141172991D03*
X146371183Y-142822991D03*
%TD*%
D36*
%TO.C,C119*%
X97181054Y-145508670D03*
D37*
X95743554Y-145508670D03*
%TD*%
D38*
%TO.C,R98*%
X131097603Y-150566819D03*
X129447603Y-150566819D03*
%TD*%
D41*
%TO.C,C152*%
X124227282Y-119503773D03*
D42*
X124227282Y-120941273D03*
%TD*%
D41*
%TO.C,C151*%
X125696930Y-119483189D03*
D42*
X125696930Y-120920689D03*
%TD*%
D32*
%TO.C,R5*%
X85786721Y-124281866D03*
X87436721Y-124281866D03*
%TD*%
%TO.C,R160*%
X95457421Y-141404817D03*
X97107421Y-141404817D03*
%TD*%
%TO.C,R9*%
X149749085Y-158063719D03*
X151399085Y-158063719D03*
%TD*%
D36*
%TO.C,C127*%
X114414116Y-143378407D03*
D37*
X112976616Y-143378407D03*
%TD*%
D53*
%TO.C,U30*%
X78718046Y-157474899D03*
X78718046Y-158124899D03*
X78718046Y-158774899D03*
X76618046Y-158774899D03*
X76618046Y-158124899D03*
X76618046Y-157474899D03*
%TD*%
D32*
%TO.C,R16*%
X121325961Y-110333360D03*
X122975961Y-110333360D03*
%TD*%
D43*
%TO.C,R13*%
X83237737Y-139342276D03*
X83237737Y-137692276D03*
%TD*%
D41*
%TO.C,C175*%
X98003126Y-157428135D03*
D42*
X98003126Y-158865635D03*
%TD*%
D30*
%TO.C,R14*%
X81964317Y-137681298D03*
X81964317Y-139331298D03*
%TD*%
D41*
%TO.C,C147*%
X111348914Y-147127755D03*
D42*
X111348914Y-148565255D03*
%TD*%
D54*
%TO.C,U32*%
X90850119Y-157469707D03*
X90850119Y-156519707D03*
X90850119Y-155569707D03*
X93125119Y-155569707D03*
X93125119Y-157469707D03*
%TD*%
D45*
%TO.C,U1*%
X76177682Y-128812323D03*
X76827682Y-128812323D03*
X77477682Y-128812323D03*
X78127682Y-128812323D03*
X78777682Y-128812323D03*
X79427682Y-128812323D03*
X80077682Y-128812323D03*
X80727682Y-128812323D03*
X80727682Y-134537323D03*
X80077682Y-134537323D03*
X79427682Y-134537323D03*
X78777682Y-134537323D03*
X78127682Y-134537323D03*
X77477682Y-134537323D03*
X76827682Y-134537323D03*
X76177682Y-134537323D03*
%TD*%
D38*
%TO.C,R51*%
X137067131Y-154914540D03*
X135417131Y-154914540D03*
%TD*%
D36*
%TO.C,C128*%
X114399479Y-144688420D03*
D37*
X112961979Y-144688420D03*
%TD*%
D41*
%TO.C,C6*%
X74679077Y-133396215D03*
D42*
X74679077Y-134833715D03*
%TD*%
D30*
%TO.C,R58*%
X80091386Y-158946563D03*
X80091386Y-160596563D03*
%TD*%
D55*
%TO.C,C120*%
X108161780Y-141912065D03*
X108161780Y-144862065D03*
%TD*%
D56*
%TO.C,U37*%
X121915903Y-113236445D03*
X121915903Y-113886445D03*
X121915903Y-114536445D03*
X121915903Y-115186445D03*
X121915903Y-115836445D03*
X121915903Y-116486445D03*
X121915903Y-117136445D03*
X116190903Y-117136445D03*
X116190903Y-116486445D03*
X116190903Y-115836445D03*
X116190903Y-115186445D03*
X116190903Y-114536445D03*
X116190903Y-113886445D03*
X116190903Y-113236445D03*
%TD*%
D41*
%TO.C,C114*%
X131662727Y-157663268D03*
D42*
X131662727Y-159100768D03*
%TD*%
D39*
%TO.C,C135*%
X126438857Y-162305317D03*
D40*
X127876357Y-162305317D03*
%TD*%
D39*
%TO.C,C138*%
X144517485Y-146120140D03*
D40*
X145954985Y-146120140D03*
%TD*%
D39*
%TO.C,C174*%
X138541151Y-162323156D03*
D40*
X139978651Y-162323156D03*
%TD*%
D45*
%TO.C,U27*%
X84143924Y-128804654D03*
X84793924Y-128804654D03*
X85443924Y-128804654D03*
X86093924Y-128804654D03*
X86743924Y-128804654D03*
X87393924Y-128804654D03*
X88043924Y-128804654D03*
X88693924Y-128804654D03*
X88693924Y-134529654D03*
X88043924Y-134529654D03*
X87393924Y-134529654D03*
X86743924Y-134529654D03*
X86093924Y-134529654D03*
X85443924Y-134529654D03*
X84793924Y-134529654D03*
X84143924Y-134529654D03*
%TD*%
D38*
%TO.C,R139*%
X114430135Y-146152121D03*
X112780135Y-146152121D03*
%TD*%
D41*
%TO.C,C112*%
X82848027Y-133400439D03*
D42*
X82848027Y-134837939D03*
%TD*%
D57*
%TO.C,U31*%
X121295677Y-142273379D03*
X121295677Y-143543379D03*
X121295677Y-144813379D03*
X121295677Y-146083379D03*
X116345677Y-146083379D03*
X116345677Y-144813379D03*
X116345677Y-143543379D03*
X116345677Y-142273379D03*
D58*
X118820677Y-144178379D03*
%TD*%
D38*
%TO.C,R19*%
X141363094Y-156524612D03*
X139713094Y-156524612D03*
%TD*%
D44*
%TO.C,TP3*%
X87475403Y-156096992D03*
%TD*%
D36*
%TO.C,C129*%
X121868207Y-140672357D03*
D37*
X120430707Y-140672357D03*
%TD*%
D51*
%TO.C,R4*%
X101769104Y-97593212D03*
X102789104Y-97593212D03*
%TD*%
D36*
%TO.C,C116*%
X96917588Y-142853882D03*
D37*
X95480088Y-142853882D03*
%TD*%
D36*
%TO.C,C150*%
X116834352Y-111615928D03*
D37*
X115396852Y-111615928D03*
%TD*%
D59*
%TO.C,D2*%
X83369871Y-157400367D03*
X81269871Y-157400367D03*
%TD*%
D45*
%TO.C,U2*%
X65652653Y-128776646D03*
X66302653Y-128776646D03*
X66952653Y-128776646D03*
X67602653Y-128776646D03*
X68252653Y-128776646D03*
X68902653Y-128776646D03*
X69552653Y-128776646D03*
X70202653Y-128776646D03*
X70202653Y-134501646D03*
X69552653Y-134501646D03*
X68902653Y-134501646D03*
X68252653Y-134501646D03*
X67602653Y-134501646D03*
X66952653Y-134501646D03*
X66302653Y-134501646D03*
X65652653Y-134501646D03*
%TD*%
D39*
%TO.C,C115*%
X101839829Y-147506927D03*
D40*
X103277329Y-147506927D03*
%TD*%
D38*
%TO.C,R101*%
X131090894Y-146056789D03*
X129440894Y-146056789D03*
%TD*%
M02*
