M48
; DRILL file {KiCad 9.0.1} date 2025-06-02T13:59:14-0600
; FORMAT={-:-/ absolute / metric / decimal}
; #@! TF.CreationDate,2025-06-02T13:59:14-06:00
; #@! TF.GenerationSoftware,Kicad,Pcbnew,9.0.1
; #@! TF.FileFunction,Plated,1,8,PTH
FMAT,2
METRIC
; #@! TA.AperFunction,Plated,PTH,ViaDrill
T1C0.152
; #@! TA.AperFunction,Plated,PTH,ViaDrill
T2C0.203
; #@! TA.AperFunction,Plated,PTH,ViaDrill
T3C0.254
; #@! TA.AperFunction,Plated,PTH,ComponentDrill
T4C0.254
; #@! TA.AperFunction,Plated,PTH,ViaDrill
T5C0.330
; #@! TA.AperFunction,Plated,PTH,ComponentDrill
T6C0.400
; #@! TA.AperFunction,Plated,PTH,ComponentDrill
T7C1.000
; #@! TA.AperFunction,Plated,PTH,ComponentDrill
T8C1.143
; #@! TA.AperFunction,Plated,PTH,ComponentDrill
T9C1.342
; #@! TA.AperFunction,Plated,PTH,ComponentDrill
T10C1.600
; #@! TA.AperFunction,Plated,PTH,ComponentDrill
T11C3.175
%
G90
G05
T1
X76.699Y-112.848
X77.199Y-112.848
X78.199Y-112.348
X78.199Y-112.848
X78.699Y-112.848
X79.199Y-112.848
X79.699Y-112.848
X79.699Y-117.849
X80.199Y-112.348
X132.59Y-112.848
X133.089Y-112.848
X134.09Y-112.348
X134.09Y-112.848
X134.59Y-112.848
X135.09Y-112.848
X135.59Y-112.848
X135.59Y-117.849
X136.09Y-112.348
T2
X51.37Y-163.855
X51.37Y-164.261
X51.37Y-164.667
X51.37Y-165.074
X51.37Y-165.48
X51.37Y-165.887
X51.37Y-166.293
X51.37Y-166.699
X51.37Y-167.106
X51.37Y-170.713
X51.37Y-171.119
X51.37Y-171.525
X51.776Y-171.525
X52.183Y-171.525
X52.589Y-171.525
X52.792Y-135.142
X52.873Y-137.2
X52.995Y-171.525
X53.267Y-95.462
X53.402Y-171.525
X53.77Y-112.366
X53.808Y-171.525
X53.884Y-161.528
X54.215Y-171.525
X54.621Y-171.525
X55.027Y-138.683
X55.027Y-171.525
X55.434Y-171.525
X55.713Y-131.139
X55.713Y-132.536
X55.84Y-171.525
X56.247Y-171.525
X56.262Y-164.675
X56.44Y-119.996
X56.653Y-171.525
X56.887Y-125.76
X57.059Y-171.525
X57.466Y-171.525
X57.75Y-125.092
X57.872Y-171.525
X58.279Y-171.525
X58.37Y-156.395
X58.685Y-171.525
X58.939Y-161.213
X59.032Y-100.325
X59.091Y-171.525
X59.152Y-111.972
X59.498Y-171.525
X59.769Y-106.76
X59.769Y-154.634
X59.904Y-171.525
X60.07Y-138.165
X60.072Y-131.68
X60.248Y-100.325
X60.311Y-171.525
X60.717Y-171.525
X61.001Y-126.55
X61.029Y-131.005
X61.123Y-171.525
X61.53Y-171.525
X61.657Y-136.981
X61.683Y-128.901
X61.7Y-135.917
X61.898Y-148.747
X61.936Y-171.525
X62.292Y-125.12
X62.343Y-171.525
X62.546Y-97.484
X62.597Y-92.912
X62.597Y-95.325
X62.749Y-171.525
X63.13Y-133.737
X63.155Y-171.525
X63.562Y-138.505
X63.562Y-171.525
X63.968Y-171.525
X63.999Y-131.155
X64.07Y-132.308
X64.375Y-171.525
X64.634Y-144.457
X64.781Y-171.525
X64.918Y-146.852
X65.187Y-171.525
X65.253Y-120.123
X65.34Y-161.34
X65.594Y-171.525
X65.937Y-111.861
X66.0Y-171.525
X66.407Y-171.525
X66.671Y-139.316
X66.813Y-171.525
X67.097Y-141.538
X67.219Y-171.525
X67.392Y-145.815
X67.504Y-147.245
X67.547Y-148.843
X67.626Y-171.525
X67.895Y-164.751
X68.032Y-171.525
X68.439Y-171.525
X68.845Y-171.525
X68.911Y-157.512
X69.251Y-171.525
X69.414Y-147.408
X69.658Y-171.525
X69.902Y-149.194
X70.064Y-171.525
X70.09Y-97.713
X70.128Y-148.114
X70.166Y-131.774
X70.267Y-146.227
X70.277Y-130.062
X70.471Y-171.525
X70.758Y-84.645
X70.877Y-171.525
X71.037Y-140.293
X71.046Y-134.773
X71.12Y-136.143
X71.258Y-99.262
X71.283Y-171.525
X71.4Y-125.534
X71.527Y-121.978
X71.69Y-171.525
X72.096Y-171.525
X72.503Y-171.525
X72.569Y-133.687
X72.604Y-154.33
X72.663Y-163.997
X72.68Y-166.42
X72.858Y-128.599
X72.909Y-101.32
X72.909Y-171.525
X72.934Y-102.869
X72.965Y-140.149
X72.967Y-100.346
X73.112Y-122.783
X73.188Y-120.573
X73.315Y-171.525
X73.595Y-159.638
X73.679Y-137.751
X73.722Y-171.525
X73.892Y-133.189
X73.95Y-130.784
X73.976Y-124.84
X74.103Y-97.357
X74.103Y-97.992
X74.128Y-171.525
X74.154Y-102.514
X74.188Y-100.357
X74.535Y-171.525
X74.712Y-132.511
X74.738Y-97.357
X74.738Y-97.992
X74.916Y-159.689
X75.22Y-100.482
X75.22Y-101.421
X75.31Y-94.776
X75.324Y-121.193
X75.474Y-97.611
X75.474Y-129.793
X75.5Y-130.377
X75.67Y-158.546
X75.678Y-100.99
X75.698Y-113.374
X75.698Y-113.849
X75.698Y-114.349
X75.698Y-114.849
X75.698Y-115.349
X75.698Y-115.849
X75.698Y-116.349
X75.698Y-116.849
X75.698Y-117.299
X76.023Y-143.237
X76.023Y-144.634
X76.197Y-113.374
X76.197Y-113.849
X76.197Y-114.349
X76.197Y-114.849
X76.197Y-115.349
X76.197Y-115.849
X76.197Y-116.349
X76.197Y-116.849
X76.197Y-117.299
X76.516Y-171.525
X76.617Y-137.747
X76.658Y-143.999
X76.698Y-113.374
X76.698Y-113.849
X76.698Y-114.349
X76.698Y-114.849
X76.698Y-115.349
X76.698Y-115.849
X76.698Y-116.349
X76.698Y-116.849
X76.821Y-133.654
X76.922Y-171.525
X77.197Y-113.849
X77.197Y-114.349
X77.197Y-114.849
X77.197Y-115.349
X77.197Y-115.849
X77.197Y-116.349
X77.197Y-116.849
X77.208Y-113.364
X77.329Y-171.525
X77.4Y-149.062
X77.42Y-143.237
X77.42Y-144.634
X77.532Y-163.245
X77.659Y-158.14
X77.698Y-113.349
X77.698Y-113.849
X77.698Y-114.349
X77.698Y-114.849
X77.698Y-115.849
X77.698Y-116.349
X77.698Y-116.849
X77.699Y-115.348
X77.71Y-171.525
X78.091Y-171.525
X78.131Y-149.537
X78.197Y-113.849
X78.197Y-114.349
X78.197Y-114.849
X78.197Y-115.349
X78.197Y-115.849
X78.197Y-116.349
X78.197Y-116.849
X78.2Y-132.729
X78.202Y-133.26
X78.218Y-166.445
X78.497Y-171.525
X78.632Y-164.109
X78.698Y-113.849
X78.698Y-114.349
X78.698Y-114.849
X78.698Y-115.349
X78.698Y-115.849
X78.698Y-116.349
X78.698Y-116.849
X78.853Y-152.069
X78.853Y-171.525
X78.997Y-94.454
X79.107Y-158.216
X79.197Y-113.849
X79.197Y-114.349
X79.197Y-114.849
X79.197Y-115.349
X79.197Y-115.849
X79.197Y-116.349
X79.197Y-116.849
X79.197Y-117.324
X79.234Y-171.525
X79.401Y-149.587
X79.64Y-171.525
X79.698Y-113.849
X79.698Y-114.349
X79.698Y-114.849
X79.698Y-115.349
X79.698Y-115.849
X79.698Y-116.349
X79.698Y-116.849
X79.698Y-117.324
X80.006Y-148.206
X80.046Y-171.525
X80.072Y-161.416
X80.305Y-151.492
X80.453Y-171.525
X80.459Y-88.868
X80.459Y-91.411
X80.631Y-163.118
X80.681Y-106.552
X80.684Y-149.57
X80.716Y-138.124
X80.717Y-128.909
X80.79Y-102.704
X80.859Y-171.525
X81.07Y-85.821
X81.139Y-135.737
X81.24Y-141.68
X81.24Y-160.883
X81.266Y-142.823
X81.266Y-171.525
X81.672Y-171.525
X81.875Y-134.594
X81.901Y-146.379
X81.951Y-147.345
X82.078Y-171.525
X82.155Y-143.941
X82.18Y-144.932
X82.195Y-155.899
X82.252Y-150.783
X82.348Y-154.49
X82.401Y-103.212
X82.485Y-171.525
X82.729Y-144.838
X82.729Y-146.26
X82.729Y-147.276
X82.754Y-141.256
X82.754Y-166.153
X82.779Y-142.45
X82.779Y-143.72
X82.891Y-171.525
X83.225Y-140.036
X83.298Y-100.609
X83.298Y-101.269
X83.298Y-171.525
X83.653Y-163.042
X83.662Y-133.672
X83.704Y-135.94
X83.704Y-171.525
X84.11Y-171.525
X84.253Y-142.018
X84.278Y-143.39
X84.517Y-171.525
X84.604Y-138.489
X84.695Y-142.493
X84.72Y-141.147
X84.745Y-166.369
X84.923Y-171.525
X84.999Y-132.587
X85.106Y-109.673
X85.33Y-171.525
X85.736Y-171.525
X85.741Y-111.345
X86.041Y-135.94
X86.066Y-138.455
X86.142Y-171.525
X86.549Y-171.525
X86.904Y-158.444
X87.788Y-111.345
X87.919Y-101.106
X88.073Y-102.056
X88.163Y-100.413
X88.53Y-171.525
X88.713Y-135.838
X88.85Y-138.792
X88.85Y-140.189
X88.85Y-141.459
X88.86Y-155.676
X88.936Y-171.525
X89.216Y-134.187
X89.343Y-171.525
X89.495Y-159.587
X89.749Y-171.525
X89.825Y-156.158
X90.156Y-171.525
X90.206Y-166.395
X90.374Y-138.792
X90.374Y-140.189
X90.374Y-141.459
X90.544Y-103.893
X90.562Y-171.525
X90.968Y-171.525
X91.121Y-100.151
X91.121Y-100.659
X91.121Y-101.167
X91.121Y-101.675
X91.121Y-102.183
X91.136Y-150.73
X91.136Y-151.619
X91.136Y-152.508
X91.375Y-171.525
X91.517Y-160.255
X91.624Y-132.531
X91.629Y-99.643
X91.629Y-102.31
X91.667Y-94.286
X91.771Y-138.792
X91.771Y-140.189
X91.771Y-141.459
X91.781Y-171.525
X92.025Y-150.73
X92.025Y-151.619
X92.025Y-152.508
X92.137Y-99.643
X92.137Y-102.31
X92.188Y-171.525
X92.594Y-98.29
X92.594Y-171.525
X92.645Y-100.151
X92.645Y-100.659
X92.645Y-101.167
X92.645Y-101.675
X92.645Y-102.183
X92.914Y-150.73
X92.914Y-151.619
X92.914Y-152.508
X93.0Y-171.525
X93.153Y-102.31
X93.209Y-106.364
X93.254Y-160.553
X93.264Y-105.526
X93.407Y-99.516
X93.407Y-101.548
X93.407Y-171.525
X93.813Y-171.525
X94.202Y-146.682
X94.22Y-171.525
X94.626Y-171.525
X95.032Y-171.525
X95.134Y-97.688
X95.413Y-159.537
X95.439Y-171.525
X95.563Y-106.387
X95.619Y-105.47
X95.72Y-146.793
X95.723Y-143.101
X95.784Y-139.92
X95.804Y-138.947
X95.845Y-171.525
X96.048Y-141.833
X96.074Y-109.295
X96.188Y-97.187
X96.252Y-171.525
X96.333Y-132.447
X96.335Y-99.326
X96.373Y-85.036
X96.404Y-113.514
X96.429Y-152.755
X96.445Y-139.656
X96.495Y-137.268
X96.521Y-138.411
X96.658Y-171.525
X96.963Y-109.295
X97.064Y-171.525
X97.189Y-103.72
X97.453Y-139.239
X97.471Y-171.525
X97.664Y-166.463
X97.699Y-159.537
X97.877Y-171.525
X98.03Y-93.979
X98.05Y-144.888
X98.078Y-141.668
X98.111Y-138.422
X98.276Y-139.971
X98.284Y-171.525
X98.563Y-132.587
X98.69Y-171.525
X98.934Y-146.738
X99.01Y-138.488
X99.038Y-137.088
X99.096Y-171.525
X99.503Y-171.525
X99.863Y-143.351
X99.909Y-171.525
X100.044Y-138.442
X100.234Y-139.912
X100.28Y-97.03
X100.3Y-142.869
X100.316Y-171.525
X100.366Y-143.801
X100.392Y-105.739
X100.392Y-106.247
X100.392Y-106.755
X100.425Y-139.29
X100.524Y-114.721
X100.592Y-140.954
X100.722Y-171.525
X100.831Y-109.283
X100.927Y-100.95
X101.027Y-105.739
X101.027Y-106.247
X101.027Y-106.755
X101.052Y-94.64
X101.128Y-171.525
X101.306Y-103.265
X101.535Y-171.525
X101.611Y-135.635
X101.713Y-142.105
X101.728Y-144.611
X101.873Y-144.144
X101.939Y-143.598
X101.941Y-171.525
X102.348Y-171.525
X102.429Y-167.444
X102.622Y-116.036
X102.662Y-113.354
X102.678Y-109.295
X102.695Y-121.404
X102.754Y-171.525
X102.963Y-100.86
X103.16Y-171.525
X103.567Y-171.525
X103.618Y-146.075
X103.745Y-88.798
X103.745Y-91.261
X103.973Y-171.525
X103.976Y-121.34
X103.999Y-116.115
X104.222Y-103.032
X104.303Y-89.356
X104.303Y-90.576
X104.38Y-171.525
X104.608Y-102.336
X104.755Y-137.116
X104.755Y-138.005
X104.755Y-138.894
X104.786Y-171.525
X105.192Y-171.525
X105.284Y-116.059
X105.335Y-113.235
X105.335Y-121.325
X105.599Y-171.525
X105.624Y-94.231
X105.624Y-100.151
X105.624Y-101.879
X105.627Y-100.974
X105.644Y-137.116
X105.644Y-138.005
X105.644Y-138.894
X105.68Y-132.664
X106.005Y-171.525
X106.31Y-98.881
X106.412Y-171.525
X106.533Y-137.116
X106.533Y-138.005
X106.533Y-138.894
X106.818Y-171.525
X107.224Y-171.525
X107.631Y-171.525
X108.037Y-171.525
X108.444Y-171.525
X108.484Y-119.402
X108.761Y-145.254
X108.85Y-171.525
X108.901Y-100.151
X108.901Y-100.659
X108.901Y-101.167
X108.901Y-101.675
X108.901Y-102.183
X109.256Y-171.525
X109.409Y-99.643
X109.409Y-102.31
X109.645Y-145.259
X109.663Y-171.525
X109.828Y-115.282
X109.917Y-99.643
X109.917Y-102.31
X110.069Y-171.525
X110.171Y-144.195
X110.425Y-100.151
X110.425Y-100.659
X110.425Y-101.167
X110.425Y-101.675
X110.425Y-102.183
X110.439Y-99.545
X110.45Y-148.513
X110.45Y-150.189
X110.476Y-171.525
X110.613Y-103.143
X110.806Y-106.755
X110.811Y-124.279
X110.857Y-145.033
X110.882Y-144.195
X110.882Y-171.525
X111.288Y-144.576
X111.288Y-171.525
X111.558Y-144.103
X111.695Y-171.525
X111.974Y-144.017
X112.101Y-171.525
X112.508Y-171.525
X112.914Y-171.525
X113.249Y-84.868
X113.32Y-171.525
X113.343Y-142.346
X113.579Y-149.6
X113.579Y-150.593
X113.727Y-171.525
X113.841Y-146.156
X114.133Y-171.525
X114.17Y-150.1
X114.26Y-152.933
X114.54Y-171.525
X114.755Y-149.605
X114.768Y-145.49
X114.799Y-150.621
X114.946Y-171.525
X115.352Y-171.525
X115.378Y-137.479
X115.617Y-101.013
X115.759Y-171.525
X116.111Y-103.931
X116.15Y-100.312
X116.165Y-171.525
X116.521Y-105.993
X116.521Y-106.501
X116.521Y-107.009
X116.521Y-107.517
X116.572Y-171.525
X116.749Y-150.855
X116.978Y-171.525
X117.029Y-105.485
X117.384Y-171.525
X117.537Y-105.485
X117.791Y-171.525
X117.857Y-142.501
X117.969Y-145.808
X118.045Y-105.993
X118.045Y-106.501
X118.045Y-107.009
X118.045Y-107.517
X118.197Y-171.525
X118.527Y-142.569
X118.604Y-171.525
X118.629Y-145.821
X119.01Y-171.525
X119.34Y-142.595
X119.34Y-145.821
X119.414Y-137.479
X119.416Y-171.525
X119.526Y-140.771
X119.553Y-106.562
X119.823Y-171.525
X119.864Y-145.817
X119.931Y-142.6
X120.229Y-171.525
X120.636Y-171.525
X121.042Y-171.525
X121.377Y-94.454
X121.448Y-171.525
X121.855Y-171.525
X122.261Y-171.525
X122.668Y-171.525
X123.074Y-171.525
X123.48Y-171.525
X123.633Y-112.978
X123.704Y-106.423
X123.844Y-84.812
X123.887Y-171.525
X123.899Y-121.866
X124.09Y-166.395
X124.179Y-127.639
X124.293Y-171.525
X124.7Y-171.525
X124.865Y-145.719
X125.106Y-171.525
X125.162Y-125.511
X125.215Y-121.81
X125.512Y-171.525
X125.919Y-171.525
X126.0Y-141.711
X126.561Y-138.795
X127.494Y-154.203
X127.9Y-171.525
X128.195Y-108.363
X128.195Y-109.151
X128.306Y-171.525
X128.637Y-103.367
X128.662Y-154.258
X128.687Y-128.752
X128.713Y-171.525
X128.952Y-100.37
X128.992Y-141.503
X129.028Y-119.961
X129.119Y-171.525
X129.526Y-171.525
X129.576Y-166.395
X129.782Y-165.003
X129.932Y-171.525
X130.15Y-100.37
X130.338Y-171.525
X130.542Y-163.143
X130.745Y-171.525
X131.037Y-165.031
X131.151Y-171.525
X131.532Y-128.752
X131.558Y-171.525
X131.588Y-113.374
X131.588Y-113.849
X131.588Y-114.349
X131.588Y-114.849
X131.588Y-115.349
X131.588Y-115.849
X131.588Y-116.349
X131.588Y-116.849
X131.588Y-117.299
X131.964Y-171.525
X132.005Y-108.566
X132.088Y-113.374
X132.088Y-114.849
X132.088Y-115.349
X132.088Y-115.849
X132.088Y-116.349
X132.088Y-116.849
X132.088Y-117.299
X132.309Y-150.857
X132.37Y-171.525
X132.588Y-113.849
X132.588Y-114.349
X132.588Y-114.849
X132.588Y-115.349
X132.588Y-115.849
X132.588Y-116.349
X132.588Y-116.849
X132.61Y-105.518
X132.716Y-106.534
X132.741Y-107.474
X132.777Y-171.525
X133.088Y-113.849
X133.088Y-114.349
X133.088Y-114.849
X133.088Y-115.349
X133.088Y-115.849
X133.088Y-116.349
X133.088Y-116.849
X133.183Y-171.525
X133.588Y-113.849
X133.588Y-114.349
X133.588Y-114.849
X133.588Y-115.849
X133.588Y-116.349
X133.588Y-116.849
X133.59Y-171.525
X133.615Y-135.625
X133.628Y-138.0
X133.757Y-149.841
X133.783Y-148.775
X133.862Y-140.605
X133.996Y-171.525
X134.088Y-113.849
X134.088Y-114.349
X134.088Y-114.849
X134.088Y-115.349
X134.088Y-115.849
X134.088Y-116.349
X134.088Y-116.849
X134.326Y-171.525
X134.55Y-94.398
X134.588Y-113.849
X134.588Y-114.349
X134.588Y-114.849
X134.588Y-115.349
X134.588Y-115.849
X134.588Y-116.349
X134.588Y-116.849
X134.682Y-171.525
X135.088Y-113.849
X135.088Y-114.349
X135.088Y-114.849
X135.088Y-115.349
X135.088Y-115.849
X135.088Y-116.349
X135.088Y-116.849
X135.088Y-117.324
X135.088Y-171.525
X135.19Y-162.229
X135.495Y-171.525
X135.55Y-131.727
X135.588Y-113.849
X135.588Y-114.349
X135.588Y-114.849
X135.588Y-115.349
X135.588Y-115.849
X135.588Y-116.349
X135.588Y-116.849
X135.606Y-117.276
X135.901Y-171.525
X136.069Y-108.516
X136.229Y-149.938
X136.257Y-155.066
X136.307Y-171.525
X136.458Y-152.272
X136.579Y-158.642
X136.622Y-159.958
X136.627Y-107.55
X136.714Y-171.525
X136.729Y-106.56
X137.12Y-148.005
X137.12Y-171.525
X137.288Y-104.883
X137.374Y-166.369
X137.527Y-171.525
X137.709Y-158.846
X137.709Y-159.839
X137.933Y-171.525
X137.974Y-164.421
X138.065Y-149.592
X138.222Y-122.036
X138.253Y-132.188
X138.3Y-159.346
X138.339Y-171.525
X138.466Y-148.005
X138.746Y-171.525
X138.885Y-158.851
X138.924Y-155.092
X138.929Y-159.867
X139.371Y-84.868
X139.498Y-145.041
X139.65Y-138.284
X139.65Y-139.173
X139.65Y-140.062
X139.818Y-158.754
X139.818Y-159.755
X140.272Y-105.661
X140.539Y-138.284
X140.539Y-139.173
X140.539Y-140.062
X140.742Y-132.29
X141.136Y-122.036
X141.418Y-110.375
X141.428Y-138.284
X141.428Y-139.173
X141.428Y-140.062
X141.428Y-145.219
X141.54Y-171.525
X141.563Y-164.357
X141.646Y-162.72
X141.946Y-171.525
X142.099Y-159.105
X142.175Y-145.109
X142.276Y-171.525
X142.657Y-171.525
X142.683Y-145.109
X142.81Y-166.369
X142.835Y-147.776
X142.844Y-100.32
X143.064Y-171.525
X143.257Y-132.163
X143.46Y-164.954
X143.47Y-171.525
X143.877Y-171.525
X143.993Y-144.812
X144.047Y-100.32
X144.283Y-171.525
X144.476Y-142.094
X144.689Y-171.525
X144.903Y-159.313
X145.009Y-132.544
X145.096Y-171.525
X145.502Y-171.525
X145.807Y-140.639
X145.909Y-171.525
X146.015Y-121.195
X146.315Y-171.525
X146.335Y-162.787
X146.378Y-103.311
X146.569Y-164.116
X146.721Y-171.525
X146.874Y-145.998
X146.899Y-143.916
X146.94Y-94.063
X146.978Y-162.633
X147.001Y-148.03
X147.102Y-137.464
X147.128Y-171.525
X147.473Y-132.468
X147.534Y-171.525
X147.89Y-159.384
X147.905Y-150.07
X147.941Y-171.525
X148.032Y-151.188
X148.169Y-140.233
X148.332Y-147.146
X148.347Y-171.525
X148.37Y-106.451
X148.464Y-164.827
X148.753Y-171.525
X149.084Y-137.642
X149.084Y-139.013
X149.16Y-171.525
X149.508Y-159.453
X149.566Y-171.525
X149.642Y-154.152
X149.973Y-171.525
X150.013Y-132.646
X150.252Y-166.42
X150.379Y-171.525
X150.557Y-153.288
X150.557Y-155.371
X150.785Y-171.525
X150.973Y-163.133
X151.192Y-171.525
X151.598Y-171.525
X151.705Y-154.274
X151.705Y-155.267
X152.005Y-171.525
X152.292Y-103.37
X152.295Y-154.774
X152.347Y-130.05
X152.543Y-147.962
X152.881Y-154.279
X152.924Y-155.295
X153.96Y-171.525
X154.367Y-171.525
X154.646Y-159.918
X154.687Y-156.064
X154.773Y-171.525
X154.953Y-84.363
X155.18Y-171.525
X155.586Y-171.525
X155.662Y-166.42
X155.713Y-150.723
X155.789Y-152.958
X155.789Y-154.457
X155.992Y-171.525
X156.399Y-171.525
X156.805Y-171.525
X156.84Y-100.386
X157.212Y-171.525
X157.618Y-171.525
X158.024Y-171.525
X158.073Y-100.386
X158.431Y-103.593
X158.431Y-171.525
X158.459Y-108.302
X158.837Y-171.525
X159.244Y-171.525
X159.65Y-171.525
X160.028Y-118.561
X160.082Y-171.525
X160.107Y-160.095
X160.168Y-94.063
X160.488Y-171.525
X160.895Y-171.525
X161.301Y-171.525
X161.606Y-147.522
X161.707Y-171.525
X161.809Y-143.89
X162.114Y-171.525
X162.52Y-170.713
X162.52Y-171.119
X162.52Y-171.525
X162.546Y-163.855
X162.546Y-164.261
X162.546Y-164.667
X162.546Y-165.074
X162.546Y-165.48
X162.546Y-165.887
X162.546Y-166.293
X162.546Y-166.699
X162.546Y-167.106
T3
X52.112Y-90.142
X52.529Y-88.868
X52.529Y-91.411
X53.286Y-92.109
X53.298Y-88.17
X54.331Y-87.891
X54.408Y-92.412
X54.989Y-135.323
X55.001Y-134.713
X55.053Y-128.345
X55.053Y-128.98
X55.474Y-92.133
X55.525Y-88.196
X56.262Y-88.856
X56.262Y-91.447
X57.085Y-139.394
X58.355Y-139.902
X59.083Y-136.356
X59.117Y-127.456
X59.315Y-138.18
X60.973Y-159.976
X61.033Y-127.341
X61.735Y-159.976
X62.504Y-98.771
X62.504Y-99.421
X62.586Y-159.976
X62.767Y-143.872
X62.889Y-141.538
X63.308Y-134.695
X63.308Y-135.33
X63.323Y-45.381
X63.323Y-45.889
X63.348Y-159.976
X63.37Y-140.001
X63.562Y-128.345
X63.562Y-128.98
X64.517Y-156.877
X64.517Y-157.588
X64.563Y-107.053
X65.086Y-141.68
X65.198Y-107.053
X65.723Y-110.988
X66.049Y-90.142
X66.356Y-127.202
X66.465Y-88.868
X66.465Y-91.411
X66.737Y-99.516
X66.864Y-127.202
X66.993Y-110.988
X67.223Y-92.109
X67.234Y-88.17
X67.591Y-130.366
X67.897Y-140.791
X67.958Y-101.537
X67.958Y-102.249
X68.007Y-99.516
X68.007Y-107.009
X68.007Y-107.644
X68.241Y-135.965
X68.268Y-87.891
X68.344Y-92.412
X68.515Y-93.674
X68.891Y-130.356
X69.067Y-99.536
X69.15Y-139.267
X69.411Y-92.133
X69.462Y-88.196
X69.541Y-133.171
X69.912Y-111.454
X70.198Y-88.856
X70.198Y-91.447
X70.229Y-160.857
X70.613Y-139.31
X70.928Y-155.142
X70.928Y-155.777
X71.12Y-142.121
X71.145Y-142.857
X72.325Y-103.961
X72.96Y-126.567
X72.96Y-127.202
X73.062Y-105.097
X73.063Y-105.746
X73.214Y-129.615
X73.214Y-130.123
X73.65Y-145.204
X73.808Y-135.266
X73.82Y-134.656
X73.976Y-104.342
X74.23Y-160.603
X74.419Y-148.657
X75.246Y-93.658
X75.337Y-147.505
X75.632Y-136.083
X75.754Y-103.707
X76.074Y-147.505
X76.262Y-130.25
X76.262Y-130.885
X76.436Y-98.744
X76.436Y-99.394
X76.81Y-147.454
X77.293Y-45.381
X77.293Y-45.889
X77.468Y-148.099
X77.587Y-132.38
X78.669Y-145.891
X78.672Y-108.566
X78.694Y-146.564
X79.468Y-145.853
X79.468Y-146.551
X79.736Y-104.646
X79.884Y-144.1
X79.91Y-144.835
X80.042Y-90.142
X80.493Y-133.052
X80.627Y-119.082
X81.216Y-92.109
X81.227Y-88.17
X81.24Y-132.841
X81.469Y-128.726
X81.472Y-152.642
X81.482Y-152.083
X81.495Y-140.638
X81.756Y-136.648
X81.769Y-136.038
X82.104Y-128.726
X82.258Y-140.764
X82.261Y-87.891
X82.337Y-92.412
X83.058Y-102.803
X83.399Y-156.235
X83.404Y-92.133
X83.455Y-88.196
X84.136Y-132.663
X84.191Y-88.856
X84.191Y-91.447
X84.289Y-104.674
X84.898Y-108.914
X85.853Y-132.385
X85.926Y-123.658
X86.945Y-137.141
X86.945Y-137.903
X87.021Y-132.29
X87.453Y-143.11
X89.111Y-105.37
X89.13Y-104.636
X89.565Y-104.253
X89.578Y-104.984
X90.232Y-135.076
X90.411Y-98.829
X90.412Y-99.479
X91.263Y-45.381
X91.263Y-45.889
X91.908Y-105.257
X94.022Y-90.142
X94.265Y-136.947
X94.439Y-88.868
X94.439Y-91.411
X94.448Y-102.395
X94.448Y-105.257
X94.946Y-146.412
X95.196Y-92.109
X95.208Y-88.17
X95.947Y-95.706
X95.947Y-96.341
X96.241Y-87.891
X96.318Y-92.412
X96.321Y-160.459
X96.836Y-104.477
X96.988Y-102.564
X96.988Y-108.508
X97.384Y-92.133
X97.435Y-88.196
X98.172Y-88.856
X98.172Y-91.447
X98.233Y-156.158
X98.995Y-156.158
X101.042Y-150.349
X102.058Y-150.349
X102.068Y-122.471
X102.447Y-94.332
X103.303Y-122.486
X103.962Y-108.907
X104.608Y-122.577
X104.983Y-98.808
X104.983Y-99.458
X105.233Y-45.381
X105.233Y-45.889
X105.24Y-110.793
X105.251Y-110.09
X105.273Y-111.891
X105.853Y-97.611
X107.029Y-108.255
X107.029Y-111.187
X107.148Y-105.181
X107.839Y-109.504
X107.992Y-90.142
X108.409Y-88.868
X108.409Y-91.411
X109.166Y-92.109
X109.178Y-88.17
X109.426Y-110.08
X109.618Y-108.216
X110.044Y-151.459
X110.044Y-152.348
X110.171Y-146.633
X110.171Y-147.395
X110.211Y-87.891
X110.288Y-92.412
X111.354Y-92.132
X111.405Y-88.195
X112.142Y-88.856
X112.142Y-91.447
X113.459Y-121.165
X114.729Y-121.19
X114.768Y-102.92
X114.768Y-105.13
X114.955Y-152.941
X115.124Y-109.549
X115.454Y-147.395
X115.632Y-109.549
X115.999Y-121.165
X116.409Y-141.586
X117.269Y-126.543
X117.308Y-102.92
X118.404Y-98.851
X118.405Y-99.5
X119.203Y-45.381
X119.203Y-45.889
X119.33Y-147.843
X120.204Y-112.724
X121.486Y-107.263
X121.591Y-139.746
X121.962Y-90.142
X122.337Y-139.735
X122.379Y-88.868
X122.379Y-91.411
X123.136Y-92.109
X123.148Y-88.17
X124.181Y-87.891
X124.258Y-92.412
X125.324Y-92.132
X125.375Y-88.195
X126.112Y-88.856
X126.112Y-91.447
X126.3Y-118.947
X126.3Y-119.709
X128.154Y-148.843
X128.154Y-150.088
X128.281Y-146.151
X128.493Y-127.298
X128.498Y-126.669
X129.036Y-105.16
X129.036Y-105.809
X129.09Y-163.139
X131.941Y-148.292
X132.001Y-147.6
X132.269Y-143.966
X132.315Y-98.829
X132.315Y-99.479
X133.173Y-45.381
X133.173Y-45.889
X133.809Y-146.538
X134.562Y-108.566
X134.619Y-156.92
X134.619Y-157.809
X134.9Y-150.553
X135.346Y-106.534
X135.901Y-144.805
X135.925Y-90.142
X135.932Y-90.142
X136.342Y-88.868
X136.342Y-91.411
X136.349Y-88.868
X136.349Y-91.411
X136.495Y-119.04
X137.099Y-92.109
X137.11Y-88.17
X137.118Y-88.17
X138.144Y-87.891
X138.22Y-92.412
X138.554Y-163.078
X139.287Y-92.132
X139.338Y-88.195
X139.572Y-103.57
X140.074Y-88.856
X140.074Y-91.447
X140.351Y-106.941
X141.667Y-135.965
X141.718Y-149.25
X141.718Y-149.783
X141.743Y-150.316
X142.175Y-135.965
X142.429Y-156.666
X142.429Y-157.555
X143.079Y-136.633
X143.079Y-137.395
X144.603Y-140.443
X144.984Y-149.714
X144.984Y-150.349
X145.223Y-138.124
X145.223Y-139.013
X146.312Y-98.808
X146.312Y-99.457
X147.143Y-45.381
X147.143Y-45.889
X148.406Y-162.549
X148.779Y-157.428
X148.779Y-158.19
X148.86Y-151.126
X148.86Y-151.761
X149.916Y-90.142
X150.293Y-91.447
X150.333Y-88.868
X150.557Y-130.885
X151.055Y-92.158
X151.102Y-88.17
X152.135Y-87.891
X152.198Y-92.488
X153.29Y-92.209
X153.329Y-88.195
X154.066Y-88.856
X154.077Y-91.472
X155.713Y-151.746
X158.697Y-149.693
X158.8Y-151.193
X159.512Y-98.797
X159.513Y-99.446
X161.138Y-45.407
X161.138Y-45.915
X161.987Y-142.442
X162.014Y-146.026
T4
X51.868Y-27.17
X51.868Y-28.419
X51.868Y-29.669
X51.868Y-30.919
X51.868Y-32.168
X51.868Y-33.418
X51.868Y-34.668
X51.868Y-35.917
X51.868Y-37.167
X51.868Y-38.417
X51.868Y-39.666
X51.868Y-41.14
X51.868Y-42.389
X51.868Y-43.639
X51.868Y-44.889
X51.868Y-46.138
X51.868Y-47.388
X51.868Y-48.638
X51.868Y-49.887
X51.868Y-51.137
X51.868Y-52.387
X51.868Y-53.636
X51.868Y-55.11
X51.868Y-56.359
X51.868Y-57.609
X51.868Y-58.859
X51.868Y-60.108
X51.868Y-61.358
X51.868Y-62.608
X51.868Y-63.857
X51.868Y-65.107
X51.868Y-66.357
X51.868Y-67.606
X51.868Y-69.08
X51.868Y-70.329
X51.868Y-71.579
X51.868Y-72.829
X51.868Y-74.078
X51.868Y-75.328
X51.868Y-76.578
X51.868Y-77.827
X51.868Y-79.077
X51.868Y-80.327
X51.868Y-81.576
X53.117Y-27.17
X53.117Y-39.666
X53.117Y-41.14
X53.117Y-53.636
X53.117Y-55.11
X53.117Y-67.606
X53.117Y-69.08
X53.117Y-81.576
X55.617Y-27.17
X55.617Y-39.666
X55.617Y-41.14
X55.617Y-53.636
X55.617Y-55.11
X55.617Y-67.606
X55.617Y-69.08
X55.617Y-81.576
X56.866Y-27.17
X56.866Y-39.666
X56.866Y-41.14
X56.866Y-53.636
X56.866Y-55.11
X56.866Y-67.606
X56.866Y-69.08
X56.866Y-81.576
X58.116Y-27.17
X58.116Y-31.653
X58.116Y-39.666
X58.116Y-41.14
X58.116Y-45.623
X58.116Y-53.636
X58.116Y-55.11
X58.116Y-59.593
X58.116Y-67.606
X58.116Y-69.08
X58.116Y-73.563
X58.116Y-81.576
X59.366Y-27.17
X59.366Y-39.666
X59.366Y-41.14
X59.366Y-53.636
X59.366Y-55.11
X59.366Y-67.606
X59.366Y-69.08
X59.366Y-81.576
X60.615Y-27.17
X60.615Y-39.666
X60.615Y-41.14
X60.615Y-53.636
X60.615Y-55.11
X60.615Y-67.606
X60.615Y-69.08
X60.615Y-81.576
X63.115Y-27.17
X63.115Y-39.666
X63.115Y-41.14
X63.115Y-53.636
X63.115Y-55.11
X63.115Y-67.606
X63.115Y-69.08
X63.115Y-81.576
X64.364Y-27.17
X64.364Y-28.419
X64.364Y-29.669
X64.364Y-30.919
X64.364Y-32.168
X64.364Y-33.418
X64.364Y-34.668
X64.364Y-35.917
X64.364Y-37.167
X64.364Y-38.417
X64.364Y-39.666
X64.364Y-41.14
X64.364Y-42.389
X64.364Y-43.639
X64.364Y-44.889
X64.364Y-46.138
X64.364Y-47.388
X64.364Y-48.638
X64.364Y-49.887
X64.364Y-51.137
X64.364Y-52.387
X64.364Y-53.636
X64.364Y-55.11
X64.364Y-56.359
X64.364Y-57.609
X64.364Y-58.859
X64.364Y-60.108
X64.364Y-61.358
X64.364Y-62.608
X64.364Y-63.857
X64.364Y-65.107
X64.364Y-66.357
X64.364Y-67.606
X64.364Y-69.08
X64.364Y-70.329
X64.364Y-71.579
X64.364Y-72.829
X64.364Y-74.078
X64.364Y-75.328
X64.364Y-76.578
X64.364Y-77.827
X64.364Y-79.077
X64.364Y-80.327
X64.364Y-81.576
X65.838Y-27.17
X65.838Y-28.419
X65.838Y-29.669
X65.838Y-30.919
X65.838Y-32.168
X65.838Y-33.418
X65.838Y-34.668
X65.838Y-35.917
X65.838Y-37.167
X65.838Y-38.417
X65.838Y-39.666
X65.838Y-41.14
X65.838Y-42.389
X65.838Y-43.639
X65.838Y-44.889
X65.838Y-46.138
X65.838Y-47.388
X65.838Y-48.638
X65.838Y-49.887
X65.838Y-51.137
X65.838Y-52.387
X65.838Y-53.636
X65.838Y-55.11
X65.838Y-56.359
X65.838Y-57.609
X65.838Y-58.859
X65.838Y-60.108
X65.838Y-61.358
X65.838Y-62.608
X65.838Y-63.857
X65.838Y-65.107
X65.838Y-66.357
X65.838Y-67.606
X65.838Y-69.08
X65.838Y-70.329
X65.838Y-71.579
X65.838Y-72.829
X65.838Y-74.078
X65.838Y-75.328
X65.838Y-76.578
X65.838Y-77.827
X65.838Y-79.077
X65.838Y-80.327
X65.838Y-81.576
X67.087Y-27.17
X67.087Y-39.666
X67.087Y-41.14
X67.087Y-53.636
X67.087Y-55.11
X67.087Y-67.606
X67.087Y-69.08
X67.087Y-81.576
X69.587Y-27.17
X69.587Y-39.666
X69.587Y-41.14
X69.587Y-53.636
X69.587Y-55.11
X69.587Y-67.606
X69.587Y-69.08
X69.587Y-81.576
X70.836Y-27.17
X70.836Y-39.666
X70.836Y-41.14
X70.836Y-53.636
X70.836Y-55.11
X70.836Y-67.606
X70.836Y-69.08
X70.836Y-81.576
X72.086Y-27.17
X72.086Y-31.653
X72.086Y-39.666
X72.086Y-41.14
X72.086Y-45.623
X72.086Y-53.636
X72.086Y-55.11
X72.086Y-59.593
X72.086Y-67.606
X72.086Y-69.08
X72.086Y-73.563
X72.086Y-81.576
X73.336Y-27.17
X73.336Y-39.666
X73.336Y-41.14
X73.336Y-53.636
X73.336Y-55.11
X73.336Y-67.606
X73.336Y-69.08
X73.336Y-81.576
X74.585Y-27.17
X74.585Y-39.666
X74.585Y-41.14
X74.585Y-53.636
X74.585Y-55.11
X74.585Y-67.606
X74.585Y-69.08
X74.585Y-81.576
X77.085Y-27.17
X77.085Y-39.666
X77.085Y-41.14
X77.085Y-53.636
X77.085Y-55.11
X77.085Y-67.606
X77.085Y-69.08
X77.085Y-81.576
X78.334Y-27.17
X78.334Y-28.419
X78.334Y-29.669
X78.334Y-30.919
X78.334Y-32.168
X78.334Y-33.418
X78.334Y-34.668
X78.334Y-35.917
X78.334Y-37.167
X78.334Y-38.417
X78.334Y-39.666
X78.334Y-41.14
X78.334Y-42.389
X78.334Y-43.639
X78.334Y-44.889
X78.334Y-46.138
X78.334Y-47.388
X78.334Y-48.638
X78.334Y-49.887
X78.334Y-51.137
X78.334Y-52.387
X78.334Y-53.636
X78.334Y-55.11
X78.334Y-56.359
X78.334Y-57.609
X78.334Y-58.859
X78.334Y-60.108
X78.334Y-61.358
X78.334Y-62.608
X78.334Y-63.857
X78.334Y-65.107
X78.334Y-66.357
X78.334Y-67.606
X78.334Y-69.08
X78.334Y-70.329
X78.334Y-71.579
X78.334Y-72.829
X78.334Y-74.078
X78.334Y-75.328
X78.334Y-76.578
X78.334Y-77.827
X78.334Y-79.077
X78.334Y-80.327
X78.334Y-81.576
X79.808Y-27.17
X79.808Y-28.419
X79.808Y-29.669
X79.808Y-30.919
X79.808Y-32.168
X79.808Y-33.418
X79.808Y-34.668
X79.808Y-35.917
X79.808Y-37.167
X79.808Y-38.417
X79.808Y-39.666
X79.808Y-41.14
X79.808Y-42.389
X79.808Y-43.639
X79.808Y-44.889
X79.808Y-46.138
X79.808Y-47.388
X79.808Y-48.638
X79.808Y-49.887
X79.808Y-51.137
X79.808Y-52.387
X79.808Y-53.636
X79.808Y-55.11
X79.808Y-56.359
X79.808Y-57.609
X79.808Y-58.859
X79.808Y-60.108
X79.808Y-61.358
X79.808Y-62.608
X79.808Y-63.857
X79.808Y-65.107
X79.808Y-66.357
X79.808Y-67.606
X79.808Y-69.08
X79.808Y-70.329
X79.808Y-71.579
X79.808Y-72.829
X79.808Y-74.078
X79.808Y-75.328
X79.808Y-76.578
X79.808Y-77.827
X79.808Y-79.077
X79.808Y-80.327
X79.808Y-81.576
X81.057Y-27.17
X81.057Y-39.666
X81.057Y-41.14
X81.057Y-53.636
X81.057Y-55.11
X81.057Y-67.606
X81.057Y-69.08
X81.057Y-81.576
X83.557Y-27.17
X83.557Y-39.666
X83.557Y-41.14
X83.557Y-53.636
X83.557Y-55.11
X83.557Y-67.606
X83.557Y-69.08
X83.557Y-81.576
X84.806Y-27.17
X84.806Y-39.666
X84.806Y-41.14
X84.806Y-53.636
X84.806Y-55.11
X84.806Y-67.606
X84.806Y-69.08
X84.806Y-81.576
X86.056Y-27.17
X86.056Y-31.653
X86.056Y-39.666
X86.056Y-41.14
X86.056Y-45.623
X86.056Y-53.636
X86.056Y-55.11
X86.056Y-59.593
X86.056Y-67.606
X86.056Y-69.08
X86.056Y-73.563
X86.056Y-81.576
X87.306Y-27.17
X87.306Y-39.666
X87.306Y-41.14
X87.306Y-53.636
X87.306Y-55.11
X87.306Y-67.606
X87.306Y-69.08
X87.306Y-81.576
X88.555Y-27.17
X88.555Y-39.666
X88.555Y-41.14
X88.555Y-53.636
X88.555Y-55.11
X88.555Y-67.606
X88.555Y-69.08
X88.555Y-81.576
X91.055Y-27.17
X91.055Y-39.666
X91.055Y-41.14
X91.055Y-53.636
X91.055Y-55.11
X91.055Y-67.606
X91.055Y-69.08
X91.055Y-81.576
X92.304Y-27.17
X92.304Y-28.419
X92.304Y-29.669
X92.304Y-30.919
X92.304Y-32.168
X92.304Y-33.418
X92.304Y-34.668
X92.304Y-35.917
X92.304Y-37.167
X92.304Y-38.417
X92.304Y-39.666
X92.304Y-41.14
X92.304Y-42.389
X92.304Y-43.639
X92.304Y-44.889
X92.304Y-46.138
X92.304Y-47.388
X92.304Y-48.638
X92.304Y-49.887
X92.304Y-51.137
X92.304Y-52.387
X92.304Y-53.636
X92.304Y-55.11
X92.304Y-56.359
X92.304Y-57.609
X92.304Y-58.859
X92.304Y-60.108
X92.304Y-61.358
X92.304Y-62.608
X92.304Y-63.857
X92.304Y-65.107
X92.304Y-66.357
X92.304Y-67.606
X92.304Y-69.08
X92.304Y-70.329
X92.304Y-71.579
X92.304Y-72.829
X92.304Y-74.078
X92.304Y-75.328
X92.304Y-76.578
X92.304Y-77.827
X92.304Y-79.077
X92.304Y-80.327
X92.304Y-81.576
X93.778Y-27.17
X93.778Y-28.419
X93.778Y-29.669
X93.778Y-30.919
X93.778Y-32.168
X93.778Y-33.418
X93.778Y-34.668
X93.778Y-35.917
X93.778Y-37.167
X93.778Y-38.417
X93.778Y-39.666
X93.778Y-41.14
X93.778Y-42.389
X93.778Y-43.639
X93.778Y-44.889
X93.778Y-46.138
X93.778Y-47.388
X93.778Y-48.638
X93.778Y-49.887
X93.778Y-51.137
X93.778Y-52.387
X93.778Y-53.636
X93.778Y-55.11
X93.778Y-56.359
X93.778Y-57.609
X93.778Y-58.859
X93.778Y-60.108
X93.778Y-61.358
X93.778Y-62.608
X93.778Y-63.857
X93.778Y-65.107
X93.778Y-66.357
X93.778Y-67.606
X93.778Y-69.08
X93.778Y-70.329
X93.778Y-71.579
X93.778Y-72.829
X93.778Y-74.078
X93.778Y-75.328
X93.778Y-76.578
X93.778Y-77.827
X93.778Y-79.077
X93.778Y-80.327
X93.778Y-81.576
X95.027Y-27.17
X95.027Y-39.666
X95.027Y-41.14
X95.027Y-53.636
X95.027Y-55.11
X95.027Y-67.606
X95.027Y-69.08
X95.027Y-81.576
X97.527Y-27.17
X97.527Y-39.666
X97.527Y-41.14
X97.527Y-53.636
X97.527Y-55.11
X97.527Y-67.606
X97.527Y-69.08
X97.527Y-81.576
X98.776Y-27.17
X98.776Y-39.666
X98.776Y-41.14
X98.776Y-53.636
X98.776Y-55.11
X98.776Y-67.606
X98.776Y-69.08
X98.776Y-81.576
X100.026Y-27.17
X100.026Y-31.653
X100.026Y-39.666
X100.026Y-41.14
X100.026Y-45.623
X100.026Y-53.636
X100.026Y-55.11
X100.026Y-59.593
X100.026Y-67.606
X100.026Y-69.08
X100.026Y-73.563
X100.026Y-81.576
X101.276Y-27.17
X101.276Y-39.666
X101.276Y-41.14
X101.276Y-53.636
X101.276Y-55.11
X101.276Y-67.606
X101.276Y-69.08
X101.276Y-81.576
X102.525Y-27.17
X102.525Y-39.666
X102.525Y-41.14
X102.525Y-53.636
X102.525Y-55.11
X102.525Y-67.606
X102.525Y-69.08
X102.525Y-81.576
X105.025Y-27.17
X105.025Y-39.666
X105.025Y-41.14
X105.025Y-53.636
X105.025Y-55.11
X105.025Y-67.606
X105.025Y-69.08
X105.025Y-81.576
X106.274Y-27.17
X106.274Y-28.419
X106.274Y-29.669
X106.274Y-30.919
X106.274Y-32.168
X106.274Y-33.418
X106.274Y-34.668
X106.274Y-35.917
X106.274Y-37.167
X106.274Y-38.417
X106.274Y-39.666
X106.274Y-41.14
X106.274Y-42.389
X106.274Y-43.639
X106.274Y-44.889
X106.274Y-46.138
X106.274Y-47.388
X106.274Y-48.638
X106.274Y-49.887
X106.274Y-51.137
X106.274Y-52.387
X106.274Y-53.636
X106.274Y-55.11
X106.274Y-56.359
X106.274Y-57.609
X106.274Y-58.859
X106.274Y-60.108
X106.274Y-61.358
X106.274Y-62.608
X106.274Y-63.857
X106.274Y-65.107
X106.274Y-66.357
X106.274Y-67.606
X106.274Y-69.08
X106.274Y-70.329
X106.274Y-71.579
X106.274Y-72.829
X106.274Y-74.078
X106.274Y-75.328
X106.274Y-76.578
X106.274Y-77.827
X106.274Y-79.077
X106.274Y-80.327
X106.274Y-81.576
X107.748Y-27.17
X107.748Y-28.419
X107.748Y-29.669
X107.748Y-30.919
X107.748Y-32.168
X107.748Y-33.418
X107.748Y-34.668
X107.748Y-35.917
X107.748Y-37.167
X107.748Y-38.417
X107.748Y-39.666
X107.748Y-41.14
X107.748Y-42.389
X107.748Y-43.639
X107.748Y-44.889
X107.748Y-46.138
X107.748Y-47.388
X107.748Y-48.638
X107.748Y-49.887
X107.748Y-51.137
X107.748Y-52.387
X107.748Y-53.636
X107.748Y-55.11
X107.748Y-56.359
X107.748Y-57.609
X107.748Y-58.859
X107.748Y-60.108
X107.748Y-61.358
X107.748Y-62.608
X107.748Y-63.857
X107.748Y-65.107
X107.748Y-66.357
X107.748Y-67.606
X107.748Y-69.08
X107.748Y-70.329
X107.748Y-71.579
X107.748Y-72.829
X107.748Y-74.078
X107.748Y-75.328
X107.748Y-76.578
X107.748Y-77.827
X107.748Y-79.077
X107.748Y-80.327
X107.748Y-81.576
X108.997Y-27.17
X108.997Y-39.666
X108.997Y-41.14
X108.997Y-53.636
X108.997Y-55.11
X108.997Y-67.606
X108.997Y-69.08
X108.997Y-81.576
X111.497Y-27.17
X111.497Y-39.666
X111.497Y-41.14
X111.497Y-53.636
X111.497Y-55.11
X111.497Y-67.606
X111.497Y-69.08
X111.497Y-81.576
X112.746Y-27.17
X112.746Y-39.666
X112.746Y-41.14
X112.746Y-53.636
X112.746Y-55.11
X112.746Y-67.606
X112.746Y-69.08
X112.746Y-81.576
X113.996Y-27.17
X113.996Y-31.653
X113.996Y-39.666
X113.996Y-41.14
X113.996Y-45.623
X113.996Y-53.636
X113.996Y-55.11
X113.996Y-59.593
X113.996Y-67.606
X113.996Y-69.08
X113.996Y-73.563
X113.996Y-81.576
X115.246Y-27.17
X115.246Y-39.666
X115.246Y-41.14
X115.246Y-53.636
X115.246Y-55.11
X115.246Y-67.606
X115.246Y-69.08
X115.246Y-81.576
X116.495Y-27.17
X116.495Y-39.666
X116.495Y-41.14
X116.495Y-53.636
X116.495Y-55.11
X116.495Y-67.606
X116.495Y-69.08
X116.495Y-81.576
X118.995Y-27.17
X118.995Y-39.666
X118.995Y-41.14
X118.995Y-53.636
X118.995Y-55.11
X118.995Y-67.606
X118.995Y-69.08
X118.995Y-81.576
X120.244Y-27.17
X120.244Y-28.419
X120.244Y-29.669
X120.244Y-30.919
X120.244Y-32.168
X120.244Y-33.418
X120.244Y-34.668
X120.244Y-35.917
X120.244Y-37.167
X120.244Y-38.417
X120.244Y-39.666
X120.244Y-41.14
X120.244Y-42.389
X120.244Y-43.639
X120.244Y-44.889
X120.244Y-46.138
X120.244Y-47.388
X120.244Y-48.638
X120.244Y-49.887
X120.244Y-51.137
X120.244Y-52.387
X120.244Y-53.636
X120.244Y-55.11
X120.244Y-56.359
X120.244Y-57.609
X120.244Y-58.859
X120.244Y-60.108
X120.244Y-61.358
X120.244Y-62.608
X120.244Y-63.857
X120.244Y-65.107
X120.244Y-66.357
X120.244Y-67.606
X120.244Y-69.08
X120.244Y-70.329
X120.244Y-71.579
X120.244Y-72.829
X120.244Y-74.078
X120.244Y-75.328
X120.244Y-76.578
X120.244Y-77.827
X120.244Y-79.077
X120.244Y-80.327
X120.244Y-81.576
X121.718Y-27.17
X121.718Y-28.419
X121.718Y-29.669
X121.718Y-30.919
X121.718Y-32.168
X121.718Y-33.418
X121.718Y-34.668
X121.718Y-35.917
X121.718Y-37.167
X121.718Y-38.417
X121.718Y-39.666
X121.718Y-41.14
X121.718Y-42.389
X121.718Y-43.639
X121.718Y-44.889
X121.718Y-46.138
X121.718Y-47.388
X121.718Y-48.638
X121.718Y-49.887
X121.718Y-51.137
X121.718Y-52.387
X121.718Y-53.636
X121.718Y-55.11
X121.718Y-56.359
X121.718Y-57.609
X121.718Y-58.859
X121.718Y-60.108
X121.718Y-61.358
X121.718Y-62.608
X121.718Y-63.857
X121.718Y-65.107
X121.718Y-66.357
X121.718Y-67.606
X121.718Y-69.08
X121.718Y-70.329
X121.718Y-71.579
X121.718Y-72.829
X121.718Y-74.078
X121.718Y-75.328
X121.718Y-76.578
X121.718Y-77.827
X121.718Y-79.077
X121.718Y-80.327
X121.718Y-81.576
X122.967Y-27.17
X122.967Y-39.666
X122.967Y-41.14
X122.967Y-53.636
X122.967Y-55.11
X122.967Y-67.606
X122.967Y-69.08
X122.967Y-81.576
X125.467Y-27.17
X125.467Y-39.666
X125.467Y-41.14
X125.467Y-53.636
X125.467Y-55.11
X125.467Y-67.606
X125.467Y-69.08
X125.467Y-81.576
X126.716Y-27.17
X126.716Y-39.666
X126.716Y-41.14
X126.716Y-53.636
X126.716Y-55.11
X126.716Y-67.606
X126.716Y-69.08
X126.716Y-81.576
X127.966Y-27.17
X127.966Y-31.653
X127.966Y-39.666
X127.966Y-41.14
X127.966Y-45.623
X127.966Y-53.636
X127.966Y-55.11
X127.966Y-59.593
X127.966Y-67.606
X127.966Y-69.08
X127.966Y-73.563
X127.966Y-81.576
X129.216Y-27.17
X129.216Y-39.666
X129.216Y-41.14
X129.216Y-53.636
X129.216Y-55.11
X129.216Y-67.606
X129.216Y-69.08
X129.216Y-81.576
X130.465Y-27.17
X130.465Y-39.666
X130.465Y-41.14
X130.465Y-53.636
X130.465Y-55.11
X130.465Y-67.606
X130.465Y-69.08
X130.465Y-81.576
X132.965Y-27.17
X132.965Y-39.666
X132.965Y-41.14
X132.965Y-53.636
X132.965Y-55.11
X132.965Y-67.606
X132.965Y-69.08
X132.965Y-81.576
X134.214Y-27.17
X134.214Y-28.419
X134.214Y-29.669
X134.214Y-30.919
X134.214Y-32.168
X134.214Y-33.418
X134.214Y-34.668
X134.214Y-35.917
X134.214Y-37.167
X134.214Y-38.417
X134.214Y-39.666
X134.214Y-41.14
X134.214Y-42.389
X134.214Y-43.639
X134.214Y-44.889
X134.214Y-46.138
X134.214Y-47.388
X134.214Y-48.638
X134.214Y-49.887
X134.214Y-51.137
X134.214Y-52.387
X134.214Y-53.636
X134.214Y-55.11
X134.214Y-56.359
X134.214Y-57.609
X134.214Y-58.859
X134.214Y-60.108
X134.214Y-61.358
X134.214Y-62.608
X134.214Y-63.857
X134.214Y-65.107
X134.214Y-66.357
X134.214Y-67.606
X134.214Y-69.08
X134.214Y-70.329
X134.214Y-71.579
X134.214Y-72.829
X134.214Y-74.078
X134.214Y-75.328
X134.214Y-76.578
X134.214Y-77.827
X134.214Y-79.077
X134.214Y-80.327
X134.214Y-81.576
X135.688Y-27.17
X135.688Y-28.419
X135.688Y-29.669
X135.688Y-30.919
X135.688Y-32.168
X135.688Y-33.418
X135.688Y-34.668
X135.688Y-35.917
X135.688Y-37.167
X135.688Y-38.417
X135.688Y-39.666
X135.688Y-41.14
X135.688Y-42.389
X135.688Y-43.639
X135.688Y-44.889
X135.688Y-46.138
X135.688Y-47.388
X135.688Y-48.638
X135.688Y-49.887
X135.688Y-51.137
X135.688Y-52.387
X135.688Y-53.636
X135.688Y-55.11
X135.688Y-56.359
X135.688Y-57.609
X135.688Y-58.859
X135.688Y-60.108
X135.688Y-61.358
X135.688Y-62.608
X135.688Y-63.857
X135.688Y-65.107
X135.688Y-66.357
X135.688Y-67.606
X135.688Y-69.08
X135.688Y-70.329
X135.688Y-71.579
X135.688Y-72.829
X135.688Y-74.078
X135.688Y-75.328
X135.688Y-76.578
X135.688Y-77.827
X135.688Y-79.077
X135.688Y-80.327
X135.688Y-81.576
X136.937Y-27.17
X136.937Y-39.666
X136.937Y-41.14
X136.937Y-53.636
X136.937Y-55.11
X136.937Y-67.606
X136.937Y-69.08
X136.937Y-81.576
X139.437Y-27.17
X139.437Y-39.666
X139.437Y-41.14
X139.437Y-53.636
X139.437Y-55.11
X139.437Y-67.606
X139.437Y-69.08
X139.437Y-81.576
X140.686Y-27.17
X140.686Y-39.666
X140.686Y-41.14
X140.686Y-53.636
X140.686Y-55.11
X140.686Y-67.606
X140.686Y-69.08
X140.686Y-81.576
X141.936Y-27.17
X141.936Y-31.653
X141.936Y-39.666
X141.936Y-41.14
X141.936Y-45.623
X141.936Y-53.636
X141.936Y-55.11
X141.936Y-59.593
X141.936Y-67.606
X141.936Y-69.08
X141.936Y-73.563
X141.936Y-81.576
X143.186Y-27.17
X143.186Y-39.666
X143.186Y-41.14
X143.186Y-53.636
X143.186Y-55.11
X143.186Y-67.606
X143.186Y-69.08
X143.186Y-81.576
X144.435Y-27.17
X144.435Y-39.666
X144.435Y-41.14
X144.435Y-53.636
X144.435Y-55.11
X144.435Y-67.606
X144.435Y-69.08
X144.435Y-81.576
X146.935Y-27.17
X146.935Y-39.666
X146.935Y-41.14
X146.935Y-53.636
X146.935Y-55.11
X146.935Y-67.606
X146.935Y-69.08
X146.935Y-81.576
X148.184Y-27.17
X148.184Y-28.419
X148.184Y-29.669
X148.184Y-30.919
X148.184Y-32.168
X148.184Y-33.418
X148.184Y-34.668
X148.184Y-35.917
X148.184Y-37.167
X148.184Y-38.417
X148.184Y-39.666
X148.184Y-41.14
X148.184Y-42.389
X148.184Y-43.639
X148.184Y-44.889
X148.184Y-46.138
X148.184Y-47.388
X148.184Y-48.638
X148.184Y-49.887
X148.184Y-51.137
X148.184Y-52.387
X148.184Y-53.636
X148.184Y-55.11
X148.184Y-56.359
X148.184Y-57.609
X148.184Y-58.859
X148.184Y-60.108
X148.184Y-61.358
X148.184Y-62.608
X148.184Y-63.857
X148.184Y-65.107
X148.184Y-66.357
X148.184Y-67.606
X148.184Y-69.08
X148.184Y-70.329
X148.184Y-71.579
X148.184Y-72.829
X148.184Y-74.078
X148.184Y-75.328
X148.184Y-76.578
X148.184Y-77.827
X148.184Y-79.077
X148.184Y-80.327
X148.184Y-81.576
X149.658Y-27.17
X149.658Y-28.419
X149.658Y-29.669
X149.658Y-30.919
X149.658Y-32.168
X149.658Y-33.418
X149.658Y-34.668
X149.658Y-35.917
X149.658Y-37.167
X149.658Y-38.417
X149.658Y-39.666
X149.658Y-41.14
X149.658Y-42.389
X149.658Y-43.639
X149.658Y-44.889
X149.658Y-46.138
X149.658Y-47.388
X149.658Y-48.638
X149.658Y-49.887
X149.658Y-51.137
X149.658Y-52.387
X149.658Y-53.636
X149.658Y-55.11
X149.658Y-56.359
X149.658Y-57.609
X149.658Y-58.859
X149.658Y-60.108
X149.658Y-61.358
X149.658Y-62.608
X149.658Y-63.857
X149.658Y-65.107
X149.658Y-66.357
X149.658Y-67.606
X149.658Y-69.08
X149.658Y-70.329
X149.658Y-71.579
X149.658Y-72.829
X149.658Y-74.078
X149.658Y-75.328
X149.658Y-76.578
X149.658Y-77.827
X149.658Y-79.077
X149.658Y-80.327
X149.658Y-81.576
X150.907Y-27.17
X150.907Y-39.666
X150.907Y-41.14
X150.907Y-53.636
X150.907Y-55.11
X150.907Y-67.606
X150.907Y-69.08
X150.907Y-81.576
X153.407Y-27.17
X153.407Y-39.666
X153.407Y-41.14
X153.407Y-53.636
X153.407Y-55.11
X153.407Y-67.606
X153.407Y-69.08
X153.407Y-81.576
X154.656Y-27.17
X154.656Y-39.666
X154.656Y-41.14
X154.656Y-53.636
X154.656Y-55.11
X154.656Y-67.606
X154.656Y-69.08
X154.656Y-81.576
X155.906Y-27.17
X155.906Y-31.653
X155.906Y-39.666
X155.906Y-41.14
X155.906Y-45.623
X155.906Y-53.636
X155.906Y-55.11
X155.906Y-59.593
X155.906Y-67.606
X155.906Y-69.08
X155.906Y-73.563
X155.906Y-81.576
X157.156Y-27.17
X157.156Y-39.666
X157.156Y-41.14
X157.156Y-53.636
X157.156Y-55.11
X157.156Y-67.606
X157.156Y-69.08
X157.156Y-81.576
X158.405Y-27.17
X158.405Y-39.666
X158.405Y-41.14
X158.405Y-53.636
X158.405Y-55.11
X158.405Y-67.606
X158.405Y-69.08
X158.405Y-81.576
X160.905Y-27.17
X160.905Y-39.666
X160.905Y-41.14
X160.905Y-53.636
X160.905Y-55.11
X160.905Y-67.606
X160.905Y-69.08
X160.905Y-81.576
X162.154Y-27.17
X162.154Y-28.419
X162.154Y-29.669
X162.154Y-30.919
X162.154Y-32.168
X162.154Y-33.418
X162.154Y-34.668
X162.154Y-35.917
X162.154Y-37.167
X162.154Y-38.417
X162.154Y-39.666
X162.154Y-41.14
X162.154Y-42.389
X162.154Y-43.639
X162.154Y-44.889
X162.154Y-46.138
X162.154Y-47.388
X162.154Y-48.638
X162.154Y-49.887
X162.154Y-51.137
X162.154Y-52.387
X162.154Y-53.636
X162.154Y-55.11
X162.154Y-56.359
X162.154Y-57.609
X162.154Y-58.859
X162.154Y-60.108
X162.154Y-61.358
X162.154Y-62.608
X162.154Y-63.857
X162.154Y-65.107
X162.154Y-66.357
X162.154Y-67.606
X162.154Y-69.08
X162.154Y-70.329
X162.154Y-71.579
X162.154Y-72.829
X162.154Y-74.078
X162.154Y-75.328
X162.154Y-76.578
X162.154Y-77.827
X162.154Y-79.077
X162.154Y-80.327
X162.154Y-81.576
T5
X76.962Y-122.486
X78.435Y-122.486
X132.853Y-122.46
X134.326Y-122.46
X136.458Y-153.746
X145.272Y-154.949
X145.272Y-156.092
X147.685Y-154.949
X147.685Y-156.092
T6
X59.327Y-162.486
X59.727Y-163.186
X60.127Y-162.486
X60.527Y-163.186
X60.927Y-162.486
X61.327Y-163.186
X61.727Y-162.486
X62.527Y-162.486
X62.927Y-163.186
X63.327Y-162.486
X63.727Y-163.186
X64.127Y-162.486
X64.527Y-163.186
X64.927Y-162.486
T7
X52.927Y-100.646
X52.927Y-103.186
X52.927Y-105.726
X52.927Y-108.266
X52.927Y-110.806
X52.927Y-113.346
X52.927Y-115.886
X53.951Y-140.844
X53.951Y-143.384
X53.951Y-145.924
X53.951Y-148.464
X53.951Y-151.004
X53.951Y-153.544
X53.951Y-156.084
X56.491Y-140.844
X56.491Y-143.384
X56.491Y-145.924
X56.491Y-148.464
X56.491Y-151.004
X56.491Y-153.544
X56.491Y-156.084
X59.408Y-103.11
X59.408Y-105.65
X150.521Y-136.063
X150.521Y-138.603
X150.521Y-141.143
X154.674Y-136.089
X154.674Y-138.629
X154.674Y-141.169
T8
X131.446Y-134.383
X131.446Y-136.89
X131.446Y-139.272
X131.446Y-141.68
X137.19Y-130.537
X139.6Y-130.537
X142.022Y-130.537
T9
X57.857Y-163.636
X57.857Y-168.366
X66.397Y-163.636
X66.397Y-168.366
T10
X101.407Y-133.502
X158.599Y-130.537
T11
X53.4Y-123.017
X53.401Y-168.754
X65.087Y-24.17
X65.095Y-84.568
X107.008Y-84.574
X107.012Y-24.17
X107.085Y-166.306
X113.684Y-166.306
X148.923Y-24.17
X148.927Y-84.573
X160.601Y-123.009
X160.658Y-168.883
M30
